<svg width="1288" height="744" viewBox="0 0 1288 744" fill="none" xmlns="http://www.w3.org/2000/svg">
<g clip-path="url(#clip0_1048:1350)">
<path d="M1219.13 449.844C1173.68 567.524 1088.23 670.624 969.541 715.934C954.104 721.817 938.341 726.809 922.331 730.884C837.651 752.474 745.011 744.964 666.951 705.624C633.821 688.914 603.611 666.834 570.361 650.364C537.111 633.894 499.141 623.114 462.951 631.244C431.791 638.244 405.501 658.304 379.031 676.174C316.631 718.304 241.601 751.644 167.711 737.174C133.711 730.524 100.231 712.104 84.4409 681.314C49.5409 613.244 115.361 532.314 102.031 457.034C93.5009 408.854 54.5409 372.774 30.3209 330.254C-11.1291 257.524 -6.22909 160.914 42.3709 92.7636C90.9709 24.6136 180.691 -11.5364 262.951 3.92354C363.261 22.7836 439.101 107.674 536.641 137.714C597.641 156.484 663.871 150.884 722.131 126.164C816.261 86.2136 945.581 24.9436 1051.51 34.9236C1107.84 40.2336 1163.09 65.2336 1200.27 107.924C1247.27 161.814 1261.36 238.324 1253.52 309.384C1248.14 357.487 1236.58 404.696 1219.13 449.844Z" fill="url(#paint0_linear_1048:1350)"/>
<path d="M1249.37 542.924C1247.28 542.921 1245.2 542.669 1243.17 542.174C1236.75 540.596 1231.18 536.628 1227.59 531.08C1224 525.532 1222.66 518.823 1223.85 512.321C1225.03 505.82 1228.66 500.017 1233.98 496.098C1239.3 492.178 1245.92 490.438 1252.48 491.231C1259.04 492.025 1265.05 495.293 1269.28 500.369C1273.52 505.444 1275.65 511.943 1275.26 518.54C1274.86 525.137 1271.96 531.334 1267.15 535.866C1262.34 540.397 1255.98 542.922 1249.37 542.924ZM1249.37 502.744C1245.93 502.757 1242.62 504.027 1240.05 506.314C1237.48 508.601 1235.84 511.747 1235.43 515.161C1235.03 518.575 1235.88 522.02 1237.84 524.848C1239.79 527.675 1242.71 529.691 1246.05 530.514C1247.98 530.978 1249.99 531.028 1251.95 530.661C1253.9 530.293 1255.75 529.516 1257.38 528.381C1259.01 527.246 1260.39 525.778 1261.41 524.074C1262.43 522.37 1263.09 520.469 1263.32 518.495C1263.56 516.522 1263.37 514.52 1262.78 512.623C1262.19 510.726 1261.2 508.976 1259.88 507.488C1258.56 506 1256.95 504.808 1255.13 503.99C1253.32 503.173 1251.36 502.748 1249.37 502.744Z" fill="#E7F6FF"/>
<path d="M1225.7 570.434C1227.17 564.353 1223.44 558.228 1217.36 556.753C1211.27 555.279 1205.15 559.013 1203.67 565.094C1202.2 571.175 1205.93 577.301 1212.02 578.775C1218.1 580.25 1224.22 576.515 1225.7 570.434Z" fill="#E7F6FF"/>
<path d="M56.1421 540.454C49.2736 540.304 42.7415 537.451 37.9638 532.514C33.1862 527.577 30.5486 520.955 30.6236 514.085C30.6987 507.215 33.4803 500.652 38.3647 495.821C43.2491 490.99 49.8419 488.28 56.7121 488.28C63.5822 488.28 70.1751 490.99 75.0594 495.821C79.9438 500.652 82.7255 507.215 82.8005 514.085C82.8756 520.955 80.238 527.577 75.4603 532.514C70.6827 537.451 64.1506 540.304 57.2821 540.454H56.1421ZM56.1421 500.284H55.5521C51.8425 500.364 48.3143 501.904 45.7335 504.57C43.1527 507.236 41.7277 510.813 41.7679 514.523C41.8081 518.233 43.3101 521.778 45.948 524.387C48.5859 526.997 52.1466 528.46 55.8571 528.46C59.5676 528.46 63.1283 526.997 65.7661 524.387C68.404 521.778 69.9061 518.233 69.9462 514.523C69.9864 510.813 68.5614 507.236 65.9807 504.57C63.3999 501.904 59.8717 500.364 56.1621 500.284H56.1421Z" fill="#E7F6FF"/>
<path d="M37.5392 584.236C43.7908 583.967 48.6401 578.68 48.3704 572.429C48.1007 566.177 42.8142 561.328 36.5626 561.597C30.3111 561.867 25.4618 567.154 25.7314 573.405C26.0011 579.657 31.2876 584.506 37.5392 584.236Z" fill="#E7F6FF"/>
<path d="M710.029 118.644C703.804 118.649 697.782 116.426 693.053 112.376C688.325 108.326 685.203 102.717 684.252 96.5638C683.301 90.4111 684.584 84.1213 687.869 78.8328C691.154 73.5443 696.224 69.6065 702.161 67.7323C708.098 65.8581 714.51 66.1713 720.236 68.6152C725.962 71.059 730.624 75.4721 733.378 81.0556C736.132 86.6391 736.796 93.024 735.25 99.0547C733.704 105.086 730.05 110.364 724.949 113.934C720.576 116.994 715.368 118.638 710.029 118.644ZM709.949 78.4834C706.307 78.4797 702.803 79.8819 700.169 82.3978C697.534 84.9137 695.973 88.3492 695.809 91.9883C695.645 95.6273 696.893 99.1891 699.29 101.932C701.688 104.674 705.052 106.385 708.68 106.708C712.309 107.031 715.922 105.941 718.767 103.666C721.611 101.391 723.468 98.1055 723.95 94.4948C724.432 90.8841 723.503 87.2267 721.354 84.2848C719.206 81.3429 716.005 79.3435 712.419 78.7034C711.604 78.5581 710.778 78.4845 709.949 78.4834Z" fill="#E7F6FF"/>
<path d="M656.834 117.218C661.958 113.625 663.198 106.56 659.606 101.436C656.013 96.313 648.947 95.0722 643.824 98.6648C638.701 102.258 637.46 109.323 641.053 114.447C644.645 119.57 651.711 120.811 656.834 117.218Z" fill="#E7F6FF"/>
<path d="M1286.95 253.044C1286.95 242.048 1282.58 231.502 1274.81 223.727C1267.03 215.952 1256.49 211.584 1245.49 211.584C1244.57 211.584 1243.66 211.584 1242.76 211.674C1242.82 210.774 1242.85 209.864 1242.85 208.944C1242.85 203.051 1241.59 197.227 1239.16 191.858C1236.73 186.49 1233.19 181.701 1228.76 177.811C1224.33 173.92 1219.13 171.018 1213.49 169.298C1207.86 167.578 1201.92 167.079 1196.08 167.834C1190.23 168.589 1184.62 170.581 1179.6 173.678C1174.59 176.774 1170.29 180.904 1167 185.792C1163.71 190.679 1161.5 196.212 1160.51 202.022C1159.53 207.832 1159.79 213.785 1161.29 219.484C1156.28 215.85 1150.52 213.384 1144.43 212.267C1138.34 211.151 1132.08 211.411 1126.11 213.03C1120.13 214.649 1114.6 217.585 1109.9 221.623C1105.21 225.66 1101.48 230.697 1098.99 236.364C1096.5 242.03 1095.31 248.183 1095.51 254.369C1095.71 260.556 1097.29 266.62 1100.13 272.116C1102.98 277.612 1107.02 282.401 1111.96 286.132C1116.9 289.862 1122.61 292.439 1128.68 293.674C1131.16 300.242 1135.26 306.073 1140.61 310.622C1145.95 315.171 1152.36 318.288 1159.24 319.681C1166.12 321.074 1173.24 320.698 1179.94 318.587C1186.63 316.476 1192.68 312.701 1197.52 307.614C1202.47 311.349 1208.19 313.927 1214.27 315.158C1220.35 316.388 1226.62 316.24 1232.63 314.724C1238.65 313.208 1244.24 310.363 1249.01 306.398C1253.78 302.433 1257.59 297.449 1260.18 291.814C1268.05 288.831 1274.82 283.525 1279.6 276.6C1284.39 269.675 1286.95 261.459 1286.95 253.044Z" fill="white"/>
<path d="M192.4 153.384C192.406 147.937 191.337 142.542 189.257 137.508C187.176 132.474 184.124 127.899 180.275 124.045C176.425 120.191 171.854 117.133 166.822 115.046C161.791 112.96 156.397 111.885 150.95 111.884C150.03 111.884 149.12 111.884 148.22 111.974C148.28 111.074 148.31 110.164 148.31 109.244C148.309 103.351 147.052 97.5261 144.622 92.1577C142.193 86.7892 138.647 82.0003 134.221 78.1102C129.795 74.22 124.59 71.3181 118.954 69.5977C113.318 67.8774 107.381 67.3782 101.537 68.1334C95.6927 68.8887 90.0768 70.881 85.0634 73.9775C80.05 77.0741 75.7542 81.2037 72.4625 86.0912C69.1708 90.9787 66.9587 96.5117 65.9737 102.322C64.9888 108.131 65.2536 114.084 66.7505 119.784C61.7396 116.15 55.9787 113.684 49.8905 112.567C43.8023 111.45 37.5413 111.711 31.567 113.33C25.5926 114.949 20.0566 117.885 15.365 121.922C10.6735 125.96 6.94562 130.997 4.45491 136.664C1.96419 142.33 0.773864 148.483 0.971292 154.669C1.16872 160.856 2.74889 166.92 5.59583 172.416C8.44277 177.912 12.4842 182.701 17.4236 186.432C22.3631 190.162 28.0751 192.739 34.1405 193.974C36.6192 200.536 40.7224 206.362 46.0659 210.906C51.4094 215.45 57.8186 218.565 64.6935 219.957C71.5685 221.35 78.6844 220.976 85.3753 218.869C92.0661 216.763 98.1132 212.994 102.95 207.914C107.899 211.649 113.623 214.227 119.7 215.458C125.777 216.688 132.053 216.54 138.065 215.024C144.077 213.508 149.673 210.663 154.44 206.698C159.207 202.733 163.024 197.749 165.61 192.114C173.476 189.136 180.251 183.837 185.036 176.92C189.821 170.003 192.389 161.794 192.4 153.384Z" fill="white"/>
<path d="M955.13 743.314H358.63V730.314H955.13C956.854 730.314 958.507 730.999 959.726 732.217C960.945 733.436 961.63 735.09 961.63 736.814C961.63 738.538 960.945 740.191 959.726 741.41C958.507 742.629 956.854 743.314 955.13 743.314Z" fill="#426572"/>
<path d="M331.951 743.314H295.481C293.757 743.314 292.104 742.629 290.885 741.41C289.666 740.191 288.981 738.538 288.981 736.814C288.981 735.09 289.666 733.436 290.885 732.217C292.104 730.999 293.757 730.314 295.481 730.314H331.951C333.675 730.314 335.328 730.999 336.547 732.217C337.766 733.436 338.451 735.09 338.451 736.814C338.451 738.538 337.766 740.191 336.547 741.41C335.328 742.629 333.675 743.314 331.951 743.314Z" fill="#426572"/>
<path d="M271.812 743.314H260.192C258.468 743.314 256.815 742.629 255.596 741.41C254.377 740.191 253.692 738.538 253.692 736.814C253.692 735.09 254.377 733.436 255.596 732.217C256.815 730.999 258.468 730.314 260.192 730.314H271.812C273.536 730.314 275.189 730.999 276.408 732.217C277.627 733.436 278.312 735.09 278.312 736.814C278.312 738.538 277.627 740.191 276.408 741.41C275.189 742.629 273.536 743.314 271.812 743.314Z" fill="#426572"/>
<path d="M1164.29 743.314H980.95V730.314H1164.29C1166.01 730.314 1167.67 730.999 1168.89 732.217C1170.11 733.436 1170.79 735.09 1170.79 736.814C1170.79 738.538 1170.11 740.191 1168.89 741.41C1167.67 742.629 1166.01 743.314 1164.29 743.314Z" fill="#426572"/>
<path d="M226.948 743.314H43.5986V730.314H226.948C228.672 730.314 230.326 730.999 231.545 732.217C232.764 733.436 233.448 735.09 233.448 736.814C233.448 738.538 232.764 740.191 231.545 741.41C230.326 742.629 228.672 743.314 226.948 743.314Z" fill="#426572"/>
<path d="M706.192 541.874H550.192C543.565 541.874 538.192 547.246 538.192 553.874V703.874C538.192 710.501 543.565 715.874 550.192 715.874H706.192C712.82 715.874 718.192 710.501 718.192 703.874V553.874C718.192 547.246 712.82 541.874 706.192 541.874Z" fill="#E8EDF7"/>
<path d="M718.192 613.874H538.192V668.874H718.192V613.874Z" fill="#C1CEDE"/>
<path d="M703.7 723.874H547.7C542.926 723.874 538.348 721.977 534.972 718.602C531.596 715.226 529.7 710.648 529.7 705.874V555.874C529.7 551.1 531.596 546.521 534.972 543.146C538.348 539.77 542.926 537.874 547.7 537.874H703.7C708.474 537.874 713.052 539.77 716.428 543.146C719.804 546.521 721.7 551.1 721.7 555.874V705.874C721.7 710.648 719.804 715.226 716.428 718.602C713.052 721.977 708.474 723.874 703.7 723.874ZM547.7 549.874C546.109 549.874 544.583 550.506 543.457 551.631C542.332 552.756 541.7 554.282 541.7 555.874V705.874C541.7 707.465 542.332 708.991 543.457 710.116C544.583 711.242 546.109 711.874 547.7 711.874H703.7C705.291 711.874 706.817 711.242 707.943 710.116C709.068 708.991 709.7 707.465 709.7 705.874V555.874C709.7 554.282 709.068 552.756 707.943 551.631C706.817 550.506 705.291 549.874 703.7 549.874H547.7Z" fill="#426572"/>
<path d="M1083.69 128.854V590.854C1083.69 601.879 1080.04 612.595 1073.32 621.334C1066.6 630.073 1057.18 636.345 1046.52 639.174C1042.35 640.274 1038.05 640.829 1033.73 640.824H223.661C210.4 640.824 197.682 635.556 188.306 626.179C178.929 616.802 173.661 604.085 173.661 590.824V128.824C173.647 119.588 176.202 110.53 181.041 102.664C181.671 101.664 182.341 100.664 183.041 99.6636C188.548 91.9936 196.113 86.0378 204.861 82.4836C210.815 80.0626 217.183 78.8229 223.611 78.8336H1033.66C1040.23 78.8296 1046.74 80.1207 1052.81 82.6329C1058.88 85.1451 1064.4 88.8293 1069.04 93.4747C1073.69 98.1201 1077.37 103.636 1079.89 109.707C1082.4 115.777 1083.69 122.283 1083.69 128.854Z" fill="#E8EDF7"/>
<path d="M1027.72 648.874H217.72C202.867 648.874 188.624 642.974 178.122 632.472C167.62 621.97 161.72 607.726 161.72 592.874V130.874C161.704 116.728 167.066 103.105 176.72 92.7636C177.36 92.0636 178.08 91.3336 178.96 90.4836C189.37 80.4585 203.267 74.8688 217.72 74.8936H1027.72C1042.57 74.8936 1056.82 80.7936 1067.32 91.2957C1077.82 101.798 1083.72 116.042 1083.72 130.894V592.894C1083.73 600.25 1082.28 607.536 1079.47 614.333C1076.66 621.131 1072.54 627.308 1067.34 632.509C1062.13 637.711 1055.96 641.836 1049.16 644.647C1042.36 647.459 1035.08 648.902 1027.72 648.894V648.874ZM217.72 86.8736C206.363 86.8523 195.443 91.2489 187.27 99.1336C186.58 99.7936 186.03 100.354 185.54 100.884C177.938 109.022 173.719 119.748 173.74 130.884V592.884C173.74 604.553 178.375 615.745 186.627 623.996C194.878 632.248 206.07 636.884 217.74 636.884H1027.74C1033.52 636.892 1039.25 635.759 1044.59 633.551C1049.93 631.342 1054.78 628.101 1058.87 624.014C1062.96 619.927 1066.2 615.073 1068.41 609.731C1070.61 604.389 1071.75 598.664 1071.74 592.884V130.884C1071.74 119.214 1067.1 108.023 1058.85 99.7709C1050.6 91.5193 1039.41 86.8836 1027.74 86.8836L217.72 86.8736Z" fill="#426572"/>
<path d="M1018.34 110.874H229.082C212.585 110.874 199.212 124.247 199.212 140.744V585.004C199.212 601.5 212.585 614.874 229.082 614.874H1018.34C1034.84 614.874 1048.21 601.5 1048.21 585.004V140.744C1048.21 124.247 1034.84 110.874 1018.34 110.874Z" fill="#C1CEDE"/>
<path d="M233.571 126.874H1013.83C1018.3 126.874 1022.58 128.648 1025.74 131.806C1028.9 134.964 1030.67 139.248 1030.67 143.714V533.874H216.731V143.714C216.731 139.248 218.505 134.964 221.664 131.806C224.822 128.648 229.105 126.874 233.571 126.874Z" fill="#F1F6FE"/>
<path d="M1046.21 531.874V583.004C1046.21 590.925 1043.06 598.521 1037.46 604.122C1031.86 609.723 1024.26 612.871 1016.34 612.874H227.082C219.16 612.874 211.562 609.727 205.96 604.125C200.359 598.523 197.212 590.926 197.212 583.004V531.874H214.742V533.874H1028.68V531.874H1046.21Z" fill="#E8EDF7"/>
<path d="M1046.68 529.874H199.681V547.874H1046.68V529.874Z" fill="#C1CEDE"/>
<path d="M1045.71 525.874H201.712V537.874H1045.71V525.874Z" fill="#426572"/>
<path d="M924.681 161.874H312.681C306.054 161.874 300.681 167.246 300.681 173.874V481.874C300.681 488.501 306.054 493.874 312.681 493.874H924.681C931.309 493.874 936.681 488.501 936.681 481.874V173.874C936.681 167.246 931.309 161.874 924.681 161.874Z" fill="white"/>
<path d="M310.681 219.874H938.681V177.694L926.681 161.874H376.681H322.681L302.681 177.694V219.874H310.681Z" fill="#E2F2FF"/>
<path d="M926.681 499.874H314.681C309.908 499.874 305.329 497.977 301.954 494.602C298.578 491.226 296.681 486.648 296.681 481.874V173.874C296.681 169.1 298.578 164.521 301.954 161.146C305.329 157.77 309.908 155.874 314.681 155.874H926.681C931.455 155.874 936.034 157.77 939.409 161.146C942.785 164.521 944.681 169.1 944.681 173.874V481.874C944.681 486.648 942.785 491.226 939.409 494.602C936.034 497.977 931.455 499.874 926.681 499.874ZM314.681 167.874C313.09 167.874 311.564 168.506 310.439 169.631C309.314 170.756 308.681 172.282 308.681 173.874V481.874C308.681 483.465 309.314 484.991 310.439 486.116C311.564 487.242 313.09 487.874 314.681 487.874H926.681C928.273 487.874 929.799 487.242 930.924 486.116C932.049 484.991 932.681 483.465 932.681 481.874V173.874C932.681 172.282 932.049 170.756 930.924 169.631C929.799 168.506 928.273 167.874 926.681 167.874H314.681Z" fill="#426572"/>
<path d="M770.872 694.874H479.192C472.565 694.874 467.192 700.246 467.192 706.874V719.874C467.192 726.501 472.565 731.874 479.192 731.874H770.872C777.5 731.874 782.872 726.501 782.872 719.874V706.874C782.872 700.246 777.5 694.874 770.872 694.874Z" fill="#E8EDF7"/>
<path d="M772.189 738.874H480.509C475.735 738.874 471.156 736.977 467.781 733.602C464.405 730.226 462.509 725.648 462.509 720.874V707.874C462.509 703.1 464.405 698.521 467.781 695.146C471.156 691.77 475.735 689.874 480.509 689.874H772.189C776.962 689.874 781.541 691.77 784.916 695.146C788.292 698.521 790.189 703.1 790.189 707.874V720.874C790.189 725.648 788.292 730.226 784.916 733.602C781.541 736.977 776.962 738.874 772.189 738.874ZM480.509 701.874C478.917 701.874 477.391 702.506 476.266 703.631C475.141 704.756 474.509 706.282 474.509 707.874V720.874C474.509 722.465 475.141 723.991 476.266 725.116C477.391 726.242 478.917 726.874 480.509 726.874H772.189C773.78 726.874 775.306 726.242 776.431 725.116C777.556 723.991 778.189 722.465 778.189 720.874V707.874C778.189 706.282 777.556 704.756 776.431 703.631C775.306 702.506 773.78 701.874 772.189 701.874H480.509Z" fill="#426572"/>
<path d="M339.192 201.124C343.61 201.124 347.192 197.542 347.192 193.124C347.192 188.705 343.61 185.124 339.192 185.124C334.774 185.124 331.192 188.705 331.192 193.124C331.192 197.542 334.774 201.124 339.192 201.124Z" fill="#CADCE8"/>
<path d="M363.192 201.124C367.61 201.124 371.192 197.542 371.192 193.124C371.192 188.705 367.61 185.124 363.192 185.124C358.774 185.124 355.192 188.705 355.192 193.124C355.192 197.542 358.774 201.124 363.192 201.124Z" fill="#CADCE8"/>
<path d="M387.192 201.124C391.61 201.124 395.192 197.542 395.192 193.124C395.192 188.705 391.61 185.124 387.192 185.124C382.774 185.124 379.192 188.705 379.192 193.124C379.192 197.542 382.774 201.124 387.192 201.124Z" fill="#CADCE8"/>
<path d="M907.692 185.124H420.692C417.102 185.124 414.192 188.034 414.192 191.624V194.624C414.192 198.214 417.102 201.124 420.692 201.124H907.692C911.282 201.124 914.192 198.214 914.192 194.624V191.624C914.192 188.034 911.282 185.124 907.692 185.124Z" fill="#CADCE8"/>
<path d="M896.192 245.874H350.192C343.565 245.874 338.192 251.246 338.192 257.874V347.874C338.192 354.501 343.565 359.874 350.192 359.874H896.192C902.82 359.874 908.192 354.501 908.192 347.874V257.874C908.192 251.246 902.82 245.874 896.192 245.874Z" fill="#87D6FE"/>
<path d="M895.192 367.874H349.192C344.418 367.874 339.84 365.977 336.464 362.602C333.089 359.226 331.192 354.648 331.192 349.874V259.874C331.192 255.1 333.089 250.521 336.464 247.146C339.84 243.77 344.418 241.874 349.192 241.874H895.192C899.966 241.874 904.544 243.77 907.92 247.146C911.296 250.521 913.192 255.1 913.192 259.874V349.874C913.192 354.648 911.296 359.226 907.92 362.602C904.544 365.977 899.966 367.874 895.192 367.874ZM349.192 253.874C347.601 253.874 346.075 254.506 344.95 255.631C343.824 256.756 343.192 258.282 343.192 259.874V349.874C343.192 351.465 343.824 352.991 344.95 354.116C346.075 355.242 347.601 355.874 349.192 355.874H895.192C896.783 355.874 898.31 355.242 899.435 354.116C900.56 352.991 901.192 351.465 901.192 349.874V259.874C901.192 258.282 900.56 256.756 899.435 255.631C898.31 254.506 896.783 253.874 895.192 253.874H349.192Z" fill="#426572"/>
<path d="M501.151 394.874H354.341C347.713 394.874 342.341 400.246 342.341 406.874V445.874C342.341 452.501 347.713 457.874 354.341 457.874H501.151C507.778 457.874 513.151 452.501 513.151 445.874V406.874C513.151 400.246 507.778 394.874 501.151 394.874Z" fill="#A8EF9E"/>
<path d="M499.012 464.874H352.192C347.418 464.874 342.84 462.977 339.464 459.602C336.089 456.226 334.192 451.648 334.192 446.874V407.874C334.192 403.1 336.089 398.521 339.464 395.146C342.84 391.77 347.418 389.874 352.192 389.874H499.012C503.786 389.874 508.364 391.77 511.74 395.146C515.116 398.521 517.012 403.1 517.012 407.874V446.874C517.012 451.648 515.116 456.226 511.74 459.602C508.364 462.977 503.786 464.874 499.012 464.874ZM352.202 401.874C350.611 401.874 349.085 402.506 347.96 403.631C346.834 404.756 346.202 406.282 346.202 407.874V446.874C346.202 448.465 346.834 449.991 347.96 451.116C349.085 452.242 350.611 452.874 352.202 452.874H499.012C500.603 452.874 502.13 452.242 503.255 451.116C504.38 449.991 505.012 448.465 505.012 446.874V407.874C505.012 406.282 504.38 404.756 503.255 403.631C502.13 402.506 500.603 401.874 499.012 401.874H352.202Z" fill="#426572"/>
<path d="M696.67 394.874H549.86C543.233 394.874 537.86 400.246 537.86 406.874V445.874C537.86 452.501 543.233 457.874 549.86 457.874H696.67C703.298 457.874 708.67 452.501 708.67 445.874V406.874C708.67 400.246 703.298 394.874 696.67 394.874Z" fill="#A8EF9E"/>
<path d="M694.532 464.874H547.712C542.938 464.874 538.359 462.977 534.984 459.602C531.608 456.226 529.712 451.648 529.712 446.874V407.874C529.712 403.1 531.608 398.521 534.984 395.146C538.359 391.77 542.938 389.874 547.712 389.874H694.532C699.306 389.874 703.884 391.77 707.26 395.146C710.635 398.521 712.532 403.1 712.532 407.874V446.874C712.532 451.648 710.635 456.226 707.26 459.602C703.884 462.977 699.306 464.874 694.532 464.874ZM547.722 401.874C546.13 401.874 544.604 402.506 543.479 403.631C542.354 404.756 541.722 406.282 541.722 407.874V446.874C541.722 448.465 542.354 449.991 543.479 451.116C544.604 452.242 546.13 452.874 547.722 452.874H694.532C696.123 452.874 697.649 452.242 698.774 451.116C699.9 449.991 700.532 448.465 700.532 446.874V407.874C700.532 406.282 699.9 404.756 698.774 403.631C697.649 402.506 696.123 401.874 694.532 401.874H547.722Z" fill="#426572"/>
<path d="M892.19 394.874H745.38C738.752 394.874 733.38 400.246 733.38 406.874V445.874C733.38 452.501 738.752 457.874 745.38 457.874H892.19C898.817 457.874 904.19 452.501 904.19 445.874V406.874C904.19 400.246 898.817 394.874 892.19 394.874Z" fill="#A8EF9E"/>
<path d="M890.051 464.874H743.231C738.457 464.874 733.879 462.977 730.503 459.602C727.128 456.226 725.231 451.648 725.231 446.874V407.874C725.231 403.1 727.128 398.521 730.503 395.146C733.879 391.77 738.457 389.874 743.231 389.874H890.051C894.825 389.874 899.404 391.77 902.779 395.146C906.155 398.521 908.051 403.1 908.051 407.874V446.874C908.051 451.648 906.155 456.226 902.779 459.602C899.404 462.977 894.825 464.874 890.051 464.874ZM743.241 401.874C741.65 401.874 740.124 402.506 738.999 403.631C737.873 404.756 737.241 406.282 737.241 407.874V446.874C737.241 448.465 737.873 449.991 738.999 451.116C740.124 452.242 741.65 452.874 743.241 452.874H890.051C891.642 452.874 893.169 452.242 894.294 451.116C895.419 449.991 896.051 448.465 896.051 446.874V407.874C896.051 406.282 895.419 404.756 894.294 403.631C893.169 402.506 891.642 401.874 890.051 401.874H743.241Z" fill="#426572"/>
<path d="M1018.33 618.874H229.082C219.572 618.863 210.454 615.081 203.729 608.356C197.005 601.631 193.222 592.514 193.212 583.004V138.744C193.222 129.234 197.005 120.116 203.729 113.392C210.454 106.667 219.572 102.884 229.082 102.874H1018.33C1027.84 102.884 1036.96 106.667 1043.68 113.392C1050.41 120.116 1054.19 129.234 1054.2 138.744V582.994C1054.19 592.506 1050.41 601.626 1043.69 608.352C1036.96 615.079 1027.84 618.863 1018.33 618.874ZM229.082 114.874C222.753 114.882 216.687 117.399 212.212 121.874C207.737 126.349 205.22 132.415 205.212 138.744V582.994C205.22 589.322 207.737 595.389 212.212 599.864C216.687 604.338 222.753 606.856 229.082 606.864H1018.33C1024.66 606.856 1030.73 604.338 1035.2 599.864C1039.68 595.389 1042.19 589.322 1042.2 582.994V138.744C1042.19 132.415 1039.68 126.349 1035.2 121.874C1030.73 117.399 1024.66 114.882 1018.33 114.874H229.082Z" fill="#426572"/>
<path opacity="0.1" d="M112.071 192.774C113.637 193.502 115.344 193.877 117.071 193.874H112.071V192.774Z" fill="#606060"/>
<path opacity="0.2" d="M397.191 78.8735V201.124C397.191 204.306 395.927 207.359 393.676 209.609C391.426 211.859 388.374 213.124 385.191 213.124H167.701V191.124H112.071V51.8735C112.071 48.6909 113.335 45.6387 115.586 43.3883C117.836 41.1378 120.888 39.8735 124.071 39.8735H369.191V78.8735H397.191Z" fill="#606060"/>
<path d="M96.0713 188.864H357.071C363.699 188.864 369.071 183.491 369.071 176.864V29.8638C369.071 23.2364 363.699 17.8638 357.071 17.8638H96.0713C89.4439 17.8638 84.0713 23.2364 84.0713 29.8638V176.864C84.0713 183.491 89.4439 188.864 96.0713 188.864Z" fill="white"/>
<path d="M367.071 174.374H182.071V185.374H367.071V174.374Z" fill="#DEE6F1"/>
<path d="M86.1924 178.124V31.1235C86.1924 27.9409 87.4567 24.8887 89.7071 22.6383C91.9575 20.3878 95.0098 19.1235 98.1924 19.1235H183.072V190.124H98.1924C95.0098 190.124 91.9575 188.859 89.7071 186.609C87.4567 184.359 86.1924 181.306 86.1924 178.124Z" fill="#E8837E"/>
<path d="M112.071 192.774C113.637 193.502 115.344 193.877 117.071 193.874H100.071C98.4329 193.872 96.8122 193.535 95.3091 192.883C93.806 192.231 92.4522 191.279 91.3313 190.084C90.3728 189.057 89.5982 187.873 89.0413 186.584C88.8588 186.156 88.6986 185.718 88.5613 185.274C88.2349 184.17 88.0699 183.025 88.0713 181.874V34.8735C88.0713 31.6909 89.3356 28.6387 91.586 26.3883C93.8365 24.1378 96.8887 22.8735 100.071 22.8735H117.071C113.889 22.8735 110.836 24.1378 108.586 26.3883C106.335 28.6387 105.071 31.6909 105.071 34.8735V181.874C105.068 184.389 105.863 186.839 107.341 188.874C107.644 189.314 107.978 189.731 108.341 190.124C108.681 190.475 109.038 190.809 109.411 191.124C110.22 191.79 111.115 192.345 112.071 192.774Z" fill="#D66765"/>
<path d="M357.192 197.124H96.1924C93.6685 197.127 91.1729 196.592 88.8724 195.554C85.6953 194.14 82.9959 191.835 81.1006 188.919C79.2053 186.004 78.1952 182.601 78.1924 179.124V32.1235C78.2018 28.5268 79.2815 25.0143 81.2938 22.0332C83.3061 19.0521 86.1601 16.7373 89.4924 15.3835L90.4924 14.8835H90.8724C92.5882 14.3494 94.3754 14.0796 96.1724 14.0835H357.172C361.506 14.1012 365.689 15.6749 368.96 18.518C372.231 21.3611 374.371 25.2845 374.992 29.5735C375.113 30.4047 375.173 31.2436 375.172 32.0836V179.084C375.177 182.826 374.005 186.474 371.822 189.514C370.166 191.856 367.975 193.769 365.43 195.093C362.885 196.416 360.061 197.113 357.192 197.124ZM93.1924 26.9236C92.2797 27.4505 91.5219 28.2085 90.9953 29.1214C90.4686 30.0342 90.1917 31.0697 90.1924 32.1235V179.124C90.1944 180.286 90.5338 181.422 91.1693 182.395C91.8048 183.368 92.7091 184.135 93.7724 184.604C94.5325 184.948 95.3578 185.126 96.1924 185.124H357.192C358.149 185.12 359.092 184.888 359.94 184.446C360.789 184.004 361.52 183.366 362.072 182.584C362.799 181.577 363.191 180.366 363.192 179.124V32.1235C363.192 31.8591 363.171 31.5951 363.132 31.3336C362.941 29.8931 362.233 28.571 361.141 27.6128C360.048 26.6546 358.645 26.1254 357.192 26.1235H96.1924C95.5355 26.1194 94.8828 26.2276 94.2624 26.4435L93.1924 26.9236Z" fill="#426572"/>
<path d="M187.071 21.8735H175.071V189.874H187.071V21.8735Z" fill="#426572"/>
<path d="M227.068 138.276C227.068 138.161 227.125 137.872 227.241 137.411L243.924 83.0404C244.269 81.8303 245.105 80.9083 246.43 80.2744C247.813 79.5828 249.369 79.2371 251.098 79.2371C252.827 79.2371 254.383 79.5828 255.766 80.2744C257.149 80.9083 258.013 81.8303 258.359 83.0404L275.042 137.411C275.157 137.872 275.215 138.161 275.215 138.276C275.215 139.544 274.437 140.639 272.881 141.561C271.325 142.483 269.74 142.944 268.127 142.944C265.995 142.944 264.727 142.194 264.323 140.696L261.039 129.2H241.244L237.959 140.696C237.556 142.194 236.288 142.944 234.156 142.944C232.485 142.944 230.871 142.511 229.315 141.647C227.817 140.725 227.068 139.601 227.068 138.276ZM243.578 120.383H258.618L251.098 93.8454L243.578 120.383ZM281.196 139.486V83.2133C281.196 82.2913 281.657 81.4845 282.579 80.793C283.501 80.1015 284.683 79.7557 286.123 79.7557H301.423C307.589 79.7557 312.516 81.3405 316.204 84.5099C319.892 87.6794 321.736 92.6929 321.736 99.5505V123.149C321.736 130.006 319.892 135.02 316.204 138.189C312.516 141.359 307.589 142.944 301.423 142.944H286.123C284.683 142.944 283.501 142.598 282.579 141.906C281.657 141.215 281.196 140.408 281.196 139.486ZM292.433 133.089H301.423C307.474 133.089 310.499 129.776 310.499 123.149V99.5505C310.499 92.9234 307.474 89.6099 301.423 89.6099H292.433V133.089Z" fill="#426572"/>
<path d="M987.071 426.674V674.544C987.071 681.171 992.444 686.544 999.071 686.544H1138.19C1144.82 686.544 1150.19 681.171 1150.19 674.544V426.674C1150.19 420.046 1144.82 414.674 1138.19 414.674H999.071C992.444 414.674 987.071 420.046 987.071 426.674Z" fill="white"/>
<path d="M1150.19 431.304V676.584C1150.18 680.097 1148.78 683.463 1146.3 685.952C1143.82 688.441 1140.46 689.85 1136.95 689.874H1000.37C996.847 689.863 993.473 688.46 990.983 685.97C988.493 683.48 987.089 680.105 987.079 676.584V667.724H1112.54C1116.07 667.713 1119.45 666.303 1121.94 663.802C1124.43 661.301 1125.83 657.914 1125.83 654.384V418.014H1136.95C1140.46 418.038 1143.82 419.447 1146.3 421.936C1148.78 424.424 1150.18 427.791 1150.19 431.304Z" fill="#DEE6F1"/>
<path d="M1136.6 692.674H996.381C992.749 692.665 989.212 691.514 986.271 689.384C984.006 687.771 982.159 685.641 980.882 683.172C979.606 680.702 978.937 677.964 978.93 675.184V426.184C978.926 423.736 979.444 421.315 980.451 419.084C981.823 416.005 984.058 413.389 986.885 411.552C989.711 409.716 993.009 408.737 996.381 408.734H1136.61C1140.1 408.753 1143.5 409.81 1146.38 411.769C1149.26 413.728 1151.5 416.5 1152.8 419.734L1153.29 420.734V421.084C1153.8 422.735 1154.06 424.455 1154.06 426.184V675.184C1154.04 679.381 1152.52 683.433 1149.77 686.602C1147.01 689.772 1143.21 691.848 1139.06 692.454C1138.25 692.587 1137.42 692.66 1136.6 692.674ZM996.381 420.804C995.322 420.802 994.285 421.109 993.398 421.686C992.51 422.263 991.809 423.085 991.381 424.054C991.068 424.745 990.908 425.495 990.911 426.254V675.254C990.916 676.122 991.129 676.977 991.53 677.748C991.932 678.518 992.511 679.182 993.221 679.684C994.137 680.338 995.235 680.688 996.36 680.684H1136.59C1136.83 680.701 1137.07 680.701 1137.31 680.684C1138.62 680.503 1139.81 679.858 1140.68 678.866C1141.55 677.874 1142.03 676.602 1142.04 675.284V426.284C1142.04 425.684 1141.94 425.089 1141.74 424.524L1141.27 423.524C1140.79 422.711 1140.1 422.038 1139.28 421.568C1138.46 421.098 1137.54 420.849 1136.59 420.844L996.381 420.804Z" fill="#426572"/>
<path d="M1117.4 503.454H1017.72V515.454H1117.4V503.454Z" fill="#426572"/>
<path d="M1117.4 470.224H1017.72V482.224H1117.4V470.224Z" fill="#426572"/>
<path d="M1117.4 541.113H1017.72V553.113H1117.4V541.113Z" fill="#426572"/>
<path d="M814.86 565.874H969.19C973.05 565.874 973.06 559.874 969.19 559.874H814.86C811 559.874 810.99 565.874 814.86 565.874Z" fill="white"/>
<path d="M755.189 565.874H795.359C799.219 565.874 799.229 559.874 795.359 559.874H755.189C751.329 559.874 751.319 565.874 755.189 565.874Z" fill="white"/>
</g>
<defs>
<linearGradient id="paint0_linear_1048:1350" x1="2.27091" y1="371.574" x2="1255.55" y2="371.574" gradientUnits="userSpaceOnUse">
<stop stop-color="#C5E9FA"/>
<stop offset="1" stop-color="#C4F4EA"/>
</linearGradient>
<clipPath id="clip0_1048:1350">
<rect width="1287" height="743" fill="white" transform="translate(0.950195 0.383789)"/>
</clipPath>
</defs>
</svg>
