<svg width="1000" height="1000" viewBox="0 0 1000 1000" fill="none" xmlns="http://www.w3.org/2000/svg">
<g clip-path="url(#clip0_950:2)">
<path d="M689.3 380.4C672.3 390.9 712.1 505.2 730.5 502.6C742 501 754.9 452.3 732.7 414.9C721.1 395.2 697.7 375.2 689.3 380.4Z" fill="#65BDFF"/>
<path d="M401.8 286.7C372.8 299 340.3 313.1 326.9 344.7C305.3 395.5 355 435.4 331.4 485.6C317.7 514.6 298.6 506.5 271.5 540.4C239.3 580.8 220.5 649.8 248.6 704C270 745.4 310.2 761.7 344.4 775.6C356.2 780.4 434.3 811 508.6 785.4C526.4 779.3 533.6 770.5 548.8 772C585.6 775.8 591.1 824.9 624.7 832.9C652.9 839.6 685.7 813.7 706.4 787.7C710.5 782.5 714.2 777.3 717.3 772.3C735.3 737.6 749.8 697.5 753.6 657.3C754.5 647.2 754.8 637.2 754.3 627.2C752.4 601.6 747.2 576.7 731.5 554C703.3 510.5 660.4 476.4 660.2 422.2C659 414 658.2 405.5 657.4 396.9C653.3 353.7 649.8 307.4 607.1 279.8C550.6 243.6 484.7 258.1 427.8 277.3C418.4 280.2 409.8 283.3 401.8 286.7Z" fill="#65BDFF"/>
<path d="M172.9 457.8L168.2 458.4C163.9 459 160 456 159.4 451.7L153.1 405.1C152.5 400.8 155.5 396.9 159.8 396.3L164.5 395.7C168.8 395.1 172.7 398.1 173.3 402.4L179.6 449C180.2 453.3 177.2 457.2 172.9 457.8Z" fill="white"/>
<path d="M151.4 450.7C147.1 451.3 143.2 448.3 142.6 444L139 417C138.4 412.7 141.4 408.8 145.7 408.2C150 407.6 153.9 410.6 154.5 414.9L158.1 441.8C158.7 446.1 155.7 450.1 151.4 450.7Z" fill="white"/>
<path d="M246.4 447.9L251.1 447.3C255.4 446.7 258.4 442.8 257.8 438.5L251.5 391.9C250.9 387.6 247 384.6 242.7 385.2L238 385.8C233.7 386.4 230.7 390.3 231.3 394.6L237.6 441.2C238.2 445.5 242.1 448.5 246.4 447.9Z" fill="white"/>
<path d="M265.3 435.3C269.6 434.7 272.6 430.8 272 426.5L268.4 399.6C267.8 395.3 263.9 392.3 259.6 392.9C255.3 393.5 252.3 397.4 252.9 401.7L256.5 428.6C257 432.9 261 435.9 265.3 435.3Z" fill="white"/>
<path d="M177.609 433.667L235.588 425.869L233.429 409.813L175.449 417.611L177.609 433.667Z" fill="white"/>
<path d="M172.9 457.8L168.2 458.4C163.9 459 160 456 159.4 451.7L153.1 405.1C152.5 400.8 155.5 396.9 159.8 396.3L164.5 395.7C168.8 395.1 172.7 398.1 173.3 402.4L179.6 449C180.2 453.3 177.2 457.2 172.9 457.8Z" stroke="#4E5A7D" stroke-width="3" stroke-miterlimit="10" stroke-linecap="round" stroke-linejoin="round"/>
<path d="M151.4 450.7C147.1 451.3 143.2 448.3 142.6 444L139 417C138.4 412.7 141.4 408.8 145.7 408.2C150 407.6 153.9 410.6 154.5 414.9L158.1 441.8C158.7 446.1 155.7 450.1 151.4 450.7Z" stroke="#4E5A7D" stroke-width="3" stroke-miterlimit="10" stroke-linecap="round" stroke-linejoin="round"/>
<path d="M246.4 447.9L251.1 447.3C255.4 446.7 258.4 442.8 257.8 438.5L251.5 391.9C250.9 387.6 247 384.6 242.7 385.2L238 385.8C233.7 386.4 230.7 390.3 231.3 394.6L237.6 441.2C238.2 445.5 242.1 448.5 246.4 447.9Z" stroke="#4E5A7D" stroke-width="3" stroke-miterlimit="10" stroke-linecap="round" stroke-linejoin="round"/>
<path d="M265.3 435.3C269.6 434.7 272.6 430.8 272 426.5L268.4 399.6C267.8 395.3 263.9 392.3 259.6 392.9C255.3 393.5 252.3 397.4 252.9 401.7L256.5 428.6C257 432.9 261 435.9 265.3 435.3Z" stroke="#4E5A7D" stroke-width="3" stroke-miterlimit="10" stroke-linecap="round" stroke-linejoin="round"/>
<path d="M177.609 433.667L235.588 425.869L233.429 409.813L175.449 417.611L177.609 433.667Z" stroke="#4E5A7D" stroke-width="3" stroke-miterlimit="10" stroke-linecap="round" stroke-linejoin="round"/>
<path d="M624.3 743.2H407.7L415.8 708.5C420 690.5 442.2 677.4 468.2 677.4H563.8C589.8 677.4 612 690.6 616.2 708.5L624.3 743.2Z" fill="#E08484"/>
<path d="M624.3 743.2H407.7L415.8 708.5C420 690.5 442.2 677.4 468.2 677.4H563.8C589.8 677.4 612 690.6 616.2 708.5L624.3 743.2Z" stroke="#4E5A7D" stroke-width="6" stroke-miterlimit="10" stroke-linecap="round" stroke-linejoin="round"/>
<path d="M594 716.8H566.8C556.4 716.8 548 708.4 548 698V654.9H484V698C484 708.4 475.6 716.8 465.2 716.8H438C398.2 716.8 366 749 366 788.8V847.5H666V788.8C666 749 633.7 716.8 594 716.8Z" fill="#FBE3D5"/>
<path d="M514.8 674.7C533.136 674.7 548 665.97 548 655.2C548 644.431 533.136 635.7 514.8 635.7C496.464 635.7 481.6 644.431 481.6 655.2C481.6 665.97 496.464 674.7 514.8 674.7Z" fill="#D5B6A5"/>
<path d="M666 788.8V847.5H366V788.8C366 749 398.2 716.8 438 716.8H465.2C465.9 716.8 466.6 716.8 467.3 716.7C474.7 736.8 494.1 751.2 516.8 751.2C539.5 751.2 558.8 736.9 566.2 716.8C566.4 716.8 566.6 716.8 566.9 716.8H594C633.7 716.8 666 749 666 788.8Z" fill="#E08484"/>
<path d="M488 792.4C459.9 792.4 437 769.5 437 741.4V716.6H596.9V741.4C596.9 769.5 574 792.4 545.9 792.4H488Z" fill="#D87171"/>
<path d="M594 716.8H566.8C556.4 716.8 548 708.4 548 698V654.9H484V698C484 708.4 475.6 716.8 465.2 716.8H438C398.2 716.8 366 749 366 788.8V847.5H666V788.8C666 749 633.7 716.8 594 716.8Z" stroke="#4E5A7D" stroke-width="6" stroke-miterlimit="10" stroke-linecap="round" stroke-linejoin="round"/>
<path d="M585.5 414.2C584.4 399 588.4 387.5 595.5 385C602.5 382.5 610.7 389.4 613.5 391.8C640 414 623.7 488.3 619.2 507.4L585.5 414.2Z" fill="#BCAFAA"/>
<path d="M583.5 414.2C582.4 399 586.4 387.5 593.5 385C594.9 384.5 596.3 384.4 597.7 384.5" stroke="#4E5A7D" stroke-width="6" stroke-miterlimit="10" stroke-linecap="round" stroke-linejoin="round"/>
<path d="M599.7 384.5C605.5 385 611.2 389.8 613.5 391.8C640 414 623.7 488.3 619.2 507.4L585.5 414.3" stroke="#4E5A7D" stroke-width="6" stroke-miterlimit="10" stroke-linecap="round" stroke-linejoin="round"/>
<path d="M411.5 514.2V480.5C411.5 442.2 445.4 452.1 483.6 452.1L554.3 454.8C576.5 454.8 589.9 421.7 602.5 437.9C602.1 426.1 599.9 411.1 593 395.4C589.2 386.6 573.3 353.3 536.7 338C524.3 332.8 514 331.6 507.7 330.9C483.6 328.2 473.7 323.9 432.3 335.4C406.1 342.6 387.3 355.7 387 361.4C386.7 366.6 399.4 365.3 409.8 373.1C426.7 385.7 403.1 414.1 399.8 450.1C398.4 465.5 399.7 487.1 411.5 514.2Z" fill="#BCAFAA"/>
<path d="M597.7 408.2C596.4 403 593.8 397.3 593 395.4C589.2 386.6 573.3 353.3 536.7 338C524.3 332.8 514 331.6 507.7 330.9C483.6 328.2 467.3 325.6 425.9 337.1C399.7 344.3 384.9 350.4 387 361.4C388.3 368.3 403.8 366.4 412.8 379.4C424.8 396.8 403.1 414.1 399.8 450.2C398.4 465.6 399.7 487.2 411.5 514.3V480.6C411.5 442.3 445.4 452.2 483.6 452.2L554.3 454.9C576.5 454.9 589.9 421.8 602.5 438" stroke="#4E5A7D" stroke-width="6" stroke-miterlimit="10" stroke-linecap="round" stroke-linejoin="round"/>
<path d="M599 433.6C594 428.2 586.5 425.9 579.3 427.4C561.4 431.2 539.6 433.4 516 433.4C491.4 433.4 468.7 431 450.3 426.9C443.1 425.3 435.5 427.5 430.5 432.9C418.8 445.3 411.6 462 411.6 480.4V565.8C411.6 620.6 456.1 665.1 510.9 665.1H518.1C572.9 665.1 617.4 620.6 617.4 565.8V480.4C617.3 462.4 610.3 446 599 433.6Z" fill="#FBE3D5"/>
<path d="M518 652.9H510.8C456 652.9 411.5 608.4 411.5 553.6V563.9C411.5 618.7 456 663.2 510.8 663.2H518C572.8 663.2 617.3 618.7 617.3 563.9V553.6C617.3 608.4 572.8 652.9 518 652.9Z" fill="#D5B6A5"/>
<path d="M521.4 571C521.4 571 531.5 567.9 536.2 569.4C539.6 554.7 529.2 541.3 529.2 541.3" stroke="#4E5A7D" stroke-width="6" stroke-miterlimit="10" stroke-linecap="round" stroke-linejoin="round"/>
<path d="M541.6 613.4C535.8 617.2 528.4 619.5 520.2 619.5C502 619.5 487.2 608.1 487.2 594.1" stroke="#4E5A7D" stroke-width="6" stroke-miterlimit="10" stroke-linecap="round" stroke-linejoin="round"/>
<path d="M483.6 520.3C489.233 520.3 493.8 514.569 493.8 507.5C493.8 500.431 489.233 494.7 483.6 494.7C477.967 494.7 473.4 500.431 473.4 507.5C473.4 514.569 477.967 520.3 483.6 520.3Z" fill="#4E5A7D"/>
<path d="M559.2 519.8C564.833 519.8 569.4 514.069 569.4 507C569.4 499.931 564.833 494.2 559.2 494.2C553.567 494.2 549 499.931 549 507C549 514.069 553.567 519.8 559.2 519.8Z" fill="#4E5A7D"/>
<path d="M579.3 427.5C561.4 431.3 539.6 433.5 516 433.5C491.4 433.5 468.7 431.1 450.3 427C443.1 425.4 435.5 427.6 430.5 433C418.8 445.4 411.6 462.1 411.6 480.5V486.1C445.3 488.5 479.5 489.8 513.3 489.8C547.9 489.8 582.8 488.5 617.4 485.9V480.5C617.4 462.4 610.5 446 599.1 433.6C594 428.2 586.5 425.9 579.3 427.5Z" fill="#D5B6A5"/>
<path d="M599 433.6C594 428.2 586.5 425.9 579.3 427.4C561.4 431.2 539.6 433.4 516 433.4C491.4 433.4 468.7 431 450.3 426.9C443.1 425.3 435.5 427.5 430.5 432.9C418.8 445.3 411.6 462 411.6 480.4V565.8C411.6 620.6 456.1 665.1 510.9 665.1H518.1C572.9 665.1 617.4 620.6 617.4 565.8V480.4C617.3 462.4 610.3 446 599 433.6Z" stroke="#4E5A7D" stroke-width="6" stroke-miterlimit="10" stroke-linecap="round" stroke-linejoin="round"/>
<path d="M620.7 478.6C549.1 482.8 477.2 482.8 405.6 478.6C400.6 478.3 396.7 474.5 396.7 469.8V447C396.7 441.9 401.4 437.9 406.9 438.2C477.7 442.4 548.7 442.4 619.5 438.2C625 437.9 629.7 441.9 629.7 447V469.8C629.7 474.5 625.8 478.3 620.7 478.6Z" fill="#84BDE1"/>
<path opacity="0.3" d="M619.5 438.3C548.7 442.5 477.7 442.5 406.9 438.3C401.4 438 396.7 442 396.7 447.1V454.7C396.7 449.6 401.4 445.6 406.9 445.9C477.7 450.1 548.7 450.1 619.5 445.9C625 445.6 629.7 449.6 629.7 454.7V447C629.7 442 625 438 619.5 438.3Z" fill="#84BDE1"/>
<path d="M620.7 478.6C549.1 482.8 477.2 482.8 405.6 478.6C400.6 478.3 396.7 474.5 396.7 469.8V447C396.7 441.9 401.4 437.9 406.9 438.2C477.7 442.4 548.7 442.4 619.5 438.2C625 437.9 629.7 441.9 629.7 447V469.8C629.7 474.5 625.8 478.3 620.7 478.6Z" stroke="#4E5A7D" stroke-width="6" stroke-miterlimit="10" stroke-linecap="round" stroke-linejoin="round"/>
<path d="M593 393.7C593 393.7 613.6 393.7 617.2 432.8" stroke="#4E5A7D" stroke-width="4" stroke-miterlimit="10" stroke-linecap="round" stroke-linejoin="round"/>
<path d="M477.7 345.3C520.2 347.5 559.9 368.7 564.7 405.6" stroke="#4E5A7D" stroke-width="4" stroke-miterlimit="10" stroke-linecap="round" stroke-linejoin="round"/>
<path d="M448.7 348.5C454.2 346.8 461.2 345.2 468.4 345.3" stroke="#4E5A7D" stroke-width="4" stroke-miterlimit="10" stroke-linecap="round" stroke-linejoin="round"/>
<path d="M481.2 368.1C504.2 371.8 534 375.4 545.1 413.3" stroke="#4E5A7D" stroke-width="4" stroke-miterlimit="10" stroke-linecap="round" stroke-linejoin="round"/>
<path d="M513.2 631.3C513.2 631.3 518.9 634.7 529.2 631.3" stroke="#4E5A7D" stroke-width="6" stroke-miterlimit="10" stroke-linecap="round" stroke-linejoin="round"/>
<path d="M467.1 578.8C477.483 578.8 485.9 570.383 485.9 560C485.9 549.617 477.483 541.2 467.1 541.2C456.717 541.2 448.3 549.617 448.3 560C448.3 570.383 456.717 578.8 467.1 578.8Z" fill="#F5CFC4"/>
<path d="M566.3 578.8C576.683 578.8 585.1 570.383 585.1 560C585.1 549.617 576.683 541.2 566.3 541.2C555.917 541.2 547.5 549.617 547.5 560C547.5 570.383 555.917 578.8 566.3 578.8Z" fill="#F5CFC4"/>
<path d="M408.7 539.3H410.7V486.7H408.7C402.1 486.7 396.7 492.1 396.7 498.7V527.3C396.7 533.9 402.1 539.3 408.7 539.3Z" fill="#FEF0E3"/>
<path d="M408.7 539.3H410.7V486.7H408.7C402.1 486.7 396.7 492.1 396.7 498.7V527.3C396.7 533.9 402.1 539.3 408.7 539.3Z" stroke="#4E5A7D" stroke-width="6" stroke-miterlimit="10" stroke-linecap="round" stroke-linejoin="round"/>
<path d="M619.3 539.3H617.3V486.7H619.3C625.9 486.7 631.3 492.1 631.3 498.7V527.3C631.3 533.9 625.9 539.3 619.3 539.3Z" fill="#FEF0E3"/>
<path d="M619.3 539.3H617.3V486.7H619.3C625.9 486.7 631.3 492.1 631.3 498.7V527.3C631.3 533.9 625.9 539.3 619.3 539.3Z" stroke="#4E5A7D" stroke-width="6" stroke-miterlimit="10" stroke-linecap="round" stroke-linejoin="round"/>
<path d="M545.9 784.4H488C464.3 784.4 445 765.1 445 741.4V701.4H588.9V741.4C588.9 765.2 569.7 784.4 545.9 784.4Z" fill="#E08484"/>
<path d="M588.9 701.4V741.4C588.9 765.1 569.6 784.4 545.9 784.4H488C464.3 784.4 445 765.1 445 741.4V701.4" stroke="#4E5A7D" stroke-width="6" stroke-miterlimit="10" stroke-linecap="round" stroke-linejoin="round"/>
<path d="M566.1 716.8C558.7 736.9 539.3 751.2 516.7 751.2C494 751.2 474.6 736.8 467.2 716.7C476.6 715.7 484 707.7 484 698V694.5H548V698C548 708.1 556 716.4 566.1 716.8Z" fill="#FBE3D5"/>
<path d="M559.3 715.2C552.6 732.6 535.9 744.2 516.7 744.2C497.3 744.2 480.5 732.3 473.9 714.6C471.9 715.7 469.6 716.4 467.2 716.7C474.6 736.8 494 751.2 516.7 751.2C539.4 751.2 558.7 736.9 566.1 716.8C563.7 716.7 561.4 716.1 559.3 715.2Z" fill="#EDD4C6"/>
<path d="M548 694.4V697.9C548 706.6 553.9 714 562 716.1C564.1 716.7 565.3 719 564.4 721C555.9 738.8 537.8 751.1 516.8 751.1C495.6 751.1 477.4 738.6 469 720.6C468.1 718.7 469.1 716.4 471.2 715.8C478.7 713.3 484.1 706.3 484.1 697.9V694.4" stroke="#4E5A7D" stroke-width="6" stroke-miterlimit="10" stroke-linecap="round" stroke-linejoin="round"/>
<path d="M465.3 710.3C470.7 733.7 491.6 751.2 516.7 751.2C541.8 751.2 562.7 733.7 568.1 710.3" stroke="#4E5A7D" stroke-width="6" stroke-miterlimit="10" stroke-linecap="round" stroke-linejoin="round"/>
<path d="M479.7 766.9C484.118 766.9 487.7 764.841 487.7 762.3C487.7 759.76 484.118 757.7 479.7 757.7C475.282 757.7 471.7 759.76 471.7 762.3C471.7 764.841 475.282 766.9 479.7 766.9Z" fill="#4E5A7D"/>
<path d="M479.7 762.3V814.4" stroke="#4E5A7D" stroke-width="8" stroke-miterlimit="10" stroke-linecap="round" stroke-linejoin="round"/>
<path d="M552.2 766.9C556.618 766.9 560.2 764.841 560.2 762.3C560.2 759.76 556.618 757.7 552.2 757.7C547.782 757.7 544.2 759.76 544.2 762.3C544.2 764.841 547.782 766.9 552.2 766.9Z" fill="#4E5A7D"/>
<path d="M552.2 762.3V800.4" stroke="#4E5A7D" stroke-width="8" stroke-miterlimit="10" stroke-linecap="round" stroke-linejoin="round"/>
<path d="M482.6 828.2H476.6C472.8 828.2 470 824.7 470.9 821L473.5 809.4H485.7L488.3 821C489.2 824.7 486.4 828.2 482.6 828.2Z" fill="#FEF0E3"/>
<path d="M482.6 828.2H476.6C472.8 828.2 470 824.7 470.9 821L473.5 809.4H485.7L488.3 821C489.2 824.7 486.4 828.2 482.6 828.2Z" stroke="#4E5A7D" stroke-width="6" stroke-miterlimit="10" stroke-linecap="round" stroke-linejoin="round"/>
<path d="M555.2 818.8H549.2C545.4 818.8 542.6 815.3 543.5 811.6L546.1 800H558.3L560.9 811.6C561.8 815.3 559 818.8 555.2 818.8Z" fill="#FEF0E3"/>
<path d="M555.2 818.8H549.2C545.4 818.8 542.6 815.3 543.5 811.6L546.1 800H558.3L560.9 811.6C561.8 815.3 559 818.8 555.2 818.8Z" stroke="#4E5A7D" stroke-width="6" stroke-miterlimit="10" stroke-linecap="round" stroke-linejoin="round"/>
<path opacity="0.58" d="M508 712.7C508 712.7 511.2 713 514.8 716.7C514.8 716.7 519 712.7 522.6 712.7" stroke="#D5B6A5" stroke-width="6" stroke-miterlimit="10" stroke-linecap="round" stroke-linejoin="round"/>
<path d="M520.2 409.1C520.2 409.1 518 396.5 495.8 389.6" stroke="#4E5A7D" stroke-width="4" stroke-miterlimit="10" stroke-linecap="round" stroke-linejoin="round"/>
<path d="M427.1 809.4V847.5" stroke="#4E5A7D" stroke-width="6" stroke-miterlimit="10" stroke-linecap="round" stroke-linejoin="round"/>
<path d="M602.6 809.4V847.5" stroke="#4E5A7D" stroke-width="6" stroke-miterlimit="10" stroke-linecap="round" stroke-linejoin="round"/>
<path d="M546.4 214.3H494C488.5 214.3 484 209.8 484 204.3V139C484 133.5 488.5 129 494 129H546.4C551.9 129 556.4 133.5 556.4 139V204.3C556.4 209.8 551.9 214.3 546.4 214.3Z" fill="white"/>
<path d="M546.4 214.3H494C488.5 214.3 484 209.8 484 204.3V139C484 133.5 488.5 129 494 129H546.4C551.9 129 556.4 133.5 556.4 139V204.3C556.4 209.8 551.9 214.3 546.4 214.3Z" stroke="#4E5A7D" stroke-width="3" stroke-miterlimit="10" stroke-linecap="round" stroke-linejoin="round"/>
<path d="M551.5 232.4C562.601 232.4 571.6 223.401 571.6 212.3C571.6 201.199 562.601 192.2 551.5 192.2C540.399 192.2 531.4 201.199 531.4 212.3C531.4 223.401 540.399 232.4 551.5 232.4Z" fill="white"/>
<path d="M551.5 232.4C562.601 232.4 571.6 223.401 571.6 212.3C571.6 201.199 562.601 192.2 551.5 192.2C540.399 192.2 531.4 201.199 531.4 212.3C531.4 223.401 540.399 232.4 551.5 232.4Z" stroke="#4E5A7D" stroke-width="3" stroke-miterlimit="10" stroke-linecap="round" stroke-linejoin="round"/>
<path d="M542.3 212.1L548.6 218.4L560.7 206.2" stroke="#4E5A7D" stroke-width="4" stroke-miterlimit="10" stroke-linecap="round" stroke-linejoin="round"/>
<path d="M526.6 123.7V115.4C526.6 111.8 523.7 108.9 520.1 108.9C516.5 108.9 513.6 111.8 513.6 115.4V123.7H506.5V126.3V135H533.7V126.3V123.7H526.6Z" fill="white"/>
<path d="M526.6 124.5V116.8C526.6 113.5 523.7 110.8 520.1 110.8C516.5 110.8 513.6 113.5 513.6 116.8V124.5H506.5V126.9V135H533.7V126.9V124.5H526.6Z" stroke="#4E5A7D" stroke-width="3" stroke-miterlimit="10" stroke-linecap="round" stroke-linejoin="round"/>
<path d="M503.3 159.2H540.5" stroke="#4E5A7D" stroke-width="3" stroke-miterlimit="10" stroke-linecap="round" stroke-linejoin="round"/>
<path d="M503.3 171.6H540.5" stroke="#4E5A7D" stroke-width="3" stroke-miterlimit="10" stroke-linecap="round" stroke-linejoin="round"/>
<path d="M510.1 183.6H533.7" stroke="#4E5A7D" stroke-width="3" stroke-miterlimit="10" stroke-linecap="round" stroke-linejoin="round"/>
<path d="M737.3 205L727.5 194.8C718 184.9 702.2 184.7 692.9 194.8C683.9 204.6 681 222.5 693.2 242.4C705.5 262.3 737.2 275.8 737.2 275.8C737.2 275.8 769 262.3 781.2 242.4C793.5 222.5 790.6 204.6 781.5 194.8C772.2 184.7 756.4 184.9 746.9 194.8L737.3 205Z" fill="white"/>
<path d="M737.3 205L727.5 194.8C718 184.9 702.2 184.7 692.9 194.8C683.9 204.6 681 222.5 693.2 242.4C705.5 262.3 737.2 275.8 737.2 275.8C737.2 275.8 769 262.3 781.2 242.4C793.5 222.5 790.6 204.6 781.5 194.8C772.2 184.7 756.4 184.9 746.9 194.8L737.3 205Z" stroke="#4E5A7D" stroke-width="3" stroke-miterlimit="10" stroke-linecap="round" stroke-linejoin="round"/>
<path d="M703.4 237.3H719.2L726.9 217.1L737.3 252.6L744.7 236.4L750.4 245.3L758 217.1L765 234.9H773.7" stroke="#4E5A7D" stroke-width="3" stroke-miterlimit="10" stroke-linecap="round" stroke-linejoin="round"/>
<path d="M799.3 349.4C799.3 349.4 776.7 402.9 776.7 423.9C776.7 444.9 778.5 450.6 778.5 450.6C778.5 450.6 827.6 457.8 854.8 445C882.1 432.2 889.9 414.4 889.9 414.4C889.9 414.4 889.6 383.5 871.8 381.5C864.5 380.7 854.2 382 850.5 391.6C845.4 404.8 849 409.7 849 409.7C844.8 405.5 838 399.6 824.4 399.6C810.8 399.6 803.6 414.4 803.6 414.4L804.6 371.4L828.8 369.3L833.3 349.4L818.9 332.6L799.3 349.4Z" fill="white"/>
<path d="M799.3 349.4C799.3 349.4 776.7 402.9 776.7 423.9C776.7 444.9 778.5 450.6 778.5 450.6C778.5 450.6 827.6 457.8 854.8 445C882.1 432.2 889.9 414.4 889.9 414.4C889.9 414.4 889.6 383.5 871.8 381.5C864.5 380.7 854.2 382 850.5 391.6C845.4 404.8 849 409.7 849 409.7C844.8 405.5 838 399.6 824.4 399.6C810.8 399.6 803.6 414.4 803.6 414.4L804.6 371.4L828.8 369.3L833.3 349.4L818.9 332.6L799.3 349.4Z" stroke="#4E5A7D" stroke-width="3" stroke-miterlimit="10" stroke-linecap="round" stroke-linejoin="round"/>
<path d="M819.1 427.3C819.1 427.3 831.8 432.2 843.7 427.3" stroke="#4E5A7D" stroke-width="3" stroke-miterlimit="10" stroke-linecap="round" stroke-linejoin="round"/>
<path d="M789.8 429.4V441.1H799.3" stroke="#4E5A7D" stroke-width="3" stroke-miterlimit="10" stroke-linecap="round" stroke-linejoin="round"/>
<path d="M245.3 234.8C245.3 234.8 271.8 183.1 309.8 172.9C316 171.2 329 169.3 339 176.9C349.8 185.2 353.8 202.6 347 215.2C337 233.6 307.5 234.3 299 224.7C295.9 221.2 296 216.8 296.1 215.7C296.3 205.5 308.2 195.5 318.6 197C324.6 197.9 328.4 202.4 328.8 202.8C336.4 212.1 333.3 230.2 321.5 248.3" stroke="#4E5A7D" stroke-width="3" stroke-miterlimit="10" stroke-linecap="round" stroke-linejoin="round"/>
<path d="M251.6 237.1L238.7 231.1C236.3 230 233.1 231.9 231.5 235.3C229.9 238.7 230.6 242.4 232.9 243.5L233.7 243.9L222.6 263.9C219.3 269.8 220.2 276.6 224.5 278.6C228.8 280.6 234.6 276.8 236.9 270.5L245 249.1L245.8 249.5C248.2 250.6 251.4 248.7 253 245.3C254.7 241.9 254 238.3 251.6 237.1Z" fill="white"/>
<path d="M251.6 237.1L238.7 231.1C236.3 230 233.1 231.9 231.5 235.3C229.9 238.7 230.6 242.4 232.9 243.5L233.7 243.9L222.6 263.9C219.3 269.8 220.2 276.6 224.5 278.6C228.8 280.6 234.6 276.8 236.9 270.5L245 249.1L245.8 249.5C248.2 250.6 251.4 248.7 253 245.3C254.7 241.9 254 238.3 251.6 237.1Z" stroke="#4E5A7D" stroke-width="3" stroke-miterlimit="10" stroke-linecap="round" stroke-linejoin="round"/>
<path d="M328.9 246.5L315.3 242.3C312.8 241.5 309.9 243.8 308.8 247.4C307.7 251 308.8 254.6 311.4 255.3L312.2 255.6L304 276.9C301.6 283.2 303.4 289.8 307.9 291.2C312.4 292.6 317.6 288.1 319.1 281.5L324.2 259.2L325 259.5C327.5 260.3 330.4 258 331.5 254.4C332.6 250.8 331.4 247.3 328.9 246.5Z" fill="white"/>
<path d="M328.9 246.5L315.3 242.3C312.8 241.5 309.9 243.8 308.8 247.4C307.7 251 308.8 254.6 311.4 255.3L312.2 255.6L304 276.9C301.6 283.2 303.4 289.8 307.9 291.2C312.4 292.6 317.6 288.1 319.1 281.5L324.2 259.2L325 259.5C327.5 260.3 330.4 258 331.5 254.4C332.6 250.8 331.4 247.3 328.9 246.5Z" stroke="#4E5A7D" stroke-width="3" stroke-miterlimit="10" stroke-linecap="round" stroke-linejoin="round"/>
<path d="M561.5 129.9H568.8" stroke="white" stroke-width="2" stroke-miterlimit="10" stroke-linecap="round" stroke-linejoin="round"/>
<path d="M556.5 122.4L561.5 115.6" stroke="white" stroke-width="2" stroke-miterlimit="10" stroke-linecap="round" stroke-linejoin="round"/>
<path d="M560 125.5L567.5 120.8" stroke="white" stroke-width="2" stroke-miterlimit="10" stroke-linecap="round" stroke-linejoin="round"/>
<path d="M338.4 252.5H344.5" stroke="white" stroke-width="2" stroke-miterlimit="10" stroke-linecap="round" stroke-linejoin="round"/>
<path d="M334.3 246.3L338.4 240.7" stroke="white" stroke-width="2" stroke-miterlimit="10" stroke-linecap="round" stroke-linejoin="round"/>
<path d="M337.2 248.9L343.4 245" stroke="white" stroke-width="2" stroke-miterlimit="10" stroke-linecap="round" stroke-linejoin="round"/>
<path d="M272.5 389.7L279.3 387.8" stroke="white" stroke-width="2" stroke-miterlimit="10" stroke-linecap="round" stroke-linejoin="round"/>
<path d="M265.9 384.1L268.8 376.5" stroke="white" stroke-width="2" stroke-miterlimit="10" stroke-linecap="round" stroke-linejoin="round"/>
<path d="M269.9 386.1L275.7 379.8" stroke="white" stroke-width="2" stroke-miterlimit="10" stroke-linecap="round" stroke-linejoin="round"/>
<path d="M142.3 459.5L140.6 466.3" stroke="white" stroke-width="2" stroke-miterlimit="10" stroke-linecap="round" stroke-linejoin="round"/>
<path d="M136.5 453.1L129 456.2" stroke="white" stroke-width="2" stroke-miterlimit="10" stroke-linecap="round" stroke-linejoin="round"/>
<path d="M138.6 457L132.5 463" stroke="white" stroke-width="2" stroke-miterlimit="10" stroke-linecap="round" stroke-linejoin="round"/>
<path d="M260.3 240.7H267.4" stroke="white" stroke-width="2" stroke-miterlimit="10" stroke-linecap="round" stroke-linejoin="round"/>
<path d="M255.5 233.5L260.3 226.9" stroke="white" stroke-width="2" stroke-miterlimit="10" stroke-linecap="round" stroke-linejoin="round"/>
<path d="M258.8 236.5L266.1 231.9" stroke="white" stroke-width="2" stroke-miterlimit="10" stroke-linecap="round" stroke-linejoin="round"/>
<path d="M741.5 188.8L744.9 182.1" stroke="white" stroke-width="2" stroke-miterlimit="10" stroke-linecap="round" stroke-linejoin="round"/>
<path d="M733.9 189.8L730.3 182.1" stroke="white" stroke-width="2" stroke-miterlimit="10" stroke-linecap="round" stroke-linejoin="round"/>
<path d="M737.3 188.8V178.1" stroke="white" stroke-width="2" stroke-miterlimit="10" stroke-linecap="round" stroke-linejoin="round"/>
<path d="M844.6 389.9L843.7 382.5" stroke="white" stroke-width="2" stroke-miterlimit="10" stroke-linecap="round" stroke-linejoin="round"/>
<path d="M838.9 395L831.7 390.6" stroke="white" stroke-width="2" stroke-miterlimit="10" stroke-linecap="round" stroke-linejoin="round"/>
<path d="M841.1 392.3L835.2 383.4" stroke="white" stroke-width="2" stroke-miterlimit="10" stroke-linecap="round" stroke-linejoin="round"/>
<path d="M317.3 178.3C317.3 178.3 326.1 174 334.2 182.2" stroke="white" stroke-width="2" stroke-miterlimit="10" stroke-linecap="round" stroke-linejoin="round"/>
<path d="M227.6 847.5H707.6" stroke="#4E5A7D" stroke-width="6" stroke-miterlimit="10" stroke-linecap="round" stroke-linejoin="round"/>
<path d="M735.1 847.5H769.6" stroke="#4E5A7D" stroke-width="6" stroke-miterlimit="10" stroke-linecap="round" stroke-linejoin="round"/>
<path d="M797.6 847.5H816" stroke="#4E5A7D" stroke-width="6" stroke-miterlimit="10" stroke-linecap="round" stroke-linejoin="round"/>
</g>
<defs>
<clipPath id="clip0_950:2">
<rect width="1000" height="1000" fill="white"/>
</clipPath>
</defs>
</svg>
