<svg width="1001" height="1001" viewBox="0 0 1001 1001" fill="none" xmlns="http://www.w3.org/2000/svg">
<path d="M706.142 407.844H677.742L682.742 433.644L704.142 430.844C716.842 430.844 728.142 436.844 735.242 447.344C742.342 457.844 743.742 470.644 739.042 482.444L707.142 560.244L713.642 594.144L757.642 484.244C772.342 447.544 745.442 407.844 706.142 407.844Z" fill="#EFAB59"/>
<path d="M682.342 408.344C682.342 408.344 712.442 403.944 730.742 441.844C718.542 433.644 704.942 428.244 682.742 433.644C677.742 407.844 682.342 408.344 682.342 408.344Z" fill="#FB9437"/>
<path d="M719.742 528.644L722.542 571.944L713.242 591.344L704.742 559.244L719.742 528.644Z" fill="#FB9437"/>
<path d="M706.142 407.844H677.742L682.742 433.644L704.142 430.844C716.842 430.844 728.142 436.844 735.242 447.344C742.342 457.844 743.742 470.644 739.042 482.444L707.142 560.244L713.642 594.144L757.642 484.244C772.342 447.544 745.442 407.844 706.142 407.844Z" stroke="#474747" stroke-width="6" stroke-miterlimit="10" stroke-linecap="round" stroke-linejoin="round"/>
<path d="M680.042 715.644H508.142C476.742 715.644 452.942 691.044 458.142 664.044L511.342 388.744H676.742L729.942 664.044C735.242 691.044 711.342 715.644 680.042 715.644Z" fill="#FDBA61"/>
<path d="M680.042 715.644H508.142C476.742 715.644 452.942 691.044 458.142 664.044L511.342 388.744H676.742L729.942 664.044C735.242 691.044 711.342 715.644 680.042 715.644Z" fill="#FDBA61"/>
<path d="M680.042 715.644H508.142C476.742 715.644 452.942 691.044 458.142 664.044L511.342 388.744H676.742L729.942 664.044C735.242 691.044 711.342 715.644 680.042 715.644Z" fill="#FDBA61"/>
<path d="M557.143 681.744L566.243 413.644L567.043 388.844H511.243L458.043 664.144C452.843 691.144 476.643 715.744 508.043 715.744H611.343C582.443 715.644 556.543 700.044 557.143 681.744Z" fill="#FCA649"/>
<path d="M512.342 674.544L545.842 388.844H511.342L458.142 664.144C452.942 691.144 476.742 715.744 508.142 715.744H567.542C536.142 715.644 509.742 696.444 512.342 674.544Z" fill="#FB9437"/>
<path opacity="0.7" d="M678.342 390.744H511.242V397.144H678.342V390.744Z" fill="#FFCB92"/>
<path d="M680.042 715.644H508.142C476.742 715.644 452.942 691.044 458.142 664.044L511.342 388.744H676.742L729.942 664.044C735.242 691.044 711.342 715.644 680.042 715.644Z" stroke="#474747" stroke-width="6" stroke-miterlimit="10" stroke-linecap="round" stroke-linejoin="round"/>
<path d="M676.842 388.744C655.542 367.744 626.342 354.744 594.042 354.744C561.742 354.744 532.542 367.744 511.242 388.744H676.842Z" fill="#8C7B5F"/>
<path d="M676.842 388.744C655.542 367.744 626.342 354.744 594.042 354.744C561.742 354.744 532.542 367.744 511.242 388.744H676.842Z" fill="#8C7B5F"/>
<path d="M511.242 388.744H676.842C672.442 385.444 667.642 382.544 662.542 379.844L610.242 375.944C597.242 374.944 584.042 375.044 571.042 376.144L525.542 379.944C520.542 382.544 515.742 385.544 511.242 388.744Z" fill="#736247"/>
<g opacity="0.2">
<path opacity="0.2" d="M651.042 369.444C651.142 372.244 626.342 363.144 594.042 363.344C561.742 363.144 536.942 372.244 537.042 369.444C536.942 367.044 561.742 353.644 594.042 353.844C626.342 353.644 651.242 367.044 651.042 369.444Z" fill="white"/>
</g>
<path d="M676.842 388.744C655.542 367.744 626.342 354.744 594.042 354.744C561.742 354.744 532.542 367.744 511.242 388.744H676.842Z" stroke="#474747" stroke-width="6" stroke-miterlimit="10" stroke-linecap="round" stroke-linejoin="round"/>
<path d="M498.042 459.544L461.842 398.344C459.842 395.044 462.242 390.744 466.142 390.744H511.242L498.042 459.544Z" fill="#FB9437"/>
<path d="M500.643 390.744L496.243 413.544C494.843 420.844 479.443 426.344 475.643 419.844L464.243 398.844C460.343 398.844 459.943 394.844 461.943 398.244L498.143 459.444L511.343 390.644H500.643V390.744Z" fill="#FA8128"/>
<path opacity="0.7" d="M461.843 395.444L463.543 397.244H509.243L511.243 390.844H466.143C462.343 390.744 459.943 393.344 461.843 395.444Z" fill="#FFCB92"/>
<path d="M498.042 459.544L461.842 398.344C459.842 395.044 462.242 390.744 466.142 390.744H511.242L498.042 459.544Z" stroke="#474747" stroke-width="6" stroke-miterlimit="10" stroke-linecap="round" stroke-linejoin="round"/>
<path d="M569.643 357.244V345.144C569.643 331.644 580.543 320.744 594.043 320.744C607.543 320.744 618.442 331.644 618.442 345.144V357.244" stroke="#474747" stroke-width="6" stroke-miterlimit="10" stroke-linecap="round" stroke-linejoin="round"/>
<path d="M653.442 439.044L684.942 623.944" stroke="#474747" stroke-width="6" stroke-miterlimit="10" stroke-linecap="round" stroke-linejoin="round"/>
<g opacity="0.4">
<path opacity="0.15" d="M101.442 715.644H845.842" stroke="#474747" stroke-width="6" stroke-miterlimit="10" stroke-linecap="round" stroke-linejoin="round"/>
<g opacity="0.15">
<path opacity="0.15" d="M196.843 499.144V417.844C196.843 389.144 220.143 365.844 248.843 365.844H383.143C411.843 365.844 435.143 389.144 435.143 417.844V499.944" stroke="#474747" stroke-width="6" stroke-miterlimit="10" stroke-linecap="round" stroke-linejoin="round"/>
<path opacity="0.15" d="M488.943 691.344H424.043V515.144C424.043 506.344 431.243 499.144 440.043 499.144H472.943C481.743 499.144 488.943 506.344 488.943 515.144V691.344Z" stroke="#474747" stroke-width="6" stroke-miterlimit="10" stroke-linecap="round" stroke-linejoin="round"/>
<path opacity="0.15" d="M462.443 691.344H424.043V715.344H462.443V691.344Z" stroke="#474747" stroke-width="6" stroke-miterlimit="10" stroke-linecap="round" stroke-linejoin="round"/>
<path opacity="0.15" d="M207.443 691.344H169.043V715.344H207.443V691.344Z" stroke="#474747" stroke-width="6" stroke-miterlimit="10" stroke-linecap="round" stroke-linejoin="round"/>
<path opacity="0.15" d="M207.543 691.344H142.643V515.144C142.643 506.344 149.843 499.144 158.643 499.144H191.543C200.343 499.144 207.543 506.344 207.543 515.144V691.344Z" stroke="#474747" stroke-width="6" stroke-miterlimit="10" stroke-linecap="round" stroke-linejoin="round"/>
<path opacity="0.15" d="M207.843 639.744V577.844C207.843 567.544 216.143 559.244 226.443 559.244H405.543C415.843 559.244 424.143 567.544 424.143 577.844V639.744H207.843Z" stroke="#474747" stroke-width="6" stroke-miterlimit="10" stroke-linecap="round" stroke-linejoin="round"/>
<path opacity="0.15" d="M424.043 639.744H207.843V685.444H424.043V639.744Z" stroke="#474747" stroke-width="6" stroke-miterlimit="10" stroke-linecap="round" stroke-linejoin="round"/>
<path opacity="0.15" d="M315.943 473.444C320.141 473.444 323.543 470.041 323.543 465.844C323.543 461.646 320.141 458.244 315.943 458.244C311.746 458.244 308.343 461.646 308.343 465.844C308.343 470.041 311.746 473.444 315.943 473.444Z" stroke="#313031" stroke-width="6" stroke-miterlimit="10" stroke-linecap="round" stroke-linejoin="round"/>
</g>
<path opacity="0.15" d="M567.742 183.644H425.042V288.044H567.742V183.644Z" stroke="#474747" stroke-width="6" stroke-miterlimit="10" stroke-linecap="round" stroke-linejoin="round"/>
<path opacity="0.15" d="M553.842 197.544H438.942V274.144H553.842V197.544Z" stroke="#474747" stroke-width="6" stroke-miterlimit="10" stroke-linecap="round" stroke-linejoin="round"/>
<path opacity="0.15" d="M459.643 258.844L477.843 227.244L496.043 258.844H459.643Z" stroke="#474747" stroke-width="6" stroke-miterlimit="10" stroke-linecap="round" stroke-linejoin="round"/>
<path opacity="0.15" d="M486.942 243.044L499.042 222.044L520.342 258.844H496.042" stroke="#474747" stroke-width="6" stroke-miterlimit="10" stroke-linecap="round" stroke-linejoin="round"/>
<path opacity="0.15" d="M528.443 227.244C532.916 227.244 536.543 223.617 536.543 219.144C536.543 214.67 532.916 211.044 528.443 211.044C523.969 211.044 520.343 214.67 520.343 219.144C520.343 223.617 523.969 227.244 528.443 227.244Z" stroke="#474747" stroke-width="6" stroke-miterlimit="10" stroke-linecap="round" stroke-linejoin="round"/>
<path opacity="0.15" d="M818.043 316.044H738.643V354.744H818.043" stroke="#474747" stroke-width="6" stroke-miterlimit="10" stroke-linecap="round" stroke-linejoin="round"/>
<path opacity="0.15" d="M659.343 354.744H738.643" stroke="#474747" stroke-width="6" stroke-miterlimit="10" stroke-linecap="round" stroke-linejoin="round"/>
<path opacity="0.15" d="M738.643 316.044H708.343" stroke="#474747" stroke-width="6" stroke-miterlimit="10" stroke-linecap="round" stroke-linejoin="round"/>
<path opacity="0.15" d="M778.341 354.744H699.041V393.444H778.341V354.744Z" stroke="#474747" stroke-width="6" stroke-miterlimit="10" stroke-linecap="round" stroke-linejoin="round"/>
<path opacity="0.15" d="M805.643 393.644H738.643V432.344H764.343" stroke="#474747" stroke-width="6" stroke-miterlimit="10" stroke-linecap="round" stroke-linejoin="round"/>
<path opacity="0.15" d="M738.643 393.544H659.343V432.244H738.643V393.544Z" stroke="#474747" stroke-width="6" stroke-miterlimit="10" stroke-linecap="round" stroke-linejoin="round"/>
</g>
<path d="M292.542 571.944C265.342 571.944 243.342 593.944 243.342 621.144C243.342 648.344 265.342 670.344 292.542 670.344C319.742 670.344 341.742 648.344 341.742 621.144V571.944H292.542ZM314.142 621.144C314.142 633.044 304.442 642.744 292.542 642.744C280.642 642.744 270.942 633.044 270.942 621.144C270.942 609.244 280.642 599.544 292.542 599.544H314.142V621.144Z" fill="#FB9437"/>
<path d="M292.542 571.944C265.342 571.944 243.342 593.944 243.342 621.144C243.342 648.344 265.342 670.344 292.542 670.344C319.742 670.344 341.742 648.344 341.742 621.144V571.944H292.542ZM314.142 621.144C314.142 633.044 304.442 642.744 292.542 642.744C280.642 642.744 270.942 633.044 270.942 621.144C270.942 609.244 280.642 599.544 292.542 599.544H314.142V621.144Z" fill="#FB9437"/>
<g opacity="0.4">
<path opacity="0.7" d="M247.942 625.944C247.942 598.744 269.942 576.744 297.142 576.744H340.742V569.944H291.542C264.342 569.944 242.342 591.944 242.342 619.144C242.342 632.644 247.742 644.844 256.542 653.744C251.142 645.844 247.942 636.244 247.942 625.944Z" fill="#FFCB92"/>
</g>
<path d="M295.143 571.944C294.643 571.944 291.543 571.944 291.043 571.944H302.143C299.743 571.944 298.743 575.944 296.543 589.044C295.643 594.344 286.543 594.144 281.843 597.544C276.343 601.444 271.343 610.144 271.343 617.444L271.643 616.244C271.643 617.944 271.243 614.644 271.643 616.244C273.743 607.144 281.543 600.344 291.143 599.644C291.343 599.644 291.543 599.644 291.643 599.644C291.943 599.644 292.343 599.644 292.643 599.644H314.243V621.244C314.243 632.144 306.143 641.144 295.543 642.644C295.543 642.744 295.543 642.744 295.543 642.844C298.243 652.744 289.143 662.044 279.343 658.944C260.443 652.944 245.443 634.544 243.643 616.444C243.443 618.044 243.443 619.744 243.443 621.344C243.443 648.544 265.443 670.544 292.643 670.544C300.743 670.544 308.443 668.544 315.143 665.044C315.743 664.744 316.243 664.444 316.843 664.144C319.143 662.844 321.243 661.344 323.343 659.744C323.843 659.344 324.243 659.044 324.643 658.644C324.743 658.544 324.843 658.444 324.943 658.444C325.343 658.044 325.743 657.744 326.143 657.344C326.243 657.244 326.343 657.144 326.443 657.044C326.843 656.644 327.243 656.244 327.643 655.844C327.743 655.744 327.943 655.544 328.143 655.444C329.143 655.144 329.943 654.544 330.143 653.644C330.443 652.644 331.043 651.944 331.643 651.244C331.943 650.844 332.143 650.544 332.443 650.144C332.643 649.944 332.743 649.644 332.943 649.444C333.143 649.144 333.443 648.744 333.643 648.444C333.843 648.144 333.943 647.944 334.143 647.644C334.343 647.344 334.543 646.944 334.743 646.644C334.943 646.344 335.143 646.044 335.243 645.744C335.543 645.244 335.843 644.744 336.043 644.244C336.243 643.844 336.443 643.444 336.743 642.944C336.843 642.644 337.043 642.344 337.143 642.044C337.343 641.644 337.443 641.344 337.643 640.944C337.743 640.644 337.943 640.344 338.043 640.044C338.243 639.644 338.343 639.244 338.543 638.844C338.643 638.544 338.743 638.244 338.843 637.944C339.043 637.544 339.143 637.044 339.243 636.644C339.343 636.344 339.443 636.044 339.543 635.844C339.743 635.244 339.843 634.644 340.043 634.044C340.043 633.944 340.143 633.844 340.143 633.644C340.343 632.944 340.443 632.244 340.643 631.444C340.743 631.244 340.743 630.944 340.743 630.744C340.843 630.244 340.943 629.744 341.043 629.244C341.043 628.944 341.143 628.644 341.143 628.344C341.243 627.844 341.243 627.344 341.343 626.844C341.343 626.544 341.443 626.244 341.443 625.944C341.443 625.444 341.543 624.844 341.543 624.344C341.543 624.144 341.543 623.844 341.543 623.644C341.543 622.844 341.643 622.044 341.643 621.344V611.444V571.944H295.143Z" fill="#FA8128"/>
<path d="M292.542 571.944C265.342 571.944 243.342 593.944 243.342 621.144C243.342 648.344 265.342 670.344 292.542 670.344C319.742 670.344 341.742 648.344 341.742 621.144V571.944H292.542ZM314.142 621.144C314.142 633.044 304.442 642.744 292.542 642.744C280.642 642.744 270.942 633.044 270.942 621.144C270.942 609.244 280.642 599.544 292.542 599.544H314.142V621.144Z" stroke="#474747" stroke-width="6" stroke-miterlimit="10" stroke-linecap="round" stroke-linejoin="round"/>
<path d="M416.143 715.644C357.543 715.644 310.043 668.144 310.043 609.544V552.244H522.343V609.544C522.343 668.144 474.743 715.644 416.143 715.644Z" fill="#FDBA61"/>
<g opacity="0.7">
<path opacity="0.7" d="M486.443 662.244H453.943V629.544L470.243 611.244L486.443 629.544V662.244Z" fill="#A9A9A9" stroke="#FB9437" stroke-width="6" stroke-miterlimit="10" stroke-linecap="round" stroke-linejoin="round"/>
<path opacity="0.7" d="M470.243 552.244V611.244" stroke="#FB9437" stroke-width="6" stroke-miterlimit="10" stroke-linecap="round" stroke-linejoin="round"/>
</g>
<path d="M370.743 609.544V552.244H309.943V609.544C309.943 668.144 357.443 715.644 416.043 715.644C426.643 715.644 436.843 714.144 446.443 711.244C402.743 698.144 370.743 657.544 370.743 609.544Z" fill="#FCA649"/>
<path d="M341.843 609.544V552.244H310.043V609.544C310.043 668.144 357.543 715.644 416.143 715.644C421.543 715.644 426.843 715.244 432.043 714.444C381.043 706.844 341.843 662.744 341.843 609.544Z" fill="#FB9437"/>
<path opacity="0.7" d="M522.343 553.044H310.043V560.144H522.343V553.044Z" fill="#FFCB92"/>
<path d="M416.143 715.644C357.543 715.644 310.043 668.144 310.043 609.544V552.244H522.343V609.544C522.343 668.144 474.743 715.644 416.143 715.644Z" stroke="#474747" stroke-width="6" stroke-miterlimit="10" stroke-linecap="round" stroke-linejoin="round"/>
<path d="M480.443 656.244H447.943V623.544L464.243 605.244L480.443 623.544V656.244Z" fill="#D51C29"/>
<path d="M480.443 656.244H447.943V623.544L464.243 605.244L480.443 623.544V656.244Z" fill="#6AB36F" stroke="#474747" stroke-width="6" stroke-miterlimit="10" stroke-linecap="round" stroke-linejoin="round"/>
<path d="M453.943 629.544L469.843 611.644L464.243 605.244L447.943 623.544V656.244H453.943V629.544Z" fill="#88CE8E"/>
<path d="M464.242 552.244V605.244" stroke="#474747" stroke-width="6" stroke-miterlimit="10" stroke-linecap="round" stroke-linejoin="round"/>
<path d="M405.743 388.744C397.943 399.944 393.343 418.444 393.543 428.744C394.343 466.744 419.843 466.844 424.043 492.844C425.143 499.744 422.943 510.844 416.143 528.544" stroke="#474747" stroke-width="6" stroke-miterlimit="10" stroke-linecap="round" stroke-linejoin="round"/>
<path d="M435.642 423.144C432.742 428.544 427.942 441.444 446.042 462.944C465.642 486.144 461.042 509.944 454.742 528.644" stroke="#474747" stroke-width="6" stroke-miterlimit="10" stroke-linecap="round" stroke-linejoin="round"/>
<path d="M357.043 432.944C346.443 458.344 362.143 475.244 379.643 493.544C393.343 507.944 379.543 531.244 375.043 536.044" stroke="#474747" stroke-width="6" stroke-miterlimit="10" stroke-linecap="round" stroke-linejoin="round"/>
<path d="M503.242 570.944V611.744" stroke="#474747" stroke-width="6" stroke-miterlimit="10" stroke-linecap="round" stroke-linejoin="round"/>
<path d="M480.443 656.244H447.943V623.544L464.243 605.244L480.443 623.544V656.244Z" stroke="#474747" stroke-width="6" stroke-miterlimit="10" stroke-linecap="round" stroke-linejoin="round"/>
</svg>
