<svg width="94" height="95" viewBox="0 0 94 95" fill="none" xmlns="http://www.w3.org/2000/svg">
<g clip-path="url(#clip0_492:111)">
<path d="M11.1504 39.1492V94.2737H83.6992V39.1492" fill="#FFD800"/>
<path d="M16.1504 55.835C21.7978 55.835 26.376 51.298 26.376 45.7012C26.376 40.1045 21.7978 35.5674 16.1504 35.5674C10.503 35.5674 5.9248 40.1045 5.9248 45.7012C5.9248 51.298 10.503 55.835 16.1504 55.835Z" fill="#F3998A"/>
<path d="M79.6992 55.835C85.3467 55.835 88.516 51.298 88.516 45.7012C88.516 40.1045 85.3467 35.5674 79.6992 35.5674C74.0518 35.5674 69.4736 40.1045 69.4736 45.7012C69.4736 51.298 74.0518 55.835 79.6992 55.835Z" fill="#F3998A"/>
<path d="M69.4187 61.8629H26.7533C26.7533 58.5432 29.3978 55.9224 32.7476 55.9224H63.4244C66.7742 55.9224 69.4187 58.5432 69.4187 61.8629Z" fill="white" stroke="white" stroke-miterlimit="10"/>
<path d="M66.6859 58.8926H27.9873V76.8889H66.6859V58.8926Z" fill="#8F312C"/>
<path d="M65.0993 80.9075V84.3146C59.8102 87.0228 53.6395 88.5953 47.0282 88.5953C40.5931 88.5953 34.5988 87.1101 29.3978 84.5767V80.9949C29.3978 76.6269 31.3372 72.6956 34.5106 69.9001C37.7722 67.0172 42.268 65.1826 47.2045 65.1826C51.9647 65.1826 56.3722 66.8425 59.5457 69.5506C59.6339 69.638 59.722 69.7254 59.8102 69.8127C63.0718 72.6083 65.0993 76.5395 65.0993 80.9075Z" fill="#AF3F3F"/>
<path d="M73.121 11.6305C66.5978 5.07841 57.5182 3.768 47.4689 3.768C27.3703 3.68064 11.1504 17.2215 11.1504 37.0524V54.4371C11.1504 67.978 18.6433 79.6843 29.7504 85.887C34.9513 88.7699 40.9457 90.4297 47.3807 90.4297C53.9921 90.4297 60.1627 88.6825 65.4518 85.7122C76.3826 79.4223 83.6992 67.8033 83.6992 54.4371V37.0524C83.6992 27.0933 79.6442 18.0951 73.121 11.6305ZM47.2044 74.1806C42.4442 74.1806 38.1248 72.3461 34.8632 69.4632C32.2186 67.1044 30.3675 64.0468 29.4859 60.465C28.957 58.281 30.6319 56.097 32.9239 56.097H61.485C63.7769 56.097 65.4518 58.281 64.9229 60.465C64.0414 63.7847 62.3665 66.755 59.8983 69.1137C56.6367 72.1713 52.2291 74.1806 47.2044 74.1806Z" fill="#F7B3A2"/>
<path d="M29.3978 40.3722C27.6348 40.3722 26.2244 38.9744 26.2244 37.2272V34.0822C26.2244 32.335 27.6348 30.9373 29.3978 30.9373C31.1609 30.9373 32.5713 32.335 32.5713 34.0822V37.2272C32.6594 38.8871 31.1609 40.3722 29.3978 40.3722Z" fill="white" stroke="white" stroke-miterlimit="10"/>
<path d="M65.0993 40.3722C63.3362 40.3722 61.9258 38.9744 61.9258 37.2272V34.0822C61.9258 32.335 63.3362 30.9373 65.0993 30.9373C66.8623 30.9373 68.2727 32.335 68.2727 34.0822V37.2272C68.2727 38.8871 66.8623 40.3722 65.0993 40.3722Z" fill="white" stroke="white" stroke-miterlimit="10"/>
<path d="M73.0328 44.8277H57.0774V34.3444C57.0774 29.9764 60.6035 26.4819 65.011 26.4819H65.0992C69.5068 26.4819 73.0328 29.9764 73.0328 34.3444V44.8277Z" fill="white"/>
<path d="M37.3314 44.8277H21.4641V34.3444C21.4641 29.9764 24.9902 26.4819 29.3978 26.4819H29.4859C33.8935 26.4819 37.4196 29.9764 37.4196 34.3444V44.8277H37.3314Z" fill="white"/>
<path d="M29.3978 50.1565C35.2887 50.1565 40.0641 48.6702 40.0641 46.8368C40.0641 45.0034 35.2887 43.5171 29.3978 43.5171C23.5069 43.5171 18.7314 45.0034 18.7314 46.8368C18.7314 48.6702 23.5069 50.1565 29.3978 50.1565Z" fill="#F7B3A2"/>
<path d="M65.0992 50.1565C70.9901 50.1565 75.7656 48.6702 75.7656 46.8368C75.7656 45.0034 70.9901 43.5171 65.0992 43.5171C59.2084 43.5171 54.4329 45.0034 54.4329 46.8368C54.4329 48.6702 59.2084 50.1565 65.0992 50.1565Z" fill="#F7B3A2"/>
<path d="M31.0726 42.469H29.4859C28.6044 42.469 27.8992 41.7701 27.8992 40.8965V34.2571C27.8992 33.3835 28.6044 32.6846 29.4859 32.6846H31.0726C31.9541 32.6846 32.6594 33.3835 32.6594 34.2571V40.8965C32.7475 41.7701 31.9541 42.469 31.0726 42.469Z" fill="#4C4B4B"/>
<path d="M65.0111 42.2067H63.4244C62.5429 42.2067 61.8376 41.5079 61.8376 40.6343V33.9949C61.8376 33.1212 62.5429 32.4224 63.4244 32.4224H65.0111C65.8926 32.4224 66.5978 33.1212 66.5978 33.9949V40.6343C66.5978 41.4205 65.8926 42.2067 65.0111 42.2067Z" fill="#4C4B4B"/>
<path d="M49.6727 36.0042V38.4503C49.6727 39.7607 48.6149 40.8964 47.2045 40.8964C45.8822 40.8964 44.7362 39.8481 44.7362 38.4503V36.0042C44.7362 34.6938 45.794 33.5581 47.2045 33.5581C48.6149 33.5581 49.6727 34.6938 49.6727 36.0042Z" fill="#EA9587"/>
<path d="M49.7608 38.4502H44.8243V41.9446H49.7608V38.4502Z" fill="#EA9587"/>
<path d="M55.2262 44.5656C55.2262 46.5749 53.5513 48.2348 51.5238 48.2348H43.1494C41.1219 48.2348 39.447 46.5749 39.447 44.5656C39.447 42.5563 41.1219 40.8965 43.1494 40.8965H51.5238C53.6394 40.8965 55.2262 42.469 55.2262 44.5656Z" fill="#EA9587"/>
<path d="M11.1504 80.0339H19.084H19.2603V22.1138H44.9125L47.3807 11.1938L49.849 22.1138H75.7656V80.1213H83.6992V22.8127C83.6992 10.3201 73.5618 0.273682 60.9561 0.273682H33.8935C21.2878 0.273682 11.1504 10.3201 11.1504 22.8127V80.0339Z" fill="#FFD800"/>
</g>
<defs>
<clipPath id="clip0_492:111">
<rect width="93" height="94" fill="white" transform="translate(0.924805 0.273682)"/>
</clipPath>
</defs>
</svg>
