<svg width="81" height="95" viewBox="0 0 81 95" fill="none" xmlns="http://www.w3.org/2000/svg">
<g clip-path="url(#clip0)">
<path d="M74.667 13.0165L66.4881 21.3703C65.8065 22.073 64.6705 22.073 63.9889 21.3703L61.4898 18.7939C60.8082 18.0912 60.8082 16.9201 61.4898 16.2175L69.6688 7.86366C70.3503 7.16101 71.4863 7.16101 72.1679 7.86366L74.667 10.4401C75.3486 11.1427 75.3486 12.3138 74.667 13.0165Z" fill="#F1ACCD"/>
<path d="M59.2937 68.7606H22.7156C22.7156 65.7939 24.9875 63.4517 27.8653 63.4517H54.0682C56.946 63.4517 59.2937 65.7939 59.2937 68.7606Z" fill="white" stroke="white" stroke-miterlimit="10"/>
<path d="M56.946 66.1062H23.7758V82.1112H56.946V66.1062Z" fill="#8F312C"/>
<path d="M55.5829 85.2341V88.2789C51.039 90.6992 45.7378 92.1045 40.1337 92.1045C34.6811 92.1045 29.4556 90.7773 25.0632 88.5131V85.3121C25.0632 81.4085 26.7293 77.9733 29.4556 75.3969C32.182 72.8204 36.0442 71.1809 40.3609 71.1809C44.4504 71.1809 48.1612 72.6643 50.9633 75.0846C51.039 75.1626 51.1147 75.2407 51.1905 75.3188C53.841 77.8171 55.5829 81.3304 55.5829 85.2341Z" fill="#AF3F3F"/>
<path d="M9.38685 63.4517C14.2386 63.4517 18.1717 59.397 18.1717 54.3952C18.1717 49.3935 14.2386 45.3387 9.38685 45.3387C4.53514 45.3387 0.602051 49.3935 0.602051 54.3952C0.602051 59.397 4.53514 63.4517 9.38685 63.4517Z" fill="#F3998A"/>
<path d="M71.4863 63.4517C76.3381 63.4517 80.2711 59.397 80.2711 54.3952C80.2711 49.3935 76.3381 45.3387 71.4863 45.3387C66.6346 45.3387 62.7015 49.3935 62.7015 54.3952C62.7015 59.397 66.6346 63.4517 71.4863 63.4517Z" fill="#F3998A"/>
<path d="M62.3986 24.0248C56.7945 18.2474 48.9942 14.656 40.4366 14.656C23.3214 14.656 9.38684 29.0215 9.38684 46.666V62.2025C9.38684 74.2258 15.824 84.6876 25.3661 90.1527C29.8342 92.7291 34.9839 94.2125 40.4366 94.2125C46.0407 94.2125 51.3418 92.651 55.8857 89.9965C65.2006 84.4533 71.4863 74.0696 71.4863 62.2025V46.666C71.4863 37.8437 68.0027 29.8022 62.3986 24.0248ZM40.2851 79.6909C36.1956 79.6909 32.4848 78.1294 29.7585 75.4749C27.4866 73.367 25.8962 70.6344 25.1389 67.5115C24.6845 65.5597 26.1234 63.6078 28.0924 63.6078H52.5535C54.5226 63.6078 55.9614 65.5597 55.5071 67.5115C54.7497 70.4783 53.3109 73.1327 51.1904 75.1626C48.3126 77.9733 44.5261 79.6909 40.2851 79.6909Z" fill="#F7B3A2"/>
<path d="M24.9874 49.6328C23.4728 49.6328 22.2611 48.3837 22.2611 46.8222V44.0116C22.2611 42.4501 23.4728 41.2009 24.9874 41.2009C26.502 41.2009 27.7137 42.4501 27.7137 44.0116V46.8222C27.7137 48.3837 26.502 49.6328 24.9874 49.6328Z" fill="white" stroke="white" stroke-miterlimit="10"/>
<path d="M55.5071 49.6328C53.9925 49.6328 52.7808 48.3837 52.7808 46.8222V44.0116C52.7808 42.4501 53.9925 41.2009 55.5071 41.2009C57.0217 41.2009 58.2334 42.4501 58.2334 44.0116V46.8222C58.3091 48.3837 57.0217 49.6328 55.5071 49.6328Z" fill="white" stroke="white" stroke-miterlimit="10"/>
<path d="M62.3229 53.5365H48.6913V44.1677C48.6913 40.264 51.7205 37.1411 55.5071 37.1411C59.2936 37.1411 62.3229 40.264 62.3229 44.1677V53.5365Z" fill="white"/>
<path d="M31.8032 53.5365H18.1716V44.1677C18.1716 40.264 21.2009 37.1411 24.9874 37.1411C28.774 37.1411 31.8032 40.264 31.8032 44.1677V53.5365Z" fill="white"/>
<path d="M24.9874 58.2208C30.0483 58.2208 34.1509 56.9274 34.1509 55.3321C34.1509 53.7367 30.0483 52.4434 24.9874 52.4434C19.9266 52.4434 15.824 53.7367 15.824 55.3321C15.824 56.9274 19.9266 58.2208 24.9874 58.2208Z" fill="#F7B3A2"/>
<path d="M55.5071 58.2208C60.5679 58.2208 64.6705 56.9274 64.6705 55.3321C64.6705 53.7367 60.5679 52.4434 55.5071 52.4434C50.4462 52.4434 46.3436 53.7367 46.3436 55.3321C46.3436 56.9274 50.4462 58.2208 55.5071 58.2208Z" fill="#F7B3A2"/>
<path d="M26.4264 51.5065H25.0632C24.3059 51.5065 23.7001 50.8819 23.7001 50.1012V44.1676C23.7001 43.3869 24.3059 42.7623 25.0632 42.7623H26.4264C27.1837 42.7623 27.7896 43.3869 27.7896 44.1676V50.1012C27.8653 50.8819 27.1837 51.5065 26.4264 51.5065Z" fill="#4C4B4B"/>
<path d="M55.4314 51.1943H54.0682C53.3109 51.1943 52.7051 50.5697 52.7051 49.7889V43.8554C52.7051 43.0747 53.3109 42.4501 54.0682 42.4501H55.4314C56.1887 42.4501 56.7945 43.0747 56.7945 43.8554V49.7889C56.8703 50.5697 56.2644 51.1943 55.4314 51.1943Z" fill="#4C4B4B"/>
<path d="M42.4056 45.7291V47.9152C42.4056 49.0863 41.4968 50.1012 40.2851 50.1012C39.1492 50.1012 38.1647 49.1644 38.1647 47.9152V45.7291C38.1647 44.558 39.0734 43.5431 40.2851 43.5431C41.4211 43.5431 42.4056 44.558 42.4056 45.7291Z" fill="#EA9587"/>
<path d="M42.4056 47.9152H38.1647V51.0381H42.4056V47.9152Z" fill="#EA9587"/>
<path d="M47.1767 53.3803C47.1767 55.1759 45.7378 56.6593 43.996 56.6593H36.8016C35.0597 56.6593 33.6208 55.1759 33.6208 53.3803C33.6208 51.5846 35.0597 50.1012 36.8016 50.1012H43.996C45.7378 50.1012 47.1767 51.5065 47.1767 53.3803Z" fill="#EA9587"/>
<path d="M52.2506 32.5348C60.4065 32.5348 67.0181 25.7187 67.0181 17.3106C67.0181 8.90243 60.4065 2.0863 52.2506 2.0863C44.0947 2.0863 37.483 8.90243 37.483 17.3106C37.483 25.7187 44.0947 32.5348 52.2506 32.5348Z" fill="#E4E5E4"/>
<path d="M28.0924 32.5348C36.2483 32.5348 42.8599 25.7187 42.8599 17.3106C42.8599 8.90243 36.2483 2.0863 28.0924 2.0863C19.9365 2.0863 13.3248 8.90243 13.3248 17.3106C13.3248 25.7187 19.9365 32.5348 28.0924 32.5348Z" fill="#E4E5E4"/>
<path d="M68.5328 36.7507C73.8864 36.7507 78.2264 32.2766 78.2264 26.7574C78.2264 21.2382 73.8864 16.764 68.5328 16.764C63.1792 16.764 58.8392 21.2382 58.8392 26.7574C58.8392 32.2766 63.1792 36.7507 68.5328 36.7507Z" fill="#E4E5E4"/>
<path d="M15.3696 36.7507C20.7232 36.7507 25.0632 32.2766 25.0632 26.7574C25.0632 21.2382 20.7232 16.764 15.3696 16.764C10.016 16.764 5.67603 21.2382 5.67603 26.7574C5.67603 32.2766 10.016 36.7507 15.3696 36.7507Z" fill="#E4E5E4"/>
<path d="M71.7893 46.8222C76.0554 46.8222 79.5138 43.2568 79.5138 38.8587C79.5138 34.4606 76.0554 30.8953 71.7893 30.8953C67.5231 30.8953 64.0647 34.4606 64.0647 38.8587C64.0647 43.2568 67.5231 46.8222 71.7893 46.8222Z" fill="#E4E5E4"/>
<path d="M8.70528 46.8222C12.9714 46.8222 16.4298 43.2568 16.4298 38.8587C16.4298 34.4606 12.9714 30.8953 8.70528 30.8953C4.43912 30.8953 0.980713 34.4606 0.980713 38.8587C0.980713 43.2568 4.43912 46.8222 8.70528 46.8222Z" fill="#E4E5E4"/>
<path d="M39.755 16.1394C44.0211 16.1394 47.4795 12.5741 47.4795 8.17598C47.4795 3.77788 44.0211 0.212524 39.755 0.212524C35.4888 0.212524 32.0304 3.77788 32.0304 8.17598C32.0304 12.5741 35.4888 16.1394 39.755 16.1394Z" fill="#E4E5E4"/>
</g>
<defs>
<clipPath id="clip0">
<rect width="79.6691" height="94" fill="white" transform="translate(0.602051 0.212524)"/>
</clipPath>
</defs>
</svg>
