<svg width="526" height="852" viewBox="0 0 526 852" fill="none" xmlns="http://www.w3.org/2000/svg">
<g clip-path="url(#clip0_856:3)">
<path d="M510.331 813.06L486.542 850.51L58.9415 849.51L32.6815 822.08C23.5963 812.57 16.6375 801.237 12.2669 788.832C7.89638 776.427 6.21402 763.235 7.33149 750.13C10.8001 708.793 17.8839 667.84 28.5015 627.74C31.7315 615.55 35.3415 603.32 41.5715 592.35C58.3115 562.91 91.1215 546.92 122.571 534.42C137.041 528.67 173.262 523.28 191.021 518.26C192.254 519.818 193.664 521.227 195.221 522.46C215.661 539.54 240.961 548.46 266.031 547.41C291.102 548.41 316.401 539.54 336.831 522.46C338.731 520.987 340.388 519.226 341.741 517.24C357.741 522.53 390.111 527.24 405.561 533.42C437.042 545.92 469.852 561.91 486.561 591.35C492.792 602.35 496.401 614.55 499.632 626.74C511.701 672.345 519.201 719.039 522.021 766.13C523.031 782.602 518.95 798.986 510.331 813.06Z" fill="white"/>
<path d="M25.5002 643.74C28.7302 631.55 32.3402 619.32 38.5702 608.35C55.3102 578.91 88.1201 562.92 119.57 550.42C134.04 544.67 170.26 539.28 188.02 534.26C189.253 535.818 190.662 537.227 192.22 538.46C212.66 555.54 237.96 564.46 263.03 563.41C288.1 564.41 313.4 555.54 333.83 538.46C335.729 536.987 337.386 535.226 338.74 533.24C354.74 538.53 387.11 543.24 402.56 549.42C434.04 561.92 466.85 577.91 483.56 607.35C489.79 618.35 493.4 630.55 496.63 642.74C508.223 686.602 515.589 731.474 518.63 776.74C519.133 772.205 519.25 767.635 518.98 763.08C516.16 715.989 508.659 669.295 496.59 623.69C493.36 611.5 489.75 599.27 483.52 588.3C466.78 558.86 433.97 542.87 402.52 530.37C387.07 524.22 354.68 519.48 338.7 514.19C337.346 516.176 335.69 517.937 333.79 519.41C313.36 536.49 288.06 545.41 262.99 544.36C237.92 545.36 212.62 536.49 192.18 519.41C190.622 518.177 189.213 516.768 187.98 515.21C170.22 520.21 133.98 525.62 119.53 531.37C88.0602 543.87 55.2502 559.86 38.5302 589.3C32.3002 600.3 28.6901 612.5 25.4601 624.69C14.8532 664.808 7.78279 705.778 4.33015 747.13C3.84452 752.889 3.89474 758.68 4.48015 764.43C7.99715 723.67 15.03 683.289 25.5002 643.74Z" fill="#F4F4F4"/>
<path d="M488.761 851.65L480.321 846.29L504.111 808.84C512.221 795.674 516.063 780.324 515.111 764.89C512.303 718.13 504.853 671.765 492.871 626.48C489.871 615.05 486.381 602.99 480.291 592.28C464.441 564.4 433.181 549 401.771 536.52C393.551 533.25 380.531 530.31 367.941 527.52C357.291 525.12 347.231 522.85 339.871 520.37L343.061 510.89C349.921 513.2 359.741 515.42 370.141 517.76C383.141 520.69 396.511 523.76 405.461 527.27C438.571 540.43 471.611 556.82 488.991 587.38C495.671 599.13 499.491 612.38 502.551 623.96C514.686 669.878 522.226 716.89 525.061 764.3C526.145 781.802 521.789 799.211 512.591 814.14L488.761 851.65Z" fill="#385868"/>
<path d="M53.3308 851.43L27.0708 824C17.499 813.977 10.1668 802.034 5.56029 788.962C0.953743 775.891 -0.82199 761.99 0.350788 748.18C3.85114 706.554 10.9816 665.314 21.6608 624.93C24.7208 613.39 28.5308 600.1 35.2208 588.35C52.6008 557.79 85.6308 541.35 118.751 528.24C127.681 524.69 142.751 521.39 157.371 518.24C169.141 515.66 180.261 513.24 187.151 510.91L190.341 520.39C182.931 522.88 171.561 525.39 159.511 528.01C145.301 531.12 130.611 534.34 122.441 537.58C91.0008 550 59.7708 565.41 43.9108 593.29C37.8208 604 34.3508 616.06 31.3308 627.49C20.7991 667.304 13.7657 707.962 10.3108 749C9.25914 761.399 10.855 773.88 14.9927 785.615C19.1303 797.35 25.7152 808.072 34.3108 817.07L60.5708 844.5L53.3308 851.43Z" fill="#385868"/>
<path d="M462.25 564.549L433.82 604.2L436.258 605.948L464.688 566.297L462.25 564.549Z" fill="#385868"/>
<path d="M444.5 582L442.07 580.24C446.85 573.64 448.95 570.8 450.98 568.04C453.01 565.28 455.1 562.46 459.86 555.88L462.29 557.64C457.52 564.22 455.42 567.07 453.39 569.82C451.36 572.57 449.27 575.41 444.5 582Z" fill="#385868"/>
<path d="M340.48 850.51V525.54L186.48 524.51V850.51H340.48Z" fill="#83D0C7"/>
<path d="M118.629 531.48H110.629V688.02H118.629V531.48Z" fill="#385868"/>
<path d="M114.48 725C107.855 725 101.378 723.035 95.8689 719.354C90.3598 715.673 86.0661 710.441 83.5305 704.32C80.995 698.199 80.3316 691.463 81.6242 684.965C82.9168 678.466 86.1073 672.497 90.7924 667.812C95.4775 663.127 101.447 659.936 107.945 658.644C114.443 657.351 121.179 658.015 127.3 660.55C133.422 663.086 138.654 667.379 142.335 672.888C146.016 678.397 147.98 684.874 147.98 691.5C147.97 700.382 144.437 708.896 138.157 715.176C131.877 721.457 123.362 724.989 114.48 725ZM114.48 666C109.437 666 104.507 667.496 100.313 670.298C96.12 673.1 92.8516 677.082 90.9216 681.742C88.9915 686.401 88.4865 691.528 89.4705 696.475C90.4544 701.421 92.883 705.965 96.4493 709.531C100.015 713.098 104.559 715.526 109.506 716.51C114.452 717.494 119.579 716.989 124.239 715.059C128.898 713.129 132.881 709.861 135.683 705.667C138.485 701.474 139.98 696.543 139.98 691.5C139.973 684.739 137.283 678.258 132.503 673.478C127.722 668.697 121.241 666.008 114.48 666Z" fill="#385868"/>
<path d="M115 738.51C105.605 738.51 96.4218 735.724 88.6104 730.505C80.7991 725.285 74.7109 717.867 71.1157 709.187C67.5206 700.508 66.5799 690.957 68.4127 681.743C70.2455 672.529 74.7695 664.065 81.4125 657.422C88.0554 650.779 96.5191 646.256 105.733 644.423C114.947 642.59 124.498 643.531 133.177 647.126C141.857 650.721 149.275 656.809 154.495 664.62C159.714 672.432 162.5 681.615 162.5 691.01C162.487 703.604 157.478 715.678 148.573 724.583C139.668 733.488 127.594 738.497 115 738.51ZM115 651.51C107.188 651.51 99.5507 653.827 93.055 658.167C86.5593 662.507 81.4964 668.676 78.5068 675.894C75.5171 683.112 74.7349 691.054 76.259 698.716C77.7831 706.378 81.5451 713.417 87.0693 718.941C92.5935 724.465 99.6317 728.227 107.294 729.751C114.956 731.275 122.898 730.493 130.116 727.503C137.334 724.514 143.503 719.451 147.843 712.955C152.183 706.459 154.5 698.822 154.5 691.01C154.489 680.537 150.324 670.496 142.919 663.091C135.514 655.686 125.473 651.521 115 651.51Z" fill="#385868"/>
<path d="M426.48 636.51V671H380.48V636.5C380.48 633.317 381.745 630.265 383.995 628.015C386.246 625.764 389.298 624.5 392.48 624.5H414.48C416.057 624.5 417.618 624.811 419.075 625.414C420.532 626.018 421.855 626.903 422.969 628.018C424.084 629.134 424.967 630.458 425.57 631.915C426.172 633.372 426.482 634.933 426.48 636.51Z" fill="#DCA892"/>
<path d="M414.48 624.51H392.48C389.298 624.51 386.246 625.774 383.995 628.025C381.745 630.275 380.48 633.327 380.48 636.51V646.51C380.48 643.327 381.745 640.275 383.995 638.025C386.246 635.774 389.298 634.51 392.48 634.51H414.48C417.663 634.51 420.715 635.774 422.966 638.025C425.216 640.275 426.48 643.327 426.48 646.51V636.51C426.48 633.327 425.216 630.275 422.966 628.025C420.715 625.774 417.663 624.51 414.48 624.51Z" fill="#C48E7C"/>
<path d="M446.98 670.01H426.48V676.01H446.98V670.01Z" fill="#385868"/>
<path d="M380.48 670.01H358.98V676.01H380.48V670.01Z" fill="#385868"/>
<path d="M429.48 676H377.48V638.5C377.48 634.522 379.061 630.706 381.874 627.893C384.687 625.08 388.502 623.5 392.48 623.5H414.48C418.459 623.5 422.274 625.08 425.087 627.893C427.9 630.706 429.48 634.522 429.48 638.5V676ZM383.48 670H423.48V638.5C423.48 636.113 422.532 633.824 420.844 632.136C419.157 630.448 416.867 629.5 414.48 629.5H392.48C390.094 629.5 387.804 630.448 386.116 632.136C384.429 633.824 383.48 636.113 383.48 638.5V670Z" fill="#385868"/>
<path d="M337.48 528.51V548.77C317.875 556.888 297.045 561.657 275.86 562.88C246.331 564.617 216.794 559.617 189.48 548.26V527.51L337.48 528.51Z" fill="#78C1B6"/>
<path d="M401.442 230.92C418.702 228.17 434.732 243.25 439.442 260.1C444.152 276.95 440.372 294.83 436.632 311.9C434.782 320.33 432.552 329.41 425.882 334.9C422.052 338.04 417.192 339.61 412.372 340.78C404.335 342.751 396.105 343.831 387.832 344" fill="#FFCDAA"/>
<path d="M431.481 286C431.483 296.711 427.343 307.008 419.927 314.737C412.511 322.466 402.394 327.029 391.691 327.47L401.491 246.11C410.138 248.611 417.738 253.853 423.146 261.048C428.555 268.242 431.48 276.999 431.481 286Z" fill="#E0B698"/>
<path d="M387.91 346L387.75 338C395.712 337.843 403.633 336.814 411.37 334.93C415.37 333.93 419.96 332.57 423.28 329.85C428.73 325.37 430.75 317.8 432.67 309.09C436.13 293.34 440.04 275.49 435.53 259.21C430.35 240.5 414.12 230.99 402.06 232.92L400.8 225.02C420.65 221.86 438.29 239.2 443.24 257.08C448.24 275.27 444.14 294.15 440.48 310.81C438.76 318.67 436.39 329.43 428.36 336.04C423.8 339.79 418.17 341.52 413.26 342.71C404.956 344.73 396.455 345.833 387.91 346Z" fill="#385868"/>
<path d="M411.461 281.16C409.221 283.184 407.129 285.366 405.201 287.69C403.636 289.58 402.215 291.586 400.951 293.69C398.811 297.32 398.071 299.87 398.701 300.28C400.081 301.14 406.261 293.35 415.241 285.36C424.221 277.37 432.561 271.99 431.851 270.52C431.511 269.84 428.851 270.31 425.061 272.05C422.828 273.08 420.675 274.276 418.621 275.63C416.105 277.299 413.712 279.147 411.461 281.16Z" fill="#385868"/>
<path d="M425.033 304.821C426.345 303.971 423.106 296.643 417.8 288.453C412.493 280.263 407.128 274.312 405.816 275.162C404.505 276.012 407.743 283.34 413.05 291.531C418.356 299.721 423.721 305.671 425.033 304.821Z" fill="#385868"/>
<path d="M121.001 230.92C103.741 228.17 87.7106 243.25 83.0006 260.1C78.2906 276.95 82.0706 294.83 85.8106 311.9C87.6606 320.33 89.8906 329.41 96.5606 334.9C100.391 338.04 105.251 339.61 110.071 340.78C118.095 342.748 126.311 343.828 134.571 344" fill="#FFCDAA"/>
<path d="M90.9297 286C90.9283 296.711 95.0686 307.008 102.484 314.737C109.9 322.466 120.017 327.029 130.72 327.47L120.92 246.11C112.273 248.611 104.674 253.853 99.2647 261.048C93.8558 268.242 90.9307 276.999 90.9297 286Z" fill="#E0B698"/>
<path d="M134.5 346C125.951 345.831 117.447 344.724 109.14 342.7C104.23 341.5 98.5998 339.78 94.0398 336.03C86.0398 329.43 83.6398 318.66 81.9198 310.8C78.2698 294.14 74.1198 275.26 79.1598 257.07C84.1598 239.19 101.75 221.85 121.6 225.01L120.34 232.91C108.28 230.99 92.0498 240.49 86.8698 259.2C82.3598 275.47 86.2798 293.33 89.7298 309.08C91.6398 317.79 93.6698 325.36 99.1198 329.84C102.44 332.57 107.01 333.94 111.03 334.92C118.767 336.807 126.688 337.84 134.65 338L134.5 346Z" fill="#385868"/>
<path d="M111 281.16C113.24 283.184 115.332 285.366 117.26 287.69C118.825 289.58 120.246 291.586 121.51 293.69C123.65 297.32 124.39 299.87 123.76 300.28C122.38 301.14 116.2 293.35 107.22 285.36C98.2398 277.37 89.8398 272 90.5498 270.54C90.8898 269.86 93.5498 270.33 97.3398 272.07C99.5735 273.1 101.726 274.296 103.78 275.65C106.316 277.311 108.729 279.152 111 281.16Z" fill="#385868"/>
<path d="M109.354 291.476C114.661 283.286 117.899 275.957 116.588 275.107C115.276 274.257 109.911 280.208 104.604 288.398C99.2979 296.588 96.0594 303.916 97.3711 304.766C98.6828 305.616 104.048 299.666 109.354 291.476Z" fill="#385868"/>
<path d="M335.169 411.15C334.046 441.688 335.969 472.263 340.909 502.42C341.479 505.88 342.079 509.53 341.069 512.85C340.069 516.33 337.409 518.78 334.849 520.92C314.079 538.27 288.299 547.18 262.849 545.82H265.249C239.789 547.18 214.009 538.27 193.249 520.92C190.689 518.78 188.079 516.32 187.029 512.85C186.029 509.53 186.629 505.85 187.189 502.42C192.13 472.263 194.053 441.688 192.929 411.15" fill="#FFCDAA"/>
<path d="M338.912 481.67C335.526 484.05 332.102 486.383 328.642 488.67C308.112 502.04 285.102 512.76 261.382 511.36C234.532 509.78 211.042 493.24 189.542 474.36C189.916 463.647 189.899 452.927 189.492 442.2H338.642C338.136 455.327 338.226 468.483 338.912 481.67Z" fill="#E0B698"/>
<path d="M260.082 551C235.082 551 210.392 541.81 190.082 524.8C186.862 522.11 183.682 518.97 182.282 514.33C180.942 509.9 181.662 505.51 182.282 501.65C187.17 471.82 189.072 441.577 187.962 411.37L197.962 411C199.094 441.87 197.148 472.776 192.152 503.26C191.672 506.19 191.152 509.26 191.842 511.43C192.452 513.43 194.072 515.1 196.482 517.11C215.782 533.24 239.292 541.64 262.882 540.95V540.85H265.282V540.95C288.882 541.66 312.382 533.24 331.682 517.11C334.092 515.11 335.682 513.44 336.322 511.43C336.992 509.22 336.492 506.19 336.012 503.26C331.005 472.777 329.049 441.871 330.172 411L340.172 411.37C339.061 441.577 340.964 471.82 345.852 501.65C346.492 505.52 347.212 509.9 345.852 514.33C344.452 518.97 341.272 522.1 338.052 524.8C316.622 542.71 290.392 551.95 264.052 550.93C262.732 550.94 261.402 551 260.082 551Z" fill="#385868"/>
<path d="M258.78 514.08C260.028 513.938 261.26 513.681 262.46 513.31C262.99 513.1 263.54 512.95 264 512.71C264.23 512.6 264.49 512.52 264.7 512.4L265.33 512.07C266.94 511.22 268.03 510.38 268.69 510.73C269 510.9 269.11 511.34 269.01 512.06C268.958 512.489 268.829 512.906 268.63 513.29C268.405 513.809 268.112 514.297 267.76 514.74C267.567 514.987 267.357 515.243 267.13 515.51C266.883 515.767 266.623 516.01 266.35 516.24C265.752 516.759 265.102 517.215 264.41 517.6C262.821 518.464 261.073 518.999 259.272 519.17C257.471 519.342 255.654 519.148 253.93 518.6C253.177 518.342 252.454 518.007 251.77 517.6C251.457 517.426 251.153 517.236 250.86 517.03C250.587 516.817 250.33 516.607 250.09 516.4C249.66 516.031 249.28 515.607 248.96 515.14C248.691 514.802 248.485 514.42 248.35 514.01C248.11 513.32 248.14 512.87 248.41 512.64C248.99 512.17 250.22 512.79 251.97 513.32L252.65 513.53C252.88 513.6 253.15 513.63 253.4 513.7C253.89 513.85 254.46 513.89 255.02 514C256.268 514.144 257.527 514.171 258.78 514.08Z" fill="#516D7B"/>
<path d="M263.079 82.8799C279.709 83.7599 299.019 84.2399 315.609 82.3499C329.719 80.7399 345.959 71.26 359.899 76.26C366.359 78.57 371.649 83.7999 376.509 89.1599C386.689 100.38 396.029 113.16 400.939 128.25C412.079 162.57 398.449 201.09 403.469 237.25L403.539 237.74C409.153 275.752 406.928 314.511 396.999 351.63L387.139 387.94C379.762 415.095 363.654 439.068 341.3 456.159C318.946 473.251 291.588 482.51 263.449 482.51C235.31 482.51 207.952 473.251 185.598 456.159C163.244 439.068 147.136 415.095 139.759 387.94L129.899 351.63C119.973 314.5 117.754 275.73 123.379 237.71L123.449 237.22C128.449 201.08 114.839 162.56 125.979 128.22C130.889 113.1 140.239 100.36 150.409 89.1299C155.269 83.7699 160.569 78.5499 167.019 76.2299C180.959 71.2299 197.199 80.71 211.309 82.32C227.899 84.21 247.219 83.7299 263.839 82.8499" fill="#FFCDAA"/>
<path d="M401.609 204.27C402.529 185.27 405.349 166.09 404.179 147.64C403.249 166.41 400.459 185.58 401.609 204.27Z" fill="#E0B698"/>
<path d="M120.779 147.64C119.599 166.09 122.429 185.26 123.349 204.27C124.499 185.58 121.709 166.41 120.779 147.64Z" fill="#E0B698"/>
<path d="M396.002 327.63L386.142 363.94C378.765 391.095 362.657 415.068 340.302 432.159C317.948 449.251 290.591 458.51 262.452 458.51C234.312 458.51 206.955 449.251 184.601 432.159C162.247 415.068 146.138 391.095 138.762 363.94L128.902 327.63C123.416 307.323 120.285 286.453 119.572 265.43C118.548 293.143 121.693 320.852 128.902 347.63L138.762 383.94C146.138 411.095 162.247 435.068 184.601 452.159C206.955 469.251 234.312 478.51 262.452 478.51C290.591 478.51 317.948 469.251 340.302 452.159C362.657 435.068 378.765 411.095 386.142 383.94L396.002 347.63C403.21 320.852 406.355 293.143 405.332 265.43C404.618 286.453 401.487 307.323 396.002 327.63Z" fill="#E0B698"/>
<path d="M402.492 169.85C367.682 133.49 317.762 110.72 262.312 110.72C206.592 110.72 156.462 133.72 121.642 170.36C121.552 158.72 122.572 147.28 126.142 136.28C131.052 121.16 140.402 108.41 150.582 97.2C155.442 91.84 160.742 86.61 167.192 84.3C181.132 79.3 197.362 88.78 211.482 90.39C227.962 92.27 247.132 91.81 263.672 90.94C287.762 92.26 312.242 93.5 335.672 86.85C336.892 86.5 338.112 86.13 339.322 85.74C343.198 84.5086 347.295 84.131 351.331 84.6334C355.367 85.1357 359.246 86.506 362.702 88.65C366.634 91.285 370.299 94.2994 373.642 97.65C379.362 103.3 385.392 109.06 389.732 116.32C399.002 131.82 402.242 151.4 402.492 169.85Z" fill="#E0B698"/>
<path d="M200.569 208C197.862 208.03 195.159 208.24 192.479 208.63C191.169 208.79 189.909 209.05 188.649 209.26C187.389 209.47 186.189 209.77 185.009 210.1C180.788 211.178 176.664 212.606 172.679 214.37C165.779 217.37 161.609 220.02 160.679 219C160.249 218.53 160.729 217.23 162.139 215.34C164.206 212.755 166.634 210.482 169.349 208.59C173.371 205.706 177.786 203.416 182.459 201.79C183.769 201.29 185.159 200.92 186.569 200.49C187.979 200.06 189.459 199.76 190.969 199.49C194.085 198.896 197.248 198.578 200.419 198.54C206.376 198.544 212.313 199.214 218.119 200.54C223.309 201.65 227.849 202.79 231.689 203.88C239.349 206.06 243.979 208.05 243.759 209.33C243.539 210.61 238.519 210.95 230.569 210.46C226.569 210.22 221.859 209.74 216.719 209.13C211.367 208.397 205.972 208.019 200.569 208Z" fill="#E1B79B"/>
<path d="M327.692 198.21C330.321 197.515 332.993 196.997 335.692 196.66C336.992 196.46 338.282 196.38 339.552 196.25C340.822 196.12 342.062 196.08 343.282 196.09C347.631 196.005 351.979 196.283 356.282 196.92C363.732 197.99 368.462 199.42 369.092 198.18C369.382 197.61 368.572 196.49 366.712 195.04C364.031 193.097 361.084 191.552 357.962 190.45C353.317 188.742 348.45 187.711 343.512 187.39C342.112 187.26 340.672 187.27 339.202 187.24C337.732 187.21 336.202 187.3 334.702 187.46C331.54 187.72 328.408 188.259 325.342 189.07C319.601 190.659 314.056 192.886 308.812 195.71C304.112 198.16 300.042 200.47 296.622 202.54C289.822 206.68 285.892 209.83 286.442 211.01C286.992 212.19 291.932 211.18 299.442 208.58C303.192 207.29 307.642 205.58 312.442 203.58C317.401 201.455 322.495 199.661 327.692 198.21Z" fill="#E1B79B"/>
<path d="M323.42 185.63C326.486 184.822 329.619 184.287 332.78 184.03C334.31 183.87 335.78 183.85 337.28 183.81C338.78 183.77 340.19 183.81 341.59 183.96C346.514 184.279 351.366 185.302 356 187C359.122 188.102 362.069 189.647 364.75 191.59C366.61 193.03 367.42 194.16 367.13 194.73C366.5 195.97 361.77 194.54 354.32 193.47C350.017 192.833 345.668 192.555 341.32 192.64C340.1 192.64 338.86 192.75 337.59 192.8C336.32 192.85 335.03 193.01 333.73 193.21C331.032 193.544 328.359 194.059 325.73 194.75C320.526 196.21 315.425 198.014 310.46 200.15C305.67 202.15 301.22 203.83 297.46 205.15C289.93 207.74 285 208.75 284.46 207.57C283.92 206.39 287.84 203.24 294.64 199.1C298.06 197.03 302.13 194.72 306.83 192.27C312.093 189.442 317.658 187.215 323.42 185.63Z" fill="#385868"/>
<path d="M201.312 202.8C198.604 202.83 195.901 203.04 193.222 203.43C191.912 203.59 190.652 203.85 189.392 204.06C188.132 204.27 186.932 204.57 185.752 204.9C181.53 205.978 177.406 207.406 173.422 209.17C166.522 212.17 162.352 214.82 161.422 213.8C160.992 213.33 161.472 212.03 162.882 210.14C164.948 207.555 167.377 205.282 170.092 203.39C174.113 200.506 178.528 198.216 183.202 196.59C184.512 196.09 185.902 195.72 187.312 195.29C188.722 194.86 190.202 194.56 191.712 194.29C194.828 193.696 197.99 193.378 201.162 193.34C207.118 193.343 213.055 194.014 218.862 195.34C224.052 196.45 228.592 197.59 232.432 198.68C240.092 200.86 244.722 202.85 244.502 204.13C244.282 205.41 239.262 205.75 231.312 205.26C227.312 205.02 222.602 204.54 217.462 203.93C212.109 203.197 206.714 202.819 201.312 202.8Z" fill="#385868"/>
<path d="M262.481 487.51C233.261 487.459 204.866 477.818 181.655 460.067C158.445 442.316 141.703 417.437 134.001 389.25L124.141 352.94C114.001 315.7 111.761 276.69 117.461 237L117.531 236.53C119.621 221.53 118.331 205.58 117.081 190.17C115.371 169.05 113.611 147.17 120.261 126.7C124.681 113.1 132.771 100.1 145.751 85.8C151.001 80 156.941 74.21 164.371 71.55C175.001 67.73 186.491 71.06 196.601 74C201.275 75.5139 206.064 76.6443 210.921 77.38C228.201 79.38 248.481 78.63 262.341 77.9H262.621C276.481 78.63 296.771 79.35 314.041 77.38C318.899 76.6442 323.688 75.5138 328.361 74C338.461 71.06 349.921 67.73 360.581 71.55C368.001 74.21 373.931 80 379.221 85.8C392.221 100.1 400.291 113.1 404.711 126.7C411.371 147.2 409.601 169.05 407.891 190.17C406.641 205.59 405.351 221.53 407.441 236.54L407.511 237.01C413.211 276.69 410.981 315.7 400.861 352.94L391.001 389.25C383.298 417.443 366.55 442.328 343.332 460.079C320.113 477.831 291.708 487.468 262.481 487.51ZM174.921 79.81C172.481 79.7885 170.055 80.1912 167.751 81C162.681 82.82 158.251 86.93 153.151 92.55C141.151 105.77 133.731 117.61 129.771 129.82C123.771 148.42 125.341 168.32 127.051 189.4C128.341 205.4 129.671 221.85 127.441 237.95L127.371 238.46C121.861 276.79 124.021 314.46 133.771 350.36L143.631 386.67C150.722 412.763 166.202 435.799 187.683 452.221C209.164 468.644 235.452 477.542 262.491 477.542C289.531 477.542 315.819 468.644 337.3 452.221C358.781 435.799 374.261 412.763 381.351 386.67L391.211 350.36C400.961 314.44 403.121 276.8 397.611 238.47L397.541 237.95C395.301 221.86 396.641 205.36 397.931 189.41C399.631 168.34 401.241 148.41 395.211 129.83C391.211 117.62 383.821 105.78 371.831 92.56C366.731 86.94 362.301 82.83 357.231 81.01C349.621 78.28 340.661 80.89 331.171 83.64C325.95 85.3177 320.598 86.5586 315.171 87.35C297.321 89.35 276.681 88.68 262.471 87.94C248.261 88.68 227.631 89.38 209.771 87.35C204.344 86.5589 198.993 85.318 193.771 83.64C187.161 81.67 180.771 79.81 174.921 79.81Z" fill="#385868"/>
<path d="M222.913 14.53C221.323 6.52998 222.123 -0.0300196 222.913 -1.95814e-05C223.703 0.0299804 224.333 6.33998 225.853 13.95C227.373 21.56 229.213 27.64 228.413 27.95C227.613 28.26 224.463 22.49 222.913 14.53Z" fill="#385868"/>
<path d="M168.061 18.2799C168.753 16.5116 169.919 14.9683 171.431 13.8199C172.621 12.9799 173.551 12.8199 173.781 13.1299C174.261 13.8399 172.141 16.0599 170.851 19.4099C169.561 22.7599 169.451 25.7899 168.621 25.9699C168.231 26.0399 167.681 25.2799 167.411 23.8499C167.11 21.9689 167.335 20.041 168.061 18.2799Z" fill="#385868"/>
<path d="M183.29 14.95C182.737 11.9755 182.737 8.92448 183.29 5.94999C183.76 3.68999 184.44 2.40999 184.83 2.48999C185.68 2.66999 185.05 8.02999 186.22 14.39C187.39 20.75 189.73 25.58 188.99 26.04C188.65 26.25 187.57 25.28 186.36 23.32C184.836 20.7402 183.795 17.9036 183.29 14.95Z" fill="#385868"/>
<path d="M418.001 182C423.001 176.68 425.411 171.08 426.241 171.37C426.611 171.5 426.491 173.12 425.581 175.54C423.03 181.857 418.232 187.008 412.111 190C409.761 191.09 408.111 191.33 408.001 191C407.641 190.17 413.051 187.35 418.001 182Z" fill="#385868"/>
<path d="M425 122.16C426.656 122.338 428.218 123.014 429.48 124.1C430.42 124.96 430.7 125.76 430.48 126.1C429.89 126.71 427.63 125.49 424.69 125.19C421.75 124.89 419.28 125.44 418.85 124.7C418.66 124.35 419.12 123.64 420.24 123.03C421.704 122.269 423.362 121.966 425 122.16Z" fill="#385868"/>
<path d="M423.352 117.44C424.706 116.184 426.297 115.212 428.032 114.58C429.382 114.13 430.312 114.15 430.472 114.52C430.792 115.31 428.152 117.1 425.372 119.66C422.592 122.22 420.522 124.66 419.772 124.25C419.422 124.05 419.492 123.12 420.062 121.83C420.855 120.162 421.973 118.669 423.352 117.44Z" fill="#385868"/>
<path d="M97.7007 112.27C94.1307 108.9 90.2307 107.44 90.4207 106.6C90.5107 106.22 91.6807 106.07 93.4907 106.53C95.8229 107.207 97.9653 108.418 99.748 110.067C101.531 111.716 102.905 113.757 103.761 116.03C104.361 117.79 104.301 118.97 103.931 119.09C103.091 119.35 101.341 115.57 97.7007 112.27Z" fill="#385868"/>
<path d="M97.4297 117.48C96.5291 116.903 95.5786 116.408 94.5897 116C93.7673 115.674 92.9216 115.41 92.0597 115.21C90.5597 114.86 89.5097 114.75 89.4197 114.32C89.3297 113.89 90.3197 113.32 92.1897 113.09C93.2805 112.999 94.3789 113.09 95.4397 113.36C98.065 114.028 100.383 115.574 102.01 117.74C102.666 118.613 103.173 119.59 103.51 120.63C104.06 122.42 103.81 123.63 103.44 123.63C103.07 123.63 102.5 122.78 101.6 121.53C101.083 120.822 100.515 120.154 99.8997 119.53C99.1393 118.774 98.3126 118.088 97.4297 117.48Z" fill="#385868"/>
<path d="M420.299 149.51C416.299 179.09 407.669 199.26 403.699 228.84C397.279 201.23 398.449 182.17 387.699 155.84C376.949 129.51 357.409 104.84 329.799 96.2399C317.799 92.4999 304.939 92.0199 292.319 91.9199C275.819 91.7933 259.336 92.3499 242.869 93.5899C226.969 94.7899 210.559 96.5899 196.489 103.98C167.489 119.23 156.049 153.36 147.099 184.29C143.179 197.84 138.099 214.91 134.159 228.46L130.769 237.38C126.769 210.38 120.339 177.25 114.959 146.61C110.808 123.041 112.743 98.8023 120.579 76.1899C127.203 57.0942 141.087 41.3787 159.22 32.4498C177.353 23.5209 198.274 22.0981 217.449 28.4899L271.449 13.8999C289.158 9.11217 307.738 8.50712 325.721 12.1325C343.704 15.758 360.598 23.5146 375.069 34.7899L376.429 35.8499C393.36 49.0368 406.387 66.5796 414.114 86.6007C421.842 106.622 423.98 128.367 420.299 149.51Z" fill="#CB9280"/>
<path opacity="0.5" d="M372.432 34.86L371.072 33.8C351.044 18.2018 326.531 9.45807 301.152 8.85999C319.713 12.3324 337.174 20.1983 352.072 31.8L353.432 32.86C370.362 46.046 383.387 63.5872 391.115 83.6063C398.842 103.625 400.981 125.369 397.302 146.51C395.801 157.217 393.698 167.83 391.002 178.3C394.492 194.17 395.352 209.02 399.722 227.83C403.722 198.25 412.352 178.08 416.322 148.5C419.997 127.359 417.854 105.616 410.123 85.5986C402.392 65.5814 389.364 48.0429 372.432 34.86Z" fill="#805872"/>
<path d="M210.541 27.05C204.291 37.52 195.411 46.67 186.281 54.91C172.341 67.52 157.071 79.19 146.871 95C132.711 116.9 129.871 144.33 131.551 170.36C132.403 183.964 134.349 197.478 137.371 210.77C135.561 216.95 133.781 223.01 132.191 228.5L128.801 237.43C124.801 210.38 118.371 177.3 112.991 146.66C108.839 123.091 110.773 98.8521 118.611 76.24C124.923 57.9715 137.898 42.7588 154.942 33.6444C171.986 24.5299 191.843 22.1855 210.541 27.08V27.05Z" fill="#D39C8D"/>
<path d="M207.3 262.31C217.307 262.31 225.42 254.197 225.42 244.19C225.42 234.183 217.307 226.07 207.3 226.07C197.292 226.07 189.18 234.183 189.18 244.19C189.18 254.197 197.292 262.31 207.3 262.31Z" fill="#385868"/>
<path d="M321.952 262.31C331.959 262.31 340.072 254.197 340.072 244.19C340.072 234.183 331.959 226.07 321.952 226.07C311.945 226.07 303.832 234.183 303.832 244.19C303.832 254.197 311.945 262.31 321.952 262.31Z" fill="#385868"/>
<path d="M315.663 242.34C318.115 242.34 320.103 240.352 320.103 237.9C320.103 235.448 318.115 233.46 315.663 233.46C313.211 233.46 311.223 235.448 311.223 237.9C311.223 240.352 313.211 242.34 315.663 242.34Z" fill="white"/>
<path d="M201.01 242.34C203.462 242.34 205.45 240.352 205.45 237.9C205.45 235.448 203.462 233.46 201.01 233.46C198.558 233.46 196.57 235.448 196.57 237.9C196.57 240.352 198.558 242.34 201.01 242.34Z" fill="white"/>
<path d="M123.651 257.12L120.851 238.12C118.121 219.58 114.141 197.73 110.301 176.6C108.551 166.99 106.741 157.04 105.061 147.49C100.782 123.083 102.784 97.989 110.881 74.57C117.851 54.48 132.368 37.8927 151.358 28.3225C170.347 18.7522 192.316 16.9508 212.611 23.3L265.171 9.09001C283.632 4.14923 302.986 3.54248 321.72 7.31714C340.455 11.0918 358.063 19.1457 373.171 30.85L374.531 31.91C392.183 45.6268 405.767 63.8911 413.825 84.743C421.883 105.595 424.111 128.248 420.271 150.27C418.271 165.27 415.011 178.06 411.871 190.4C408.801 202.49 405.621 214.99 403.681 229.5L400.001 256.6L393.831 230C391.421 219.62 390.071 210.54 388.771 201.75C386.641 187.39 384.631 173.83 378.101 157.75C366.331 128.87 346.371 108.2 323.341 101.04C311.721 97.43 299.171 97.04 287.341 96.95C271.051 96.82 254.561 97.38 238.341 98.61C223.141 99.75 207.181 101.45 193.921 108.44C167.111 122.5 156.001 154.32 146.931 185.7C144.931 192.48 142.711 200.14 140.461 207.8C138.211 215.46 136.001 223.1 134.001 229.87L133.871 230.26L123.651 257.12ZM188.131 29.54C173.215 29.5715 158.678 34.2387 146.531 42.8955C134.384 51.5524 125.228 63.7709 120.331 77.86C112.789 99.6696 110.924 123.04 114.911 145.77C116.581 155.3 118.391 165.23 120.141 174.82C122.671 188.73 125.261 202.95 127.521 216.36L130.861 205C133.111 197.36 135.361 189.71 137.321 183C147.001 149.47 159.001 115.48 189.191 99.58C204.191 91.71 221.271 89.85 237.521 88.58C254.041 87.34 270.821 86.77 287.381 86.9C299.991 87 313.381 87.43 326.311 91.44C352.201 99.49 374.451 122.27 387.311 153.93C394.311 171.09 396.401 185.23 398.621 200.21L398.781 201.32C399.861 196.74 400.991 192.32 402.111 187.9C405.181 175.81 408.361 163.31 410.301 148.8V148.61C413.851 128.363 411.817 107.531 404.417 88.3525C397.017 69.1743 384.531 52.3751 368.301 39.76L367.001 38.74C353.124 27.9859 336.949 20.5852 319.739 17.1158C302.529 13.6464 284.751 14.2023 267.791 18.74L212.341 33.74L210.911 33.26C203.567 30.803 195.875 29.5469 188.131 29.54Z" fill="#385868"/>
<path opacity="0.4" d="M205.06 276.67C223.054 276.67 237.64 262.083 237.64 244.09C237.64 226.097 223.054 211.51 205.06 211.51C187.067 211.51 172.48 226.097 172.48 244.09C172.48 262.083 187.067 276.67 205.06 276.67Z" fill="#B5E5F7"/>
<path opacity="0.5" d="M223.919 219.62L211.999 276.37C206.953 277.739 201.652 277.883 196.539 276.79L209.939 213C215.066 214.044 219.863 216.315 223.919 219.62Z" fill="white"/>
<path opacity="0.5" d="M203.52 214L190.31 276.8C187.869 275.812 185.559 274.529 183.43 272.98L195.68 214.74C197.941 214.254 200.247 214.009 202.56 214.01L203.52 214Z" fill="white"/>
<path d="M205.06 281.68C197.628 281.68 190.362 279.476 184.182 275.347C178.002 271.217 173.185 265.348 170.341 258.481C167.497 251.614 166.753 244.058 168.203 236.769C169.653 229.479 173.232 222.783 178.487 217.527C183.743 212.271 190.439 208.692 197.729 207.242C205.019 205.792 212.575 206.536 219.442 209.381C226.309 212.225 232.178 217.042 236.307 223.222C240.436 229.402 242.64 236.667 242.64 244.1C242.627 254.063 238.664 263.614 231.619 270.658C224.574 277.703 215.023 281.667 205.06 281.68ZM205.06 216.51C199.606 216.51 194.273 218.128 189.738 221.158C185.202 224.189 181.667 228.496 179.58 233.536C177.492 238.575 176.946 244.121 178.01 249.471C179.075 254.821 181.701 259.735 185.558 263.592C189.416 267.449 194.33 270.076 199.68 271.14C205.03 272.204 210.575 271.658 215.615 269.571C220.654 267.483 224.962 263.948 227.992 259.413C231.023 254.877 232.64 249.545 232.64 244.09C232.633 236.778 229.724 229.767 224.554 224.597C219.383 219.426 212.373 216.518 205.06 216.51Z" fill="#385868"/>
<path opacity="0.4" d="M322.06 276.67C340.054 276.67 354.64 262.083 354.64 244.09C354.64 226.097 340.054 211.51 322.06 211.51C304.067 211.51 289.48 226.097 289.48 244.09C289.48 262.083 304.067 276.67 322.06 276.67Z" fill="#B5E5F7"/>
<path opacity="0.5" d="M340.919 219.62L328.999 276.37C323.953 277.739 318.652 277.883 313.539 276.79L326.939 213C332.066 214.044 336.863 216.315 340.919 219.62Z" fill="white"/>
<path opacity="0.5" d="M320.52 214L307.31 276.8C304.869 275.812 302.559 274.529 300.43 272.98L312.68 214.74C314.941 214.254 317.247 214.009 319.56 214.01L320.52 214Z" fill="white"/>
<path d="M322.06 281.68C314.628 281.68 307.362 279.476 301.182 275.347C295.002 271.217 290.185 265.348 287.341 258.481C284.497 251.614 283.753 244.058 285.203 236.769C286.653 229.479 290.232 222.783 295.487 217.527C300.743 212.271 307.439 208.692 314.729 207.242C322.019 205.792 329.575 206.536 336.442 209.381C343.309 212.225 349.178 217.042 353.307 223.222C357.436 229.402 359.641 236.667 359.641 244.1C359.627 254.063 355.664 263.614 348.619 270.658C341.574 277.703 332.023 281.667 322.06 281.68ZM322.06 216.51C316.606 216.51 311.273 218.128 306.738 221.158C302.202 224.189 298.667 228.496 296.58 233.536C294.492 238.575 293.946 244.121 295.01 249.471C296.075 254.821 298.701 259.735 302.558 263.592C306.416 267.449 311.33 270.076 316.68 271.14C322.03 272.204 327.575 271.658 332.615 269.571C337.654 267.483 341.962 263.948 344.992 259.413C348.023 254.877 349.641 249.545 349.641 244.09C349.633 236.778 346.724 229.767 341.554 224.597C336.383 219.426 329.373 216.518 322.06 216.51Z" fill="#385868"/>
<path d="M289.481 232.91H238.621V242.91H289.481V232.91Z" fill="#385868"/>
<path d="M269.48 261.51H259.48V339.51H269.48V261.51Z" fill="#385868"/>
<path d="M212.532 406.76C243.642 425.43 286.612 424.9 317.752 406.65C322.752 403.72 318.222 395.94 313.212 398.88C284.782 415.54 245.482 416.03 217.072 398.99C212.072 395.99 207.562 403.78 212.532 406.76Z" fill="#385868"/>
<path d="M279.672 427.51H250.172V430.51H279.672V427.51Z" fill="#385868"/>
<path d="M297.891 76.3C306.167 77.33 314.342 79.0493 322.331 81.44C328.865 83.3913 335.221 85.8936 341.331 88.92C345.449 90.9578 349.409 93.2975 353.181 95.92C355.831 97.79 357.181 98.92 357.091 99.1C356.841 99.48 351.001 95.31 340.561 90.6C334.448 87.8575 328.141 85.568 321.691 83.75C313.791 81.5256 305.735 79.8977 297.591 78.88C280.231 76.73 264.301 77.21 252.831 77.82C241.361 78.43 234.241 79.15 234.191 78.76C234.191 78.59 235.921 78.2 239.111 77.69C242.301 77.18 246.941 76.56 252.701 76.02C267.731 74.4901 282.882 74.584 297.891 76.3Z" fill="#BC887A"/>
<path d="M277.68 68.12C286.019 68.2667 294.331 69.1096 302.53 70.64C309.228 71.8873 315.808 73.7005 322.2 76.06C326.507 77.6357 330.692 79.5276 334.72 81.72C337.55 83.3 339.03 84.33 338.95 84.46C338.74 84.86 332.49 81.34 321.61 77.76C315.24 75.6815 308.726 74.0738 302.12 72.95C294.028 71.5783 285.845 70.8161 277.64 70.67C260.15 70.37 244.36 72.54 233.02 74.37C221.68 76.2 214.67 77.67 214.59 77.29C214.59 77.12 216.25 76.55 219.37 75.7C222.49 74.85 227.04 73.7 232.7 72.59C247.489 69.4884 262.569 67.9897 277.68 68.12Z" fill="#BC887A"/>
<path d="M129.392 74.15C131.973 69.322 135.104 64.8086 138.722 60.7C141.705 57.336 145.169 54.4313 149.002 52.08C151.591 50.509 154.393 49.3201 157.322 48.55C159.402 48.08 160.582 48 160.612 48.16C160.742 48.62 156.062 49.46 149.972 53.6C146.447 56.0591 143.256 58.9669 140.482 62.25C137.088 66.3089 134.119 70.7053 131.622 75.37C129.073 80.0235 126.906 84.8761 125.142 89.88C123.708 93.9511 122.703 98.1605 122.142 102.44C121.771 105.331 121.664 108.25 121.822 111.16C121.912 113.23 122.032 114.4 121.822 114.43C121.612 114.46 121.232 113.36 120.822 111.27C120.272 108.304 120.107 105.279 120.332 102.27C120.653 97.8053 121.516 93.3963 122.902 89.14C124.59 83.9507 126.763 78.9318 129.392 74.15Z" fill="#BC887A"/>
<path d="M318.802 26.37C323.062 27.9234 327.169 29.8649 331.073 32.17C332.833 33.29 334.532 34.32 335.992 35.46C336.732 36.02 337.473 36.52 338.133 37.07L340.022 38.67C341.101 39.5873 342.132 40.5585 343.112 41.58C343.552 42.02 343.963 42.43 344.323 42.82L345.263 43.94C346.383 45.3 346.932 46.1 346.802 46.22C346.492 46.51 343.803 43.77 338.883 40.08L336.943 38.65C336.273 38.16 335.522 37.71 334.772 37.2C333.292 36.2 331.612 35.2 329.872 34.2C322.216 29.9047 313.889 26.933 305.242 25.41C303.242 25.11 301.352 24.76 299.552 24.63C298.652 24.55 297.792 24.42 296.962 24.38L294.562 24.26C288.432 24.02 284.562 24.42 284.562 24C284.562 23.83 285.473 23.55 287.193 23.21L288.633 22.94C289.163 22.86 289.742 22.81 290.362 22.75C291.767 22.5821 293.179 22.4854 294.592 22.46H297.062C297.922 22.46 298.812 22.53 299.742 22.57C301.602 22.57 303.563 22.89 305.633 23.14C310.112 23.8113 314.521 24.8925 318.802 26.37Z" fill="#BC887A"/>
<path d="M157.171 107.88C159.72 104.408 162.728 101.296 166.111 98.6299C168.878 96.4433 171.946 94.6683 175.221 93.3599C177.418 92.4719 179.726 91.8865 182.081 91.6199C183.741 91.4599 184.671 91.5499 184.681 91.7099C184.741 92.1499 181.091 92.5199 175.941 95.0199C172.946 96.4901 170.142 98.3203 167.591 100.47C164.465 103.106 161.662 106.104 159.241 109.4C154.081 116.47 150.831 123.85 148.431 129.15C146.031 134.45 144.541 137.78 144.201 137.65C143.861 137.52 144.801 134.02 146.761 128.48C149.233 121.153 152.739 114.216 157.171 107.88Z" fill="#BC887A"/>
<path d="M162.569 92C164.655 90.7143 166.879 89.6677 169.199 88.88C170.213 88.5481 171.244 88.2743 172.289 88.06C173.192 87.8598 174.108 87.7195 175.029 87.64C178.419 87.33 180.489 87.79 180.479 88.1C180.469 88.41 178.479 88.68 175.329 89.42C174.549 89.61 173.699 89.81 172.819 90.11C171.939 90.41 170.989 90.73 170.009 91.11C165.774 92.7817 161.885 95.2228 158.539 98.31C157.789 99.04 157.049 99.71 156.429 100.42C155.809 101.13 155.219 101.76 154.709 102.42C152.709 104.9 151.639 106.65 151.279 106.48C150.919 106.31 151.479 104.29 153.279 101.37C153.732 100.547 154.24 99.7552 154.799 99C155.445 98.1509 156.14 97.3396 156.879 96.57C158.599 94.8387 160.508 93.3057 162.569 92Z" fill="#BC887A"/>
<path d="M394.223 113.17C394.652 107.601 394.525 102.003 393.843 96.4599C393.413 92.1399 393.223 89.4599 393.583 89.3599C393.943 89.2599 394.733 91.8899 395.583 96.1899C396.822 101.851 397.203 107.666 396.713 113.44C396.373 116.663 395.585 119.824 394.373 122.83C393.386 125.293 392.038 127.595 390.373 129.66C387.463 133.18 384.823 134.35 384.683 134.1C384.543 133.85 386.593 132.1 388.923 128.58C391.882 123.934 393.698 118.653 394.223 113.17Z" fill="#BC887A"/>
<path d="M388.512 91.09C388.126 89.0327 387.622 86.9993 387.002 85C386.402 83.15 385.792 81.51 385.202 80.15C384.052 77.42 383.202 75.75 383.502 75.53C383.802 75.31 385.172 76.68 386.802 79.32C387.748 80.8761 388.554 82.5124 389.212 84.21C390.837 88.3938 391.639 92.8522 391.572 97.34C391.546 99.163 391.358 100.98 391.012 102.77C390.402 105.82 389.552 107.56 389.242 107.48C388.932 107.4 389.092 105.48 389.242 102.56C389.322 101.08 389.322 99.32 389.242 97.38C389.121 95.271 388.877 93.1708 388.512 91.09Z" fill="#BC887A"/>
<path d="M264.452 363.29C263.786 363.29 263.119 363.267 262.452 363.22C249.622 362.3 241.582 352.64 241.242 352.22L246.652 347.78C246.712 347.86 253.222 355.57 263.022 356.24C269.782 356.69 276.702 353.74 283.592 347.43L288.322 352.59C280.592 359.7 272.562 363.29 264.452 363.29Z" fill="#385868"/>
<path d="M189.48 518.51H179.48V850.51H189.48V518.51Z" fill="#385868"/>
<path d="M346.48 514.51H336.48V850.51H346.48V514.51Z" fill="#385868"/>
</g>
<defs>
<clipPath id="clip0_856:3">
<rect width="526" height="852" fill="white"/>
</clipPath>
</defs>
</svg>
