<svg width="1001" height="1001" viewBox="0 0 1001 1001" fill="none" xmlns="http://www.w3.org/2000/svg">
<g clip-path="url(#clip0_1050:1411)">
<path d="M667.008 371.906H349.008V379.906H667.008V371.906Z" fill="#202B52"/>
<path d="M667.008 363.906H349.008V371.906H667.008V363.906Z" fill="#3A4775"/>
<path d="M667.008 450.406H349.008V458.406H667.008V450.406Z" fill="#202B52"/>
<path d="M667.008 442.406H349.008V450.406H667.008V442.406Z" fill="#3A4775"/>
<path d="M667.008 532.006H349.008V540.006H667.008V532.006Z" fill="#202B52"/>
<path d="M667.008 524.006H349.008V532.006H667.008V524.006Z" fill="#3A4775"/>
<path d="M667.008 625.906H349.008V633.906H667.008V625.906Z" fill="#202B52"/>
<path d="M667.008 617.906H349.008V625.906H667.008V617.906Z" fill="#3A4775"/>
<path d="M410.708 398.906C425.62 398.906 437.708 386.818 437.708 371.906C437.708 356.994 425.62 344.906 410.708 344.906C395.796 344.906 383.708 356.994 383.708 371.906C383.708 386.818 395.796 398.906 410.708 398.906Z" fill="#3BCEFF"/>
<path d="M415.708 390.906C400.808 390.906 388.708 378.806 388.708 363.906C388.708 360.306 389.408 356.906 390.708 353.806C386.408 358.606 383.708 364.906 383.708 371.906C383.708 386.806 395.808 398.906 410.708 398.906C422.008 398.906 431.708 391.906 435.708 382.006C430.808 387.506 423.708 390.906 415.708 390.906Z" fill="#2FAFDC"/>
<path d="M410.708 398.906C425.62 398.906 437.708 386.818 437.708 371.906C437.708 356.994 425.62 344.906 410.708 344.906C395.796 344.906 383.708 356.994 383.708 371.906C383.708 386.818 395.796 398.906 410.708 398.906Z" stroke="#202B52" stroke-width="6" stroke-miterlimit="10" stroke-linecap="round" stroke-linejoin="round"/>
<path d="M475.708 398.906C490.62 398.906 502.708 386.818 502.708 371.906C502.708 356.994 490.62 344.906 475.708 344.906C460.796 344.906 448.708 356.994 448.708 371.906C448.708 386.818 460.796 398.906 475.708 398.906Z" fill="#12B0FF"/>
<path d="M480.708 390.906C465.808 390.906 453.708 378.806 453.708 363.906C453.708 360.306 454.408 356.906 455.708 353.806C451.408 358.606 448.708 364.906 448.708 371.906C448.708 386.806 460.808 398.906 475.708 398.906C487.008 398.906 496.708 391.906 500.708 382.006C495.808 387.506 488.708 390.906 480.708 390.906Z" fill="#129BE5"/>
<path d="M475.708 398.906C490.62 398.906 502.708 386.818 502.708 371.906C502.708 356.994 490.62 344.906 475.708 344.906C460.796 344.906 448.708 356.994 448.708 371.906C448.708 386.818 460.796 398.906 475.708 398.906Z" stroke="#202B52" stroke-width="6" stroke-miterlimit="10" stroke-linecap="round" stroke-linejoin="round"/>
<path d="M539.708 398.906C554.62 398.906 566.708 386.818 566.708 371.906C566.708 356.994 554.62 344.906 539.708 344.906C524.796 344.906 512.708 356.994 512.708 371.906C512.708 386.818 524.796 398.906 539.708 398.906Z" fill="#5392FF"/>
<path d="M544.708 390.906C529.808 390.906 517.708 378.806 517.708 363.906C517.708 360.306 518.408 356.906 519.708 353.806C515.408 358.606 512.708 364.906 512.708 371.906C512.708 386.806 524.808 398.906 539.708 398.906C551.008 398.906 560.708 391.906 564.708 382.006C559.808 387.506 552.708 390.906 544.708 390.906Z" fill="#487FDF"/>
<path d="M539.708 398.906C554.62 398.906 566.708 386.818 566.708 371.906C566.708 356.994 554.62 344.906 539.708 344.906C524.796 344.906 512.708 356.994 512.708 371.906C512.708 386.818 524.796 398.906 539.708 398.906Z" stroke="#202B52" stroke-width="6" stroke-miterlimit="10" stroke-linecap="round" stroke-linejoin="round"/>
<path d="M508.008 477.406C522.92 477.406 535.008 465.318 535.008 450.406C535.008 435.494 522.92 423.406 508.008 423.406C493.096 423.406 481.008 435.494 481.008 450.406C481.008 465.318 493.096 477.406 508.008 477.406Z" fill="#F8D96B"/>
<path d="M514.008 470.406C499.108 470.406 487.008 458.306 487.008 443.406C487.008 438.406 488.408 433.606 490.808 429.606C484.808 434.606 481.008 442.006 481.008 450.406C481.008 465.306 493.108 477.406 508.008 477.406C517.908 477.406 526.508 472.106 531.208 464.206C526.608 468.106 520.608 470.406 514.008 470.406Z" fill="#F2B955"/>
<path d="M508.008 477.406C522.92 477.406 535.008 465.318 535.008 450.406C535.008 435.494 522.92 423.406 508.008 423.406C493.096 423.406 481.008 435.494 481.008 450.406C481.008 465.318 493.096 477.406 508.008 477.406Z" stroke="#202B52" stroke-width="6" stroke-miterlimit="10" stroke-linecap="round" stroke-linejoin="round"/>
<path d="M608.808 477.406C623.72 477.406 635.808 465.318 635.808 450.406C635.808 435.494 623.72 423.406 608.808 423.406C593.896 423.406 581.808 435.494 581.808 450.406C581.808 465.318 593.896 477.406 608.808 477.406Z" fill="#FC3A4D"/>
<path d="M614.808 470.406C599.908 470.406 587.808 458.306 587.808 443.406C587.808 438.406 589.208 433.606 591.608 429.606C585.608 434.606 581.808 442.006 581.808 450.406C581.808 465.306 593.908 477.406 608.808 477.406C618.708 477.406 627.308 472.106 632.008 464.206C627.308 468.106 621.308 470.406 614.808 470.406Z" fill="#E82E4A"/>
<path d="M608.808 477.406C623.72 477.406 635.808 465.318 635.808 450.406C635.808 435.494 623.72 423.406 608.808 423.406C593.896 423.406 581.808 435.494 581.808 450.406C581.808 465.318 593.896 477.406 608.808 477.406Z" stroke="#202B52" stroke-width="6" stroke-miterlimit="10" stroke-linecap="round" stroke-linejoin="round"/>
<path d="M410.708 559.006C425.62 559.006 437.708 546.918 437.708 532.006C437.708 517.095 425.62 505.006 410.708 505.006C395.796 505.006 383.708 517.095 383.708 532.006C383.708 546.918 395.796 559.006 410.708 559.006Z" fill="#87D14B"/>
<path d="M416.708 552.006C401.808 552.006 389.708 539.906 389.708 525.006C389.708 520.006 391.108 515.206 393.508 511.206C387.508 516.206 383.708 523.606 383.708 532.006C383.708 546.906 395.808 559.006 410.708 559.006C420.608 559.006 429.208 553.706 433.908 545.806C429.208 549.606 423.208 552.006 416.708 552.006Z" fill="#79BA3A"/>
<path d="M427.708 532.006C427.708 522.606 420.108 515.006 410.708 515.006" stroke="white" stroke-width="3" stroke-miterlimit="10" stroke-linecap="round" stroke-linejoin="round"/>
<path d="M410.708 559.006C425.62 559.006 437.708 546.918 437.708 532.006C437.708 517.095 425.62 505.006 410.708 505.006C395.796 505.006 383.708 517.095 383.708 532.006C383.708 546.918 395.796 559.006 410.708 559.006Z" stroke="#202B52" stroke-width="6" stroke-miterlimit="10" stroke-linecap="round" stroke-linejoin="round"/>
<path d="M481.008 559.006C495.92 559.006 508.008 546.918 508.008 532.006C508.008 517.095 495.92 505.006 481.008 505.006C466.096 505.006 454.008 517.095 454.008 532.006C454.008 546.918 466.096 559.006 481.008 559.006Z" fill="#78D698"/>
<path d="M481.008 559.006C495.92 559.006 508.008 546.918 508.008 532.006C508.008 517.095 495.92 505.006 481.008 505.006C466.096 505.006 454.008 517.095 454.008 532.006C454.008 546.918 466.096 559.006 481.008 559.006Z" fill="#78D698"/>
<path d="M487.008 552.006C472.108 552.006 460.008 539.906 460.008 525.006C460.008 520.006 461.408 515.206 463.808 511.206C457.808 516.206 454.008 523.606 454.008 532.006C454.008 546.906 466.108 559.006 481.008 559.006C490.908 559.006 499.508 553.706 504.208 545.806C499.608 549.606 493.608 552.006 487.008 552.006Z" fill="#5BC47B"/>
<path d="M498.008 532.006C498.008 522.606 490.408 515.006 481.008 515.006" stroke="white" stroke-width="3" stroke-miterlimit="10" stroke-linecap="round" stroke-linejoin="round"/>
<path d="M481.008 559.006C495.92 559.006 508.008 546.918 508.008 532.006C508.008 517.095 495.92 505.006 481.008 505.006C466.096 505.006 454.008 517.095 454.008 532.006C454.008 546.918 466.096 559.006 481.008 559.006Z" stroke="#202B52" stroke-width="6" stroke-miterlimit="10" stroke-linecap="round" stroke-linejoin="round"/>
<path d="M452.008 652.906C466.92 652.906 479.008 640.818 479.008 625.906C479.008 610.994 466.92 598.906 452.008 598.906C437.096 598.906 425.008 610.994 425.008 625.906C425.008 640.818 437.096 652.906 452.008 652.906Z" fill="#E17555"/>
<path d="M458.008 645.906C443.108 645.906 431.008 633.806 431.008 618.906C431.008 613.906 432.408 609.106 434.808 605.106C428.808 610.106 425.008 617.506 425.008 625.906C425.008 640.806 437.108 652.906 452.008 652.906C461.908 652.906 470.508 647.606 475.208 639.706C470.608 643.606 464.608 645.906 458.008 645.906Z" fill="#E45E5B"/>
<path d="M469.008 625.906C469.008 616.506 461.408 608.906 452.008 608.906" stroke="white" stroke-width="3" stroke-miterlimit="10" stroke-linecap="round" stroke-linejoin="round"/>
<path d="M452.008 652.906C466.92 652.906 479.008 640.818 479.008 625.906C479.008 610.994 466.92 598.906 452.008 598.906C437.096 598.906 425.008 610.994 425.008 625.906C425.008 640.818 437.096 652.906 452.008 652.906Z" stroke="#202B52" stroke-width="6" stroke-miterlimit="10" stroke-linecap="round" stroke-linejoin="round"/>
<path d="M513.408 652.906C528.32 652.906 540.408 640.818 540.408 625.906C540.408 610.994 528.32 598.906 513.408 598.906C498.497 598.906 486.408 610.994 486.408 625.906C486.408 640.818 498.497 652.906 513.408 652.906Z" fill="#9E3B53"/>
<path d="M519.408 645.906C504.508 645.906 492.408 633.806 492.408 618.906C492.408 613.906 493.808 609.106 496.208 605.106C490.208 610.106 486.408 617.506 486.408 625.906C486.408 640.806 498.508 652.906 513.408 652.906C523.308 652.906 531.908 647.606 536.608 639.706C531.908 643.606 525.908 645.906 519.408 645.906Z" fill="#883042"/>
<path d="M530.408 625.906C530.408 616.506 522.808 608.906 513.408 608.906" stroke="white" stroke-width="3" stroke-miterlimit="10" stroke-linecap="round" stroke-linejoin="round"/>
<path d="M513.408 652.906C528.32 652.906 540.408 640.818 540.408 625.906C540.408 610.994 528.32 598.906 513.408 598.906C498.497 598.906 486.408 610.994 486.408 625.906C486.408 640.818 498.497 652.906 513.408 652.906Z" stroke="#202B52" stroke-width="6" stroke-miterlimit="10" stroke-linecap="round" stroke-linejoin="round"/>
<path d="M624.208 652.906C639.12 652.906 651.208 640.818 651.208 625.906C651.208 610.994 639.12 598.906 624.208 598.906C609.296 598.906 597.208 610.994 597.208 625.906C597.208 640.818 609.296 652.906 624.208 652.906Z" fill="#53325A"/>
<path d="M630.208 645.906C615.308 645.906 603.208 633.806 603.208 618.906C603.208 613.906 604.608 609.106 607.008 605.106C601.008 610.106 597.208 617.506 597.208 625.906C597.208 640.806 609.308 652.906 624.208 652.906C634.108 652.906 642.708 647.606 647.408 639.706C642.708 643.606 636.708 645.906 630.208 645.906Z" fill="#4A2D51"/>
<path d="M641.208 625.906C641.208 616.506 633.608 608.906 624.208 608.906" stroke="white" stroke-width="3" stroke-miterlimit="10" stroke-linecap="round" stroke-linejoin="round"/>
<path d="M624.208 652.906C639.12 652.906 651.208 640.818 651.208 625.906C651.208 610.994 639.12 598.906 624.208 598.906C609.296 598.906 597.208 610.994 597.208 625.906C597.208 640.818 609.296 652.906 624.208 652.906Z" stroke="#202B52" stroke-width="6" stroke-miterlimit="10" stroke-linecap="round" stroke-linejoin="round"/>
<path d="M332.008 683.206C322.108 683.206 314.008 675.106 314.008 665.206V335.406C314.008 325.506 322.108 317.406 332.008 317.406C341.908 317.406 350.008 325.506 350.008 335.406V665.206C350.008 675.106 342.008 683.206 332.008 683.206Z" fill="#FDBA4F"/>
<path d="M329.008 665.206V335.406C329.008 328.106 333.308 321.906 339.508 319.106C337.208 318.006 334.708 317.406 332.008 317.406C322.108 317.406 314.008 325.506 314.008 335.406V665.206C314.008 675.106 322.108 683.206 332.008 683.206C334.708 683.206 337.208 682.606 339.508 681.506C333.308 678.706 329.008 672.506 329.008 665.206Z" fill="#E89D3A"/>
<path d="M684.008 683.206C674.108 683.206 666.008 675.106 666.008 665.206V335.406C666.008 325.506 674.108 317.406 684.008 317.406C693.908 317.406 702.008 325.506 702.008 335.406V665.206C702.008 675.106 694.008 683.206 684.008 683.206Z" fill="#FDBA4F"/>
<path d="M681.008 665.206V335.406C681.008 328.106 685.308 321.906 691.508 319.106C689.208 318.006 686.708 317.406 684.008 317.406C674.108 317.406 666.008 325.506 666.008 335.406V665.206C666.008 675.106 674.108 683.206 684.008 683.206C686.708 683.206 689.208 682.606 691.508 681.506C685.308 678.706 681.008 672.506 681.008 665.206Z" fill="#E89D3A"/>
<path d="M332.008 683.206C322.108 683.206 314.008 675.106 314.008 665.206V335.406C314.008 325.506 322.108 317.406 332.008 317.406C341.908 317.406 350.008 325.506 350.008 335.406V665.206C350.008 675.106 342.008 683.206 332.008 683.206Z" stroke="#202B52" stroke-width="6" stroke-miterlimit="10" stroke-linecap="round" stroke-linejoin="round"/>
<path d="M684.008 683.206C674.108 683.206 666.008 675.106 666.008 665.206V335.406C666.008 325.506 674.108 317.406 684.008 317.406C693.908 317.406 702.008 325.506 702.008 335.406V665.206C702.008 675.106 694.008 683.206 684.008 683.206Z" stroke="#202B52" stroke-width="6" stroke-miterlimit="10" stroke-linecap="round" stroke-linejoin="round"/>
<path d="M427.708 371.906C427.708 362.506 420.108 354.906 410.708 354.906" stroke="white" stroke-width="3" stroke-miterlimit="10" stroke-linecap="round" stroke-linejoin="round"/>
<path d="M492.708 371.906C492.708 362.506 485.108 354.906 475.708 354.906" stroke="white" stroke-width="3" stroke-miterlimit="10" stroke-linecap="round" stroke-linejoin="round"/>
<path d="M556.708 371.906C556.708 362.506 549.108 354.906 539.708 354.906" stroke="white" stroke-width="3" stroke-miterlimit="10" stroke-linecap="round" stroke-linejoin="round"/>
<path d="M525.008 450.406C525.008 441.006 517.408 433.406 508.008 433.406" stroke="white" stroke-width="3" stroke-miterlimit="10" stroke-linecap="round" stroke-linejoin="round"/>
<path d="M625.808 450.406C625.808 441.006 618.208 433.406 608.808 433.406" stroke="white" stroke-width="3" stroke-miterlimit="10" stroke-linecap="round" stroke-linejoin="round"/>
</g>
<defs>
<clipPath id="clip0_1050:1411">
<rect width="1000" height="1000" fill="white" transform="translate(0.708008 0.306152)"/>
</clipPath>
</defs>
</svg>
