<svg width="159" height="44" viewBox="0 0 159 44" fill="none" xmlns="http://www.w3.org/2000/svg">
<path d="M23.4741 2.18531L28.245 15.5447L28.3635 15.8766H28.7159H44.0157L31.6798 24.031L31.3528 24.2471L31.4846 24.6162L36.2222 37.882L23.7498 29.6374L23.4741 29.4552L23.1983 29.6374L10.7259 37.882L15.4635 24.6162L15.5953 24.2471L15.2683 24.031L2.93241 15.8766H18.2322H18.5846L18.7031 15.5447L23.4741 2.18531Z" fill="#FFD800" stroke="#FFD800"/>
<path d="M134.793 2.18531L139.564 15.5447L139.683 15.8766H140.035H155.335L142.999 24.031L142.672 24.2471L142.804 24.6162L147.541 37.882L135.069 29.6374L134.793 29.4552L134.518 29.6374L122.045 37.882L126.783 24.6162L126.915 24.2471L126.588 24.031L114.252 15.8766H129.551H129.904L130.022 15.5447L134.793 2.18531Z" fill="#F0F4F0" stroke="#FFD800"/>
<path d="M78.2546 2.18531L83.0256 15.5447L83.1441 15.8766H83.4964H98.7962L86.4603 24.031L86.1334 24.2471L86.2652 24.6162L91.0027 37.882L78.5303 29.6374L78.2546 29.4552L77.9789 29.6374L65.5065 37.882L70.244 24.6162L70.3758 24.2471L70.0488 24.031L57.7129 15.8766H73.0128H73.3651L73.4836 15.5447L78.2546 2.18531Z" fill="#F0F4F0" stroke="#FFD800"/>
</svg>
