<svg width="159" height="44" viewBox="0 0 159 44" fill="none" xmlns="http://www.w3.org/2000/svg">
<path d="M23.6479 2.19396L28.4188 15.5534L28.5374 15.8852H28.8897H44.1895L31.8536 24.0396L31.5267 24.2558L31.6585 24.6249L36.396 37.8907L23.9236 29.6461L23.6479 29.4638L23.3722 29.6461L10.8998 37.8907L15.6373 24.6249L15.7691 24.2558L15.4421 24.0396L3.10624 15.8852H18.4061H18.7584L18.8769 15.5534L23.6479 2.19396Z" fill="#FFD800" stroke="#FFD800"/>
<path d="M134.967 2.19396L139.738 15.5534L139.857 15.8852H140.209H155.509L143.173 24.0396L142.846 24.2558L142.978 24.6249L147.715 37.8907L135.243 29.6461L134.967 29.4638L134.691 29.6461L122.219 37.8907L126.957 24.6249L127.088 24.2558L126.761 24.0396L114.425 15.8852H129.725H130.078L130.196 15.5534L134.967 2.19396Z" fill="#F0F4F0" stroke="#FFD800"/>
<path d="M78.4284 2.19396L83.1994 15.5534L83.3179 15.8852H83.6702H98.9701L86.6342 24.0396L86.3072 24.2558L86.439 24.6249L91.1765 37.8907L78.7041 29.6461L78.4284 29.4638L78.1527 29.6461L65.6803 37.8907L70.4178 24.6249L70.5496 24.2558L70.2227 24.0396L57.8868 15.8852H73.1866H73.5389L73.6574 15.5534L78.4284 2.19396Z" fill="#FFD800" stroke="#FFD800"/>
</svg>
