<svg width="752" height="559" viewBox="0 0 752 559" fill="none" xmlns="http://www.w3.org/2000/svg">
<g clip-path="url(#clip0_1030:1291)">
<path d="M490.698 61.3008H29.8388C15.8494 61.3008 4.50879 72.6414 4.50879 86.6308V200.921C4.50879 214.91 15.8494 226.251 29.8388 226.251H490.698C504.688 226.251 516.028 214.91 516.028 200.921V86.6308C516.028 72.6414 504.688 61.3008 490.698 61.3008Z" fill="#1DCDFF"/>
<path d="M516.03 164.541V216.371C516.03 221.831 505.03 226.251 491.54 226.251H29.03C15.5 226.251 4.54004 221.831 4.54004 216.371V186.371C35.72 194.631 71.22 200.201 107.63 203.661C151.63 207.841 196.98 209.061 242.14 209.241C296.14 209.461 351.04 208.151 401.87 200.821C448.45 194.131 491.64 181.771 516.03 164.541Z" fill="#1AB5E1"/>
<path d="M189.447 61.721C141.257 64.981 74.3275 61.831 32.7375 73.821C13.0275 79.491 8.14754 90.511 4.97754 99.621L5.02754 74.121C5.02754 70.851 5.30754 67.291 10.5375 64.791C17.0075 61.711 28.3775 61.471 38.3875 61.481C87.5375 61.491 141.267 59.331 189.447 61.721Z" fill="#4ED9FF"/>
<path d="M490.218 61.501H29.3583C15.3689 61.501 4.02832 72.8417 4.02832 86.831V201.121C4.02832 215.11 15.3689 226.451 29.3583 226.451H490.218C504.207 226.451 515.548 215.11 515.548 201.121V86.831C515.548 72.8417 504.207 61.501 490.218 61.501Z" stroke="#314E5D" stroke-width="8" stroke-miterlimit="10"/>
<path d="M721.699 317.301H194.909C180.919 317.301 169.579 328.642 169.579 342.631V456.921C169.579 470.91 180.919 482.251 194.909 482.251H721.699C735.688 482.251 747.029 470.91 747.029 456.921V342.631C747.029 328.642 735.688 317.301 721.699 317.301Z" fill="#1DCDFF"/>
<path d="M747.029 420.541V472.371C747.029 477.831 734.649 482.251 719.379 482.251H197.229C181.959 482.251 169.579 477.831 169.579 472.371V442.371C204.779 450.631 244.859 456.201 285.959 459.661C335.579 463.841 386.819 465.061 437.809 465.241C498.749 465.461 560.749 464.151 618.129 456.821C670.739 450.131 719.499 437.771 747.029 420.541Z" fill="#1AB5E1"/>
<path d="M378.347 317.721C323.947 320.981 248.347 317.831 201.437 329.821C179.167 335.501 173.677 346.521 170.087 355.631L170.157 330.121C170.157 326.851 170.467 323.291 176.377 320.791C183.687 317.711 196.517 317.471 207.817 317.481C263.297 317.491 323.967 315.331 378.347 317.721Z" fill="#4ED9FF"/>
<path d="M721.148 317.501H194.358C180.369 317.501 169.028 328.842 169.028 342.831V457.121C169.028 471.11 180.369 482.451 194.358 482.451H721.148C735.137 482.451 746.478 471.11 746.478 457.121V342.831C746.478 328.842 735.137 317.501 721.148 317.501Z" stroke="#314E5D" stroke-width="8" stroke-miterlimit="10"/>
<path d="M650.218 5.13086H104.138C95.3791 5.13086 88.2783 12.2316 88.2783 20.9908V534.641C88.2783 543.4 95.3791 550.501 104.138 550.501H650.218C658.977 550.501 666.078 543.4 666.078 534.641V20.9908C666.078 12.2316 658.977 5.13086 650.218 5.13086Z" fill="white"/>
<path d="M340.576 256.892C344.032 256.892 346.592 257.74 348.256 259.436C349.92 261.1 350.752 263.66 350.752 267.116V277.964C350.752 279.02 350.448 279.852 349.84 280.46C349.232 281.036 348.384 281.324 347.296 281.324C346.272 281.324 345.44 281.02 344.8 280.412C344.192 279.772 343.888 278.956 343.888 277.964V277.628C343.408 278.812 342.608 279.74 341.488 280.412C340.368 281.084 339.056 281.42 337.552 281.42C335.952 281.42 334.496 281.1 333.184 280.46C331.904 279.82 330.88 278.924 330.112 277.772C329.376 276.62 329.008 275.34 329.008 273.932C329.008 272.204 329.44 270.844 330.304 269.852C331.2 268.86 332.624 268.14 334.576 267.692C336.528 267.244 339.2 267.02 342.592 267.02H343.84V266.156C343.84 264.812 343.536 263.836 342.928 263.228C342.352 262.62 341.376 262.316 340 262.316C338.624 262.316 336.64 262.796 334.048 263.756C333.312 264.108 332.688 264.284 332.176 264.284C331.472 264.284 330.912 264.044 330.496 263.564C330.08 263.052 329.872 262.396 329.872 261.596C329.872 260.956 330.016 260.428 330.304 260.012C330.592 259.596 331.056 259.212 331.696 258.86C332.816 258.252 334.176 257.772 335.776 257.42C337.408 257.068 339.008 256.892 340.576 256.892ZM339.136 276.428C340.544 276.428 341.68 275.964 342.544 275.036C343.408 274.076 343.84 272.844 343.84 271.34V270.524H343.024C340.432 270.524 338.608 270.732 337.552 271.148C336.528 271.564 336.016 272.316 336.016 273.404C336.016 274.3 336.304 275.036 336.88 275.612C337.488 276.156 338.24 276.428 339.136 276.428ZM370.955 256.892C373.771 256.892 375.867 257.724 377.243 259.388C378.619 261.02 379.307 263.5 379.307 266.828V277.916C379.307 278.972 378.971 279.804 378.299 280.412C377.659 281.02 376.779 281.324 375.659 281.324C374.539 281.324 373.659 281.02 373.019 280.412C372.379 279.804 372.059 278.972 372.059 277.916V267.164C372.059 265.564 371.755 264.396 371.147 263.66C370.571 262.924 369.659 262.556 368.411 262.556C366.907 262.556 365.691 263.036 364.763 263.996C363.867 264.956 363.419 266.236 363.419 267.836V277.916C363.419 278.972 363.099 279.804 362.459 280.412C361.819 281.02 360.939 281.324 359.819 281.324C358.699 281.324 357.803 281.02 357.131 280.412C356.491 279.804 356.171 278.972 356.171 277.916V260.3C356.171 259.308 356.507 258.508 357.179 257.9C357.883 257.292 358.779 256.988 359.867 256.988C360.859 256.988 361.659 257.292 362.267 257.9C362.907 258.476 363.227 259.228 363.227 260.156V260.828C364.059 259.548 365.131 258.572 366.443 257.9C367.787 257.228 369.291 256.892 370.955 256.892ZM402.766 273.884C403.374 273.884 403.87 274.156 404.254 274.7C404.67 275.244 404.878 275.932 404.878 276.764C404.878 277.948 404.382 278.828 403.39 279.404C401.662 280.524 399.534 281.18 397.006 281.372L396.814 283.052C397.326 282.988 397.678 282.956 397.87 282.956C398.862 282.956 399.694 283.26 400.366 283.868C401.07 284.476 401.422 285.276 401.422 286.268C401.422 287.516 400.862 288.524 399.742 289.292C398.622 290.092 397.022 290.492 394.942 290.492C393.598 290.492 392.462 290.332 391.534 290.012C390.894 289.788 390.574 289.308 390.574 288.572C390.574 288.124 390.718 287.74 391.006 287.42C391.294 287.1 391.646 287.004 392.062 287.132C393.15 287.388 394.046 287.516 394.75 287.516C396.222 287.516 396.958 287.1 396.958 286.268C396.958 285.98 396.846 285.756 396.622 285.596C396.43 285.436 396.158 285.356 395.806 285.356C395.518 285.356 395.15 285.404 394.702 285.5C394.254 285.596 393.918 285.644 393.694 285.644C393.374 285.644 393.118 285.548 392.926 285.356C392.766 285.196 392.702 284.956 392.734 284.636L393.166 281.228C390.19 280.78 387.838 279.5 386.11 277.388C384.414 275.244 383.566 272.54 383.566 269.276C383.566 266.812 384.078 264.652 385.102 262.796C386.158 260.908 387.63 259.452 389.518 258.428C391.406 257.404 393.582 256.892 396.046 256.892C397.326 256.892 398.606 257.068 399.886 257.42C401.198 257.772 402.366 258.268 403.39 258.908C404.382 259.516 404.878 260.412 404.878 261.596C404.878 262.428 404.686 263.116 404.302 263.66C403.918 264.172 403.406 264.428 402.766 264.428C402.35 264.428 401.95 264.364 401.566 264.236C401.214 264.076 400.734 263.852 400.126 263.564C399.454 263.212 398.846 262.94 398.302 262.748C397.79 262.556 397.198 262.46 396.526 262.46C394.734 262.46 393.358 263.036 392.398 264.188C391.47 265.308 391.006 266.956 391.006 269.132C391.006 271.308 391.47 272.972 392.398 274.124C393.358 275.276 394.734 275.852 396.526 275.852C397.198 275.852 397.79 275.772 398.302 275.612C398.814 275.42 399.438 275.132 400.174 274.748C400.782 274.46 401.262 274.252 401.614 274.124C401.966 273.964 402.35 273.884 402.766 273.884ZM419.044 256.892C422.5 256.892 425.06 257.74 426.724 259.436C428.388 261.1 429.22 263.66 429.22 267.116V277.964C429.22 279.02 428.916 279.852 428.308 280.46C427.7 281.036 426.852 281.324 425.764 281.324C424.74 281.324 423.908 281.02 423.268 280.412C422.66 279.772 422.356 278.956 422.356 277.964V277.628C421.876 278.812 421.076 279.74 419.956 280.412C418.836 281.084 417.524 281.42 416.02 281.42C414.42 281.42 412.964 281.1 411.652 280.46C410.372 279.82 409.348 278.924 408.58 277.772C407.844 276.62 407.476 275.34 407.476 273.932C407.476 272.204 407.908 270.844 408.772 269.852C409.668 268.86 411.092 268.14 413.044 267.692C414.996 267.244 417.668 267.02 421.06 267.02H422.308V266.156C422.308 264.812 422.004 263.836 421.396 263.228C420.82 262.62 419.844 262.316 418.468 262.316C417.092 262.316 415.108 262.796 412.516 263.756C411.78 264.108 411.156 264.284 410.644 264.284C409.94 264.284 409.38 264.044 408.964 263.564C408.548 263.052 408.34 262.396 408.34 261.596C408.34 260.956 408.484 260.428 408.772 260.012C409.06 259.596 409.524 259.212 410.164 258.86C411.284 258.252 412.644 257.772 414.244 257.42C415.876 257.068 417.476 256.892 419.044 256.892ZM417.604 276.428C419.012 276.428 420.148 275.964 421.012 275.036C421.876 274.076 422.308 272.844 422.308 271.34V270.524H421.492C418.9 270.524 417.076 270.732 416.02 271.148C414.996 271.564 414.484 272.316 414.484 273.404C414.484 274.3 414.772 275.036 415.348 275.612C415.956 276.156 416.708 276.428 417.604 276.428Z" fill="#D91717"/>
<path d="M668.58 27.1109V107.441H90.79V27.1109C90.79 13.7509 97.89 2.90088 106.65 2.90088H652.72C661.48 2.90088 668.58 13.7509 668.58 27.1109Z" fill="#DCEAEF"/>
<path d="M649.527 4.2207H103.447C94.6877 4.2207 87.5869 11.3215 87.5869 20.0807V537.671C87.5869 546.43 94.6877 553.531 103.447 553.531H649.527C658.286 553.531 665.387 546.43 665.387 537.671V20.0807C665.387 11.3215 658.286 4.2207 649.527 4.2207Z" stroke="#314E5D" stroke-width="8" stroke-miterlimit="10"/>
<path d="M142.028 72.4409C148.655 72.4409 154.028 67.0683 154.028 60.4409C154.028 53.8135 148.655 48.4409 142.028 48.4409C135.401 48.4409 130.028 53.8135 130.028 60.4409C130.028 67.0683 135.401 72.4409 142.028 72.4409Z" fill="#EEA248"/>
<path d="M181.028 72.4409C187.655 72.4409 193.028 67.0683 193.028 60.4409C193.028 53.8135 187.655 48.4409 181.028 48.4409C174.401 48.4409 169.028 53.8135 169.028 60.4409C169.028 67.0683 174.401 72.4409 181.028 72.4409Z" fill="#EEA248"/>
<path d="M220.028 72.4409C226.655 72.4409 232.028 67.0683 232.028 60.4409C232.028 53.8135 226.655 48.4409 220.028 48.4409C213.401 48.4409 208.028 53.8135 208.028 60.4409C208.028 67.0683 213.401 72.4409 220.028 72.4409Z" fill="#EEA248"/>
<path d="M242.94 215.973C239.612 215.973 236.7 215.269 234.204 213.861C231.708 212.453 229.788 210.437 228.444 207.813C227.1 205.189 226.428 202.117 226.428 198.597C226.428 195.077 227.1 192.021 228.444 189.429C229.788 186.805 231.708 184.789 234.204 183.381C236.7 181.973 239.612 181.269 242.94 181.269C247.132 181.269 250.748 182.421 253.788 184.725C254.268 185.109 254.604 185.493 254.796 185.877C254.988 186.261 255.084 186.741 255.084 187.317C255.084 188.149 254.844 188.869 254.364 189.477C253.916 190.053 253.356 190.341 252.684 190.341C252.236 190.341 251.836 190.293 251.484 190.197C251.164 190.069 250.796 189.861 250.38 189.573C249.1 188.741 247.916 188.149 246.828 187.797C245.74 187.413 244.572 187.221 243.324 187.221C240.252 187.221 237.932 188.181 236.364 190.101C234.828 191.989 234.06 194.821 234.06 198.597C234.06 206.213 237.148 210.021 243.324 210.021C244.508 210.021 245.628 209.845 246.684 209.493C247.74 209.109 248.972 208.501 250.38 207.669C250.86 207.381 251.26 207.189 251.58 207.093C251.9 206.965 252.268 206.901 252.684 206.901C253.356 206.901 253.916 207.205 254.364 207.813C254.844 208.389 255.084 209.093 255.084 209.925C255.084 210.501 254.972 210.997 254.748 211.413C254.556 211.797 254.236 212.165 253.788 212.517C250.748 214.821 247.132 215.973 242.94 215.973ZM269.483 191.397C272.939 191.397 275.499 192.245 277.163 193.941C278.827 195.605 279.659 198.165 279.659 201.621V212.469C279.659 213.525 279.355 214.357 278.747 214.965C278.139 215.541 277.291 215.829 276.203 215.829C275.179 215.829 274.347 215.525 273.707 214.917C273.099 214.277 272.795 213.461 272.795 212.469V212.133C272.315 213.317 271.515 214.245 270.395 214.917C269.275 215.589 267.963 215.925 266.459 215.925C264.859 215.925 263.403 215.605 262.091 214.965C260.811 214.325 259.787 213.429 259.019 212.277C258.283 211.125 257.915 209.845 257.915 208.437C257.915 206.709 258.347 205.349 259.211 204.357C260.107 203.365 261.531 202.645 263.483 202.197C265.435 201.749 268.107 201.525 271.499 201.525H272.747V200.661C272.747 199.317 272.443 198.341 271.835 197.733C271.259 197.125 270.283 196.821 268.907 196.821C267.531 196.821 265.547 197.301 262.955 198.261C262.219 198.613 261.595 198.789 261.083 198.789C260.379 198.789 259.819 198.549 259.403 198.069C258.987 197.557 258.779 196.901 258.779 196.101C258.779 195.461 258.923 194.933 259.211 194.517C259.499 194.101 259.963 193.717 260.603 193.365C261.723 192.757 263.083 192.277 264.683 191.925C266.315 191.573 267.915 191.397 269.483 191.397ZM268.043 210.933C269.451 210.933 270.587 210.469 271.451 209.541C272.315 208.581 272.747 207.349 272.747 205.845V205.029H271.931C269.339 205.029 267.515 205.237 266.459 205.653C265.435 206.069 264.923 206.821 264.923 207.909C264.923 208.805 265.211 209.541 265.787 210.117C266.395 210.661 267.147 210.933 268.043 210.933ZM314.118 191.397C316.678 191.397 318.646 192.181 320.022 193.749C321.398 195.285 322.086 197.813 322.086 201.333V212.421C322.086 213.541 321.75 214.389 321.078 214.965C320.406 215.541 319.542 215.829 318.486 215.829C317.462 215.829 316.598 215.541 315.894 214.965C315.19 214.389 314.838 213.541 314.838 212.421V201.237C314.838 199.701 314.566 198.629 314.022 198.021C313.51 197.381 312.71 197.061 311.622 197.061C310.278 197.061 309.206 197.525 308.406 198.453C307.606 199.381 307.206 200.677 307.206 202.341V212.421C307.206 213.541 306.87 214.389 306.198 214.965C305.526 215.541 304.662 215.829 303.606 215.829C302.582 215.829 301.718 215.541 301.014 214.965C300.31 214.389 299.958 213.541 299.958 212.421V201.237C299.958 199.701 299.686 198.629 299.142 198.021C298.63 197.381 297.83 197.061 296.742 197.061C295.398 197.061 294.326 197.525 293.526 198.453C292.726 199.381 292.326 200.677 292.326 202.341V212.421C292.326 213.541 291.974 214.389 291.27 214.965C290.598 215.541 289.75 215.829 288.726 215.829C287.702 215.829 286.838 215.541 286.134 214.965C285.43 214.389 285.078 213.541 285.078 212.421V194.805C285.078 193.749 285.43 192.933 286.134 192.357C286.87 191.781 287.75 191.493 288.774 191.493C289.734 191.493 290.534 191.781 291.174 192.357C291.814 192.901 292.134 193.669 292.134 194.661V195.141C292.902 193.925 293.894 192.997 295.11 192.357C296.358 191.717 297.766 191.397 299.334 191.397C301.03 191.397 302.454 191.749 303.606 192.453C304.79 193.125 305.702 194.229 306.342 195.765C307.078 194.421 308.118 193.365 309.462 192.597C310.838 191.797 312.39 191.397 314.118 191.397ZM331.195 215.829C330.139 215.829 329.259 215.541 328.555 214.965C327.883 214.389 327.547 213.541 327.547 212.421V194.901C327.547 193.781 327.899 192.933 328.603 192.357C329.307 191.781 330.171 191.493 331.195 191.493C332.219 191.493 333.067 191.781 333.739 192.357C334.443 192.933 334.795 193.781 334.795 194.901V212.421C334.795 213.541 334.443 214.389 333.739 214.965C333.067 215.541 332.219 215.829 331.195 215.829ZM331.195 187.653C329.915 187.653 328.907 187.333 328.171 186.693C327.435 186.021 327.067 185.125 327.067 184.005C327.067 182.885 327.435 182.005 328.171 181.365C328.907 180.725 329.915 180.405 331.195 180.405C332.443 180.405 333.435 180.741 334.171 181.413C334.939 182.053 335.323 182.917 335.323 184.005C335.323 185.125 334.955 186.021 334.219 186.693C333.483 187.333 332.475 187.653 331.195 187.653ZM355.128 191.397C357.944 191.397 360.04 192.229 361.416 193.893C362.792 195.525 363.48 198.005 363.48 201.333V212.421C363.48 213.477 363.144 214.309 362.472 214.917C361.832 215.525 360.952 215.829 359.832 215.829C358.712 215.829 357.832 215.525 357.192 214.917C356.552 214.309 356.232 213.477 356.232 212.421V201.669C356.232 200.069 355.928 198.901 355.32 198.165C354.744 197.429 353.832 197.061 352.584 197.061C351.08 197.061 349.864 197.541 348.936 198.501C348.04 199.461 347.592 200.741 347.592 202.341V212.421C347.592 213.477 347.272 214.309 346.632 214.917C345.992 215.525 345.112 215.829 343.992 215.829C342.872 215.829 341.976 215.525 341.304 214.917C340.664 214.309 340.344 213.477 340.344 212.421V194.805C340.344 193.813 340.68 193.013 341.352 192.405C342.056 191.797 342.952 191.493 344.04 191.493C345.032 191.493 345.832 191.797 346.44 192.405C347.08 192.981 347.4 193.733 347.4 194.661V195.333C348.232 194.053 349.304 193.077 350.616 192.405C351.96 191.733 353.464 191.397 355.128 191.397ZM383.818 191.397C389.29 191.397 392.026 194.709 392.026 201.333V212.421C392.026 213.477 391.69 214.309 391.018 214.917C390.378 215.525 389.498 215.829 388.378 215.829C387.258 215.829 386.378 215.525 385.738 214.917C385.098 214.309 384.778 213.477 384.778 212.421V201.237C384.778 199.829 384.474 198.789 383.866 198.117C383.29 197.413 382.378 197.061 381.13 197.061C379.626 197.061 378.41 197.541 377.482 198.501C376.586 199.461 376.138 200.741 376.138 202.341V212.421C376.138 213.477 375.818 214.309 375.178 214.917C374.538 215.525 373.658 215.829 372.538 215.829C371.418 215.829 370.522 215.525 369.85 214.917C369.21 214.309 368.89 213.477 368.89 212.421V184.773C368.89 183.781 369.226 182.981 369.898 182.373C370.602 181.765 371.514 181.461 372.634 181.461C373.69 181.461 374.538 181.749 375.178 182.325C375.818 182.901 376.138 183.669 376.138 184.629V195.093C376.97 193.877 378.042 192.965 379.354 192.357C380.666 191.717 382.154 191.397 383.818 191.397Z" fill="#181828"/>
<path d="M257.436 248.461C258.492 248.461 259.34 248.813 259.98 249.517C260.652 250.189 260.988 251.069 260.988 252.157V279.421C260.988 280.477 260.684 281.309 260.076 281.917C259.468 282.525 258.668 282.829 257.676 282.829C256.716 282.829 255.932 282.525 255.324 281.917C254.716 281.309 254.412 280.477 254.412 279.421V262.477L247.596 275.293C247.148 276.125 246.652 276.733 246.108 277.117C245.596 277.501 244.972 277.693 244.236 277.693C243.532 277.693 242.908 277.501 242.364 277.117C241.82 276.733 241.324 276.125 240.876 275.293L234.06 262.717V279.421C234.06 280.445 233.756 281.277 233.148 281.917C232.54 282.525 231.74 282.829 230.748 282.829C229.788 282.829 229.004 282.525 228.396 281.917C227.788 281.309 227.484 280.477 227.484 279.421V252.157C227.484 251.069 227.804 250.189 228.444 249.517C229.116 248.813 229.98 248.461 231.036 248.461C232.572 248.461 233.74 249.277 234.54 250.909L244.284 269.389L253.98 250.909C254.844 249.277 255.996 248.461 257.436 248.461ZM286.275 258.493C287.395 258.493 288.275 258.797 288.915 259.405C289.587 260.013 289.923 260.845 289.923 261.901V279.517C289.923 280.509 289.571 281.309 288.867 281.917C288.195 282.525 287.315 282.829 286.227 282.829C285.203 282.829 284.387 282.541 283.779 281.965C283.171 281.389 282.867 280.621 282.867 279.661V279.181C282.131 280.397 281.155 281.325 279.939 281.965C278.755 282.605 277.411 282.925 275.907 282.925C272.931 282.925 270.707 282.109 269.235 280.477C267.795 278.813 267.075 276.317 267.075 272.989V261.901C267.075 260.845 267.395 260.013 268.035 259.405C268.707 258.797 269.603 258.493 270.723 258.493C271.843 258.493 272.723 258.797 273.363 259.405C274.003 260.013 274.323 260.845 274.323 261.901V273.133C274.323 274.541 274.611 275.581 275.187 276.253C275.795 276.925 276.707 277.261 277.923 277.261C279.331 277.261 280.467 276.781 281.331 275.821C282.227 274.861 282.675 273.597 282.675 272.029V261.901C282.675 260.845 282.995 260.013 283.635 259.405C284.275 258.797 285.155 258.493 286.275 258.493ZM315.596 248.461C316.716 248.461 317.612 248.765 318.284 249.373C318.988 249.981 319.34 250.781 319.34 251.773V279.421C319.34 280.445 319.004 281.277 318.332 281.917C317.692 282.525 316.828 282.829 315.74 282.829C314.652 282.829 313.772 282.525 313.1 281.917C312.46 281.277 312.14 280.445 312.14 279.421V279.037C311.436 280.253 310.428 281.213 309.116 281.917C307.836 282.589 306.38 282.925 304.748 282.925C302.732 282.925 300.924 282.413 299.324 281.389C297.756 280.333 296.524 278.877 295.628 277.021C294.764 275.133 294.332 272.973 294.332 270.541C294.332 268.109 294.764 265.981 295.628 264.157C296.524 262.301 297.756 260.877 299.324 259.885C300.892 258.893 302.7 258.397 304.748 258.397C306.348 258.397 307.788 258.733 309.068 259.405C310.38 260.077 311.388 261.021 312.092 262.237V251.629C312.092 250.669 312.412 249.901 313.052 249.325C313.692 248.749 314.54 248.461 315.596 248.461ZM306.86 277.405C308.556 277.405 309.852 276.829 310.748 275.677C311.676 274.493 312.14 272.813 312.14 270.637C312.14 268.461 311.676 266.797 310.748 265.645C309.852 264.493 308.556 263.917 306.86 263.917C305.164 263.917 303.852 264.493 302.924 265.645C301.996 266.765 301.532 268.397 301.532 270.541C301.532 272.717 301.996 274.413 302.924 275.629C303.852 276.813 305.164 277.405 306.86 277.405Z" fill="#181828"/>
<path d="M258.924 331.981C259.18 332.557 259.308 333.069 259.308 333.517C259.308 334.413 258.94 335.181 258.204 335.821C257.5 336.429 256.684 336.733 255.756 336.733C255.148 336.733 254.572 336.573 254.028 336.253C253.484 335.901 253.068 335.389 252.78 334.717L250.236 329.053H233.964L231.42 334.717C231.132 335.389 230.716 335.901 230.172 336.253C229.66 336.573 229.084 336.733 228.444 336.733C227.516 336.733 226.684 336.429 225.948 335.821C225.212 335.181 224.844 334.413 224.844 333.517C224.844 333.069 224.972 332.557 225.228 331.981L238.188 304.765C238.54 303.997 239.068 303.421 239.772 303.037C240.476 302.621 241.228 302.413 242.028 302.413C242.86 302.413 243.628 302.621 244.332 303.037C245.036 303.453 245.58 304.029 245.964 304.765L258.924 331.981ZM236.508 323.389H247.692L242.124 310.909L236.508 323.389ZM277.451 312.397C279.499 312.397 281.307 312.893 282.875 313.885C284.443 314.877 285.659 316.301 286.523 318.157C287.419 319.981 287.867 322.109 287.867 324.541C287.867 326.973 287.419 329.133 286.523 331.021C285.659 332.877 284.427 334.333 282.827 335.389C281.259 336.413 279.467 336.925 277.451 336.925C275.819 336.925 274.347 336.589 273.035 335.917C271.723 335.213 270.715 334.253 270.011 333.037V333.421C270.011 334.445 269.691 335.277 269.051 335.917C268.411 336.525 267.547 336.829 266.459 336.829C265.371 336.829 264.491 336.525 263.819 335.917C263.179 335.277 262.859 334.445 262.859 333.421V305.773C262.859 304.781 263.195 303.981 263.867 303.373C264.571 302.765 265.483 302.461 266.603 302.461C267.659 302.461 268.507 302.749 269.147 303.325C269.787 303.901 270.107 304.669 270.107 305.629V316.141C270.811 314.957 271.803 314.045 273.083 313.405C274.395 312.733 275.851 312.397 277.451 312.397ZM275.339 331.405C277.035 331.405 278.347 330.813 279.275 329.629C280.203 328.413 280.667 326.717 280.667 324.541C280.667 322.397 280.203 320.765 279.275 319.645C278.347 318.493 277.035 317.917 275.339 317.917C273.643 317.917 272.331 318.509 271.403 319.693C270.475 320.845 270.011 322.493 270.011 324.637C270.011 326.813 270.475 328.493 271.403 329.677C272.331 330.829 273.643 331.405 275.339 331.405ZM311.353 312.493C312.473 312.493 313.353 312.797 313.993 313.405C314.665 314.013 315.001 314.845 315.001 315.901V333.517C315.001 334.509 314.649 335.309 313.945 335.917C313.273 336.525 312.393 336.829 311.305 336.829C310.281 336.829 309.465 336.541 308.857 335.965C308.249 335.389 307.945 334.621 307.945 333.661V333.181C307.209 334.397 306.233 335.325 305.017 335.965C303.833 336.605 302.489 336.925 300.985 336.925C298.009 336.925 295.785 336.109 294.313 334.477C292.873 332.813 292.153 330.317 292.153 326.989V315.901C292.153 314.845 292.473 314.013 293.113 313.405C293.785 312.797 294.681 312.493 295.801 312.493C296.921 312.493 297.801 312.797 298.441 313.405C299.081 314.013 299.401 314.845 299.401 315.901V327.133C299.401 328.541 299.689 329.581 300.265 330.253C300.873 330.925 301.785 331.261 303.001 331.261C304.409 331.261 305.545 330.781 306.409 329.821C307.305 328.861 307.753 327.597 307.753 326.029V315.901C307.753 314.845 308.073 314.013 308.713 313.405C309.353 312.797 310.233 312.493 311.353 312.493ZM335.346 312.397C338.162 312.397 340.258 313.229 341.634 314.893C343.01 316.525 343.698 319.005 343.698 322.333V333.421C343.698 334.477 343.362 335.309 342.69 335.917C342.05 336.525 341.17 336.829 340.05 336.829C338.93 336.829 338.05 336.525 337.41 335.917C336.77 335.309 336.45 334.477 336.45 333.421V322.669C336.45 321.069 336.146 319.901 335.538 319.165C334.962 318.429 334.05 318.061 332.802 318.061C331.298 318.061 330.082 318.541 329.154 319.501C328.258 320.461 327.81 321.741 327.81 323.341V333.421C327.81 334.477 327.49 335.309 326.85 335.917C326.21 336.525 325.33 336.829 324.21 336.829C323.09 336.829 322.194 336.525 321.522 335.917C320.882 335.309 320.562 334.477 320.562 333.421V315.805C320.562 314.813 320.898 314.013 321.57 313.405C322.274 312.797 323.17 312.493 324.258 312.493C325.25 312.493 326.05 312.797 326.658 313.405C327.298 313.981 327.618 314.733 327.618 315.661V316.333C328.45 315.053 329.522 314.077 330.834 313.405C332.178 312.733 333.682 312.397 335.346 312.397ZM369.221 302.461C370.341 302.461 371.237 302.765 371.909 303.373C372.613 303.981 372.965 304.781 372.965 305.773V333.421C372.965 334.445 372.629 335.277 371.957 335.917C371.317 336.525 370.453 336.829 369.365 336.829C368.277 336.829 367.397 336.525 366.725 335.917C366.085 335.277 365.765 334.445 365.765 333.421V333.037C365.061 334.253 364.053 335.213 362.741 335.917C361.461 336.589 360.005 336.925 358.373 336.925C356.357 336.925 354.549 336.413 352.949 335.389C351.381 334.333 350.149 332.877 349.253 331.021C348.389 329.133 347.957 326.973 347.957 324.541C347.957 322.109 348.389 319.981 349.253 318.157C350.149 316.301 351.381 314.877 352.949 313.885C354.517 312.893 356.325 312.397 358.373 312.397C359.973 312.397 361.413 312.733 362.693 313.405C364.005 314.077 365.013 315.021 365.717 316.237V305.629C365.717 304.669 366.037 303.901 366.677 303.325C367.317 302.749 368.165 302.461 369.221 302.461ZM360.485 331.405C362.181 331.405 363.477 330.829 364.373 329.677C365.301 328.493 365.765 326.813 365.765 324.637C365.765 322.461 365.301 320.797 364.373 319.645C363.477 318.493 362.181 317.917 360.485 317.917C358.789 317.917 357.477 318.493 356.549 319.645C355.621 320.765 355.157 322.397 355.157 324.541C355.157 326.717 355.621 328.413 356.549 329.629C357.477 330.813 358.789 331.405 360.485 331.405Z" fill="#181828"/>
<path d="M412.92 191.106C416.376 191.106 418.936 191.954 420.6 193.65C422.264 195.314 423.096 197.874 423.096 201.33V212.178C423.096 213.234 422.792 214.066 422.184 214.674C421.576 215.25 420.728 215.538 419.64 215.538C418.616 215.538 417.784 215.234 417.144 214.626C416.536 213.986 416.232 213.17 416.232 212.178V211.842C415.752 213.026 414.952 213.954 413.832 214.626C412.712 215.298 411.4 215.634 409.896 215.634C408.296 215.634 406.84 215.314 405.528 214.674C404.248 214.034 403.224 213.138 402.456 211.986C401.72 210.834 401.352 209.554 401.352 208.146C401.352 206.418 401.784 205.058 402.648 204.066C403.544 203.074 404.968 202.354 406.92 201.906C408.872 201.458 411.544 201.234 414.936 201.234H416.184V200.37C416.184 199.026 415.88 198.05 415.272 197.442C414.696 196.834 413.72 196.53 412.344 196.53C410.968 196.53 408.984 197.01 406.392 197.97C405.656 198.322 405.032 198.498 404.52 198.498C403.816 198.498 403.256 198.258 402.84 197.778C402.424 197.266 402.216 196.61 402.216 195.81C402.216 195.17 402.36 194.642 402.648 194.226C402.936 193.81 403.4 193.426 404.04 193.074C405.16 192.466 406.52 191.986 408.12 191.634C409.752 191.282 411.352 191.106 412.92 191.106ZM411.48 210.642C412.888 210.642 414.024 210.178 414.888 209.25C415.752 208.29 416.184 207.058 416.184 205.554V204.738H415.368C412.776 204.738 410.952 204.946 409.896 205.362C408.872 205.778 408.36 206.53 408.36 207.618C408.36 208.514 408.648 209.25 409.224 209.826C409.832 210.37 410.584 210.642 411.48 210.642ZM448.627 181.17C449.747 181.17 450.643 181.474 451.315 182.082C452.019 182.69 452.371 183.49 452.371 184.482V212.13C452.371 213.154 452.035 213.986 451.363 214.626C450.723 215.234 449.859 215.538 448.771 215.538C447.683 215.538 446.803 215.234 446.131 214.626C445.491 213.986 445.171 213.154 445.171 212.13V211.746C444.467 212.962 443.459 213.922 442.147 214.626C440.867 215.298 439.411 215.634 437.779 215.634C435.763 215.634 433.955 215.122 432.355 214.098C430.787 213.042 429.555 211.586 428.659 209.73C427.795 207.842 427.363 205.682 427.363 203.25C427.363 200.818 427.795 198.69 428.659 196.866C429.555 195.01 430.787 193.586 432.355 192.594C433.923 191.602 435.731 191.106 437.779 191.106C439.379 191.106 440.819 191.442 442.099 192.114C443.411 192.786 444.419 193.73 445.123 194.946V184.338C445.123 183.378 445.443 182.61 446.083 182.034C446.723 181.458 447.571 181.17 448.627 181.17ZM439.891 210.114C441.587 210.114 442.883 209.538 443.779 208.386C444.707 207.202 445.171 205.522 445.171 203.346C445.171 201.17 444.707 199.506 443.779 198.354C442.883 197.202 441.587 196.626 439.891 196.626C438.195 196.626 436.883 197.202 435.955 198.354C435.027 199.474 434.563 201.106 434.563 203.25C434.563 205.426 435.027 207.122 435.955 208.338C436.883 209.522 438.195 210.114 439.891 210.114ZM468.561 191.106C472.017 191.106 474.577 191.954 476.241 193.65C477.905 195.314 478.737 197.874 478.737 201.33V212.178C478.737 213.234 478.433 214.066 477.825 214.674C477.217 215.25 476.369 215.538 475.281 215.538C474.257 215.538 473.425 215.234 472.785 214.626C472.177 213.986 471.873 213.17 471.873 212.178V211.842C471.393 213.026 470.593 213.954 469.473 214.626C468.353 215.298 467.041 215.634 465.537 215.634C463.937 215.634 462.481 215.314 461.169 214.674C459.889 214.034 458.865 213.138 458.097 211.986C457.361 210.834 456.993 209.554 456.993 208.146C456.993 206.418 457.425 205.058 458.289 204.066C459.185 203.074 460.609 202.354 462.561 201.906C464.513 201.458 467.185 201.234 470.577 201.234H471.825V200.37C471.825 199.026 471.521 198.05 470.913 197.442C470.337 196.834 469.361 196.53 467.985 196.53C466.609 196.53 464.625 197.01 462.033 197.97C461.297 198.322 460.673 198.498 460.161 198.498C459.457 198.498 458.897 198.258 458.481 197.778C458.065 197.266 457.857 196.61 457.857 195.81C457.857 195.17 458.001 194.642 458.289 194.226C458.577 193.81 459.041 193.426 459.681 193.074C460.801 192.466 462.161 191.986 463.761 191.634C465.393 191.282 466.993 191.106 468.561 191.106ZM467.121 210.642C468.529 210.642 469.665 210.178 470.529 209.25C471.393 208.29 471.825 207.058 471.825 205.554V204.738H471.009C468.417 204.738 466.593 204.946 465.537 205.362C464.513 205.778 464.001 206.53 464.001 207.618C464.001 208.514 464.289 209.25 464.865 209.826C465.473 210.37 466.225 210.642 467.121 210.642Z" fill="#D91717"/>
<path d="M393.329 312.496C396.785 312.496 399.345 313.344 401.009 315.04C402.673 316.704 403.505 319.264 403.505 322.72V333.568C403.505 334.624 403.201 335.456 402.593 336.064C401.985 336.64 401.137 336.928 400.049 336.928C399.025 336.928 398.193 336.624 397.553 336.016C396.945 335.376 396.641 334.56 396.641 333.568V333.232C396.161 334.416 395.361 335.344 394.241 336.016C393.121 336.688 391.809 337.024 390.305 337.024C388.705 337.024 387.249 336.704 385.937 336.064C384.657 335.424 383.633 334.528 382.865 333.376C382.129 332.224 381.761 330.944 381.761 329.536C381.761 327.808 382.193 326.448 383.057 325.456C383.953 324.464 385.377 323.744 387.329 323.296C389.281 322.848 391.953 322.624 395.345 322.624H396.593V321.76C396.593 320.416 396.289 319.44 395.681 318.832C395.105 318.224 394.129 317.92 392.753 317.92C391.377 317.92 389.393 318.4 386.801 319.36C386.065 319.712 385.441 319.888 384.929 319.888C384.225 319.888 383.665 319.648 383.249 319.168C382.833 318.656 382.625 318 382.625 317.2C382.625 316.56 382.769 316.032 383.057 315.616C383.345 315.2 383.809 314.816 384.449 314.464C385.569 313.856 386.929 313.376 388.529 313.024C390.161 312.672 391.761 312.496 393.329 312.496ZM391.889 332.032C393.297 332.032 394.433 331.568 395.297 330.64C396.161 329.68 396.593 328.448 396.593 326.944V326.128H395.777C393.185 326.128 391.361 326.336 390.305 326.752C389.281 327.168 388.769 327.92 388.769 329.008C388.769 329.904 389.057 330.64 389.633 331.216C390.241 331.76 390.993 332.032 391.889 332.032ZM390.161 309.136C389.649 309.872 389.009 310.24 388.241 310.24C387.633 310.24 387.105 310.032 386.657 309.616C386.209 309.2 385.985 308.704 385.985 308.128C385.985 307.616 386.161 307.136 386.513 306.688L390.545 301.504C390.993 300.96 391.409 300.576 391.793 300.352C392.209 300.096 392.721 299.968 393.329 299.968C393.937 299.968 394.433 300.096 394.817 300.352C395.233 300.576 395.665 300.976 396.113 301.552L400.145 306.688C400.497 307.136 400.673 307.6 400.673 308.08C400.673 308.656 400.433 309.168 399.953 309.616C399.505 310.032 398.993 310.24 398.417 310.24C397.649 310.24 397.009 309.872 396.497 309.136L393.329 304.432L390.161 309.136ZM423.708 312.496C426.524 312.496 428.62 313.328 429.996 314.992C431.372 316.624 432.06 319.104 432.06 322.432V333.52C432.06 334.576 431.724 335.408 431.052 336.016C430.412 336.624 429.532 336.928 428.412 336.928C427.292 336.928 426.412 336.624 425.772 336.016C425.132 335.408 424.812 334.576 424.812 333.52V322.768C424.812 321.168 424.508 320 423.9 319.264C423.324 318.528 422.412 318.16 421.164 318.16C419.66 318.16 418.444 318.64 417.516 319.6C416.62 320.56 416.172 321.84 416.172 323.44V333.52C416.172 334.576 415.852 335.408 415.212 336.016C414.572 336.624 413.692 336.928 412.572 336.928C411.452 336.928 410.556 336.624 409.884 336.016C409.244 335.408 408.924 334.576 408.924 333.52V315.904C408.924 314.912 409.26 314.112 409.932 313.504C410.636 312.896 411.532 312.592 412.62 312.592C413.612 312.592 414.412 312.896 415.02 313.504C415.66 314.08 415.98 314.832 415.98 315.76V316.432C416.812 315.152 417.884 314.176 419.196 313.504C420.54 312.832 422.044 312.496 423.708 312.496ZM448.367 337.024C445.935 337.024 443.807 336.528 441.983 335.536C440.159 334.544 438.751 333.136 437.759 331.312C436.799 329.488 436.319 327.344 436.319 324.88C436.319 322.416 436.831 320.256 437.855 318.4C438.911 316.512 440.383 315.056 442.271 314.032C444.159 313.008 446.335 312.496 448.799 312.496C450.079 312.496 451.359 312.672 452.639 313.024C453.951 313.376 455.119 313.872 456.143 314.512C457.135 315.12 457.631 316.016 457.631 317.2C457.631 318.032 457.439 318.72 457.055 319.264C456.671 319.776 456.159 320.032 455.519 320.032C455.103 320.032 454.703 319.968 454.319 319.84C453.967 319.68 453.487 319.456 452.879 319.168C452.207 318.816 451.599 318.544 451.055 318.352C450.543 318.16 449.951 318.064 449.279 318.064C447.487 318.064 446.111 318.64 445.151 319.792C444.223 320.912 443.759 322.56 443.759 324.736C443.759 326.912 444.223 328.576 445.151 329.728C446.111 330.88 447.487 331.456 449.279 331.456C449.951 331.456 450.543 331.376 451.055 331.216C451.567 331.024 452.191 330.736 452.927 330.352C453.535 330.064 454.015 329.856 454.367 329.728C454.719 329.568 455.103 329.488 455.519 329.488C456.127 329.488 456.623 329.76 457.007 330.304C457.423 330.848 457.631 331.536 457.631 332.368C457.631 333.552 457.135 334.432 456.143 335.008C455.119 335.648 453.935 336.144 452.591 336.496C451.247 336.848 449.839 337.024 448.367 337.024ZM464.837 336.928C463.781 336.928 462.901 336.64 462.197 336.064C461.525 335.488 461.189 334.64 461.189 333.52V316C461.189 314.88 461.541 314.032 462.245 313.456C462.949 312.88 463.813 312.592 464.837 312.592C465.861 312.592 466.709 312.88 467.381 313.456C468.085 314.032 468.437 314.88 468.437 316V333.52C468.437 334.64 468.085 335.488 467.381 336.064C466.709 336.64 465.861 336.928 464.837 336.928ZM464.837 308.752C463.557 308.752 462.549 308.432 461.813 307.792C461.077 307.12 460.709 306.224 460.709 305.104C460.709 303.984 461.077 303.104 461.813 302.464C462.549 301.824 463.557 301.504 464.837 301.504C466.085 301.504 467.077 301.84 467.813 302.512C468.581 303.152 468.965 304.016 468.965 305.104C468.965 306.224 468.597 307.12 467.861 307.792C467.125 308.432 466.117 308.752 464.837 308.752ZM484.594 312.496C488.05 312.496 490.61 313.344 492.274 315.04C493.938 316.704 494.77 319.264 494.77 322.72V333.568C494.77 334.624 494.466 335.456 493.858 336.064C493.25 336.64 492.402 336.928 491.314 336.928C490.29 336.928 489.458 336.624 488.818 336.016C488.21 335.376 487.906 334.56 487.906 333.568V333.232C487.426 334.416 486.626 335.344 485.506 336.016C484.386 336.688 483.074 337.024 481.57 337.024C479.97 337.024 478.514 336.704 477.202 336.064C475.922 335.424 474.898 334.528 474.13 333.376C473.394 332.224 473.026 330.944 473.026 329.536C473.026 327.808 473.458 326.448 474.322 325.456C475.218 324.464 476.642 323.744 478.594 323.296C480.546 322.848 483.218 322.624 486.61 322.624H487.858V321.76C487.858 320.416 487.554 319.44 486.946 318.832C486.37 318.224 485.394 317.92 484.018 317.92C482.642 317.92 480.658 318.4 478.066 319.36C477.33 319.712 476.706 319.888 476.194 319.888C475.49 319.888 474.93 319.648 474.514 319.168C474.098 318.656 473.89 318 473.89 317.2C473.89 316.56 474.034 316.032 474.322 315.616C474.61 315.2 475.074 314.816 475.714 314.464C476.834 313.856 478.194 313.376 479.794 313.024C481.426 312.672 483.026 312.496 484.594 312.496ZM483.154 332.032C484.562 332.032 485.698 331.568 486.562 330.64C487.426 329.68 487.858 328.448 487.858 326.944V326.128H487.042C484.45 326.128 482.626 326.336 481.57 326.752C480.546 327.168 480.034 327.92 480.034 329.008C480.034 329.904 480.322 330.64 480.898 331.216C481.506 331.76 482.258 332.032 483.154 332.032Z" fill="#D91717"/>
</g>
<defs>
<clipPath id="clip0_1030:1291">
<rect width="751" height="558" fill="white" transform="translate(0.0283203 0.220703)"/>
</clipPath>
</defs>
</svg>
