<svg width="1001" height="1000" viewBox="0 0 1001 1000" fill="none" xmlns="http://www.w3.org/2000/svg">
<g clip-path="url(#clip0_955:678)">
<g opacity="0.4">
<g opacity="0.4">
<path opacity="0.4" d="M784 477.9L750.5 419.9L784 361.9H850.9L884.4 419.9L850.9 477.9H784Z" stroke="#424242" stroke-width="6" stroke-miterlimit="10"/>
</g>
</g>
<g opacity="0.4">
<g opacity="0.4">
<path opacity="0.4" d="M668 411L634.6 353L668 295H734.9L768.4 353L734.9 411H668Z" fill="#424242" stroke="#424242" stroke-width="6" stroke-miterlimit="10"/>
</g>
<g opacity="0.4">
<path opacity="0.4" d="M668 277.2L634.6 219.2L668 161.2H734.9L768.4 219.2L734.9 277.2H668Z" stroke="#424242" stroke-width="6" stroke-miterlimit="10"/>
</g>
</g>
<g opacity="0.4">
<g opacity="0.4">
<path opacity="0.4" d="M552 477.9L518.6 419.9L552 361.9H618.9L652.4 419.9L618.9 477.9H552Z" stroke="#424242" stroke-width="6" stroke-miterlimit="10"/>
</g>
<g opacity="0.4">
<path opacity="0.4" d="M552 344.1L518.6 286.1L552 228.1H618.9L652.4 286.1L618.9 344.1H552Z" fill="#424242" stroke="#424242" stroke-width="6" stroke-miterlimit="10"/>
</g>
</g>
<g opacity="0.4">
<g opacity="0.4">
<path opacity="0.4" d="M436.1 544.8L402.6 486.8L436.1 428.8H503L536.4 486.8L503 544.8H436.1Z" fill="#424242" stroke="#424242" stroke-width="6" stroke-miterlimit="10"/>
</g>
<g opacity="0.4">
<path opacity="0.4" d="M436.1 411L402.6 353L436.1 295H503L536.4 353L503 411H436.1Z" stroke="#424242" stroke-width="6" stroke-miterlimit="10"/>
</g>
<g opacity="0.4">
<path opacity="0.4" d="M436.1 277.2L402.6 219.2L436.1 161.2H503L536.4 219.2L503 277.2H436.1Z" stroke="#424242" stroke-width="6" stroke-miterlimit="10"/>
</g>
</g>
<g opacity="0.4">
<g opacity="0.4">
<path opacity="0.4" d="M320.1 344.1L286.6 286.1L320.1 228.1H387L420.4 286.1L387 344.1H320.1Z" fill="#424242" stroke="#424242" stroke-width="6" stroke-miterlimit="10"/>
</g>
</g>
<g opacity="0.4">
<g opacity="0.4">
<path opacity="0.4" d="M204.1 544.8L170.6 486.8L204.1 428.8H271L304.5 486.8L271 544.8H204.1Z" fill="#424242" stroke="#424242" stroke-width="6" stroke-miterlimit="10"/>
</g>
<g opacity="0.4">
<path opacity="0.4" d="M204.1 411L170.6 353L204.1 295H271L304.5 353L271 411H204.1Z" stroke="#424242" stroke-width="6" stroke-miterlimit="10"/>
</g>
</g>
<path d="M125.5 724H875.5" stroke="#3F2975" stroke-width="8" stroke-miterlimit="10" stroke-linecap="round" stroke-linejoin="round"/>
<path d="M571.9 707C565.5 700.1 557.5 694.1 547.5 689.6V328.9L559 309C564.1 300.1 557.7 289.1 547.5 289.1H540.5H468.8C461.5 289.1 455.5 295 455.5 302.4V689.7C445.5 694.2 436.9 700.2 430.5 707.1H430.2C425.4 707.1 421.6 711 421.6 715.7V723.1H580.6V715.7C580.5 710.9 576.6 707 571.9 707Z" fill="white"/>
<path d="M570.9 707C564.5 700.1 556.5 694.1 546.5 689.6V331.6C546.5 329.8 547 328.1 547.9 326.6L558.4 309.6C563.7 301 557.5 290 547.5 290H540.5H467.3C460.2 290 454.5 295.7 454.5 302.8V689.6C444.5 694.1 436.9 701 430.5 708H430.2C424.9 708 420.6 712.3 420.6 717.6V724H579.6V715.6C579.5 710.9 575.6 707 570.9 707Z" stroke="#3F2975" stroke-width="6" stroke-miterlimit="10" stroke-linecap="round" stroke-linejoin="round"/>
<path d="M541.7 702.4L533.5 698.7V415H533.3C533.3 404.4 524.7 395.8 514.1 395.8C505.4 395.8 498.1 401.6 495.7 409.5C494.2 408.5 492.4 408 490.5 408C486.1 408 482.4 411 481.3 415H469.5V698.6L461.3 702.3C457 704.2 453.1 706.5 449.5 708.9H553.2C549.7 706.5 545.9 704.3 541.7 702.4Z" fill="#EC1CE4"/>
<path d="M541.7 702.4L533.5 698.7V415H533.3C533.3 404.4 524.7 395.8 514.1 395.8C505.4 395.8 498.1 401.6 495.7 409.5C494.2 408.5 492.4 408 490.5 408C486.1 408 482.4 411 481.3 415H469.5V698.6L461.3 702.3C457 704.2 453.1 706.5 449.5 708.9H553.2C549.7 706.5 545.9 704.3 541.7 702.4Z" stroke="#3F2975" stroke-width="6" stroke-miterlimit="10" stroke-linecap="round" stroke-linejoin="round"/>
<path d="M488 365C493.247 365 497.5 360.747 497.5 355.5C497.5 350.253 493.247 346 488 346C482.753 346 478.5 350.253 478.5 355.5C478.5 360.747 482.753 365 488 365Z" fill="#EC1CE4"/>
<path d="M488 365C493.247 365 497.5 360.747 497.5 355.5C497.5 350.253 493.247 346 488 346C482.753 346 478.5 350.253 478.5 355.5C478.5 360.747 482.753 365 488 365Z" stroke="#3F2975" stroke-width="6" stroke-miterlimit="10" stroke-linecap="round" stroke-linejoin="round"/>
<path d="M498 271C507.113 271 514.5 263.613 514.5 254.5C514.5 245.387 507.113 238 498 238C488.887 238 481.5 245.387 481.5 254.5C481.5 263.613 488.887 271 498 271Z" fill="#EC1CE4"/>
<path d="M498 271C507.113 271 514.5 263.613 514.5 254.5C514.5 245.387 507.113 238 498 238C488.887 238 481.5 245.387 481.5 254.5C481.5 263.613 488.887 271 498 271Z" stroke="#3F2975" stroke-width="6" stroke-miterlimit="10" stroke-linecap="round" stroke-linejoin="round"/>
<path d="M519 225.9C522.535 225.9 525.4 223.035 525.4 219.5C525.4 215.965 522.535 213.1 519 213.1C515.465 213.1 512.6 215.965 512.6 219.5C512.6 223.035 515.465 225.9 519 225.9Z" fill="#EC1CE4"/>
<path d="M519 225.9C522.535 225.9 525.4 223.035 525.4 219.5C525.4 215.965 522.535 213.1 519 213.1C515.465 213.1 512.6 215.965 512.6 219.5C512.6 223.035 515.465 225.9 519 225.9Z" stroke="#3F2975" stroke-width="6" stroke-miterlimit="10" stroke-linecap="round" stroke-linejoin="round"/>
<path d="M516 335.5C518.209 335.5 520 333.709 520 331.5C520 329.291 518.209 327.5 516 327.5C513.791 327.5 512 329.291 512 331.5C512 333.709 513.791 335.5 516 335.5Z" fill="#EC1CE4"/>
<path d="M516 335.5C518.209 335.5 520 333.709 520 331.5C520 329.291 518.209 327.5 516 327.5C513.791 327.5 512 329.291 512 331.5C512 333.709 513.791 335.5 516 335.5Z" stroke="#3F2975" stroke-width="6" stroke-miterlimit="10" stroke-linecap="round" stroke-linejoin="round"/>
<path d="M503.3 513C505.067 513 506.5 511.567 506.5 509.8C506.5 508.033 505.067 506.6 503.3 506.6C501.533 506.6 500.1 508.033 500.1 509.8C500.1 511.567 501.533 513 503.3 513Z" fill="#3F2975"/>
<path d="M498.1 565.6C503.623 565.6 508.1 561.123 508.1 555.6C508.1 550.077 503.623 545.6 498.1 545.6C492.577 545.6 488.1 550.077 488.1 555.6C488.1 561.123 492.577 565.6 498.1 565.6Z" fill="#3F2975"/>
<path d="M511.1 611C513.53 611 515.5 609.03 515.5 606.6C515.5 604.17 513.53 602.2 511.1 602.2C508.67 602.2 506.7 604.17 506.7 606.6C506.7 609.03 508.67 611 511.1 611Z" fill="#3F2975"/>
<path d="M408.5 528.3V378H354.5V528.3C307.5 540.3 272 584 272 635.5C272 671.5 289.8 703 316.5 724H448.5C475.2 703 492 671.5 492 635.5C492 584.1 456.5 540.4 408.5 528.3Z" fill="white"/>
<path d="M408.5 528.3V378H354.5V528.3C307.5 540.3 272 584 272 635.5C272 671.5 289.8 703 316.5 724H448.5C475.2 703 492 671.5 492 635.5C492 584.1 456.5 540.4 408.5 528.3Z" stroke="#3F2975" stroke-width="6" stroke-miterlimit="10" stroke-linecap="round" stroke-linejoin="round"/>
<path d="M469.8 595H443.1C442.7 589.4 438 585 432.3 585C426.6 585 421.9 589.4 421.5 595H420.4C419.9 585 411.6 577 401.5 577C398.3 577 395.3 577.8 392.7 579.2C389.1 568.8 379.2 561.3 367.5 561.3C354.7 561.3 343.9 570.4 341.4 582.5C339 580.9 336.1 580 333 580C324.6 580 317.8 586.7 317.5 595H295.2C289.5 607.5 286.5 621.3 286.5 635C286.5 663.8 299.2 690.7 321.3 709H443.6C465.8 690.7 478.4 663.8 478.4 635C478.5 621.3 475.5 607.5 469.8 595Z" fill="#FF5959"/>
<path d="M469.8 595H443.1C442.7 589.4 438 585 432.3 585C426.6 585 421.9 589.4 421.5 595H420.4C419.9 585 411.6 577 401.5 577C398.3 577 395.3 577.8 392.7 579.2C389.1 568.8 379.2 561.3 367.5 561.3C354.7 561.3 343.9 570.4 341.4 582.5C339 580.9 336.1 580 333 580C324.6 580 317.8 586.7 317.5 595H295.2C289.5 607.5 286.5 621.3 286.5 635C286.5 663.8 299.2 690.7 321.3 709H443.6C465.8 690.7 478.4 663.8 478.4 635C478.5 621.3 475.5 607.5 469.8 595Z" stroke="#3F2975" stroke-width="6" stroke-miterlimit="10" stroke-linecap="round" stroke-linejoin="round"/>
<path d="M342.7 597.8C341.5 594.8 340.8 591.4 340.8 588C340.8 573.3 352.7 561.3 367.5 561.3C379.1 561.3 389 568.8 392.7 579.2" stroke="#3F2975" stroke-width="6" stroke-miterlimit="10" stroke-linecap="round" stroke-linejoin="round"/>
<path d="M384 588.6C386.9 581.8 393.6 577 401.5 577C412 577 420.5 585.5 420.5 596" stroke="#3F2975" stroke-width="6" stroke-miterlimit="10" stroke-linecap="round" stroke-linejoin="round"/>
<path d="M421.5 595.8C421.5 589.8 426.4 585 432.3 585C438.3 585 443.1 589.9 443.1 595.8" stroke="#3F2975" stroke-width="6" stroke-miterlimit="10" stroke-linecap="round" stroke-linejoin="round"/>
<path d="M400 339H363V401H400V339Z" fill="#D29C5E"/>
<path d="M400 339H363V401H400V339Z" stroke="#3F2975" stroke-width="6" stroke-miterlimit="10" stroke-linecap="round" stroke-linejoin="round"/>
<path d="M412 377H352C345.4 377 340 371.6 340 365C340 358.4 345.4 353 352 353H412C418.6 353 424 358.4 424 365C424 371.6 418.6 377 412 377Z" fill="#D9D6E5"/>
<path d="M412 377H352C345.4 377 340 371.6 340 365C340 358.4 345.4 353 352 353H412C418.6 353 424 358.4 424 365C424 371.6 418.6 377 412 377Z" stroke="#3F2975" stroke-width="6" stroke-miterlimit="10" stroke-linecap="round" stroke-linejoin="round"/>
<path d="M397.3 559.1C404.038 559.1 409.5 553.638 409.5 546.9C409.5 540.162 404.038 534.7 397.3 534.7C390.562 534.7 385.1 540.162 385.1 546.9C385.1 553.638 390.562 559.1 397.3 559.1Z" fill="#FF5959"/>
<path d="M384.5 448.7C387.538 448.7 390 446.238 390 443.2C390 440.162 387.538 437.7 384.5 437.7C381.462 437.7 379 440.162 379 443.2C379 446.238 381.462 448.7 384.5 448.7Z" fill="#FF5959"/>
<path d="M374 489.6C377.866 489.6 381 486.466 381 482.6C381 478.734 377.866 475.6 374 475.6C370.134 475.6 367 478.734 367 482.6C367 486.466 370.134 489.6 374 489.6Z" fill="#FF5959"/>
<path d="M397.3 559.1C404.038 559.1 409.5 553.638 409.5 546.9C409.5 540.162 404.038 534.7 397.3 534.7C390.562 534.7 385.1 540.162 385.1 546.9C385.1 553.638 390.562 559.1 397.3 559.1Z" stroke="#3F2975" stroke-width="6" stroke-miterlimit="10" stroke-linecap="round" stroke-linejoin="round"/>
<path d="M384.5 447.2C386.709 447.2 388.5 445.409 388.5 443.2C388.5 440.991 386.709 439.2 384.5 439.2C382.291 439.2 380.5 440.991 380.5 443.2C380.5 445.409 382.291 447.2 384.5 447.2Z" stroke="#3F2975" stroke-width="6" stroke-miterlimit="10" stroke-linecap="round" stroke-linejoin="round"/>
<path d="M374 489.6C377.866 489.6 381 486.466 381 482.6C381 478.734 377.866 475.6 374 475.6C370.134 475.6 367 478.734 367 482.6C367 486.466 370.134 489.6 374 489.6Z" stroke="#3F2975" stroke-width="6" stroke-miterlimit="10" stroke-linecap="round" stroke-linejoin="round"/>
<path d="M434.8 564.6C436.457 564.6 437.8 563.257 437.8 561.6C437.8 559.943 436.457 558.6 434.8 558.6C433.143 558.6 431.8 559.943 431.8 561.6C431.8 563.257 433.143 564.6 434.8 564.6Z" fill="#FF5959"/>
<path d="M434.8 564.6C436.457 564.6 437.8 563.257 437.8 561.6C437.8 559.943 436.457 558.6 434.8 558.6C433.143 558.6 431.8 559.943 431.8 561.6C431.8 563.257 433.143 564.6 434.8 564.6Z" stroke="#3F2975" stroke-width="5" stroke-miterlimit="10" stroke-linecap="round" stroke-linejoin="round"/>
<path d="M416.8 571.4C417.242 571.4 417.6 571.042 417.6 570.6C417.6 570.158 417.242 569.8 416.8 569.8C416.358 569.8 416 570.158 416 570.6C416 571.042 416.358 571.4 416.8 571.4Z" stroke="#3F2975" stroke-width="5" stroke-miterlimit="10" stroke-linecap="round" stroke-linejoin="round"/>
<path d="M361.5 663C363.157 663 364.5 661.657 364.5 660C364.5 658.343 363.157 657 361.5 657C359.843 657 358.5 658.343 358.5 660C358.5 661.657 359.843 663 361.5 663Z" fill="#3F2975"/>
<path d="M383.5 690.4C387.035 690.4 389.9 687.535 389.9 684C389.9 680.465 387.035 677.6 383.5 677.6C379.965 677.6 377.1 680.465 377.1 684C377.1 687.535 379.965 690.4 383.5 690.4Z" fill="#3F2975"/>
<path d="M392.5 652C394.157 652 395.5 650.657 395.5 649C395.5 647.343 394.157 646 392.5 646C390.843 646 389.5 647.343 389.5 649C389.5 650.657 390.843 652 392.5 652Z" fill="#3F2975"/>
<path d="M413.5 684.4C415.378 684.4 416.9 682.878 416.9 681C416.9 679.122 415.378 677.6 413.5 677.6C411.622 677.6 410.1 679.122 410.1 681C410.1 682.878 411.622 684.4 413.5 684.4Z" fill="#3F2975"/>
<path d="M642.2 427H578.9C572.3 427 566.9 421.6 566.9 415C566.9 408.4 572.3 403 578.9 403H642.2C648.8 403 654.2 408.4 654.2 415C654.2 421.6 648.8 427 642.2 427Z" fill="#D9D6E5"/>
<path d="M642.2 427H578.9C572.3 427 566.9 421.6 566.9 415C566.9 408.4 572.3 403 578.9 403H642.2C648.8 403 654.2 408.4 654.2 415C654.2 421.6 648.8 427 642.2 427Z" stroke="#3F2975" stroke-width="6" stroke-miterlimit="10" stroke-linecap="round" stroke-linejoin="round"/>
<path d="M637.5 555V427H583.5V555L495.9 692.3C487.4 705.6 496.8 723 512.6 723H707.7C723.5 723 733.3 705.6 724.8 692.3L637.5 555Z" fill="white"/>
<path d="M637.5 555V427H583.5V555L495.9 692.3C487.4 705.6 496.8 723 512.6 723H707.7C723.5 723 733.3 705.6 724.8 692.3L637.5 555Z" stroke="#3F2975" stroke-width="6" stroke-miterlimit="10" stroke-linecap="round" stroke-linejoin="round"/>
<path d="M712.9 699.7L677.7 644.3C674 635.5 666 629.5 656.7 629.5C652 629.5 647.5 631.1 643.9 633.8C639.7 629.3 634 626.5 627.7 626.5C618.9 626.5 611.2 632 607.3 640H603.1C598.9 635.4 593.1 632.5 586.7 632.5C580.3 632.5 574.5 635.4 570.3 640H568.5C565.3 641.9 561.6 643 557.6 643C553.6 643 550 641.9 546.7 640H545.7L507.6 699.7C505.7 702.7 506.8 705.1 507.2 705.8C507.8 707 509.4 708.9 512.5 708.9H707.6C710.9 708.9 712.5 706.7 713 705.8C713.8 704.4 714.4 702.2 712.9 699.7Z" fill="#0CF9C3"/>
<path d="M712.9 699.7L677.7 644.3C674 635.5 666 629.5 656.7 629.5C652 629.5 647.5 631.1 643.9 633.8C639.7 629.3 634 626.5 627.7 626.5C618.9 626.5 611.2 632 607.3 640H603.1C598.9 635.4 593.1 632.5 586.7 632.5C580.3 632.5 574.5 635.4 570.3 640H568.5C565.3 641.9 561.6 643 557.6 643C553.6 643 550 641.9 546.7 640H545.7L507.6 699.7C505.7 702.7 506.8 705.1 507.2 705.8C507.8 707 509.4 708.9 512.5 708.9H707.6C710.9 708.9 712.5 706.7 713 705.8C713.8 704.4 714.4 702.2 712.9 699.7Z" stroke="#3F2975" stroke-width="6" stroke-miterlimit="10" stroke-linecap="round" stroke-linejoin="round"/>
<path d="M600.2 610.5C605.723 610.5 610.2 606.023 610.2 600.5C610.2 594.977 605.723 590.5 600.2 590.5C594.677 590.5 590.2 594.977 590.2 600.5C590.2 606.023 594.677 610.5 600.2 610.5Z" fill="#0CF9C3"/>
<path d="M600.2 610.5C605.723 610.5 610.2 606.023 610.2 600.5C610.2 594.977 605.723 590.5 600.2 590.5C594.677 590.5 590.2 594.977 590.2 600.5C590.2 606.023 594.677 610.5 600.2 610.5Z" stroke="#3F2975" stroke-width="6" stroke-miterlimit="10" stroke-linecap="round" stroke-linejoin="round"/>
<path d="M634.8 613.7C638.445 613.7 641.4 610.745 641.4 607.1C641.4 603.455 638.445 600.5 634.8 600.5C631.155 600.5 628.2 603.455 628.2 607.1C628.2 610.745 631.155 613.7 634.8 613.7Z" fill="#0CF9C3"/>
<path d="M634.8 613.7C638.445 613.7 641.4 610.745 641.4 607.1C641.4 603.455 638.445 600.5 634.8 600.5C631.155 600.5 628.2 603.455 628.2 607.1C628.2 610.745 631.155 613.7 634.8 613.7Z" stroke="#3F2975" stroke-width="6" stroke-miterlimit="10" stroke-linecap="round" stroke-linejoin="round"/>
<path d="M613.7 551C616.572 551 618.9 548.672 618.9 545.8C618.9 542.928 616.572 540.6 613.7 540.6C610.828 540.6 608.5 542.928 608.5 545.8C608.5 548.672 610.828 551 613.7 551Z" fill="#0CF9C3"/>
<path d="M613.7 551C616.572 551 618.9 548.672 618.9 545.8C618.9 542.928 616.572 540.6 613.7 540.6C610.828 540.6 608.5 542.928 608.5 545.8C608.5 548.672 610.828 551 613.7 551Z" stroke="#3F2975" stroke-width="6" stroke-miterlimit="10" stroke-linecap="round" stroke-linejoin="round"/>
<path d="M596.5 669.4C600.035 669.4 602.9 666.535 602.9 663C602.9 659.465 600.035 656.6 596.5 656.6C592.965 656.6 590.1 659.465 590.1 663C590.1 666.535 592.965 669.4 596.5 669.4Z" fill="#3F2975"/>
<path d="M638.3 681C640.067 681 641.5 679.567 641.5 677.8C641.5 676.033 640.067 674.6 638.3 674.6C636.533 674.6 635.1 676.033 635.1 677.8C635.1 679.567 636.533 681 638.3 681Z" fill="#3F2975"/>
<path d="M618.6 488.7C619.76 488.7 620.7 487.76 620.7 486.6C620.7 485.44 619.76 484.5 618.6 484.5C617.44 484.5 616.5 485.44 616.5 486.6C616.5 487.76 617.44 488.7 618.6 488.7Z" stroke="#3F2975" stroke-width="6" stroke-miterlimit="10" stroke-linecap="round" stroke-linejoin="round"/>
<path d="M602.6 441.7C603.76 441.7 604.7 440.76 604.7 439.6C604.7 438.44 603.76 437.5 602.6 437.5C601.44 437.5 600.5 438.44 600.5 439.6C600.5 440.76 601.44 441.7 602.6 441.7Z" stroke="#3F2975" stroke-width="6" stroke-miterlimit="10" stroke-linecap="round" stroke-linejoin="round"/>
</g>
<defs>
<clipPath id="clip0_955:678">
<rect width="1000" height="1000" fill="white" transform="translate(0.5)"/>
</clipPath>
</defs>
</svg>
