<svg width="1000" height="1001" viewBox="0 0 1000 1001" fill="none" xmlns="http://www.w3.org/2000/svg">
<g clip-path="url(#clip0_979:234)">
<g style="mix-blend-mode:multiply" opacity="0.25">
<g style="mix-blend-mode:multiply" opacity="0.25">
<path d="M500 818.442C614.199 818.442 706.776 796.802 706.776 770.108C706.776 743.414 614.199 721.774 500 721.774C385.801 721.774 293.224 743.414 293.224 770.108C293.224 796.802 385.801 818.442 500 818.442Z" fill="#9A9C9B"/>
</g>
</g>
<path d="M418.689 736.796C418.689 736.796 403.325 743.317 396.359 750.911C386.483 761.677 391.52 777.044 414.972 779.36C443.425 782.17 457.972 761.645 458.503 754.124C459.16 744.844 458.874 740.352 454.982 736.578C421.327 732.51 418.689 736.796 418.689 736.796Z" fill="#39294E"/>
<path d="M418.689 736.796C418.689 736.796 403.325 743.317 396.359 750.911C386.483 761.677 391.52 777.044 414.972 779.36C443.425 782.17 457.972 761.645 458.503 754.124C459.16 744.844 458.874 740.352 454.982 736.578C421.327 732.51 418.689 736.796 418.689 736.796Z" stroke="#39294E" stroke-width="2.80384" stroke-linecap="round" stroke-linejoin="round"/>
<path d="M424.047 687.025C424.047 687.025 427.707 724.964 424.566 733.809C424.037 735.298 414.833 737.261 413.786 742.869C412.862 747.815 416.241 753.289 423.701 755.72C435.49 759.56 448.759 755.953 453.452 745.95C457.752 736.785 448.968 715.765 461.114 686.325C427.189 686.325 424.047 687.025 424.047 687.025Z" fill="#FFAB91"/>
<path d="M421.5 746.446C422.547 740.838 431.751 738.875 432.28 737.386C435.421 728.541 431.761 690.602 431.761 690.602C431.761 690.602 434.327 690.032 459.728 689.92C460.161 688.734 460.614 687.539 461.115 686.32C427.19 686.32 424.049 687.02 424.049 687.02C424.049 687.02 427.708 724.959 424.567 733.804C424.038 735.293 414.834 737.256 413.787 742.864C412.864 747.81 416.242 753.284 423.702 755.715C424.36 755.929 425.024 756.115 425.69 756.28C422.283 753.541 420.86 749.867 421.5 746.446Z" fill="#E88B74"/>
<path d="M424.047 687.025C424.047 687.025 427.707 724.964 424.566 733.809C424.037 735.298 414.833 737.261 413.786 742.869C412.862 747.815 416.241 753.289 423.701 755.72C435.49 759.56 448.759 755.953 453.452 745.95C457.752 736.785 448.968 715.765 461.114 686.325C427.189 686.325 424.047 687.025 424.047 687.025Z" stroke="#39294E" stroke-width="2.80384" stroke-linecap="round" stroke-linejoin="round"/>
<path d="M415.362 680.449C415.362 680.449 417.404 692.254 417.404 695.537C417.404 698.82 435.774 701.677 444.346 701.677C452.918 701.677 458.634 704.942 461.9 701.677C465.166 698.412 467.352 679.224 467.352 677.183C467.352 675.142 415.362 680.449 415.362 680.449Z" fill="#C65258"/>
<g style="mix-blend-mode:multiply" opacity="0.21">
<g style="mix-blend-mode:multiply" opacity="0.21">
<path d="M431.978 686.064C431.978 686.064 451.622 684.064 466.761 682.988C467.144 680.071 467.352 677.812 467.352 677.188C467.352 675.147 415.362 680.454 415.362 680.454C415.362 680.454 417.404 692.259 417.404 695.542C417.404 697.772 425.884 699.805 434.011 700.88C433.916 697.279 431.978 686.064 431.978 686.064Z" fill="#C65258"/>
</g>
</g>
<path d="M415.362 680.449C415.362 680.449 417.404 692.254 417.404 695.537C417.404 698.82 435.774 701.677 444.346 701.677C452.918 701.677 458.634 704.942 461.9 701.677C465.166 698.412 467.352 679.224 467.352 677.183C467.352 675.142 415.362 680.449 415.362 680.449Z" stroke="#39294E" stroke-width="2.80384" stroke-linecap="round" stroke-linejoin="round"/>
<path opacity="0.6" d="M427.219 770.537C427.608 770.443 427.986 770.309 428.347 770.137" stroke="white" stroke-width="2.80384" stroke-linecap="round" stroke-linejoin="round"/>
<path opacity="0.6" d="M410.155 769.045C410.155 769.045 413.838 772.797 422.921 771.423" stroke="white" stroke-width="2.80384" stroke-linecap="round" stroke-linejoin="round"/>
<path d="M590.353 749.929C600.229 760.695 602.46 776.122 579.007 778.438C550.555 781.248 533.807 763.806 533.271 756.285C532.613 747.006 533.123 740.057 537.016 736.285C570.671 732.215 583.386 742.335 590.353 749.929Z" fill="#39294E"/>
<path d="M590.353 749.929C600.229 760.695 602.46 776.122 579.007 778.438C550.555 781.248 533.807 763.806 533.271 756.285C532.613 747.006 533.123 740.057 537.016 736.285C570.671 732.215 583.386 742.335 590.353 749.929Z" stroke="#39294E" stroke-width="2.80384" stroke-linecap="round" stroke-linejoin="round"/>
<path d="M565.431 687.025C565.431 687.025 561.771 724.964 564.912 733.809C565.441 735.298 578.273 745.45 568.171 753.283C564.195 756.366 543.477 755.953 538.783 745.95C534.483 736.785 540.51 715.765 528.364 686.325C562.289 686.325 565.431 687.025 565.431 687.025Z" fill="#FFAB91"/>
<path d="M546.542 746.605C542.242 737.44 548.269 716.42 536.123 686.979C551.081 686.979 560.049 687.116 565.408 687.268C565.421 687.125 565.431 687.025 565.431 687.025C565.431 687.025 562.289 686.325 528.364 686.325C540.51 715.766 534.484 736.786 538.783 745.951C541.974 752.751 552.566 755.116 560.274 754.967C554.426 753.858 548.735 751.279 546.542 746.605Z" fill="#E88B74"/>
<path d="M565.431 687.025C565.431 687.025 561.771 724.964 564.912 733.809C565.441 735.298 580.024 748.497 568.171 753.283C560.735 756.283 543.477 755.953 538.783 745.95C534.483 736.785 540.51 715.765 528.364 686.325C562.289 686.325 565.431 687.025 565.431 687.025Z" stroke="#39294E" stroke-width="2.80384" stroke-linecap="round" stroke-linejoin="round"/>
<path d="M574.116 683.253C574.116 683.253 572.075 695.053 572.075 698.341C572.075 701.629 556.475 704.39 548.121 706.311C541.806 707.762 530.844 707.746 527.578 704.481C524.312 701.216 522.126 682.028 522.126 679.987C522.126 677.946 574.116 683.253 574.116 683.253Z" fill="#C65258"/>
<g style="mix-blend-mode:multiply" opacity="0.21">
<g style="mix-blend-mode:multiply" opacity="0.21">
<path d="M538.482 704.48C535.216 701.215 533.03 682.028 533.03 679.987C533.03 679.91 533.13 679.846 533.271 679.787C526.771 679.424 522.126 679.376 522.126 679.987C522.126 682.028 524.312 701.215 527.578 704.48C530.323 707.225 538.495 707.669 544.784 706.88C542.032 706.478 539.711 705.71 538.482 704.48Z" fill="#C65258"/>
</g>
</g>
<path d="M574.116 683.253C574.116 683.253 572.075 695.053 572.075 698.341C572.075 701.629 556.475 704.39 548.121 706.311C541.806 707.762 530.844 707.746 527.578 704.481C524.312 701.216 522.126 682.028 522.126 679.987C522.126 677.946 574.116 683.253 574.116 683.253Z" stroke="#39294E" stroke-width="2.80384" stroke-linecap="round" stroke-linejoin="round"/>
<path opacity="0.6" d="M569.888 771.628C573.003 771.803 577.721 772.101 581.124 769.843" stroke="white" stroke-width="2.80384" stroke-linecap="round" stroke-linejoin="round"/>
<path opacity="0.6" d="M563.677 770.537C563.677 770.537 563.834 770.537 565.224 770.824" stroke="white" stroke-width="2.80384" stroke-linecap="round" stroke-linejoin="round"/>
<path d="M521.107 395.243H486.432C486.432 395.243 489.252 379.367 489.581 374.36C490.1 366.482 489.033 345.125 489.033 345.125H518.505C518.505 345.125 517.438 366.482 517.957 374.36C518.287 379.367 521.107 395.243 521.107 395.243Z" fill="#FFAB91"/>
<path d="M489.033 345.125C489.033 345.125 489.265 349.754 489.459 355.496C493.997 357.515 498.935 358.476 503.899 358.306C508.863 358.137 513.724 356.841 518.113 354.517C518.3 349.237 518.505 345.125 518.505 345.125H489.033Z" fill="#E88B74"/>
<path d="M521.107 395.243H486.432C486.432 395.243 489.252 379.367 489.581 374.36C490.1 366.482 489.033 345.125 489.033 345.125H518.505C518.505 345.125 517.438 366.482 517.957 374.36C518.287 379.367 521.107 395.243 521.107 395.243Z" stroke="#39294E" stroke-width="2.80384" stroke-linejoin="round"/>
<path d="M518.441 373.176C516.776 379.839 511.83 386.192 503.318 386.192C494.806 386.192 489.86 379.839 488.2 373.176L465.337 374.576L469.671 522.816H536.416L540.749 374.576L518.441 373.176Z" fill="white"/>
<path d="M488.2 379.419C489.748 381.57 494.811 386.192 503.323 386.192C511.835 386.192 516.498 383.781 518.446 379.419L540.567 380.81L540.749 374.578L518.449 373.178C516.784 379.841 511.838 386.194 503.326 386.194C494.814 386.194 489.86 379.839 488.2 373.176L465.337 374.576L465.519 380.808L488.2 379.419Z" fill="#EFEFEF"/>
<path d="M518.441 373.176C516.776 379.839 511.83 386.192 503.318 386.192C494.806 386.192 489.86 379.839 488.2 373.176L465.337 374.576L469.671 522.816H536.416L540.749 374.576L518.441 373.176Z" stroke="#39294E" stroke-width="2.80384" stroke-linejoin="round"/>
<path d="M556.908 522.818C556.908 522.818 559.654 550.395 586.29 607.873C604.503 647.173 586.79 686.427 559.319 693.278C536.411 698.993 515.119 694.936 508.519 668.603C502.698 645.355 512.693 613.242 509.104 597.186C502.455 598.694 499.533 598.65 494.665 597.186C482.085 625.392 491.68 656.614 479.047 673.525C467.107 689.507 436.055 696.732 412.832 681.56C388.862 665.899 393.063 635.439 414.844 601.326C433.338 572.361 448.06 537.721 450.827 518.32C457.971 518.32 556.908 522.818 556.908 522.818Z" fill="#5F2E50"/>
<g style="mix-blend-mode:overlay" opacity="0.22">
<g style="mix-blend-mode:overlay" opacity="0.22">
<g style="mix-blend-mode:overlay" opacity="0.22">
<path d="M430.216 677.375C406.245 661.714 410.446 631.254 432.228 597.141C449.295 570.411 463.142 538.858 467.352 518.898C458.663 518.546 452.431 518.32 450.829 518.32C448.062 537.72 433.34 572.361 414.846 601.326C393.065 635.439 388.864 665.899 412.834 681.56C428.765 691.968 448.379 691.834 462.982 685.56C451.458 686.501 439.944 683.625 430.216 677.375Z" fill="#5F2E50"/>
</g>
</g>
<g style="mix-blend-mode:overlay" opacity="0.22">
<g style="mix-blend-mode:overlay" opacity="0.22">
<path d="M525.9 664.418C517.913 642.55 524.01 600.152 515.351 594.053C508.703 595.561 510.246 597.384 509.517 599.595C511.768 616.288 502.974 646.461 508.517 668.603C515.111 694.936 536.407 698.993 559.317 693.278C561.47 692.731 563.57 691.988 565.588 691.058C547.188 692.865 533.684 685.724 525.9 664.418Z" fill="#5F2E50"/>
</g>
</g>
</g>
<path d="M538.134 463.854C538.134 463.854 539.968 528.619 517.352 564.254C498.441 594.054 460.196 599.523 449.343 599.84C440.48 599.96 431.715 597.977 423.767 594.053L431.978 554.677L538.134 463.854Z" fill="#5A2849"/>
<path d="M556.908 522.818C556.908 522.818 559.654 550.395 586.29 607.873C604.503 647.173 586.79 686.427 559.319 693.278C536.411 698.993 515.119 694.936 508.519 668.603C502.698 645.355 512.693 613.242 509.104 597.186C504.338 598.143 499.43 598.143 494.665 597.186C482.085 625.392 491.68 656.614 479.047 673.525C467.107 689.507 436.055 696.732 412.832 681.56C388.862 665.899 393.063 635.439 414.844 601.326C433.338 572.361 448.06 537.721 450.827 518.32C457.971 518.32 556.908 522.818 556.908 522.818Z" stroke="#39294E" stroke-width="2.80384" stroke-linecap="round" stroke-linejoin="round"/>
<path d="M503.769 285.426C542.656 285.426 581.26 278.787 586.53 251.78C590.268 232.62 583.803 202.566 576.53 189.766L571.357 180.566L503.773 179.821L436.184 184.021C436.184 184.021 406.408 213.915 422.042 247.921C433.53 272.926 464.882 285.426 503.769 285.426Z" fill="#39294E" stroke="#39294E" stroke-width="2.80384" stroke-linejoin="round"/>
<path d="M432.818 277.482C423.362 286.938 408.306 273.034 410.118 254.335C411.062 244.574 422.658 236.523 433.757 248.859C433.753 248.859 439.1 271.204 432.818 277.482Z" fill="#FFAB91"/>
<path d="M433.289 257.071C434.393 261.945 435.086 266.904 435.36 271.894C437.118 262.948 433.753 248.859 433.753 248.859C422.653 236.523 411.058 244.574 410.114 254.335C409.927 256.281 409.922 258.24 410.099 260.187C412.5 251.602 423.1 245.748 433.289 257.071Z" fill="#E88B74"/>
<path d="M432.818 277.482C423.362 286.938 408.306 273.034 410.118 254.335C411.062 244.574 422.658 236.523 433.757 248.859C433.753 248.859 439.1 271.204 432.818 277.482Z" stroke="#39294E" stroke-width="2.80384" stroke-linejoin="round"/>
<path d="M426.413 263.318C426.074 262.289 425.631 261.298 425.09 260.359C424.569 259.412 423.913 258.546 423.141 257.789C422.402 257.061 421.5 256.52 420.51 256.212C419.479 255.976 418.405 256.008 417.39 256.305L417.325 256.32C417.177 256.355 417.02 256.333 416.888 256.257C416.756 256.181 416.657 256.058 416.612 255.912C416.568 255.766 416.58 255.609 416.647 255.472C416.715 255.335 416.831 255.229 416.974 255.175C418.191 254.665 419.519 254.481 420.828 254.641C422.144 254.88 423.381 255.436 424.435 256.259C425.454 257.05 426.351 257.986 427.099 259.037C427.862 260.071 428.515 261.182 429.046 262.352C429.189 262.69 429.194 263.071 429.06 263.413C428.926 263.754 428.663 264.03 428.329 264.181C427.994 264.332 427.613 264.346 427.269 264.22C426.924 264.094 426.642 263.838 426.483 263.507C426.461 263.457 426.442 263.407 426.425 263.356L426.413 263.318Z" fill="#39294E"/>
<path d="M574.72 277.482C584.176 286.938 599.233 273.034 597.42 254.335C596.476 244.574 584.88 236.523 573.781 248.859C573.785 248.859 568.442 271.204 574.72 277.482Z" fill="#FFAB91"/>
<path d="M573.785 254.767C584.885 242.431 596.485 250.481 597.424 260.243C597.424 260.262 597.424 260.282 597.424 260.301C597.613 258.317 597.613 256.319 597.424 254.335C596.48 244.574 584.884 236.523 573.785 248.859C573.785 248.859 571.149 259.902 571.762 268.643C572.077 263.972 572.753 259.333 573.785 254.767Z" fill="#E88B74"/>
<path d="M574.72 277.482C584.176 286.938 599.233 273.034 597.42 254.335C596.476 244.574 584.88 236.523 573.781 248.859C573.785 248.859 568.442 271.204 574.72 277.482Z" stroke="#39294E" stroke-width="2.80384" stroke-linejoin="round"/>
<path d="M578.482 262.389C578.965 261.298 579.571 260.267 580.288 259.314C580.989 258.362 581.811 257.507 582.735 256.77C583.687 256.037 584.774 255.499 585.935 255.189C587.085 254.92 588.279 254.904 589.435 255.142C589.555 255.162 589.663 255.227 589.737 255.324C589.811 255.42 589.846 255.541 589.835 255.662C589.824 255.783 589.768 255.896 589.678 255.977C589.588 256.059 589.471 256.104 589.349 256.103H589.293C588.299 256.042 587.302 256.195 586.372 256.552C585.478 256.937 584.668 257.492 583.988 258.188C583.311 258.91 582.731 259.716 582.263 260.588C581.792 261.444 581.416 262.35 581.143 263.288L581.135 263.315C581.087 263.493 581.004 263.66 580.891 263.806C580.778 263.953 580.637 264.075 580.477 264.167C580.317 264.259 580.14 264.318 579.957 264.342C579.774 264.365 579.588 264.353 579.41 264.304C579.231 264.256 579.064 264.173 578.918 264.06C578.772 263.947 578.649 263.807 578.557 263.647C578.466 263.486 578.406 263.31 578.383 263.126C578.359 262.943 578.372 262.757 578.42 262.579C578.437 262.514 578.457 262.451 578.482 262.389Z" fill="#39294E"/>
<path d="M576.537 242.2C572.653 227.157 567.136 212.584 560.084 198.741L503.769 198.052L447.454 198.741C440.402 212.584 434.885 227.157 431 242.2C424.264 268.019 427.193 308.014 451.544 331.222C467.404 346.338 493.894 350.277 503.768 350.277C513.642 350.277 540.133 346.338 555.993 331.222C580.345 308.014 583.273 268.019 576.537 242.2Z" fill="#FFAB91"/>
<path d="M555.994 326.07C540.134 341.186 513.643 345.125 503.769 345.125C493.895 345.125 467.405 341.186 451.545 326.07C435.051 310.35 428.395 286.933 427.903 265.432C427.385 288.263 433.723 314.232 451.545 331.222C467.405 346.338 493.895 350.277 503.769 350.277C513.643 350.277 540.134 346.338 555.994 331.222C573.816 314.236 580.154 288.263 579.635 265.432C579.144 286.933 572.487 310.35 555.994 326.07Z" fill="#E88B74"/>
<path d="M431.69 239.63L447.454 198.741L445.954 195.941L462.31 199.212C462.31 199.212 488.01 192.903 488.946 192.903H515.523C517.945 192.903 553.902 195.941 554.603 196.642C555.304 197.343 569.425 219.252 569.425 219.252C569.425 219.252 574.069 229.508 575.363 237.892C527.637 249.44 488.529 211.856 488.529 211.856C488.529 211.856 464.735 210.842 450.801 207.411C446.522 214.232 431.689 239.634 431.689 239.634" fill="#E88B74"/>
<path d="M576.537 242.2C572.653 227.157 567.136 212.584 560.084 198.741L503.769 198.052L447.454 198.741C440.402 212.584 434.885 227.157 431 242.2C424.264 268.019 427.193 308.014 451.544 331.222C467.404 346.338 493.894 350.277 503.768 350.277C513.642 350.277 540.133 346.338 555.993 331.222C580.345 308.014 583.273 268.019 576.537 242.2Z" stroke="#39294E" stroke-width="2.80384" stroke-linejoin="round"/>
<path d="M512.839 272.856C512.37 272.386 511.795 272.036 511.162 271.833C510.492 271.582 509.802 271.386 509.1 271.246C506.252 270.68 503.32 270.68 500.471 271.246C499.769 271.386 499.079 271.582 498.409 271.833C497.776 272.035 497.201 272.385 496.73 272.854L496.677 272.917C496.621 272.983 496.543 273.028 496.457 273.044C496.371 273.059 496.283 273.045 496.207 273.002C496.13 272.96 496.071 272.893 496.039 272.812C496.006 272.731 496.003 272.641 496.029 272.558C496.363 271.723 496.968 271.025 497.748 270.577C498.445 270.129 499.196 269.769 499.982 269.506C503.098 268.456 506.473 268.456 509.589 269.506C510.375 269.769 511.126 270.129 511.823 270.576C512.603 271.024 513.209 271.722 513.543 272.557C513.57 272.641 513.567 272.731 513.535 272.813C513.503 272.895 513.443 272.963 513.366 273.005C513.289 273.048 513.2 273.062 513.113 273.046C513.027 273.03 512.949 272.984 512.892 272.917L512.839 272.856Z" fill="#39294E"/>
<path d="M474.163 284.926C476.098 286.758 478.29 288.295 480.671 289.49C483.047 290.722 485.544 291.707 488.121 292.428C498.536 295.296 509.534 295.287 519.944 292.402C522.518 291.678 525.011 290.691 527.382 289.456C529.757 288.261 531.944 286.723 533.873 284.893L533.886 284.88C534.032 284.742 534.226 284.664 534.428 284.664C534.629 284.664 534.823 284.74 534.97 284.879C535.116 285.017 535.205 285.206 535.217 285.407C535.228 285.608 535.163 285.806 535.033 285.96C533.143 288.105 530.919 289.932 528.447 291.369C525.991 292.787 523.392 293.945 520.695 294.822C509.853 298.235 498.223 298.226 487.386 294.796C484.692 293.916 482.098 292.756 479.645 291.335C477.18 289.896 474.962 288.07 473.077 285.926C472.957 285.782 472.897 285.597 472.908 285.41C472.919 285.223 473.001 285.047 473.138 284.918C473.274 284.789 473.454 284.716 473.642 284.715C473.83 284.714 474.011 284.785 474.148 284.912L474.163 284.926Z" fill="#39294E"/>
<path d="M476.426 246.64C480.298 246.64 483.436 243.502 483.436 239.63C483.436 235.759 480.298 232.62 476.426 232.62C472.555 232.62 469.416 235.759 469.416 239.63C469.416 243.502 472.555 246.64 476.426 246.64Z" fill="#39294E"/>
<path d="M459.719 232.215C460.542 230.134 461.813 228.258 463.44 226.72C465.074 225.158 466.974 223.9 469.05 223.005C471.094 222.121 473.254 221.533 475.464 221.258C477.665 220.954 479.902 221.014 482.084 221.435C482.422 221.504 482.726 221.691 482.94 221.962C483.155 222.232 483.267 222.57 483.257 222.916C483.247 223.261 483.116 223.592 482.886 223.85C482.656 224.108 482.343 224.277 482.001 224.326L481.864 224.345C480.001 224.612 478.008 224.922 476.137 225.318C474.269 225.716 472.431 226.243 470.637 226.896C468.864 227.542 467.166 228.377 465.572 229.387C463.939 230.458 462.41 231.68 461.006 233.037L460.943 233.092C460.812 233.209 460.645 233.277 460.47 233.286C460.295 233.295 460.122 233.245 459.98 233.143C459.838 233.041 459.734 232.894 459.686 232.725C459.638 232.557 459.649 232.377 459.717 232.215H459.719Z" fill="#39294E"/>
<path d="M534.255 246.64C538.127 246.64 541.265 243.502 541.265 239.63C541.265 235.759 538.127 232.62 534.255 232.62C530.384 232.62 527.245 235.759 527.245 239.63C527.245 243.502 530.384 246.64 534.255 246.64Z" fill="#39294E"/>
<path d="M549.501 230.518L530.926 223.858" stroke="#39294E" stroke-width="4.20576" stroke-linecap="round" stroke-linejoin="round"/>
<path d="M496.935 192.899C496.935 192.899 480.291 200.46 502.359 212.526C518.01 221.084 561.728 243.05 579.673 234.638C597.618 226.226 586.53 210.19 583.258 206.919C579.053 211.124 506.345 202.31 496.935 192.899Z" fill="#C65258"/>
<g style="mix-blend-mode:multiply" opacity="0.22">
<g style="mix-blend-mode:multiply" opacity="0.22">
<path d="M576.394 226.589C583.938 223.053 587.024 218.349 587.733 213.615C586.607 211.159 585.096 208.897 583.258 206.915C579.053 211.12 506.345 202.306 496.935 192.895C496.935 192.895 492.974 201.48 496.38 208.179C538.423 230.518 557.22 235.58 576.394 226.589Z" fill="#C65258"/>
</g>
</g>
<path d="M496.935 192.899C496.935 192.899 480.291 200.46 502.359 212.526C518.01 221.084 561.728 243.05 579.673 234.638C597.618 226.226 586.53 210.19 583.258 206.919C579.053 211.124 506.345 202.31 496.935 192.899Z" stroke="#39294E" stroke-width="2.80384" stroke-linejoin="round"/>
<path d="M582.818 216.732C569.329 223.858 544.568 214.162 515.641 209.255C486.714 204.348 428.859 203.647 417.431 185.423C406.003 167.199 421.948 127.049 465.286 131.449C506.713 135.654 542.61 151.309 582.818 175.609C600.648 186.389 595.154 210.215 582.818 216.732Z" fill="#814F5A"/>
<g style="mix-blend-mode:multiply" opacity="0.13">
<g style="mix-blend-mode:multiply" opacity="0.13">
<path d="M583.844 200.989C570.653 207.958 546.439 198.476 518.15 193.677C489.861 188.878 433.285 188.194 422.109 170.371C419.197 165.727 418.12 159.623 418.844 153.217C412.718 164.317 412.234 177.137 417.431 185.424C428.859 203.649 486.714 204.35 515.641 209.257C544.568 214.164 569.329 223.857 582.818 216.734C591.13 212.343 596.318 200.094 593.38 189.273C591.494 194.408 588.086 198.746 583.844 200.989Z" fill="#814F5A"/>
</g>
</g>
<path d="M582.818 216.732C569.329 223.858 544.568 214.162 515.641 209.255C486.714 204.348 428.859 203.647 417.431 185.423C406.003 167.199 421.948 127.049 465.286 131.449C506.713 135.654 542.61 151.309 582.818 175.609C600.648 186.389 595.154 210.215 582.818 216.732Z" stroke="#39294E" stroke-width="2.80384" stroke-linejoin="round"/>
<path d="M467.982 372.45C475.891 375.977 486.759 409.099 493.298 439.325C501.992 479.51 504.729 543.215 488.414 546.734C467.014 551.351 438.039 538.252 438.039 532.734C438.039 527.216 453.839 483.427 450.13 443.525C446.624 405.773 438.039 385.563 438.039 382.337C438.039 379.111 462.029 369.795 467.982 372.45Z" fill="#EE406D"/>
<g style="mix-blend-mode:multiply" opacity="0.3">
<g style="mix-blend-mode:multiply" opacity="0.3">
<path d="M451.8 447.532C448.294 409.78 439.709 389.57 439.709 386.345C439.709 383.12 463.699 373.807 469.653 376.462C472.553 377.754 475.844 383.028 479.177 390.662C475.284 380.878 471.364 373.954 467.983 372.447C462.029 369.791 438.04 379.104 438.04 382.329C438.04 385.554 446.625 405.765 450.131 443.517C453.831 483.417 438.04 527.203 438.04 532.726C438.04 533.543 438.687 534.526 439.84 535.593C441.261 526.789 455.318 485.424 451.8 447.532Z" fill="#EE406D"/>
</g>
</g>
<g style="mix-blend-mode:multiply" opacity="0.3">
<g style="mix-blend-mode:multiply" opacity="0.3">
<path d="M456.988 444.133C453.012 422.681 446.777 401.71 438.388 381.57C438.193 381.78 438.07 382.047 438.039 382.332C438.039 385.558 446.624 405.768 450.13 443.52C453.83 483.42 438.039 527.206 438.039 532.729C438.039 535.283 444.239 539.455 453.017 542.748C452.705 535.926 465.1 486.969 456.988 444.133Z" fill="#EE406D"/>
</g>
</g>
<path d="M467.982 372.45C475.891 375.977 486.759 409.099 493.298 439.325C501.992 479.51 504.729 543.215 488.414 546.734C467.014 551.351 438.039 538.252 438.039 532.734C438.039 527.216 453.839 483.427 450.13 443.525C446.624 405.773 438.039 385.563 438.039 382.337C438.039 379.111 462.029 369.795 467.982 372.45Z" stroke="#39294E" stroke-width="2.80384" stroke-linejoin="round"/>
<path d="M539.3 373.289C531.392 376.816 520.524 409.938 513.985 440.164C505.291 480.349 502.554 544.054 518.869 547.574C540.269 552.19 569.244 539.092 569.244 533.574C569.244 528.056 553.444 484.267 557.153 444.364C560.659 406.612 569.244 386.402 569.244 383.177C569.244 379.952 545.251 370.632 539.3 373.289Z" fill="#EE406D"/>
<g style="mix-blend-mode:multiply" opacity="0.3">
<g style="mix-blend-mode:multiply" opacity="0.3">
<path d="M557.15 444.357C560.656 406.605 569.241 386.395 569.241 383.17C569.241 379.945 545.251 370.632 539.297 373.287C538.695 373.576 538.141 373.955 537.653 374.41C547.453 375.677 563.553 382.485 563.553 385.21C563.553 388.641 554.422 410.137 550.693 450.292C547.35 486.286 558.923 525.238 562.517 539.829C566.672 537.515 569.241 535.206 569.241 533.566C569.241 528.044 553.445 484.259 557.15 444.357Z" fill="#EE406D"/>
</g>
</g>
<path d="M539.3 373.289C531.392 376.816 520.524 409.938 513.985 440.164C505.291 480.349 502.554 544.054 518.869 547.574C540.269 552.19 569.244 539.092 569.244 533.574C569.244 528.056 553.444 484.267 557.153 444.364C560.659 406.612 569.244 386.402 569.244 383.177C569.244 379.952 545.251 370.632 539.3 373.289Z" stroke="#39294E" stroke-width="2.80384" stroke-linejoin="round"/>
<path d="M562.817 467.854C568.153 476.186 579.393 486.577 593.717 478.344C605.494 471.573 610.537 456.434 614.438 441.637C621.111 416.325 606.491 413.478 606.491 413.478C606.491 413.478 593.68 418.926 591.915 420.789C590.15 422.652 588.383 421.914 585.188 429.789C581.993 437.664 582.664 449.623 582.664 449.623C582.664 449.623 580.207 422.849 579.825 416.106C578.643 395.216 568.69 382.959 566.561 385.206C564.432 387.453 542.562 436.232 562.817 467.854Z" fill="white"/>
<path d="M579.652 413.789C579.075 405.93 576.87 398.276 573.177 391.314C573.732 394.241 574.093 397.201 574.26 400.174C574.641 406.917 577.098 433.692 577.098 433.692C577.098 433.692 576.428 421.733 579.623 413.857L579.652 413.789Z" fill="#EFEFEF"/>
<path d="M610.563 415.559C610.347 418.99 609.779 422.39 608.868 425.705C604.968 440.505 599.925 455.641 588.148 462.412C573.827 470.646 562.588 460.254 557.248 451.922C556.634 450.964 556.062 449.988 555.524 449C556.724 455.693 559.199 462.094 562.814 467.854C568.15 476.186 579.39 486.577 593.714 478.344C605.49 471.573 610.533 456.434 614.434 441.637C618.68 425.533 614.307 418.529 610.563 415.559Z" fill="#EFEFEF"/>
<path d="M562.817 467.854C568.153 476.186 579.393 486.577 593.717 478.344C605.494 471.573 610.537 456.434 614.438 441.637C621.111 416.325 606.491 413.478 606.491 413.478C606.491 413.478 593.68 418.926 591.915 420.789C590.15 422.652 588.383 421.914 585.188 429.789C581.993 437.664 582.664 449.623 582.664 449.623C582.664 449.623 580.207 422.849 579.825 416.106C578.643 395.216 568.69 382.959 566.561 385.206C564.432 387.453 542.562 436.232 562.817 467.854Z" stroke="#39294E" stroke-width="2.80384" stroke-linejoin="round"/>
<path d="M492.3 595.806C492.3 595.806 502.131 601.066 515.359 594.053" stroke="#39294E" stroke-width="2.80384" stroke-linecap="round" stroke-linejoin="round"/>
<path d="M401.863 559.528C397.179 552.75 385.19 530.983 390.918 508.328C399.518 474.298 441.787 446.728 475.191 446.948C504.02 447.135 504.02 447.135 546.903 459.287C543.112 503.696 543.112 503.696 533.097 530.73C521.491 562.054 480.765 591.848 445.897 587.867C422.671 585.213 406.547 566.305 401.863 559.528Z" fill="#FBAD62"/>
<g style="mix-blend-mode:multiply" opacity="0.4">
<g style="mix-blend-mode:multiply" opacity="0.4">
<path d="M392.6 489.989C392.6 489.989 396.135 509.623 404.834 518.322C409.647 523.134 413.141 525.083 415.302 525.863C415.623 525.973 415.963 526.014 416.3 525.983C416.638 525.951 416.965 525.848 417.259 525.681C417.554 525.514 417.81 525.286 418.01 525.012C418.209 524.738 418.349 524.425 418.418 524.093L419.675 518.322C419.675 518.322 436.394 519.876 444.359 518.322C449.325 523.287 458 525.377 467.349 523.094C475.775 521.036 500.249 506.226 500.249 502.857C500.249 499.488 437.884 497.585 437.884 497.585L392.6 489.989Z" fill="#FBAD62"/>
</g>
</g>
<g style="mix-blend-mode:multiply" opacity="0.4">
<g style="mix-blend-mode:multiply" opacity="0.4">
<path d="M534.091 515.998C522.485 547.322 481.76 577.117 446.891 573.135C423.67 570.485 407.546 551.576 402.862 544.799C399.334 539.694 391.662 526.084 390.541 509.999C385.789 532.049 397.299 552.921 401.868 559.532C406.552 566.309 422.676 585.217 445.897 587.868C480.77 591.849 521.497 562.055 533.097 530.731C543.113 503.689 543.113 503.689 546.9 459.289L546.628 459.212C543.952 489.381 542.86 492.329 534.091 515.998Z" fill="#FBAD62"/>
</g>
</g>
<path d="M401.863 559.528C397.179 552.75 385.19 530.983 390.918 508.328C399.518 474.298 441.787 446.728 475.191 446.948C504.02 447.135 504.02 447.135 546.903 459.287C543.112 503.696 543.112 503.696 533.097 530.73C521.491 562.054 480.765 591.848 445.897 587.867C422.671 585.213 406.547 566.305 401.863 559.528Z" stroke="#39294E" stroke-width="2.80384" stroke-linecap="round" stroke-linejoin="round"/>
<path d="M509.348 501.776L493.879 479.395L640.327 381.498L652.69 399.386L509.348 501.776Z" fill="#B55957"/>
<g style="mix-blend-mode:multiply" opacity="0.3">
<g style="mix-blend-mode:multiply" opacity="0.3">
<path d="M648.228 392.929L507.728 493.289L496.783 477.453L493.879 479.395L509.348 501.776L652.69 399.386L648.228 392.929Z" fill="#B55957"/>
</g>
</g>
<path d="M509.348 501.776L493.879 479.395L640.327 381.498L652.69 399.386L509.348 501.776Z" stroke="#39294E" stroke-width="2.80384" stroke-linecap="round" stroke-linejoin="round"/>
<path d="M448.417 552.394C438.465 542.676 430.491 531.122 424.935 518.37C424.598 517.422 426.481 516.121 427.248 516.77C437.213 526.475 445.203 538.019 450.775 550.764C451.181 551.889 449.327 553.171 448.417 552.394Z" fill="#39294E"/>
<path d="M506.158 518.405C514.111 512.909 514.074 499.073 506.076 487.502C498.079 475.93 485.149 471.005 477.197 476.502C469.245 481.998 469.282 495.834 477.279 507.405C485.277 518.976 498.206 523.901 506.158 518.405Z" fill="#5F2E50"/>
<path d="M506.776 507.958C498.824 513.458 487.057 510.212 477.897 496.958C474.965 492.902 472.912 488.278 471.87 483.383C469.54 489.653 470.963 498.266 477.279 507.405C486.44 520.659 498.206 523.905 506.158 518.405C511.258 514.881 513.53 508.612 512.103 501.078C511.084 503.868 509.222 506.273 506.776 507.958Z" fill="#39294E"/>
<path d="M506.158 518.405C514.111 512.909 514.074 499.073 506.076 487.502C498.079 475.93 485.149 471.005 477.197 476.502C469.245 481.998 469.282 495.834 477.279 507.405C485.277 518.976 498.206 523.901 506.158 518.405Z" stroke="#39294E" stroke-width="2.80384" stroke-linecap="round" stroke-linejoin="round"/>
<path d="M651.105 355.548L654.858 361.984" stroke="#39294E" stroke-width="4.20576" stroke-linecap="round" stroke-linejoin="round"/>
<path d="M655.589 352.467L654.793 351.102C654.246 350.164 653.042 349.847 652.104 350.394L646.129 353.878C645.191 354.425 644.874 355.629 645.421 356.567L646.217 357.932C646.764 358.87 647.968 359.187 648.906 358.64L654.881 355.156C655.819 354.609 656.136 353.405 655.589 352.467Z" fill="#39294E"/>
<path d="M633.602 362.402L638.806 371.41" stroke="#39294E" stroke-width="4.20576" stroke-linecap="round" stroke-linejoin="round"/>
<path d="M638.088 359.322L637.291 357.956C636.744 357.018 635.54 356.701 634.602 357.248L628.627 360.733C627.689 361.279 627.372 362.483 627.919 363.421L628.716 364.787C629.263 365.725 630.466 366.042 631.404 365.495L637.38 362.011C638.318 361.464 638.635 360.26 638.088 359.322Z" fill="#39294E"/>
<path d="M680.774 398.476L676.08 392.69" stroke="#39294E" stroke-width="4.20576" stroke-linecap="round" stroke-linejoin="round"/>
<path d="M676.82 402.205L677.817 403.433C678.501 404.276 679.739 404.405 680.582 403.721L685.953 399.363C686.797 398.679 686.926 397.441 686.242 396.598L685.246 395.37C684.561 394.527 683.323 394.398 682.48 395.082L677.109 399.44C676.265 400.124 676.136 401.362 676.82 402.205Z" fill="#39294E"/>
<path d="M668.176 412.426L661.589 404.374" stroke="#39294E" stroke-width="4.20576" stroke-linecap="round" stroke-linejoin="round"/>
<path d="M664.222 416.157L665.218 417.384C665.902 418.228 667.141 418.357 667.984 417.672L673.355 413.315C674.199 412.63 674.328 411.392 673.643 410.549L672.647 409.321C671.963 408.478 670.725 408.349 669.882 409.033L664.51 413.391C663.667 414.075 663.538 415.313 664.222 416.157Z" fill="#39294E"/>
<path d="M689.054 369.61L681.034 358.01C679.509 355.758 677.195 354.16 674.549 353.532C671.903 352.904 669.118 353.292 666.744 354.619L623.644 380.167C622.754 380.673 621.975 381.355 621.357 382.171C620.738 382.987 620.291 383.921 620.044 384.915L616.608 400.289L626.727 414.93L642.327 417.153C643.344 417.273 644.376 417.184 645.358 416.894C646.34 416.603 647.253 416.116 648.042 415.462L687.175 384.175C689.255 382.423 690.603 379.955 690.951 377.258C691.299 374.561 690.622 371.832 689.054 369.61Z" fill="#FBAD62"/>
<g style="mix-blend-mode:multiply" opacity="0.4">
<g style="mix-blend-mode:multiply" opacity="0.4">
<path d="M691.027 373.176L689.054 369.61C689.431 372.732 684.348 376.498 681.486 378.525L642.352 406.242C640.697 407.429 638.662 407.964 636.638 407.742L621.038 405.772L617.014 400.614L616.608 402.223L626.727 415.189L642.327 417.158C644.352 417.381 646.387 416.846 648.042 415.658L685.08 385.846C689.4 382.789 694.239 377.289 691.027 373.176Z" fill="#FBAD62"/>
</g>
</g>
<path d="M689.054 369.61L681.034 358.01C679.509 355.758 677.195 354.16 674.549 353.532C671.903 352.904 669.118 353.292 666.744 354.619L623.644 380.167C622.754 380.673 621.975 381.355 621.357 382.171C620.738 382.987 620.291 383.921 620.044 384.915L616.608 400.289L626.727 414.93L642.327 417.153C643.344 417.273 644.376 417.184 645.358 416.894C646.34 416.603 647.253 416.116 648.042 415.462L687.175 384.175C689.255 382.423 690.603 379.955 690.951 377.258C691.299 374.561 690.622 371.832 689.054 369.61Z" stroke="#39294E" stroke-width="4.20576" stroke-linecap="round" stroke-linejoin="round"/>
<path d="M389.561 547.821C392.213 558.984 398.957 568.745 408.461 575.173C410.051 572.14 410.781 568.731 410.573 565.313C410.365 561.896 409.226 558.6 407.279 555.784C405.333 552.967 402.653 550.736 399.53 549.332C396.407 547.929 392.96 547.406 389.561 547.821Z" fill="#B55957"/>
<path d="M389.561 547.821C392.213 558.984 398.957 568.745 408.461 575.173C410.051 572.14 410.781 568.731 410.573 565.313C410.365 561.896 409.226 558.6 407.279 555.784C405.333 552.967 402.653 550.736 399.53 549.332C396.407 547.929 392.96 547.406 389.561 547.821Z" stroke="#39294E" stroke-width="2.80384" stroke-linecap="round" stroke-linejoin="round"/>
<path d="M493.332 497.583C496.064 496.609 497.752 492.741 496.632 489.319C495.572 486.077 491.232 486.596 491.232 486.596C491.232 486.596 495.526 479.243 489.286 476.555C484.515 474.499 465.186 491.097 461.741 485.189C464.185 480.191 465.069 474.573 464.278 469.065C457.971 462.758 447.309 478.893 447.309 491.537C435.15 491.452 424.689 487.367 420.666 479.084L408.7 504.918C418.717 510.84 429.256 514.14 446.389 511.952C450.217 519.093 465.331 517.752 474.879 515.316C486.426 512.373 492.502 509.49 495.696 505.607C499.107 501.461 496.837 497.583 493.332 497.583Z" fill="#FFAB91"/>
<path d="M496.973 491.905C496.487 492.413 495.892 492.806 495.234 493.053C495.753 493.054 496.268 493.147 496.754 493.329C496.873 492.863 496.946 492.386 496.973 491.905Z" fill="#E88B74"/>
<path d="M476.782 510.789C467.234 513.223 452.12 514.566 448.292 507.425C431.247 509.602 420.729 506.345 410.758 500.48L408.701 504.922C418.718 510.844 429.257 514.144 446.39 511.956C450.218 519.097 465.332 517.756 474.88 515.32C486.427 512.377 492.503 509.494 495.697 505.611C496.767 504.445 497.364 502.921 497.37 501.338C494.12 505.089 488.069 507.908 476.782 510.789Z" fill="#E88B74"/>
<path d="M450.957 477.321C449.426 480.365 448.339 483.613 447.73 486.965C448.221 486.982 448.71 487.002 449.208 487.006C449.262 483.704 449.853 480.433 450.957 477.321Z" fill="#E88B74"/>
<path d="M493.332 497.583C496.064 496.609 497.752 492.741 496.632 489.319C495.572 486.077 491.232 486.596 491.232 486.596C491.232 486.596 495.526 479.243 489.286 476.555C484.515 474.499 465.186 491.097 461.741 485.189C464.185 480.191 465.069 474.573 464.278 469.065C457.971 462.758 447.309 478.893 447.309 491.537C435.15 491.452 424.689 487.367 420.666 479.084L408.7 504.918C418.717 510.84 429.256 514.14 446.389 511.952C450.217 519.093 465.331 517.752 474.879 515.316C486.426 512.373 492.502 509.49 495.696 505.607C499.107 501.461 496.837 497.583 493.332 497.583Z" stroke="#39294E" stroke-width="2.80384" stroke-linejoin="round"/>
<path d="M476.2 493.378C483.714 491.868 491.227 486.596 491.227 486.596L476.2 493.378Z" fill="#FFAB91"/>
<path d="M476.2 493.378C483.714 491.868 491.227 486.596 491.227 486.596" stroke="#39294E" stroke-width="2.80384" stroke-linecap="round" stroke-linejoin="round"/>
<path d="M478.222 502.855C485.039 502.202 493.332 497.583 493.332 497.583L478.222 502.855Z" fill="#FFAB91"/>
<path d="M478.222 502.855C485.039 502.202 493.332 497.583 493.332 497.583" stroke="#39294E" stroke-width="2.80384" stroke-linecap="round" stroke-linejoin="round"/>
<path d="M427.875 483.071C426.19 481.549 424.775 481.225 422.238 477.85C403.484 452.917 436.538 424.486 447.91 425.412C456.086 396.742 438.623 385.118 438.623 385.118C400.705 403.508 378.323 436.374 386.73 479.08C390.289 497.163 400.185 509.252 416.544 514.135C417.494 505.02 424.341 492.38 427.875 483.071Z" fill="white"/>
<path d="M389.678 468.769C387.372 457.702 387.328 446.282 389.548 435.197C384.774 448.259 383.558 462.968 386.73 479.08C390.289 497.163 400.185 509.252 416.544 514.135C417.032 510.576 417.942 507.088 419.254 503.744C403.041 498.814 393.22 486.762 389.678 468.769Z" fill="#EFEFEF"/>
<path d="M419.678 448.857C426.116 435.123 441.004 424.85 447.91 425.412C448.888 422.043 449.549 418.591 449.885 415.1C440.829 415.56 421.427 430.983 419.678 448.857Z" fill="#EFEFEF"/>
<path d="M419.658 502.643C422.203 495.93 425.678 488.857 427.875 483.071C427.519 482.75 427.175 482.486 426.831 482.231C423.792 489.156 420.583 496.571 419.658 502.643Z" fill="#EFEFEF"/>
<path d="M427.875 483.071C426.19 481.549 424.775 481.225 422.238 477.85C403.484 452.917 436.538 424.486 447.91 425.412C456.086 396.742 438.623 385.118 438.623 385.118C400.705 403.508 378.323 436.374 386.73 479.08C390.289 497.163 400.185 509.252 416.544 514.135C417.494 505.02 424.341 492.38 427.875 483.071Z" stroke="#39294E" stroke-width="2.80384" stroke-linejoin="round"/>
<path d="M590.856 429.199C594.985 438.981 596.849 440.263 592.688 444.424C590.971 446.14 596.404 448.731 600.128 446.736C603.852 444.741 605.856 442.759 605.856 439.017C605.856 437.586 604.919 426.496 601.694 423.67C597.191 419.722 587.7 421.712 590.856 429.199Z" fill="#FFAB91"/>
<path d="M604.84 431.172C604.034 432.052 604.34 433.541 601.862 436.022C599.834 438.05 596.224 438.447 594.686 438.205C595.446 440.687 594.998 442.114 592.686 444.424C590.969 446.14 596.402 448.731 600.126 446.736C601.604 446.01 602.945 445.034 604.089 443.851C604.294 440.403 604.69 436.97 605.276 433.566C605.155 432.789 605.01 431.989 604.84 431.172Z" fill="#E88B74"/>
<path d="M605.191 426.963C605.191 439.035 605.645 442.777 608.291 442.238C610.937 441.699 613.357 440.96 614.305 439.529C615.253 438.098 616.918 435.604 616.605 428.981C616.535 425.205 616.03 421.45 615.1 417.789C614.294 413.824 605.191 414.272 605.191 426.963Z" fill="#FFAB91"/>
<path d="M605.288 434.043C605.521 440.521 606.259 442.652 608.294 442.238C610.944 441.7 613.36 440.96 614.308 439.529C615.256 438.098 616.921 435.604 616.608 428.981C616.592 428.641 616.576 428.327 616.559 428.017C610.967 437.049 606.087 434.347 605.288 434.043Z" fill="#E88B74"/>
<path d="M623.376 411.139C619.895 411.126 617.342 414.37 617.676 422.988C618.151 435.364 619.176 436.164 622.185 436.006C627.023 435.753 628.913 421.685 628.522 418.873C627.344 410.441 626.005 411.149 623.376 411.139Z" fill="#FFAB91"/>
<path d="M627.737 426.589C624.47 428.089 620.298 429.922 617.911 427.535C618.477 435.549 619.597 436.143 622.181 436.007C624.972 435.86 626.781 431.117 627.737 426.589Z" fill="#E88B74"/>
<path d="M590.856 429.199C594.985 438.981 596.849 440.263 592.688 444.424C590.971 446.14 596.404 448.731 600.128 446.736C603.852 444.741 605.856 442.759 605.856 439.017C605.856 437.586 604.919 426.496 601.694 423.67C597.191 419.722 587.7 421.712 590.856 429.199Z" stroke="#39294E" stroke-width="2.80384" stroke-linejoin="round"/>
<path d="M605.191 426.963C605.191 439.035 605.645 442.777 608.291 442.238C610.937 441.699 613.357 440.96 614.305 439.529C615.253 438.098 616.918 435.604 616.605 428.981C616.535 425.205 616.03 421.45 615.1 417.789C614.294 413.824 605.191 414.272 605.191 426.963Z" stroke="#39294E" stroke-width="2.80384" stroke-linejoin="round"/>
<path d="M623.376 411.139C619.895 411.126 617.342 414.37 617.676 422.988C618.151 435.364 619.176 436.164 622.185 436.006C627.023 435.753 628.913 421.685 628.522 418.873C627.344 410.441 626.005 411.149 623.376 411.139Z" stroke="#39294E" stroke-width="2.80384" stroke-linejoin="round"/>
<path d="M597.308 396.944C596.534 401.544 590.79 409.944 591.625 414.054C596.259 411.128 603.325 408.478 607.575 401.354C609.383 398.327 609.147 391.809 606.296 389.735C602.61 387.057 597.991 392.883 597.308 396.944Z" fill="#FFAB91" stroke="#39294E" stroke-width="2.80384" stroke-linejoin="round"/>
<path opacity="0.6" d="M440.028 147.617C436.044 150.44 431.076 155.589 429.979 162.429" stroke="white" stroke-width="2.80384" stroke-linecap="round" stroke-linejoin="round"/>
<path opacity="0.6" d="M446.523 144.452C445.66 144.758 444.815 145.114 443.993 145.519" stroke="white" stroke-width="2.80384" stroke-linecap="round" stroke-linejoin="round"/>
<path d="M490.757 311.608C492.836 310.631 495.033 309.925 497.292 309.508C499.541 309.064 501.827 308.834 504.12 308.823C505.267 308.806 506.42 308.892 507.559 308.956C508.699 309.121 509.846 309.189 510.967 309.465C513.223 309.89 515.414 310.609 517.483 311.602C517.593 311.654 517.682 311.742 517.732 311.853C517.783 311.963 517.793 312.088 517.76 312.205C517.727 312.322 517.654 312.423 517.553 312.491C517.452 312.559 517.331 312.589 517.21 312.575H517.182C514.955 312.333 512.811 311.986 510.635 311.855C508.47 311.685 506.305 311.589 504.135 311.629C499.766 311.674 495.403 311.989 491.073 312.574H491.043C490.922 312.589 490.8 312.561 490.699 312.494C490.597 312.427 490.522 312.327 490.488 312.21C490.453 312.094 490.461 311.969 490.51 311.857C490.559 311.746 490.646 311.656 490.755 311.602L490.757 311.608Z" fill="#E88B74"/>
<path d="M534.559 279.205C535.357 279.418 536.109 279.774 536.78 280.254C537.459 280.72 538.071 281.277 538.598 281.909C539.132 282.54 539.572 283.244 539.905 283.999C540.247 284.746 540.457 285.546 540.526 286.363C540.531 286.421 540.516 286.479 540.485 286.527C540.453 286.576 540.406 286.612 540.351 286.631C540.297 286.649 540.237 286.649 540.183 286.63C540.128 286.611 540.081 286.574 540.05 286.525L540.04 286.51C539.619 285.843 539.271 285.186 538.846 284.575C538.444 283.96 538.002 283.37 537.525 282.81C536.558 281.674 535.494 280.622 534.346 279.668L534.328 279.652C534.284 279.614 534.255 279.563 534.244 279.506C534.233 279.449 534.242 279.39 534.268 279.338C534.295 279.287 534.338 279.246 534.391 279.222C534.443 279.198 534.503 279.192 534.559 279.205Z" fill="#39294E"/>
<path d="M465.685 286.837C465.898 286.04 466.253 285.288 466.734 284.617C467.2 283.938 467.757 283.327 468.389 282.799C469.019 282.265 469.723 281.825 470.479 281.492C471.225 281.15 472.025 280.94 472.843 280.871C472.9 280.866 472.958 280.881 473.007 280.912C473.055 280.944 473.091 280.991 473.11 281.046C473.129 281.1 473.128 281.16 473.109 281.214C473.09 281.269 473.054 281.316 473.005 281.347L472.99 281.357C472.323 281.778 471.666 282.126 471.055 282.551C470.439 282.953 469.85 283.395 469.29 283.872C468.153 284.839 467.102 285.903 466.148 287.051L466.132 287.069C466.094 287.113 466.042 287.143 465.985 287.154C465.928 287.165 465.869 287.156 465.817 287.129C465.765 287.102 465.724 287.059 465.7 287.006C465.676 286.953 465.671 286.893 465.685 286.837Z" fill="#39294E"/>
</g>
<defs>
<clipPath id="clip0_979:234">
<rect width="1000" height="1000" fill="white" transform="translate(0 0.789062)"/>
</clipPath>
</defs>
</svg>
