<svg width="50" height="70" viewBox="0 0 50 70" fill="none" xmlns="http://www.w3.org/2000/svg">
<rect x="2.89854" y="51.383" width="44.2029" height="8.93617" fill="white"/>
<path d="M43.1818 0H6.81818C2.95455 0 0 3.03333 0 7V56C0 59.9667 2.95455 63 6.81818 63H43.1818C47.0455 63 50 59.9667 50 56V7C50 3.03333 47.0455 0 43.1818 0ZM13.6364 9.33333H36.3636C37.5 9.33333 38.6364 10.5 38.6364 11.6667C38.6364 12.8333 37.5 14 36.3636 14H13.6364C12.5 14 11.3636 12.8333 11.3636 11.6667C11.3636 10.5 12.5 9.33333 13.6364 9.33333ZM36.3636 18.6667C36.3636 19.8333 35.2273 21 34.0909 21H15.9091C14.7727 21 13.6364 19.8333 13.6364 18.6667C13.6364 17.5 14.7727 16.3333 15.9091 16.3333H34.0909C35.2273 16.3333 36.3636 17.5 36.3636 18.6667ZM45.4545 57.1667C45.4545 57.6333 45 58.3333 44.3182 58.3333H6.81818C5.68182 58.3333 4.54545 57.1667 4.54545 56C4.54545 54.8333 5.68182 53.6667 6.81818 53.6667H44.3182C44.7727 53.6667 45.4545 54.1333 45.4545 54.8333V57.1667Z" fill="#68B32E"/>
<path d="M40.6818 4.66666H9.0909C6.5909 4.66666 4.54544 6.76666 4.54544 9.33332V44.1C4.54544 46.9 6.5909 49 9.0909 49H40.6818C43.1818 49 45.4545 46.9 45.4545 44.1V9.33332C45.4545 6.76666 43.4091 4.66666 40.6818 4.66666ZM34.0909 21H15.9091C14.7727 21 13.6363 19.8333 13.6363 18.6667C13.6363 17.5 14.7727 16.3333 15.9091 16.3333H34.0909C35.2273 16.3333 36.3636 17.5 36.3636 18.6667C36.3636 19.8333 35.2273 21 34.0909 21ZM36.3636 14H13.6363C12.5 14 11.3636 12.8333 11.3636 11.6667C11.3636 10.5 12.5 9.33332 13.6363 9.33332H36.3636C37.5 9.33332 38.6363 10.5 38.6363 11.6667C38.6363 12.8333 37.5 14 36.3636 14Z" fill="#8EBE21"/>
<rect x="11.4697" y="9.19626" width="27.0605" height="5.16442" rx="2.58221" fill="white"/>
<path d="M11.3636 70C10 70 9.09091 69.0667 9.09091 67.6667V53.6667H13.6364V67.6667C13.6364 69.0667 12.7273 70 11.3636 70Z" fill="#E84C4F"/>
<rect x="13.6364" y="16.2103" width="22.4301" height="5.16442" rx="2.58221" fill="white"/>
</svg>
