<svg width="81" height="95" viewBox="0 0 81 95" fill="none" xmlns="http://www.w3.org/2000/svg">
<g clip-path="url(#clip0)">
<path d="M59.5486 69.5048H22.9705C22.9705 66.538 25.2424 64.1958 28.1202 64.1958H54.3231C57.2009 64.1958 59.5486 66.538 59.5486 69.5048Z" fill="white" stroke="white" stroke-miterlimit="10"/>
<path d="M57.2008 66.8503H24.0306V82.8553H57.2008V66.8503Z" fill="#8F312C"/>
<path d="M55.8377 85.9782V89.0231C51.2939 91.4433 45.9927 92.8486 40.3886 92.8486C34.936 92.8486 29.7105 91.5214 25.3181 89.2573V86.0563C25.3181 82.1526 26.9842 78.7174 29.7105 76.141C32.4368 73.5646 36.2991 71.925 40.6158 71.925C44.7053 71.925 48.4161 73.4084 51.2181 75.8287C51.2939 75.9068 51.3696 75.9848 51.4453 76.0629C54.0959 78.5613 55.8377 82.0746 55.8377 85.9782Z" fill="#AF3F3F"/>
<path d="M9.64174 64.1959C14.4934 64.1959 18.4265 60.1411 18.4265 55.1394C18.4265 50.1376 14.4934 46.0829 9.64174 46.0829C4.79002 46.0829 0.856934 50.1376 0.856934 55.1394C0.856934 60.1411 4.79002 64.1959 9.64174 64.1959Z" fill="#F3998A"/>
<path d="M71.7412 64.1959C76.5929 64.1959 80.526 60.1411 80.526 55.1394C80.526 50.1376 76.5929 46.0829 71.7412 46.0829C66.8895 46.0829 62.9564 50.1376 62.9564 55.1394C62.9564 60.1411 66.8895 64.1959 71.7412 64.1959Z" fill="#F3998A"/>
<path d="M62.6535 24.7689C57.0494 18.9915 49.2491 15.4001 40.6915 15.4001C23.5762 15.4001 9.64172 29.7656 9.64172 47.4101V62.9467C9.64172 74.9699 16.0789 85.4317 25.621 90.8968C30.0891 93.4732 35.2388 94.9566 40.6915 94.9566C46.2956 94.9566 51.5967 93.3952 56.1406 90.7407C65.4555 85.1975 71.7412 74.8138 71.7412 62.9467V47.4101C71.7412 38.5879 68.2576 30.5463 62.6535 24.7689ZM40.54 80.435C36.4505 80.435 32.7397 78.8736 30.0134 76.2191C27.7414 74.1111 26.1511 71.3785 25.3938 68.2556C24.9394 66.3038 26.3783 64.352 28.3473 64.352H52.8084C54.7774 64.352 56.2163 66.3038 55.7619 68.2556C55.0046 71.2224 53.5657 73.8769 51.4453 75.9068C48.5675 78.7174 44.7809 80.435 40.54 80.435Z" fill="#F7B3A2"/>
<path d="M25.2423 50.377C23.7277 50.377 22.516 49.1278 22.516 47.5663V44.7557C22.516 43.1942 23.7277 41.9451 25.2423 41.9451C26.7569 41.9451 27.9686 43.1942 27.9686 44.7557V47.5663C27.9686 49.1278 26.7569 50.377 25.2423 50.377Z" fill="white" stroke="white" stroke-miterlimit="10"/>
<path d="M55.762 50.377C54.2473 50.377 53.0356 49.1278 53.0356 47.5663V44.7557C53.0356 43.1942 54.2473 41.9451 55.762 41.9451C57.2766 41.9451 58.4883 43.1942 58.4883 44.7557V47.5663C58.564 49.1278 57.2766 50.377 55.762 50.377Z" fill="white" stroke="white" stroke-miterlimit="10"/>
<path d="M62.5778 54.2806H48.9462V44.9118C48.9462 41.0082 51.9754 37.8853 55.762 37.8853C59.5485 37.8853 62.5778 41.0082 62.5778 44.9118V54.2806Z" fill="white"/>
<path d="M32.0581 54.2806H18.4265V44.9118C18.4265 41.0082 21.4558 37.8853 25.2423 37.8853C29.0289 37.8853 32.0581 41.0082 32.0581 44.9118V54.2806Z" fill="white"/>
<path d="M25.2423 58.9649C30.3032 58.9649 34.4058 57.6716 34.4058 56.0762C34.4058 54.4808 30.3032 53.1875 25.2423 53.1875C20.1815 53.1875 16.0789 54.4808 16.0789 56.0762C16.0789 57.6716 20.1815 58.9649 25.2423 58.9649Z" fill="#F7B3A2"/>
<path d="M55.762 58.9649C60.8228 58.9649 64.9254 57.6716 64.9254 56.0762C64.9254 54.4808 60.8228 53.1875 55.762 53.1875C50.7011 53.1875 46.5985 54.4808 46.5985 56.0762C46.5985 57.6716 50.7011 58.9649 55.762 58.9649Z" fill="#F7B3A2"/>
<path d="M26.6813 52.2507H25.3181C24.5608 52.2507 23.955 51.6261 23.955 50.8453V44.9118C23.955 44.1311 24.5608 43.5065 25.3181 43.5065H26.6813C27.4386 43.5065 28.0444 44.1311 28.0444 44.9118V50.8453C28.1202 51.6261 27.4386 52.2507 26.6813 52.2507Z" fill="#4C4B4B"/>
<path d="M55.6863 51.9384H54.3231C53.5658 51.9384 52.96 51.3138 52.96 50.5331V44.5995C52.96 43.8188 53.5658 43.1942 54.3231 43.1942H55.6863C56.4436 43.1942 57.0494 43.8188 57.0494 44.5995V50.5331C57.1252 51.3138 56.5193 51.9384 55.6863 51.9384Z" fill="#4C4B4B"/>
<path d="M42.6605 46.4733V48.6593C42.6605 49.8304 41.7517 50.8454 40.54 50.8454C39.4041 50.8454 38.4196 49.9085 38.4196 48.6593V46.4733C38.4196 45.3022 39.3283 44.2872 40.54 44.2872C41.676 44.2872 42.6605 45.3022 42.6605 46.4733Z" fill="#EA9587"/>
<path d="M42.6605 48.6593H38.4196V51.7822H42.6605V48.6593Z" fill="#EA9587"/>
<path d="M47.4316 54.1244C47.4316 55.9201 45.9927 57.4035 44.2509 57.4035H37.0564C35.3146 57.4035 33.8757 55.9201 33.8757 54.1244C33.8757 52.3287 35.3146 50.8453 37.0564 50.8453H44.2509C45.9927 50.8453 47.4316 52.2507 47.4316 54.1244Z" fill="#EA9587"/>
<path d="M52.5055 33.2789C60.6614 33.2789 67.273 26.4628 67.273 18.0547C67.273 9.64657 60.6614 2.83044 52.5055 2.83044C44.3496 2.83044 37.7379 9.64657 37.7379 18.0547C37.7379 26.4628 44.3496 33.2789 52.5055 33.2789Z" fill="#4C4B4B"/>
<path d="M28.3473 33.2789C36.5032 33.2789 43.1148 26.4628 43.1148 18.0547C43.1148 9.64657 36.5032 2.83044 28.3473 2.83044C20.1914 2.83044 13.5797 9.64657 13.5797 18.0547C13.5797 26.4628 20.1914 33.2789 28.3473 33.2789Z" fill="#4C4B4B"/>
<path d="M68.7877 37.4949C74.1413 37.4949 78.4813 33.0207 78.4813 27.5015C78.4813 21.9824 74.1413 17.5082 68.7877 17.5082C63.4341 17.5082 59.0941 21.9824 59.0941 27.5015C59.0941 33.0207 63.4341 37.4949 68.7877 37.4949Z" fill="#4C4B4B"/>
<path d="M15.6245 37.4949C20.9781 37.4949 25.3181 33.0207 25.3181 27.5015C25.3181 21.9824 20.9781 17.5082 15.6245 17.5082C10.2709 17.5082 5.93091 21.9824 5.93091 27.5015C5.93091 33.0207 10.2709 37.4949 15.6245 37.4949Z" fill="#4C4B4B"/>
<path d="M72.0441 47.5663C76.3103 47.5663 79.7687 44.001 79.7687 39.6029C79.7687 35.2048 76.3103 31.6394 72.0441 31.6394C67.778 31.6394 64.3196 35.2048 64.3196 39.6029C64.3196 44.001 67.778 47.5663 72.0441 47.5663Z" fill="#4C4B4B"/>
<path d="M8.96016 47.5663C13.2263 47.5663 16.6847 44.001 16.6847 39.6029C16.6847 35.2048 13.2263 31.6394 8.96016 31.6394C4.694 31.6394 1.2356 35.2048 1.2356 39.6029C1.2356 44.001 4.694 47.5663 8.96016 47.5663Z" fill="#4C4B4B"/>
<path d="M40.0098 16.8836C44.276 16.8836 47.7344 13.3182 47.7344 8.92012C47.7344 4.52203 44.276 0.956665 40.0098 0.956665C35.7437 0.956665 32.2853 4.52203 32.2853 8.92012C32.2853 13.3182 35.7437 16.8836 40.0098 16.8836Z" fill="#4C4B4B"/>
</g>
<defs>
<clipPath id="clip0">
<rect width="79.6691" height="94" fill="white" transform="translate(0.856934 0.956665)"/>
</clipPath>
</defs>
</svg>
