<svg width="88" height="96" viewBox="0 0 88 96" fill="none" xmlns="http://www.w3.org/2000/svg">
<g clip-path="url(#clip0)">
<path d="M60.0251 70.911H23.0348C23.0348 67.9784 25.3323 65.6632 28.2425 65.6632H54.7408C57.651 65.6632 60.0251 67.9784 60.0251 70.911Z" fill="white" stroke="white" stroke-miterlimit="10"/>
<path d="M57.651 68.2871H24.1069V84.1076H57.651V68.2871Z" fill="#8F312C"/>
<path d="M56.5788 86.8858V89.8955C51.9837 92.2879 46.6228 93.677 40.9555 93.677C35.4414 93.677 30.1571 92.3651 25.7152 90.127V86.9629C25.7152 83.1043 27.4001 79.7087 30.1571 77.162C32.9142 74.6153 36.82 72.9946 41.1853 72.9946C45.3208 72.9946 49.0735 74.4609 51.9071 76.8533C51.9837 76.9305 52.0603 77.0076 52.1369 77.0848C54.8173 79.4772 56.5788 83.0271 56.5788 86.8858Z" fill="#AF3F3F"/>
<path d="M9.55592 65.6632C14.4623 65.6632 18.4397 61.6552 18.4397 56.7111C18.4397 51.767 14.4623 47.759 9.55592 47.759C4.64953 47.759 0.672119 51.767 0.672119 56.7111C0.672119 61.6552 4.64953 65.6632 9.55592 65.6632Z" fill="#F3998A"/>
<path d="M72.3552 65.6632C77.2616 65.6632 81.239 61.6552 81.239 56.7111C81.239 51.767 77.2616 47.759 72.3552 47.759C67.4488 47.759 63.4714 51.767 63.4714 56.7111C63.4714 61.6552 67.4488 65.6632 72.3552 65.6632Z" fill="#F3998A"/>
<path d="M63.1651 26.6908C57.4978 20.98 49.6096 17.4301 40.9556 17.4301C23.6475 17.4301 9.55591 31.6299 9.55591 49.071V64.4284C9.55591 76.3131 16.0656 86.6543 25.7152 92.0564C30.2337 94.6031 35.4415 96.0694 40.9556 96.0694C46.6228 96.0694 51.9837 94.5259 56.5788 91.902C65.9987 86.4227 72.3552 76.1587 72.3552 64.4284V49.071C72.3552 40.2733 68.8323 32.4016 63.1651 26.6908ZM40.8024 81.7152C36.6668 81.7152 32.9142 80.1717 30.1571 77.5478C27.8596 75.4642 26.2513 72.7631 25.4855 69.6762C25.026 67.7469 26.4811 65.8175 28.4723 65.8175H53.2091C55.2003 65.8175 56.6554 67.7469 56.1959 69.6762C55.43 72.6088 53.9749 75.2327 51.8306 77.2392C48.9203 80.0174 45.0911 81.7152 40.8024 81.7152Z" fill="#F7B3A2"/>
<path d="M25.3324 51.9264C23.8007 51.9264 22.5753 50.6916 22.5753 49.1481V46.3699C22.5753 44.8264 23.8007 43.5917 25.3324 43.5917C26.864 43.5917 28.0894 44.8264 28.0894 46.3699V49.1481C28.0894 50.6916 26.864 51.9264 25.3324 51.9264Z" fill="white" stroke="white" stroke-miterlimit="10"/>
<path d="M56.1959 51.9264C54.6642 51.9264 53.4388 50.6916 53.4388 49.1481V46.3699C53.4388 44.8264 54.6642 43.5917 56.1959 43.5917C57.7276 43.5917 58.9529 44.8264 58.9529 46.3699V49.1481C59.0295 50.6916 57.7276 51.9264 56.1959 51.9264Z" fill="white" stroke="white" stroke-miterlimit="10"/>
<path d="M63.0884 55.8622H49.3032V46.6015C49.3032 42.7428 52.3666 39.6559 56.1958 39.6559C60.0251 39.6559 63.0884 42.7428 63.0884 46.6015V55.8622Z" fill="white"/>
<path d="M32.2249 55.8622H18.4397V46.6015C18.4397 42.7428 21.5031 39.6559 25.3323 39.6559C29.1615 39.6559 32.2249 42.7428 32.2249 46.6015V55.8622Z" fill="white"/>
<path d="M25.3323 60.4926C30.4501 60.4926 34.599 59.2141 34.599 57.6371C34.599 56.0602 30.4501 54.7817 25.3323 54.7817C20.2144 54.7817 16.0656 56.0602 16.0656 57.6371C16.0656 59.2141 20.2144 60.4926 25.3323 60.4926Z" fill="#F7B3A2"/>
<path d="M56.1959 60.4926C61.3138 60.4926 65.4627 59.2141 65.4627 57.6371C65.4627 56.0602 61.3138 54.7817 56.1959 54.7817C51.0781 54.7817 46.9292 56.0602 46.9292 57.6371C46.9292 59.2141 51.0781 60.4926 56.1959 60.4926Z" fill="#F7B3A2"/>
<path d="M26.7874 53.7785H25.4089C24.6431 53.7785 24.0304 53.1611 24.0304 52.3894V46.5242C24.0304 45.7525 24.6431 45.1351 25.4089 45.1351H26.7874C27.5533 45.1351 28.166 45.7525 28.166 46.5242V52.3894C28.2425 53.1611 27.5533 53.7785 26.7874 53.7785Z" fill="#4C4B4B"/>
<path d="M56.1193 53.5471H54.7408C53.975 53.5471 53.3623 52.9297 53.3623 52.158V46.2928C53.3623 45.5211 53.975 44.9037 54.7408 44.9037H56.1193C56.8852 44.9037 57.4979 45.5211 57.4979 46.2928V52.158C57.5744 52.9297 56.9618 53.5471 56.1193 53.5471Z" fill="#4C4B4B"/>
<path d="M42.9468 48.1449V50.3057C42.9468 51.4633 42.0278 52.4665 40.8025 52.4665C39.6537 52.4665 38.6581 51.5405 38.6581 50.3057V48.1449C38.6581 46.9873 39.5771 45.984 40.8025 45.984C41.9512 45.984 42.9468 46.9101 42.9468 48.1449Z" fill="#EA9587"/>
<path d="M42.9468 50.2285H38.6581V53.3154H42.9468V50.2285Z" fill="#EA9587"/>
<path d="M47.7716 55.6307C47.7716 57.4056 46.3165 58.8719 44.5551 58.8719H37.2795C35.5181 58.8719 34.063 57.4056 34.063 55.6307C34.063 53.8557 35.5181 52.3894 37.2795 52.3894H44.5551C46.3165 52.3894 47.7716 53.8557 47.7716 55.6307Z" fill="#EA9587"/>
<path d="M87.6721 42.2798C87.6721 43.0515 87.0594 43.5917 86.3701 43.5917H10.0154V33.019C10.0154 15.4236 24.3367 0.606369 41.798 0.992234C58.7231 1.30093 72.3552 15.2692 72.3552 32.4017V40.8907H86.3701C87.0594 40.8907 87.6721 41.5081 87.6721 42.2798Z" fill="#EC0018"/>
</g>
<defs>
<clipPath id="clip0">
<rect width="87" height="95" fill="white" transform="translate(0.672119 0.992188)"/>
</clipPath>
</defs>
</svg>
