<svg width="91" height="49" viewBox="0 0 91 49" fill="none" xmlns="http://www.w3.org/2000/svg">
<path d="M88.0597 1.96068C87.3082 1.40486 86.4106 0.963253 85.4197 0.661739C84.4288 0.360225 83.3646 0.204895 82.2896 0.204895C81.2145 0.204895 80.1503 0.360225 79.1594 0.661739C78.1686 0.963253 77.271 1.40486 76.5194 1.96068L33.1825 33.4731L14.5403 19.9928C13.01 18.8862 10.9344 18.2645 8.77015 18.2645C6.60591 18.2645 4.53031 18.8862 2.99996 19.9928C1.46961 21.0994 0.609863 22.6003 0.609863 24.1653C0.609863 25.7303 1.46961 27.2312 2.99996 28.3378L25.6772 44.7359C26.047 45.2942 26.5374 45.8063 27.1298 46.2532C27.8814 46.809 28.779 47.2506 29.7699 47.5521C30.7608 47.8536 31.825 48.009 32.9 48.009C33.975 48.009 35.0393 47.8536 36.0301 47.5521C37.021 47.2506 37.9186 46.809 38.6702 46.2532L88.0597 10.1306C89.5384 9.03973 90.3667 7.57315 90.3667 6.04565C90.3667 4.51816 89.5384 3.05153 88.0597 1.96068V1.96068Z" fill="#99CC00"/>
</svg>
