<svg width="506" height="795" viewBox="0 0 506 795" fill="none" xmlns="http://www.w3.org/2000/svg">
<g clip-path="url(#clip0_857:84)">
<path d="M156.8 299.846H153.226L152.423 302.073H151.263L154.521 293.542H155.505L158.769 302.073H157.615L156.8 299.846ZM153.566 298.921H156.466L155.013 294.93L153.566 298.921ZM160.925 302.073H159.841V293.073H160.925V302.073ZM162.402 298.85C162.402 297.878 162.632 297.096 163.093 296.507C163.554 295.913 164.158 295.616 164.904 295.616C165.646 295.616 166.234 295.87 166.667 296.378V293.073H167.751V302.073H166.755L166.703 301.393C166.269 301.925 165.665 302.19 164.892 302.19C164.158 302.19 163.558 301.889 163.093 301.288C162.632 300.686 162.402 299.901 162.402 298.932V298.85ZM163.486 298.973C163.486 299.692 163.634 300.255 163.931 300.661C164.228 301.067 164.638 301.27 165.162 301.27C165.849 301.27 166.351 300.962 166.667 300.345V297.432C166.343 296.835 165.845 296.536 165.173 296.536C164.642 296.536 164.228 296.741 163.931 297.151C163.634 297.561 163.486 298.169 163.486 298.973ZM172.07 302.19C171.21 302.19 170.511 301.909 169.972 301.346C169.433 300.78 169.164 300.024 169.164 299.079V298.88C169.164 298.251 169.283 297.69 169.521 297.198C169.763 296.702 170.099 296.315 170.529 296.038C170.962 295.757 171.431 295.616 171.935 295.616C172.759 295.616 173.4 295.887 173.857 296.43C174.314 296.973 174.542 297.751 174.542 298.762V299.214H170.248C170.263 299.839 170.445 300.345 170.792 300.731C171.144 301.114 171.589 301.305 172.128 301.305C172.511 301.305 172.835 301.227 173.101 301.071C173.367 300.915 173.599 300.708 173.798 300.45L174.46 300.966C173.929 301.782 173.132 302.19 172.07 302.19ZM171.935 296.507C171.498 296.507 171.13 296.667 170.833 296.987C170.537 297.303 170.353 297.749 170.283 298.323H173.458V298.241C173.427 297.69 173.279 297.264 173.013 296.964C172.748 296.659 172.388 296.507 171.935 296.507ZM178.867 296.706C178.703 296.678 178.525 296.665 178.333 296.665C177.622 296.665 177.14 296.968 176.886 297.573V302.073H175.802V295.733H176.857L176.874 296.466C177.23 295.899 177.734 295.616 178.386 295.616C178.597 295.616 178.757 295.643 178.867 295.698V296.706ZM180.888 295.733L180.917 296.436C181.382 295.889 182.009 295.616 182.798 295.616C183.685 295.616 184.289 295.956 184.609 296.636C184.82 296.331 185.093 296.085 185.429 295.897C185.769 295.71 186.169 295.616 186.63 295.616C188.021 295.616 188.728 296.352 188.751 297.825V302.073H187.667V297.889C187.667 297.436 187.564 297.098 187.357 296.876C187.15 296.649 186.802 296.536 186.314 296.536C185.912 296.536 185.578 296.657 185.312 296.899C185.046 297.137 184.892 297.46 184.849 297.866V302.073H183.759V297.919C183.759 296.997 183.308 296.536 182.406 296.536C181.695 296.536 181.208 296.839 180.947 297.444V302.073H179.863V295.733H180.888ZM194.306 302.073C194.244 301.948 194.193 301.725 194.154 301.405C193.65 301.928 193.048 302.19 192.349 302.19C191.724 302.19 191.21 302.014 190.808 301.663C190.41 301.307 190.21 300.858 190.21 300.315C190.21 299.655 190.46 299.143 190.96 298.78C191.464 298.413 192.171 298.229 193.081 298.229H194.136V297.731C194.136 297.352 194.023 297.052 193.796 296.829C193.57 296.602 193.236 296.489 192.794 296.489C192.408 296.489 192.083 296.587 191.822 296.782C191.56 296.977 191.429 297.214 191.429 297.491H190.339C190.339 297.175 190.451 296.87 190.673 296.577C190.9 296.28 191.205 296.046 191.587 295.874C191.974 295.702 192.398 295.616 192.859 295.616C193.589 295.616 194.162 295.8 194.576 296.167C194.99 296.53 195.205 297.032 195.22 297.673V300.591C195.22 301.173 195.294 301.636 195.443 301.979V302.073H194.306ZM192.507 301.247C192.847 301.247 193.169 301.159 193.474 300.983C193.779 300.807 193.999 300.579 194.136 300.298V298.997H193.287C191.958 298.997 191.294 299.386 191.294 300.163C191.294 300.503 191.408 300.768 191.634 300.96C191.861 301.151 192.152 301.247 192.507 301.247ZM197.945 295.733L197.98 296.53C198.464 295.921 199.097 295.616 199.878 295.616C201.218 295.616 201.894 296.372 201.906 297.884V302.073H200.822V297.878C200.818 297.421 200.712 297.083 200.505 296.864C200.302 296.645 199.984 296.536 199.55 296.536C199.199 296.536 198.89 296.63 198.624 296.817C198.359 297.005 198.152 297.251 198.003 297.555V302.073H196.919V295.733H197.945Z" fill="black"/>
<path d="M157.658 488.643H201.248C213.068 488.643 222.658 478.713 222.658 466.463V387.073H286.658V466.453C286.658 478.703 296.238 488.633 308.068 488.633H351.658V558.073H157.658V488.643Z" fill="#FFD2A0"/>
<path d="M286.658 411.073V469.593C277.866 471.252 268.922 471.97 259.978 471.733C247.411 471.741 234.887 470.284 222.658 467.393V411.073H286.658Z" fill="#D4AF86"/>
<path d="M499.721 645.263C495.721 695.163 496.661 744.013 496.661 794.073H12.6607C12.6607 749.203 10.3706 705.613 6.81063 660.923C4.30063 629.523 5.42063 596.373 20.8107 568.923C37.6407 538.873 69.3607 519.843 102.041 508.983C119.151 503.293 136.741 499.523 154.411 496.063C155.444 498.063 156.534 500.063 157.681 502.063C167.56 518.946 181.656 532.972 198.588 542.766C215.519 552.561 234.706 557.788 254.266 557.935C273.826 558.082 293.088 553.145 310.166 543.606C327.243 534.067 341.549 520.255 351.681 503.523C353.241 500.956 354.697 498.323 356.051 495.623C404.201 503.803 462.921 524.283 486.931 564.673C501.051 588.393 501.921 617.683 499.721 645.263Z" fill="#4FB1FF"/>
<path d="M20.808 594.862C37.638 564.812 69.358 545.782 102.038 534.922C119.148 529.232 136.738 525.463 154.408 522.003C155.441 524.003 156.531 526.003 157.678 528.003C167.557 544.886 181.653 558.912 198.585 568.706C215.517 578.501 234.703 583.728 254.263 583.875C273.823 584.023 293.086 579.084 310.163 569.545C327.24 560.006 341.546 546.194 351.678 529.462C353.238 526.895 354.695 524.263 356.048 521.562C404.198 529.743 462.918 550.222 486.928 590.612C495.328 604.742 499.048 620.823 500.218 637.323C501.698 611.833 499.888 585.412 486.928 563.612C462.928 523.222 404.198 502.743 356.048 494.562C354.715 497.23 353.258 499.862 351.678 502.462C341.546 519.194 327.24 533.006 310.163 542.545C293.086 552.084 273.823 557.023 254.263 556.875C234.703 556.728 215.517 551.501 198.585 541.706C181.653 531.912 167.557 517.885 157.678 501.002C156.531 499.042 155.441 497.042 154.408 495.002C136.738 498.462 119.148 502.232 102.038 507.922C69.338 518.782 37.618 537.812 20.808 567.862C7.00793 592.472 4.67793 621.622 6.13793 649.982C7.30793 630.622 11.378 611.682 20.808 594.862Z" fill="#71C6FF"/>
<path d="M496.609 793.073H496.659C496.659 782.473 496.659 771.922 496.589 761.412C496.555 771.945 496.562 782.5 496.609 793.073Z" fill="#71C6FF"/>
<path d="M255.16 564.073C233.242 564.073 211.828 557.497 193.686 545.196C175.545 532.895 161.512 515.435 153.4 495.073L162.69 491.373C170.199 510.208 183.282 526.301 200.188 537.497C217.093 548.694 237.015 554.46 257.287 554.025C277.559 553.59 297.215 546.975 313.625 535.063C330.035 523.152 342.415 506.513 349.11 487.373L358.55 490.673C351.043 512.111 337.064 530.687 318.543 543.836C300.022 556.985 277.874 564.056 255.16 564.073Z" fill="#385868"/>
<path d="M501.658 792.073H491.658C491.658 784.18 491.658 776.309 491.658 768.462C491.538 725.592 491.418 685.093 494.788 642.863C496.668 619.333 496.978 589.242 482.658 565.152C470.658 545.022 448.658 528.342 417.148 515.582C384.048 502.172 350.548 497.253 333.528 495.513C331.058 495.263 328.528 495.093 325.858 494.913C313.808 494.103 300.138 493.183 289.858 483.643C275.538 470.323 278.308 435.493 280.538 407.503C281.158 399.673 281.698 392.903 281.698 388.073H291.698C291.698 393.303 291.148 400.253 290.508 408.293C288.668 431.393 285.898 466.293 296.678 476.293C304.348 483.423 315.118 484.143 326.528 484.913C329.168 485.093 331.898 485.273 334.528 485.543C392.398 491.463 463.958 514.132 491.238 560.022C506.998 586.532 506.728 618.632 504.738 643.642C501.408 685.452 501.518 725.753 501.648 768.413C501.648 776.286 501.651 784.173 501.658 792.073Z" fill="#385868"/>
<path d="M17.6588 792.073H7.65871C7.65871 751.433 5.80871 709.243 1.80872 659.303C-2.50129 605.363 8.08871 579.303 16.4288 564.423C35.9488 529.563 72.8888 511.333 100.429 502.173C120.989 495.343 142.429 491.173 163.159 487.173C168.369 486.173 173.759 485.173 179.039 484.063C182.209 483.423 185.629 482.993 189.239 482.543C206.919 480.333 217.649 478.023 217.649 464.633V388.073H227.649V464.663C227.649 487.843 205.279 490.663 190.479 492.493C187.049 492.923 183.809 493.323 181.009 493.893C175.689 494.963 170.279 496.013 165.009 497.023C144.589 500.963 123.479 505.023 103.539 511.663C77.6588 520.263 43.0488 537.243 25.0888 569.313C9.23872 597.723 9.64871 631.923 11.8088 658.513C15.8088 708.713 17.6588 751.163 17.6588 792.073Z" fill="#385868"/>
<path d="M98.8101 511.042H90.8101V667.582H98.8101V511.042Z" fill="#385868"/>
<path d="M94.6577 704.572C88.032 704.572 81.5551 702.607 76.0461 698.926C70.537 695.245 66.2432 690.013 63.7077 683.892C61.1722 677.771 60.5088 671.035 61.8014 664.536C63.094 658.038 66.2845 652.069 70.9696 647.384C75.6547 642.699 81.6238 639.508 88.1221 638.216C94.6205 636.923 101.356 637.586 107.478 640.122C113.599 642.657 118.831 646.951 122.512 652.46C126.193 657.969 128.158 664.446 128.158 671.072C128.147 679.953 124.614 688.468 118.334 694.748C112.054 701.028 103.539 704.561 94.6577 704.572ZM94.6577 645.572C89.6142 645.572 84.6841 647.067 80.4906 649.869C76.2972 652.671 73.0288 656.654 71.0987 661.314C69.1687 665.973 68.6637 671.1 69.6476 676.047C70.6316 680.993 73.0602 685.537 76.6264 689.103C80.1927 692.669 84.7364 695.098 89.6829 696.082C94.6294 697.066 99.7566 696.561 104.416 694.631C109.076 692.701 113.058 689.432 115.86 685.239C118.662 681.045 120.158 676.115 120.158 671.072C120.15 664.311 117.461 657.83 112.68 653.049C107.9 648.269 101.418 645.58 94.6577 645.572Z" fill="#385868"/>
<path d="M95.1578 718.073C85.7632 718.073 76.5795 715.287 68.7682 710.068C60.9569 704.848 54.8687 697.43 51.2735 688.75C47.6783 680.071 46.7376 670.52 48.5704 661.306C50.4032 652.092 54.9272 643.628 61.5702 636.985C68.2132 630.342 76.6769 625.818 85.891 623.986C95.1051 622.153 104.656 623.094 113.335 626.689C122.015 630.284 129.433 636.372 134.652 644.183C139.872 651.995 142.658 661.178 142.658 670.573C142.644 683.167 137.636 695.241 128.731 704.146C119.826 713.051 107.751 718.06 95.1578 718.073ZM95.1578 631.073C87.3454 631.073 79.7085 633.39 73.2128 637.73C66.717 642.07 61.6542 648.239 58.6645 655.457C55.6749 662.675 54.8926 670.617 56.4168 678.279C57.9409 685.941 61.7029 692.979 67.2271 698.504C72.7512 704.028 79.7895 707.79 87.4517 709.314C95.114 710.838 103.056 710.056 110.274 707.066C117.491 704.077 123.66 699.014 128.001 692.518C132.341 686.022 134.658 678.385 134.658 670.573C134.647 660.1 130.482 650.059 123.077 642.654C115.671 635.248 105.63 631.084 95.1578 631.073Z" fill="#385868"/>
<path d="M178.479 411.842L156.729 430.992C147.459 439.152 131.609 433.372 131.609 421.832H45.6092C31.2692 421.832 23.8792 406.743 33.7192 397.562C58.3292 374.562 72.0392 344.232 72.0392 312.662V171.322C72.0592 80.9225 156.049 5.7625 258.699 5.9225C361.349 6.0825 444.699 79.4425 444.699 169.922V365.472C444.699 410.162 389.479 437.892 345.779 415.142L344.929 414.702" fill="#F3B227"/>
<path d="M257.698 4.92251C236.063 4.86351 214.555 8.23883 193.978 14.9225C210.245 10.903 226.942 8.888 243.698 8.92251C346.428 9.08251 429.698 82.4425 429.698 172.922V368.472C429.698 392.912 413.178 412.282 391.058 421.092C419.828 415.892 443.698 393.852 443.698 364.472V168.922C443.658 78.4425 360.438 5.08251 257.698 4.92251Z" fill="#E8A42A"/>
<path opacity="0.5" d="M51.6286 420.982C74.9686 398.262 87.9286 368.702 87.9286 337.982V196.682C87.9286 106.312 171.929 31.1225 274.569 31.2825C344.029 31.3925 404.568 64.9625 436.488 114.662C411.018 50.9225 342.109 5.20249 261.039 5.07249C158.389 4.92249 74.3986 80.1125 74.3986 170.482V311.812C74.3986 343.382 60.6886 373.752 36.0786 396.712C26.2386 405.892 33.6286 420.982 47.9686 420.982H51.6286Z" fill="#F1D427"/>
<path d="M146.389 439.822C143.323 439.82 140.292 439.166 137.499 437.902C135.121 436.88 132.988 435.364 131.24 433.456C129.492 431.548 128.169 429.29 127.359 426.832H45.629C36.489 426.832 28.629 421.782 25.519 413.962C24.1726 410.531 23.9118 406.769 24.7721 403.185C25.6323 399.602 27.5719 396.368 30.329 393.922C54.019 371.822 67.059 342.922 67.059 312.672V171.322C67.059 129.792 84.369 89.6325 115.809 58.2425C152.299 21.8025 204.259 0.922485 258.379 0.922485H258.709C309.619 1.00249 357.489 18.5425 393.509 50.3025C429.719 82.2325 449.659 124.712 449.659 169.922V365.472C449.659 386.522 438.489 405.382 418.999 417.202C407.653 424.016 394.751 427.811 381.522 428.226C368.294 428.641 355.18 425.662 343.429 419.572L342.579 419.132L347.189 410.262L348.039 410.702C358.265 416.004 369.678 418.599 381.191 418.24C392.704 417.881 403.933 414.58 413.809 408.652C430.229 398.652 439.649 382.942 439.649 365.472V169.922C439.649 82.4125 358.469 11.0825 258.649 10.9225C207.109 10.8125 157.579 30.6725 122.869 65.3225C93.3289 94.8225 77.059 132.462 77.059 171.322V312.662C77.059 345.762 62.889 377.212 37.149 401.222C34.409 403.782 33.559 407.092 34.819 410.292C36.009 413.292 39.549 416.832 45.629 416.832H136.629V421.832C136.629 426.062 140.139 428.102 141.629 428.832C143.539 429.725 145.664 430.054 147.755 429.779C149.846 429.505 151.814 428.638 153.429 427.282L175.179 408.132L181.789 415.642L160.039 434.792C156.252 438.074 151.399 439.862 146.389 439.822Z" fill="#385868"/>
<path d="M158.469 120.632C163.809 119.028 169.335 118.121 174.909 117.933C179.445 117.771 183.985 118.107 188.449 118.933C196.069 120.373 200.369 122.583 200.259 122.833C200.119 123.243 195.649 121.673 188.169 120.723C178.454 119.426 168.574 120.228 159.196 123.076C149.818 125.924 141.161 130.751 133.809 137.232C128.129 142.182 125.279 145.972 124.939 145.712C124.599 145.452 127.059 141.342 132.589 135.902C135.836 132.731 139.421 129.925 143.279 127.533C148.023 124.587 153.129 122.267 158.469 120.632Z" fill="#D49C43"/>
<path d="M179.92 113.132C186.907 113.632 193.776 115.197 200.29 117.772C205.29 119.772 208.02 121.652 207.88 121.932C207.74 122.212 204.68 121.032 199.69 119.472C193.185 117.468 186.477 116.197 179.69 115.682C175.969 115.412 172.235 115.382 168.51 115.592C165.491 115.721 162.484 116.055 159.51 116.592C157.526 116.99 155.608 117.663 153.81 118.592C152.55 119.262 151.88 119.752 151.74 119.592C151.6 119.432 152.07 118.742 153.26 117.742C154.99 116.419 156.959 115.444 159.06 114.872C162.106 114.036 165.223 113.487 168.37 113.232C172.211 112.88 176.074 112.847 179.92 113.132Z" fill="#D49C43"/>
<path d="M376.679 135.462C381.87 140.329 386.195 146.044 389.469 152.362C391.969 157.172 392.989 160.362 392.699 160.502C392.409 160.642 390.759 157.752 387.909 153.272C384.28 147.427 379.911 142.076 374.909 137.352C369.9 132.703 364.035 129.072 357.639 126.662C352.709 124.852 349.399 124.462 349.439 124.052C349.479 123.642 352.879 123.502 358.189 124.942C365.094 126.946 371.429 130.55 376.679 135.462Z" fill="#D49C43"/>
<path d="M395.188 154.152C396.048 157.097 396.666 160.107 397.038 163.152C397.379 165.622 397.589 168.109 397.668 170.602C397.778 174.892 397.218 177.512 396.888 177.482C396.558 177.452 396.428 174.862 395.888 170.742C395.618 168.682 395.218 166.232 394.728 163.512C394.231 160.589 393.563 157.697 392.728 154.852C391.169 149.755 388.583 145.031 385.128 140.972C382.478 137.822 380.438 136.182 380.668 135.862C380.898 135.542 383.298 136.742 386.438 139.732C388.273 141.496 389.894 143.469 391.268 145.612C392.962 148.264 394.282 151.138 395.188 154.152Z" fill="#D49C43"/>
<path d="M403.43 318.023C403.43 388.813 336.82 450.573 254.65 450.573C172.48 450.573 105.87 388.813 105.87 318.023C105.87 286.543 83.9907 239.572 105.87 197.102C133.15 144.102 209.02 98.1026 254.65 98.1026C299.65 98.1026 369.38 139.223 396.65 191.333C419.17 234.323 403.43 286.003 403.43 318.023Z" fill="#FFD2A0"/>
<path d="M201.47 288.103C209.931 288.103 216.79 281.244 216.79 272.783C216.79 264.322 209.931 257.463 201.47 257.463C193.009 257.463 186.15 264.322 186.15 272.783C186.15 281.244 193.009 288.103 201.47 288.103Z" fill="#385868"/>
<path d="M196.158 271.213C198.229 271.213 199.908 269.534 199.908 267.463C199.908 265.392 198.229 263.713 196.158 263.713C194.087 263.713 192.408 265.392 192.408 267.463C192.408 269.534 194.087 271.213 196.158 271.213Z" fill="white"/>
<path d="M303.759 288.103C312.22 288.103 319.079 281.244 319.079 272.783C319.079 264.322 312.22 257.463 303.759 257.463C295.298 257.463 288.439 264.322 288.439 272.783C288.439 281.244 295.298 288.103 303.759 288.103Z" fill="#385868"/>
<path d="M298.439 271.213C300.51 271.213 302.189 269.534 302.189 267.463C302.189 265.392 300.51 263.713 298.439 263.713C296.368 263.713 294.689 265.392 294.689 267.463C294.689 269.534 296.368 271.213 298.439 271.213Z" fill="white"/>
<path d="M271.057 333.112H233.857V339.112H271.057V333.112Z" fill="#385868"/>
<path d="M406.948 237.503C406.718 244.933 406.188 252.232 405.548 259.322C346.438 243.922 282.688 153.322 282.688 153.322C282.688 198.432 151.638 244.082 98.2883 260.792C96.9583 252.642 95.7483 244.202 95.0483 235.592C146.108 219.782 282.688 173.172 282.688 127.122C282.688 127.122 347.308 218.953 406.748 233.413C406.808 234.773 406.898 236.133 406.948 237.503Z" fill="#D4AF86"/>
<path d="M254.649 458.112C213.958 458.139 174.899 442.116 145.949 413.522C117.299 385.442 100.869 347.392 100.869 309.112C100.869 299.032 98.8692 287.033 96.6492 274.312C91.6492 245.212 85.4992 209.002 101.309 175.612C114.309 148.162 139.519 119.972 170.469 98.2625C200.019 77.5425 231.469 65.1725 254.609 65.1725C277.749 65.1725 307.169 76.1725 335.099 95.4625C364.509 115.732 387.959 141.942 401.099 169.272C418.249 204.852 414.099 245.352 410.689 277.902C409.509 289.322 408.389 300.122 408.389 309.112C408.389 347.392 391.959 385.442 363.309 413.522C334.369 442.106 295.326 458.128 254.649 458.112ZM254.649 75.1725C233.489 75.1725 204.179 86.8625 176.249 106.452C146.639 127.192 122.639 153.922 110.359 179.922C95.8992 210.462 101.539 243.502 106.519 272.662C108.759 285.802 110.879 298.212 110.879 309.142C110.879 384.482 176.719 448.142 254.659 448.142C332.599 448.142 398.439 384.492 398.439 309.142C398.439 299.632 399.579 288.592 400.789 276.902C404.029 245.612 408.059 206.672 392.139 173.652C379.709 147.862 357.439 123.032 329.439 103.732C303.519 85.8325 275.549 75.1725 254.619 75.1725H254.649Z" fill="#385868"/>
<path d="M94.8101 144.562C94.8101 144.562 99.7001 213.032 77.8101 249.382C77.8101 249.382 284.41 191.902 284.41 135.262C284.41 135.262 360.55 243.462 423.56 243.462V170.762L376.27 104.822L322.01 71.8225L263.37 62.5225L234.49 64.2125L200.36 69.3225L160.11 87.0725L121.6 106.522L94.8101 144.562Z" fill="#F3B227"/>
<path d="M88.2589 252.672C86.9494 252.664 85.6649 252.313 84.5335 251.654C83.402 250.995 82.4631 250.05 81.8105 248.915C81.1579 247.78 80.8143 246.493 80.814 245.184C80.8137 243.874 81.1568 242.588 81.8089 241.452C90.5789 226.172 110.539 186.282 106.629 145.882L116.629 144.882C120.409 183.882 103.629 221.992 93.5589 240.882C114.899 234.262 157.559 220.182 197.139 201.992C264.879 170.872 279.139 148.492 279.139 135.192V119.012L288.279 132.442C288.999 133.502 361.039 238.442 418.549 238.442V248.442C365.939 248.442 306.379 174.102 286.639 147.352C282.749 156.922 274.329 166.752 261.459 176.702C247.079 187.832 226.849 199.412 201.349 211.132C157.059 231.472 109.099 246.722 90.5289 252.332C89.794 252.56 89.0285 252.675 88.2589 252.672Z" fill="#385868"/>
<path d="M340.98 180.863C345.98 185.753 351.08 190.123 355.82 193.943C358.23 195.803 360.48 197.613 362.7 199.173C363.8 199.963 364.84 200.763 365.87 201.473L368.87 203.473C376.51 208.633 381.5 211.472 381.31 211.812C381.23 211.972 379.89 211.423 377.55 210.303L375.6 209.352C374.9 208.992 374.15 208.572 373.34 208.122C371.73 207.222 369.86 206.233 367.9 204.983L364.81 203.093C363.73 202.413 362.65 201.653 361.52 200.893C359.23 199.393 356.89 197.622 354.42 195.792C349.121 191.713 344.057 187.341 339.25 182.693C334.485 178 329.988 173.042 325.78 167.843C323.89 165.413 322.06 163.123 320.51 160.843C319.72 159.723 318.93 158.662 318.23 157.602L316.23 154.542C314.93 152.612 313.9 150.772 312.96 149.182C312.5 148.382 312.06 147.643 311.68 146.953L310.68 145.033C309.5 142.713 308.93 141.393 309.08 141.303C309.44 141.103 312.38 146.023 317.72 153.533L319.83 156.462C320.57 157.462 321.39 158.463 322.2 159.583C323.81 161.753 325.67 163.973 327.59 166.333C331.48 170.993 335.97 175.923 340.98 180.863Z" fill="#516D7B"/>
<path d="M361.619 187.922C373.859 197.072 385.229 202.302 384.899 203.012C384.769 203.312 381.749 202.392 377.129 200.232C374.819 199.162 372.129 197.742 369.229 196.042C366.329 194.342 363.229 192.282 360.099 189.972C356.969 187.662 354.099 185.262 351.649 182.972C349.199 180.682 347.039 178.522 345.349 176.622C341.949 172.832 340.189 170.203 340.439 169.993C341.019 169.503 349.309 178.862 361.619 187.922Z" fill="#516D7B"/>
<path d="M373.81 60.5925C379.495 65.3212 384.74 70.556 389.48 76.2325C393.357 80.8862 396.767 85.9104 399.66 91.2325C401.619 94.7971 403.259 98.5284 404.56 102.383C405.45 105.123 405.75 106.683 405.56 106.733C405.13 106.893 403.25 100.813 398.05 92.1225C394.994 87.058 391.512 82.2639 387.64 77.7925C382.889 72.318 377.702 67.238 372.13 62.6025C360.24 52.7225 348.13 45.4125 339.51 40.0825C330.89 34.7525 325.4 31.4925 325.58 31.1725C325.76 30.8525 331.44 33.6225 340.41 38.5225C349.38 43.4225 361.69 50.5525 373.81 60.5925Z" fill="#516D7B"/>
<path d="M387.019 84.4125C389.72 87.9937 392.134 91.7821 394.239 95.7425C395.159 97.5925 396.059 99.3425 396.739 101.042C397.089 101.892 397.459 102.692 397.739 103.492L398.569 105.802C400.569 111.712 401.069 115.552 400.779 115.622C400.489 115.692 399.279 112.062 396.879 106.452L395.879 104.262C395.549 103.502 395.139 102.732 394.749 101.932C393.999 100.302 393.049 98.6425 392.099 96.8725C387.821 89.2652 382.5 82.2942 376.289 76.1625C374.829 74.7825 373.479 73.4225 372.109 72.2725C371.429 71.6925 370.799 71.0925 370.109 70.5725L368.249 69.0725C363.469 65.2825 360.249 63.2525 360.439 62.8925C360.629 62.5325 364.159 64.1125 369.329 67.6125L371.329 69.0125C372.019 69.5025 372.699 70.0725 373.429 70.6425C374.899 71.7525 376.339 73.0825 377.879 74.4525C381.184 77.5258 384.24 80.8563 387.019 84.4125Z" fill="#516D7B"/>
<path d="M114.71 85.0725C118.281 81.1844 122.124 77.5552 126.21 74.2125C128.13 72.7125 129.94 71.2725 131.73 70.0725C132.62 69.4625 133.46 68.8425 134.31 68.3025L136.81 66.7725C143.11 62.9725 147.37 61.3625 147.5 61.6225C147.63 61.8825 143.74 64.1625 137.8 68.2825L135.44 69.9225C134.64 70.4925 133.84 71.1425 132.99 71.7725C131.28 73.0225 129.56 74.5025 127.72 76.0125C119.845 82.7281 112.864 90.4278 106.95 98.9225C105.62 100.922 104.32 102.752 103.23 104.582C102.68 105.492 102.11 106.342 101.62 107.202L100.221 109.662C96.7005 115.922 94.9105 120.082 94.5305 119.922C94.1505 119.762 95.4505 115.422 98.6205 108.792L99.9005 106.202C100.351 105.302 100.9 104.412 101.41 103.462C102.41 101.552 103.7 99.6225 105 97.5625C107.937 93.1741 111.182 89.0003 114.71 85.0725Z" fill="#516D7B"/>
<path d="M138.199 76.9225C140.511 75.4636 142.932 74.1832 145.439 73.0925C147.486 72.2143 149.595 71.489 151.749 70.9225C155.429 69.9725 157.749 69.9225 157.849 70.2025C158.029 70.9625 148.979 72.9925 139.579 79.0725C130.179 85.1525 124.449 92.3725 123.809 91.9225C123.549 91.7325 124.619 89.6325 127.029 86.6925C128.451 84.9767 129.999 83.369 131.659 81.8825C133.709 80.0648 135.896 78.4066 138.199 76.9225Z" fill="#516D7B"/>
<path d="M147.69 213.532C157.69 209.102 166.55 204.792 172.98 201.632C179.41 198.472 183.4 196.512 183.58 196.832C183.76 197.152 180.07 199.642 173.83 203.222C165.68 207.853 157.303 212.072 148.73 215.862C140.165 219.676 131.414 223.057 122.51 225.992C115.67 228.212 111.33 229.252 111.23 228.932C111.13 228.612 115.23 226.932 121.9 224.292C128.57 221.652 137.71 217.922 147.69 213.532Z" fill="#516D7B"/>
<path d="M163.219 198.112C172.739 193.242 180.219 188.722 180.599 189.322C180.979 189.922 174.079 195.422 164.389 200.382C154.699 205.342 146.169 207.762 145.959 207.122C145.749 206.482 153.719 203.022 163.219 198.112Z" fill="#516D7B"/>
<path d="M413.189 383.642C414.975 379.131 416.253 374.436 416.999 369.642C417.617 365.668 418.004 361.661 418.159 357.642C418.449 350.782 418.349 346.482 418.739 346.462C419.129 346.442 419.789 350.692 419.969 357.662C420.069 361.762 419.855 365.864 419.329 369.932C418.692 374.957 417.425 379.883 415.559 384.592C413.63 389.32 410.926 393.694 407.559 397.532C404.812 400.672 401.561 403.332 397.939 405.402C395.51 406.787 392.888 407.798 390.159 408.402C388.229 408.802 387.159 408.812 387.109 408.662C387.059 408.512 388.109 408.122 389.879 407.452C392.38 406.504 394.771 405.287 397.009 403.822C400.304 401.649 403.259 399 405.779 395.962C408.859 392.255 411.358 388.101 413.189 383.642Z" fill="#516D7B"/>
<path d="M423.757 370.653C424.713 366.285 425.382 361.859 425.757 357.403C425.887 355.343 426.047 353.403 426.047 351.553C426.047 350.633 426.107 349.743 426.047 348.893L425.987 346.433C425.777 340.173 425.187 336.293 425.587 336.223C425.987 336.153 427.107 339.943 427.787 346.313L428.017 348.813C428.087 349.683 428.087 350.593 428.127 351.533C428.227 353.423 428.127 355.433 428.067 357.533C427.595 366.752 425.507 375.817 421.897 384.313C421.027 386.253 420.227 388.103 419.317 389.753C418.867 390.583 418.477 391.403 418.027 392.153L416.727 394.303C413.327 399.733 410.557 402.603 410.337 402.413C410.117 402.223 412.237 398.943 415.167 393.413L416.297 391.233C416.687 390.473 417.027 389.653 417.427 388.823C418.237 387.173 418.947 385.343 419.727 383.433C421.349 379.266 422.695 374.997 423.757 370.653Z" fill="#516D7B"/>
<path d="M281.889 246.382C285.469 236.852 296.019 231.762 305.749 231.552C318.409 231.282 329.969 237.932 340.079 244.872C344.869 248.162 349.369 240.362 344.619 237.102C332.149 228.542 317.359 220.962 301.759 222.872C289.089 224.422 277.759 231.872 273.209 243.992C271.209 249.422 279.869 251.762 281.889 246.382Z" fill="#385868"/>
<path d="M236.689 247.992C232.119 235.832 220.819 228.422 208.139 226.872C192.539 224.962 177.749 232.542 165.279 241.102C160.529 244.362 165.029 252.162 169.819 248.872C179.929 241.932 191.479 235.282 204.149 235.552C213.879 235.762 224.419 240.852 228.009 250.382C230.009 255.752 238.729 253.382 236.689 247.992Z" fill="#385868"/>
<path d="M257.658 262.073H251.658V315.073H257.658V262.073Z" fill="#385868"/>
<path d="M293.97 364.073C298.07 364.073 300.22 370.563 297.52 374.723C286.25 392.103 269.66 403.073 251.16 403.073C232.66 403.073 216.08 392.073 204.8 374.723C202.1 370.563 204.24 364.073 208.35 364.073H293.97Z" fill="#C66F66"/>
<path d="M254.157 407.072C235.007 407.072 216.887 396.072 204.447 376.892C203.32 375.079 202.688 373.002 202.614 370.868C202.54 368.734 203.028 366.619 204.027 364.732C204.707 363.359 205.749 362.198 207.041 361.375C208.333 360.552 209.825 360.098 211.357 360.062H296.977C298.508 360.098 300.001 360.552 301.293 361.375C302.585 362.198 303.627 363.359 304.307 364.732C305.306 366.619 305.793 368.734 305.719 370.868C305.646 373.002 305.014 375.079 303.887 376.892C291.437 396.082 273.317 407.072 254.157 407.072ZM211.417 368.072C211.069 368.43 210.832 368.882 210.737 369.372C210.592 369.902 210.555 370.455 210.627 370.999C210.7 371.544 210.88 372.068 211.157 372.542C222.097 389.402 237.767 399.072 254.157 399.072C270.547 399.072 286.227 389.402 297.157 372.542C297.434 372.068 297.614 371.544 297.686 370.999C297.758 370.455 297.721 369.902 297.577 369.372C297.481 368.882 297.245 368.43 296.897 368.072H211.417Z" fill="#385868"/>
<path d="M406.658 623.073H321.658C315.03 623.073 309.658 628.445 309.658 635.073V677.073C309.658 683.7 315.03 689.073 321.658 689.073H406.658C413.285 689.073 418.658 683.7 418.658 677.073V635.073C418.658 628.445 413.285 623.073 406.658 623.073Z" fill="white"/>
<path d="M406.658 694.073H321.658C317.149 694.073 312.825 692.282 309.637 689.094C306.449 685.906 304.658 681.582 304.658 677.073V635.073C304.658 630.564 306.449 626.24 309.637 623.052C312.825 619.864 317.149 618.073 321.658 618.073H406.658C411.166 618.073 415.49 619.864 418.678 623.052C421.867 626.24 423.658 630.564 423.658 635.073V677.073C423.658 681.582 421.867 685.906 418.678 689.094C415.49 692.282 411.166 694.073 406.658 694.073ZM321.658 628.073C319.801 628.073 318.021 628.809 316.708 630.122C315.395 631.435 314.658 633.216 314.658 635.073V677.073C314.658 678.929 315.395 680.709 316.708 682.022C318.021 683.334 319.801 684.073 321.658 684.073H406.658C408.514 684.073 410.295 683.334 411.607 682.022C412.92 680.709 413.658 678.929 413.658 677.073V635.073C413.658 633.216 412.92 631.435 411.607 630.122C410.295 628.809 408.514 628.073 406.658 628.073H321.658Z" fill="#385868"/>
<path d="M392.818 500.823H384.818V623.073H392.818V500.823Z" fill="#385868"/>
<path d="M167.658 335.073C185.331 335.073 199.658 329.253 199.658 322.073C199.658 314.893 185.331 309.073 167.658 309.073C149.985 309.073 135.658 314.893 135.658 322.073C135.658 329.253 149.985 335.073 167.658 335.073Z" fill="#FFB2B2"/>
<path d="M340.658 335.073C358.331 335.073 372.658 329.253 372.658 322.073C372.658 314.893 358.331 309.073 340.658 309.073C322.985 309.073 308.658 314.893 308.658 322.073C308.658 329.253 322.985 335.073 340.658 335.073Z" fill="#FFB2B2"/>
<path d="M220.81 22.1025C227.878 20.5119 235.066 19.5085 242.3 19.1025C245.64 19.0025 248.8 18.8625 251.77 19.0225C253.25 19.0825 254.68 19.0825 256.05 19.2025L259.989 19.5725C262.499 19.7625 264.739 20.2125 266.709 20.5725C267.709 20.7525 268.61 20.9025 269.44 21.0825L271.709 21.6725C274.419 22.4225 275.88 22.9925 275.81 23.3425C275.74 23.6925 274.17 23.7725 271.41 23.6425L269.12 23.5025L266.389 23.4125C264.389 23.3625 262.23 23.1725 259.78 23.2125H255.94C254.61 23.2125 253.22 23.2925 251.78 23.3325C248.91 23.3325 245.86 23.6525 242.64 23.8725C228.711 25.1216 215.027 28.3229 201.989 33.3825C198.989 34.6025 196.14 35.6925 193.56 36.9525C192.26 37.5625 190.97 38.0925 189.78 38.6925L186.36 40.4325C184.14 41.4825 182.25 42.6325 180.52 43.5425L178.119 44.8325L176.119 45.9725C173.699 47.3225 172.249 47.9725 172.039 47.6625C171.829 47.3525 172.88 46.2225 174.98 44.3525L176.75 42.8225C177.41 42.2825 178.17 41.7425 178.97 41.1525C180.59 39.9825 182.4 38.5925 184.56 37.3125L187.92 35.2325C189.1 34.5225 190.379 33.8825 191.679 33.1725C194.269 31.7125 197.17 30.4325 200.2 29.0525C206.866 26.1704 213.759 23.8458 220.81 22.1025Z" fill="white"/>
</g>
<defs>
<clipPath id="clip0_857:84">
<rect width="505" height="794" fill="white" transform="translate(0.810059 0.922485)"/>
</clipPath>
</defs>
</svg>
