<svg width="94" height="95" viewBox="0 0 94 95" fill="none" xmlns="http://www.w3.org/2000/svg">
<g clip-path="url(#clip0_492:82)">
<path d="M10.5959 39.0745V94.199H83.1448V39.0745" fill="#F3941B"/>
<path d="M10.596 55.7603C16.2434 55.7603 20.8215 51.2233 20.8215 45.6265C20.8215 40.0297 16.2434 35.4927 10.596 35.4927C4.94852 35.4927 0.370361 40.0297 0.370361 45.6265C0.370361 51.2233 4.94852 55.7603 10.596 55.7603Z" fill="#F3998A"/>
<path d="M83.1448 55.7603C88.7922 55.7603 93.3704 51.2233 93.3704 45.6265C93.3704 40.0297 88.7922 35.4927 83.1448 35.4927C77.4973 35.4927 72.9192 40.0297 72.9192 45.6265C72.9192 51.2233 77.4973 55.7603 83.1448 55.7603Z" fill="#F3998A"/>
<path d="M68.8643 61.7882H26.1989C26.1989 58.4685 28.8434 55.8477 32.1932 55.8477H62.8699C66.2197 55.8477 68.8643 58.4685 68.8643 61.7882Z" fill="white" stroke="white" stroke-miterlimit="10"/>
<path d="M66.1314 58.8179H27.4329V76.8142H66.1314V58.8179Z" fill="#8F312C"/>
<path d="M64.5448 80.8328V84.2399C59.2557 86.9481 53.0851 88.5206 46.4737 88.5206C40.0386 88.5206 34.0443 87.0354 28.8434 84.502V80.9202C28.8434 76.5522 30.7827 72.6209 33.9562 69.8254C37.2178 66.9425 41.7135 65.1079 46.65 65.1079C51.4102 65.1079 55.8178 66.7678 58.9913 69.4759C59.0794 69.5633 59.1676 69.6507 59.2557 69.738C62.5173 72.5336 64.5448 76.4648 64.5448 80.8328Z" fill="#AF3F3F"/>
<path d="M72.5666 11.5557C66.0433 5.0037 56.9637 3.69329 46.9144 3.69329C26.8159 3.60593 10.5959 17.1468 10.5959 36.9777V54.3624C10.5959 67.9033 18.0888 79.6096 29.1959 85.8122C34.3969 88.6951 40.3912 90.355 46.8263 90.355C53.4377 90.355 59.6083 88.6078 64.8974 85.6375C75.8282 79.3476 83.1448 67.7286 83.1448 54.3624V36.9777C83.1448 27.0186 79.0898 18.0204 72.5666 11.5557ZM46.65 74.1059C41.8898 74.1059 37.5704 72.2714 34.3087 69.3885C31.6642 67.0297 29.813 63.9721 28.9315 60.3903C28.4026 58.2063 30.0775 56.0223 32.3694 56.0223H60.9305C63.2225 56.0223 64.8974 58.2063 64.3685 60.3903C63.4869 63.71 61.8121 66.6803 59.3438 69.039C56.0822 72.0966 51.6746 74.1059 46.65 74.1059Z" fill="#F7B3A2"/>
<path d="M28.8434 40.2975C27.0803 40.2975 25.6699 38.8997 25.6699 37.1525V34.0075C25.6699 32.2603 27.0803 30.8625 28.8434 30.8625C30.6064 30.8625 32.0168 32.2603 32.0168 34.0075V37.1525C32.105 38.8124 30.6064 40.2975 28.8434 40.2975Z" fill="white" stroke="white" stroke-miterlimit="10"/>
<path d="M64.5448 40.2975C62.7818 40.2975 61.3713 38.8997 61.3713 37.1525V34.0075C61.3713 32.2603 62.7818 30.8625 64.5448 30.8625C66.3078 30.8625 67.7183 32.2603 67.7183 34.0075V37.1525C67.7183 38.8124 66.3078 40.2975 64.5448 40.2975Z" fill="white" stroke="white" stroke-miterlimit="10"/>
<path d="M72.4784 44.753H56.5229V34.2697C56.5229 29.9017 60.049 26.4072 64.4566 26.4072H64.5448C68.9523 26.4072 72.4784 29.9017 72.4784 34.2697V44.753Z" fill="white"/>
<path d="M36.777 44.753H20.9097V34.2697C20.9097 29.9017 24.4357 26.4072 28.8433 26.4072H28.9315C33.3391 26.4072 36.8651 29.9017 36.8651 34.2697V44.753H36.777Z" fill="white"/>
<path d="M28.8434 50.0818C34.7342 50.0818 39.5097 48.5955 39.5097 46.7621C39.5097 44.9287 34.7342 43.4424 28.8434 43.4424C22.9525 43.4424 18.177 44.9287 18.177 46.7621C18.177 48.5955 22.9525 50.0818 28.8434 50.0818Z" fill="#F7B3A2"/>
<path d="M64.5448 50.0818C70.4356 50.0818 75.2111 48.5955 75.2111 46.7621C75.2111 44.9287 70.4356 43.4424 64.5448 43.4424C58.6539 43.4424 53.8784 44.9287 53.8784 46.7621C53.8784 48.5955 58.6539 50.0818 64.5448 50.0818Z" fill="#F7B3A2"/>
<path d="M30.5182 42.3942H28.9315C28.0499 42.3942 27.3447 41.6954 27.3447 40.8218V34.1824C27.3447 33.3088 28.0499 32.6099 28.9315 32.6099H30.5182C31.3997 32.6099 32.1049 33.3088 32.1049 34.1824V40.8218C32.1931 41.6954 31.3997 42.3942 30.5182 42.3942Z" fill="#4C4B4B"/>
<path d="M64.4567 42.132H62.8699C61.9884 42.132 61.2832 41.4332 61.2832 40.5596V33.9201C61.2832 33.0465 61.9884 32.3477 62.8699 32.3477H64.4567C65.3382 32.3477 66.0434 33.0465 66.0434 33.9201V40.5596C66.0434 41.3458 65.3382 42.132 64.4567 42.132Z" fill="#4C4B4B"/>
<path d="M49.1183 35.9295V38.3756C49.1183 39.686 48.0604 40.8217 46.65 40.8217C45.3277 40.8217 44.1818 39.7734 44.1818 38.3756V35.9295C44.1818 34.6191 45.2396 33.4834 46.65 33.4834C48.0604 33.4834 49.1183 34.6191 49.1183 35.9295Z" fill="#EA9587"/>
<path d="M49.2064 38.3755H44.2699V41.8699H49.2064V38.3755Z" fill="#EA9587"/>
<path d="M54.6717 44.4909C54.6717 46.5002 52.9968 48.1601 50.9694 48.1601H42.5949C40.5675 48.1601 38.8926 46.5002 38.8926 44.4909C38.8926 42.4816 40.5675 40.8218 42.5949 40.8218H50.9694C53.085 40.8218 54.6717 42.3943 54.6717 44.4909Z" fill="#EA9587"/>
<path d="M10.5959 79.9592H18.5296H18.7059V22.0391H44.358L46.8263 11.119L49.2945 22.0391H75.2111V80.0466H83.1448V22.738C83.1448 10.2454 73.0073 0.198975 60.4016 0.198975H33.3391C20.7334 0.198975 10.5959 10.2454 10.5959 22.738V79.9592Z" fill="#F3941B"/>
</g>
<defs>
<clipPath id="clip0_492:82">
<rect width="93" height="94" fill="white" transform="translate(0.370361 0.198975)"/>
</clipPath>
</defs>
</svg>
