<svg width="1001" height="1001" viewBox="0 0 1001 1001" fill="none" xmlns="http://www.w3.org/2000/svg">
<g clip-path="url(#clip0_995:1085)">
<path opacity="0.35" d="M740.128 403.858C740.128 390.458 729.328 379.658 715.928 379.658H615.328C601.928 379.658 591.128 368.858 591.128 355.458C591.128 342.058 601.928 331.258 615.328 331.258H639.028C652.428 331.258 663.228 320.458 663.228 307.058C663.228 293.658 652.428 282.858 639.028 282.858H375.428C362.028 282.858 351.228 293.658 351.228 307.058C351.228 320.458 362.028 331.258 375.428 331.258H400.828C414.228 331.258 425.028 342.058 425.028 355.458C425.028 368.858 414.228 379.658 400.828 379.658H319.928C306.528 379.658 295.728 390.458 295.728 403.858C295.728 417.258 306.528 428.058 319.928 428.058H326.928C340.328 428.058 351.128 438.858 351.128 452.258C351.128 465.658 340.328 476.458 326.928 476.458H286.028C272.628 476.458 261.828 487.258 261.828 500.658C261.828 514.058 272.628 524.858 286.028 524.858H378.628C392.028 524.858 402.828 535.658 402.828 549.058C402.828 562.458 392.028 573.258 378.628 573.258H341.528C328.128 573.258 317.328 584.058 317.328 597.458C317.328 610.858 328.128 621.658 341.528 621.658H386.628C400.028 621.658 410.828 632.458 410.828 645.858C410.828 659.258 400.028 670.058 386.628 670.058H383.728C370.328 670.058 359.528 680.858 359.528 694.258C359.528 707.658 370.328 718.458 383.728 718.458H625.928C639.328 718.458 650.128 707.658 650.128 694.258C650.128 680.858 639.328 670.058 625.928 670.058H605.128C591.728 670.058 580.928 659.258 580.928 645.858C580.928 632.458 591.728 621.658 605.128 621.658H715.928C729.328 621.658 740.128 610.858 740.128 597.458C740.128 584.058 729.328 573.258 715.928 573.258H687.528C674.128 573.258 663.328 562.458 663.328 549.058C663.328 535.658 674.128 524.858 687.528 524.858H705.028C718.428 524.858 729.228 514.058 729.228 500.658C729.228 487.258 718.428 476.458 705.028 476.458H649.328C635.928 476.458 625.128 465.658 625.128 452.258C625.128 438.858 635.928 428.058 649.328 428.058H715.928C729.328 428.058 740.128 417.258 740.128 403.858ZM498.528 476.558H477.628C464.228 476.558 453.428 465.758 453.428 452.358C453.428 438.958 464.228 428.158 477.628 428.158H498.528C511.928 428.158 522.728 438.958 522.728 452.358C522.828 465.658 511.928 476.558 498.528 476.558Z" fill="#A9DBED"/>
<path opacity="0.45" d="M687.528 850.758C687.528 857.358 682.128 862.758 675.528 862.758H299.028C292.428 862.758 287.028 857.358 287.028 850.758C287.028 844.158 292.428 838.758 299.028 838.758H412.428C419.028 838.758 424.428 833.358 424.428 826.758C424.428 820.158 419.028 814.758 412.428 814.758H401.128C394.528 814.758 389.128 809.358 389.128 802.758C389.128 796.158 394.528 790.758 401.128 790.758H633.628C640.228 790.758 645.628 796.158 645.628 802.758C645.628 809.358 640.228 814.758 633.628 814.758H607.528C600.928 814.758 595.528 820.158 595.528 826.758C595.528 833.358 600.928 838.758 607.528 838.758H675.528C682.128 838.758 687.528 844.158 687.528 850.758Z" fill="#898386"/>
<path opacity="0.51" d="M505.828 409.258C506.228 423.158 505.328 429.758 505.328 429.758C506.228 430.658 506.428 430.758 507.528 430.758C506.128 431.158 504.528 431.558 504.528 435.258C504.528 448.258 504.228 511.658 502.328 526.158C490.428 524.258 476.428 526.258 468.128 525.358C456.828 524.058 459.628 513.558 461.328 510.758C493.928 457.658 495.728 433.258 495.728 433.258C495.728 433.258 496.228 430.558 496.928 429.158C497.428 426.058 498.028 421.058 497.128 415.158C496.728 412.358 494.728 405.958 492.528 400.958C492.428 400.858 492.328 400.758 492.128 400.658C488.428 398.158 485.828 394.058 485.128 389.158C485.128 389.158 485.128 389.058 485.128 388.958C484.828 386.458 486.428 384.258 488.728 384.058L491.528 383.758C491.228 385.358 492.028 393.558 499.728 396.858C505.728 399.358 512.628 396.958 514.728 394.658C515.128 396.558 512.728 399.758 509.628 401.958C507.228 403.658 505.828 406.358 505.828 409.258Z" fill="#DB485F"/>
<path d="M520.128 336.958H500.628V368.758H520.128V336.958Z" fill="#FFA578"/>
<path d="M510.428 336.958H500.628V353.658H510.428V336.958Z" fill="#F49971"/>
<path d="M500.628 349.558C504.728 349.658 512.528 349.158 520.128 345.658V336.958H500.628V349.558Z" fill="#ED8C6B"/>
<path d="M597.028 403.058L630.928 341.158L615.128 332.558L584.928 387.758C583.928 389.558 581.628 389.958 580.128 388.658L539.128 353.558C535.328 350.358 529.628 350.758 526.428 354.558C523.228 358.358 523.628 364.058 527.428 367.258L574.228 407.358L578.228 410.758C583.228 414.958 590.828 413.658 594.128 408.058L597.028 403.058Z" fill="#FFA578"/>
<path d="M597.028 403.058L630.928 341.158L615.128 332.558L584.928 387.758C583.928 389.558 581.628 389.958 580.128 388.658L539.128 353.558C535.328 350.358 529.628 350.758 526.428 354.558C523.228 358.358 523.628 364.058 527.428 367.258L574.228 407.358L578.228 410.758C583.228 414.958 590.828 413.658 594.128 408.058L597.028 403.058Z" fill="#FFA578"/>
<path d="M538.728 390.558L491.028 392.958C490.628 392.958 490.228 392.658 490.228 392.258L488.528 358.958C488.428 356.158 490.528 353.758 493.428 353.558L529.128 351.758C533.728 351.558 537.728 355.058 537.928 359.758L539.428 389.858C539.428 390.158 539.128 390.558 538.728 390.558Z" fill="#FFA578"/>
<path d="M577.428 393.758C581.728 397.458 588.428 396.258 591.128 391.258L621.428 335.958L615.128 332.558L584.928 387.758C583.928 389.558 581.628 389.958 580.128 388.658L539.128 353.558C536.228 351.058 532.928 350.958 526.328 351.858C526.328 351.858 529.728 351.458 533.328 354.758C546.128 366.358 577.428 393.758 577.428 393.758Z" fill="#F49971"/>
<path d="M496.828 355.458C492.828 352.558 487.228 353.358 484.228 357.358L443.528 412.858C442.728 414.058 442.128 415.258 441.928 416.658C441.428 418.958 441.828 421.458 443.328 423.658L472.228 465.558C475.028 469.658 480.628 470.658 484.728 467.858C488.828 465.058 489.828 459.458 487.028 455.358L461.728 418.658L498.728 368.158C501.728 363.958 500.828 358.358 496.828 355.458Z" fill="#FFA578"/>
<path d="M462.428 417.659L492.028 378.259L490.228 373.659C489.828 372.659 488.528 372.559 487.928 373.359L458.328 413.659L456.228 416.459C455.328 417.659 455.328 419.259 456.128 420.459L458.128 423.359L487.028 465.359C489.028 462.359 489.028 458.359 486.928 455.259L462.328 419.559C462.028 418.959 462.028 418.159 462.428 417.659Z" fill="#F49971"/>
<path d="M469.628 523.258C466.828 523.258 460.628 530.158 458.628 535.058C456.628 539.958 480.828 554.058 509.928 558.458C539.028 562.858 586.128 567.458 605.828 562.658C625.528 557.858 642.528 541.658 637.928 536.258C635.628 533.758 599.628 523.258 599.628 523.258H469.628Z" fill="#AC3942"/>
<path d="M564.628 794.758C564.628 794.758 563.028 805.558 561.928 817.158C560.228 834.858 572.028 822.758 572.028 822.758C572.028 822.758 585.328 812.058 586.828 790.758C588.328 769.458 565.828 788.558 564.628 794.758Z" fill="#FF4C63"/>
<path d="M433.528 776.558C433.528 776.558 428.328 797.558 432.228 811.858C432.828 814.158 435.528 815.458 437.728 814.358C446.528 810.258 453.728 796.658 455.528 789.058C457.528 780.258 443.028 762.358 433.528 776.558Z" fill="#FF4C63"/>
<path d="M511.214 310.658C548.706 308.449 577.455 278.768 575.428 244.364C573.401 209.96 541.364 183.861 503.873 186.07C466.381 188.28 437.632 217.96 439.659 252.364C441.686 286.768 473.723 312.867 511.214 310.658Z" fill="#AC3942"/>
<path d="M507.228 227.158C526.558 227.158 542.228 211.488 542.228 192.158C542.228 172.828 526.558 157.158 507.228 157.158C487.898 157.158 472.228 172.828 472.228 192.158C472.228 211.488 487.898 227.158 507.228 227.158Z" fill="#AC3942"/>
<path d="M553.928 271.758C553.928 271.758 554.428 293.458 548.728 304.458C543.028 315.458 537.128 327.458 542.128 336.958C549.228 350.458 569.128 343.258 569.128 343.258C563.628 343.558 547.028 344.258 546.428 333.758C545.828 323.258 561.428 296.358 561.228 294.358C561.228 292.358 560.928 271.358 553.928 271.758Z" fill="#CD3B43"/>
<path d="M520.528 153.258C520.528 153.258 491.128 152.058 474.228 183.358C475.128 170.558 486.328 146.558 520.528 153.258Z" fill="#AC3942"/>
<path d="M473.828 181.558C479.728 163.158 499.428 152.958 517.828 158.858C528.928 162.458 537.128 171.058 540.428 181.358C533.928 174.858 517.228 173.258 502.028 188.358C491.928 198.458 481.328 206.158 478.028 211.658C472.428 203.058 470.528 192.058 473.828 181.558Z" fill="#CD3B43"/>
<path d="M462.328 281.158C462.328 281.158 462.828 302.858 457.128 313.858C451.428 324.858 445.928 332.058 450.528 344.258C455.128 356.558 479.428 353.758 480.128 352.758C469.828 353.558 452.428 347.458 453.728 336.958C455.828 321.158 469.828 305.758 469.728 303.758C469.628 301.758 469.328 280.758 462.328 281.158Z" fill="#AC3942"/>
<path d="M512.928 343.458C498.928 344.258 480.528 334.958 469.728 317.858C456.928 298.458 448.828 268.158 462.828 248.558C492.428 246.858 522.028 245.058 551.628 243.358C567.728 261.158 563.228 292.258 552.928 313.058C544.128 331.158 526.928 342.658 512.928 343.458Z" fill="#FFA578"/>
<path d="M461.028 307.758L459.228 308.058C456.528 308.458 454.028 306.658 453.628 303.958L450.528 284.658C450.128 281.958 451.928 279.458 454.628 279.058L456.428 278.758C459.128 278.358 461.628 280.158 462.028 282.858L465.128 302.158C465.528 304.758 463.728 307.258 461.028 307.758Z" fill="#F49971"/>
<path d="M556.428 307.758L558.228 308.058C560.928 308.458 563.428 306.658 563.828 303.958L566.928 284.658C567.328 281.958 565.528 279.458 562.828 279.058L561.028 278.758C558.328 278.358 555.828 280.158 555.428 282.858L552.328 302.158C551.928 304.758 553.828 307.258 556.428 307.758Z" fill="#ED8C6B"/>
<path d="M512.928 343.458C498.928 344.258 480.528 334.958 469.728 317.858C456.928 298.458 448.828 268.158 462.828 248.558C492.428 246.858 522.028 245.058 551.628 243.358C567.728 261.158 563.228 292.258 552.928 313.058C544.128 331.158 526.928 342.658 512.928 343.458Z" fill="#FFA578"/>
<path d="M551.628 243.358C545.328 243.758 473.728 254.758 467.328 255.158C469.328 266.958 524.528 256.358 528.928 263.658C537.428 277.658 533.628 296.358 530.128 310.858C526.128 327.358 514.028 341.058 501.328 342.158C505.328 343.258 509.328 343.758 513.028 343.558C527.028 342.758 544.228 331.258 552.928 313.058C563.228 292.258 567.728 261.158 551.628 243.358Z" fill="#F49971"/>
<path d="M565.328 280.558C572.328 270.058 576.128 257.558 575.328 244.358C573.328 209.958 541.228 183.858 503.728 186.058C483.928 187.258 466.528 196.058 454.828 209.258C446.928 218.158 445.528 230.958 451.228 241.358C451.728 242.358 452.328 243.258 452.928 244.158C452.928 244.158 461.528 259.658 488.428 258.058C513.028 256.658 551.928 249.958 565.328 280.558Z" fill="#CD3B43"/>
<path d="M502.928 316.258C502.928 316.258 503.328 316.358 503.928 316.558C504.528 316.758 505.428 316.958 506.428 317.258C506.928 317.358 507.428 317.558 508.028 317.658C508.528 317.858 509.128 317.958 509.728 318.058C510.328 318.158 510.828 318.358 511.428 318.458C512.028 318.558 512.528 318.658 513.128 318.758C513.728 318.858 514.228 318.858 514.828 318.958C515.428 319.058 515.928 318.958 516.528 319.058C517.128 319.158 517.628 318.958 518.228 318.958C518.828 318.958 519.328 318.858 519.828 318.858C520.328 318.758 520.828 318.858 521.228 318.758C521.628 318.658 522.028 318.658 522.328 318.558C522.628 318.558 522.928 318.458 523.128 318.458C523.328 318.458 523.428 318.458 523.428 318.458C523.428 318.458 523.428 318.558 523.328 318.658C523.228 318.758 523.128 319.058 522.928 319.358C522.728 319.658 522.528 319.958 522.128 320.358C521.828 320.758 521.428 321.058 520.928 321.458C520.428 321.858 519.928 322.258 519.328 322.558C519.028 322.758 518.728 322.858 518.328 323.058C518.128 323.158 518.028 323.258 517.828 323.258L517.328 323.358C516.628 323.558 515.828 323.758 515.028 323.758C514.628 323.758 514.228 323.758 513.828 323.858C513.428 323.858 513.028 323.758 512.628 323.758C511.828 323.658 511.028 323.458 510.228 323.258C509.428 323.058 508.728 322.658 508.128 322.358C507.528 321.958 506.828 321.558 506.328 321.158C505.828 320.758 505.328 320.258 504.928 319.858C504.128 318.958 503.628 318.158 503.328 317.458C503.028 316.758 502.928 316.258 502.928 316.258Z" fill="#E24249"/>
<path d="M501.292 403.232C509.571 402.954 516.022 394.944 515.7 385.34C515.379 375.736 508.406 368.175 500.127 368.452C491.848 368.73 485.397 376.74 485.718 386.344C486.04 395.948 493.013 403.509 501.292 403.232Z" fill="#FFA578"/>
<path d="M529.49 400.633C537.77 400.356 544.221 392.346 543.899 382.742C543.577 373.138 536.604 365.577 528.325 365.854C520.046 366.132 513.595 374.142 513.917 383.746C514.239 393.35 521.211 400.911 529.49 400.633Z" fill="#FFA578"/>
<path d="M545.828 546.658C545.828 546.658 538.128 625.058 530.628 638.058C523.128 651.058 469.628 736.058 464.628 753.558C459.628 771.058 457.628 779.558 455.128 790.558C452.628 801.558 428.128 801.058 432.628 780.058C437.128 759.058 451.628 745.058 456.128 732.558C460.628 720.058 466.628 682.558 480.128 659.058C493.628 635.558 506.128 631.058 508.628 621.058C511.128 611.058 500.628 553.058 500.628 553.058L545.828 546.658Z" fill="#FFA578"/>
<path d="M437.828 795.958C444.128 799.558 453.328 797.158 455.028 790.758C451.028 794.758 444.128 797.658 437.828 795.958Z" fill="#F49971"/>
<path d="M530.828 544.258C528.728 573.458 528.328 624.158 522.228 634.858C514.628 648.058 473.928 712.358 457.228 752.058C454.728 757.958 463.728 756.458 464.528 753.558C469.528 736.058 523.028 651.058 530.528 638.058C538.028 625.058 545.728 546.658 545.728 546.658L530.828 544.258Z" fill="#F49971"/>
<path d="M547.328 548.158C547.328 548.158 557.628 602.458 564.628 620.458C571.628 638.458 572.628 646.458 572.628 654.458C572.628 662.458 574.028 691.858 574.028 711.858C574.028 731.858 577.128 735.458 572.628 761.158C568.128 786.858 564.628 790.958 564.628 794.658C564.628 798.358 563.128 806.058 566.628 809.558C570.128 813.058 583.828 809.958 586.828 790.658C589.828 771.358 587.028 755.858 588.828 742.158C590.628 728.458 603.628 688.358 600.028 657.958C596.428 627.558 590.528 620.458 590.528 605.958C590.528 591.458 590.028 541.558 590.028 541.558L547.328 548.158Z" fill="#FFA578"/>
<path d="M569.728 810.858C574.928 811.258 583.628 806.658 586.528 792.758C582.028 802.458 576.528 808.958 569.728 810.858Z" fill="#F49971"/>
<path d="M600.128 657.958C596.628 627.458 590.628 620.458 590.628 605.958C590.628 591.458 590.128 541.558 590.128 541.558L580.528 543.058C580.728 561.258 580.928 591.258 580.928 602.558C580.928 619.258 587.828 627.358 591.828 662.458C595.828 697.558 582.028 736.158 580.528 760.058C580.428 761.258 580.328 765.958 581.428 767.558C583.728 771.058 588.328 771.058 588.328 765.758C588.228 757.258 587.928 749.458 588.828 742.258C590.628 728.558 603.628 688.558 600.128 657.958Z" fill="#F49971"/>
<path d="M459.428 532.858C457.128 540.258 456.228 525.258 490.628 548.858C518.828 568.258 546.028 590.358 603.328 552.658C633.828 532.558 638.728 539.258 638.728 539.258C638.728 539.258 639.428 537.758 637.628 534.258C632.328 523.558 622.928 523.458 620.628 521.158C618.328 518.858 581.328 489.858 581.328 489.858L475.528 516.658C475.428 516.658 461.828 525.458 459.428 532.858Z" fill="#D3405C"/>
<path d="M627.928 332.958L611.928 339.658C607.428 341.558 602.328 338.258 602.328 333.258V287.158C602.328 284.358 604.028 281.858 606.528 280.758L622.528 274.058C627.028 272.158 632.128 275.458 632.128 280.458V326.558C632.228 329.358 630.528 331.958 627.928 332.958Z" fill="#76B276"/>
<path d="M632.128 332.958L616.128 339.658C611.628 341.558 606.528 338.258 606.528 333.258V287.158C606.528 284.358 608.228 281.858 610.728 280.758L626.728 274.058C631.228 272.158 636.328 275.458 636.328 280.458V326.558C636.328 329.358 634.728 331.958 632.128 332.958Z" fill="#99CC99"/>
<path d="M626.028 351.958C635.693 351.958 643.528 344.123 643.528 334.458C643.528 324.793 635.693 316.958 626.028 316.958C616.363 316.958 608.528 324.793 608.528 334.458C608.528 344.123 616.363 351.958 626.028 351.958Z" fill="#F79B72"/>
<path d="M623.228 343.558C629.303 343.558 634.228 338.633 634.228 332.558C634.228 326.483 629.303 321.558 623.228 321.558C617.153 321.558 612.228 326.483 612.228 332.558C612.228 338.633 617.153 343.558 623.228 343.558Z" fill="#FFA578"/>
<path d="M454.228 230.058C454.228 230.058 468.528 233.758 469.328 246.658C469.728 253.658 463.828 265.058 449.528 268.158C437.028 270.858 426.728 274.258 420.628 284.158C421.128 276.158 424.128 266.158 440.828 260.158C457.528 254.158 462.028 245.658 454.228 230.058Z" fill="#E24249"/>
<path d="M510.428 374.558C510.428 374.558 514.728 376.758 515.828 382.658C516.328 377.558 518.128 374.158 519.128 373.558C517.728 373.958 515.928 375.858 515.428 378.158C514.328 375.758 510.428 374.558 510.428 374.558Z" fill="#F49971"/>
<path d="M540.528 379.158L488.728 384.058C486.428 384.258 484.728 386.558 485.128 388.958C485.128 389.058 485.128 389.058 485.128 389.158C486.328 397.558 493.328 403.758 501.128 403.358C508.128 402.958 513.628 397.658 515.328 390.758C518.128 397.458 524.728 401.858 531.928 400.558C538.228 399.458 543.228 394.058 544.528 387.258C544.728 386.058 544.828 384.858 544.828 383.658C544.828 380.958 542.828 378.958 540.528 379.158Z" fill="#FF4C63"/>
<path d="M542.628 426.258C542.628 426.258 538.628 416.258 538.628 412.058C538.628 401.058 541.628 389.658 541.628 389.658H515.328L490.328 395.258C490.328 395.258 496.428 410.158 497.128 415.158C498.628 425.058 496.328 431.558 496.328 431.558C496.328 431.558 493.928 457.658 461.328 510.758C459.628 513.558 456.828 524.058 468.128 525.358C482.028 526.958 511.528 520.258 521.228 537.158C534.928 560.958 589.828 516.058 603.628 532.758C614.928 546.458 628.228 533.058 635.828 522.558C639.728 517.258 638.728 509.758 633.528 505.758C627.628 501.058 618.728 494.258 606.928 485.858C576.928 464.558 542.628 426.258 542.628 426.258Z" fill="#FF4C63"/>
<path d="M482.828 497.958C485.128 485.958 498.528 439.658 500.528 429.158C500.628 428.758 501.528 428.458 501.628 428.258C501.628 427.858 500.828 427.458 500.828 427.058C501.328 421.058 500.728 413.958 500.228 409.258C499.828 406.358 501.328 402.458 504.128 401.758C506.528 401.158 512.428 398.158 513.728 395.058C510.328 399.858 497.928 401.858 492.128 396.158C488.028 392.058 487.728 387.358 487.428 384.458C485.928 385.258 484.928 387.058 485.128 388.958C485.128 389.058 485.128 389.058 485.128 389.158C485.828 394.058 488.528 398.158 492.128 400.658C492.228 400.758 492.428 400.858 492.528 400.958C494.728 405.958 496.728 412.358 497.128 415.158C498.028 421.058 497.428 426.058 496.928 429.158C496.428 430.958 495.728 434.958 495.728 434.958C495.728 434.958 492.028 455.558 461.328 510.758C459.728 513.658 456.828 524.058 468.128 525.358C470.928 525.658 475.128 525.658 478.928 525.558C480.028 519.058 481.628 503.858 482.828 497.958Z" fill="#ED4A61"/>
<path opacity="0.69" d="M539.328 281.958C538.128 281.258 536.728 281.258 535.528 281.958C533.828 279.658 531.428 278.358 529.128 278.858C526.428 279.458 524.628 282.158 524.328 285.558C525.628 284.058 527.128 282.758 529.228 282.258C532.228 281.558 534.628 283.158 535.428 283.558C535.528 283.558 535.628 283.658 535.728 283.558C537.228 282.658 539.028 282.558 540.228 283.258C540.528 283.458 540.828 283.658 541.028 283.858C540.628 283.058 540.128 282.358 539.328 281.958Z" fill="#422725"/>
<path opacity="0.69" d="M483.028 285.258C484.128 284.458 485.628 284.258 486.828 284.758C488.228 282.258 490.428 280.658 492.828 280.958C495.528 281.158 497.728 283.658 498.428 287.058C497.028 285.658 495.328 284.558 493.128 284.358C490.028 284.058 487.828 285.858 487.128 286.358C487.028 286.458 486.928 286.458 486.828 286.458C485.228 285.758 483.428 285.858 482.328 286.658C482.028 286.858 481.828 287.058 481.628 287.358C481.828 286.558 482.328 285.758 483.028 285.258Z" fill="#422725"/>
<path d="M489.028 481.758C498.693 481.758 506.528 473.923 506.528 464.258C506.528 454.593 498.693 446.758 489.028 446.758C479.363 446.758 471.528 454.593 471.528 464.258C471.528 473.923 479.363 481.758 489.028 481.758Z" fill="#FFA578"/>
<path d="M489.028 481.758C498.693 481.758 506.528 473.923 506.528 464.258C506.528 454.593 498.693 446.758 489.028 446.758C479.363 446.758 471.528 454.593 471.528 464.258C471.528 473.923 479.363 481.758 489.028 481.758Z" fill="#FFA578"/>
<path d="M492.228 447.058C486.828 446.058 481.528 447.658 477.628 451.058C478.028 451.058 478.328 451.158 478.728 451.158C487.928 452.858 494.028 461.658 492.328 470.958C491.528 475.258 489.128 478.958 485.928 481.358C495.428 483.058 504.528 476.858 506.228 467.358C507.928 457.958 501.728 448.858 492.228 447.058Z" fill="#F79B72"/>
<path opacity="0.68" d="M606.928 485.858C578.028 465.258 545.028 428.958 542.728 426.458C542.628 426.358 542.528 426.258 542.528 426.158C542.028 424.758 538.628 415.958 538.628 412.058C538.628 406.258 539.428 400.358 540.228 396.058C540.228 395.858 540.328 395.658 540.428 395.558C541.028 394.858 541.528 394.158 542.028 393.358C543.128 391.558 544.028 389.458 544.428 387.158C544.628 385.958 544.728 384.758 544.728 383.558C544.728 380.958 542.728 379.058 540.428 379.258L537.228 379.558C537.528 380.158 537.728 380.858 537.928 381.558C537.928 381.558 538.228 382.758 538.428 383.858C538.628 385.558 537.828 390.358 534.628 393.358C530.928 396.858 524.728 397.558 519.128 394.958C519.128 394.958 520.728 396.458 523.128 397.858C524.928 398.858 527.628 399.858 528.428 399.958C530.928 400.358 532.828 402.258 533.128 404.758C533.528 408.058 533.728 411.458 533.728 413.058C533.728 415.158 533.928 419.758 534.728 424.358C534.828 424.858 533.628 425.558 533.728 426.058C533.828 426.458 534.928 425.958 534.928 426.258C535.228 427.658 535.728 429.558 536.128 430.858C537.728 435.658 578.428 500.258 604.128 533.458C604.128 533.458 604.128 533.558 604.228 533.558C615.528 546.058 628.528 532.658 636.028 522.258C639.728 517.058 638.628 509.858 633.628 505.958C627.828 501.258 618.828 494.358 606.928 485.858Z" fill="#DB485F"/>
<path d="M562.228 241.558C555.728 256.358 528.128 246.858 503.028 244.458C466.728 240.958 458.428 220.158 464.928 205.358C471.428 190.558 503.528 180.658 526.628 190.858C549.728 200.958 568.728 226.758 562.228 241.558Z" fill="#E24249"/>
<path opacity="0.87" d="M525.969 213.997C527.949 206.752 519.448 198.117 506.982 194.711C494.516 191.304 482.806 194.416 480.826 201.661C478.846 208.906 487.346 217.541 499.812 220.948C512.278 224.354 523.989 221.243 525.969 213.997Z" fill="#EF5964"/>
<path opacity="0.87" d="M501.254 177.855C507.39 173.718 510.613 167.766 508.452 164.56C506.291 161.355 499.564 162.109 493.428 166.246C487.291 170.383 484.068 176.336 486.229 179.541C488.391 182.747 495.117 181.992 501.254 177.855Z" fill="#EF5964"/>
<path d="M621.428 295.858C623.251 295.858 624.728 294.381 624.728 292.558C624.728 290.735 623.251 289.258 621.428 289.258C619.605 289.258 618.128 290.735 618.128 292.558C618.128 294.381 619.605 295.858 621.428 295.858Z" fill="#76B276"/>
<path d="M435.285 810.807C435.886 810.717 436.096 808.785 435.754 806.49C435.412 804.196 434.647 802.409 434.047 802.498C433.446 802.588 433.236 804.52 433.578 806.815C433.92 809.109 434.684 810.896 435.285 810.807Z" fill="#FFA6B5"/>
<path d="M566.093 819.371C566.108 817.051 565.627 815.168 565.019 815.164C564.412 815.16 563.908 817.038 563.893 819.357C563.879 821.677 564.36 823.56 564.967 823.564C565.575 823.568 566.079 821.691 566.093 819.371Z" fill="#FFA6B5"/>
</g>
<defs>
<clipPath id="clip0_995:1085">
<rect width="1000" height="1000" fill="white" transform="translate(0.62793 0.758301)"/>
</clipPath>
</defs>
</svg>
