<svg width="39" height="66" viewBox="0 0 39 66" fill="none" xmlns="http://www.w3.org/2000/svg">
<path d="M11.8926 52.8806V54.8806C11.8914 55.2312 11.9944 55.5742 12.1885 55.8662C12.3825 56.1582 12.6589 56.386 12.9826 56.5206C13.1726 56.6006 13.3926 56.6906 13.6326 56.7706L13.7526 57.0606V58.6106C13.7519 58.8803 13.8314 59.144 13.981 59.3684C14.1306 59.5927 14.3435 59.7676 14.5926 59.8707L15.0226 60.0307V60.4107C15.0795 61.668 15.619 62.855 16.5289 63.7246C17.4388 64.5943 18.649 65.0796 19.9076 65.0796C21.1662 65.0796 22.3764 64.5943 23.2863 63.7246C24.1962 62.855 24.7357 61.668 24.7926 60.4107L24.9526 59.9807L25.2426 59.8707C25.4918 59.7676 25.7046 59.5927 25.8542 59.3684C26.0038 59.144 26.0833 58.8803 26.0826 58.6106V57.0707V57.1806V56.8507L26.9126 56.5307C27.2363 56.396 27.5127 56.1682 27.7067 55.8762C27.9008 55.5843 28.0038 55.2412 28.0026 54.8907V52.8907L11.8926 52.8806Z" fill="#D9E1E4"/>
<path d="M19.9219 62.3306C18.3384 62.3322 16.7661 62.065 15.2719 61.5406C15.1533 61.4916 15.0581 61.3989 15.006 61.2816C14.9539 61.1643 14.9488 61.0315 14.9919 60.9106C15.0408 60.7922 15.1341 60.6976 15.2519 60.6471C15.3696 60.5967 15.5025 60.5943 15.6219 60.6406C18.2773 61.5642 21.1666 61.5642 23.8219 60.6406C23.881 60.6163 23.9442 60.6041 24.0081 60.6045C24.0719 60.605 24.135 60.6182 24.1936 60.6433C24.2523 60.6685 24.3054 60.7051 24.3497 60.751C24.3941 60.7969 24.4288 60.8511 24.4519 60.9106C24.4988 61.0288 24.4979 61.1607 24.4494 61.2782C24.4009 61.3958 24.3086 61.4899 24.1919 61.5406C22.8325 62.0756 21.3828 62.3438 19.9219 62.3306Z" fill="#94B5BF"/>
<path d="M20.0831 55.6807C17.3067 55.6902 14.5484 55.2339 11.9231 54.3307C11.8037 54.2843 11.7077 54.1923 11.6561 54.0751C11.6046 53.9579 11.6017 53.825 11.6481 53.7057C11.6945 53.5863 11.7864 53.4903 11.9036 53.4387C12.0208 53.3872 12.1537 53.3843 12.2731 53.4307C12.3531 53.4307 20.0331 56.3507 27.1731 53.4307C27.2322 53.4077 27.2952 53.3966 27.3586 53.398C27.422 53.3993 27.4845 53.4132 27.5425 53.4387C27.6006 53.4643 27.653 53.501 27.6969 53.5468C27.7407 53.5926 27.7751 53.6466 27.7981 53.7057C27.8211 53.7648 27.8322 53.8278 27.8308 53.8912C27.8294 53.9546 27.8156 54.0171 27.79 54.0751C27.7645 54.1332 27.7278 54.1856 27.682 54.2294C27.6362 54.2733 27.5822 54.3077 27.5231 54.3307C25.1534 55.2564 22.6269 55.7148 20.0831 55.6807Z" fill="#94B5BF"/>
<path d="M25.8815 56.7906V57.1207V57.0107V58.0906L25.6915 58.1607C23.732 58.8802 21.6682 59.2754 19.5815 59.3307C17.5346 59.2879 15.5082 58.9129 13.5815 58.2206V57.0107L13.5215 56.8606C15.4454 57.5659 17.4728 57.9478 19.5215 57.9907L25.8815 56.7906Z" fill="#94B5BF"/>
<path d="M29.1906 51.6606V47.7906C29.1906 47.7906 28.7306 40.6206 32.0606 35.2606C35.3906 29.9006 38.4106 26.6606 38.4106 19.0506C38.4106 11.4406 31.8506 0.870667 19.7406 0.870667C7.63055 0.870667 1.06055 11.4406 1.06055 19.0506C1.06055 26.6606 4.06054 29.9106 7.42054 35.2606C9.39784 38.3725 10.3975 42.0053 10.2905 45.6906V51.6906C10.2876 51.8619 10.3342 52.0304 10.4247 52.1758C10.5151 52.3213 10.6457 52.4375 10.8006 52.5106C13.6134 53.7608 16.6574 54.4068 19.7356 54.4068C22.8137 54.4068 25.8577 53.7608 28.6706 52.5106C28.8321 52.437 28.968 52.3167 29.0607 52.1652C29.1533 52.0138 29.1986 51.838 29.1906 51.6606Z" fill="#FBE481"/>
<path opacity="0.5" d="M31.7332 35.5007C29.7559 38.6125 28.7563 42.2454 28.8632 45.9307V51.9307C28.8628 52.1025 28.8137 52.2707 28.7217 52.4158C28.6297 52.561 28.4985 52.677 28.3432 52.7507C26.269 53.692 24.0579 54.2962 21.7932 54.5407C21.7932 53.8307 21.7332 52.9607 21.6832 51.9307V45.9307C21.5612 42.2477 22.5508 38.6133 24.5232 35.5007C27.8532 30.1507 30.8732 26.9107 30.8732 19.2907C30.8732 12.4707 25.6032 3.29072 15.7832 1.45072C16.9762 1.22149 18.1884 1.10764 19.4032 1.11072C31.5232 1.11072 38.0832 11.6807 38.0832 19.3307C38.0832 26.9807 35.0532 30.1507 31.7332 35.5007Z" fill="#F8A547"/>
<path d="M31.5715 35.3305C30.0849 37.8236 29.3134 40.6779 29.3415 43.5805C29.3415 45.1205 29.3415 46.0205 29.3415 46.0205L28.6715 51.7305C28.6711 51.9023 28.622 52.0705 28.53 52.2157C28.438 52.3608 28.3068 52.4769 28.1515 52.5505C26.0865 53.4864 23.8856 54.0873 21.6315 54.3305C21.6315 54.2605 21.6315 54.2105 21.6315 54.1405C23.4184 53.9824 25.1749 53.5786 26.8515 52.9405C27.1715 52.7905 27.3515 53.0305 27.3515 52.6805V45.7505C27.2436 42.0696 28.2396 38.4406 30.2115 35.3305C33.5415 29.9805 36.5815 26.7405 36.5815 19.1205C36.5815 11.5005 30.2215 1.33053 18.5215 0.950529C18.7715 0.950529 19.0315 0.950529 19.2815 0.950529C31.3615 0.930529 37.9315 11.5005 37.9315 19.1105C37.9315 26.7205 34.9015 29.9705 31.5715 35.3305Z" fill="#FCA100"/>
<path d="M7.42054 35.3305C9.39591 38.4395 10.3955 42.0685 10.2905 45.7505V51.7505C10.2919 51.9234 10.3424 52.0924 10.4363 52.2376C10.5301 52.3828 10.6634 52.4983 10.8206 52.5705C12.8926 53.5025 15.1006 54.0967 17.3606 54.3305C17.3606 54.2605 17.3606 54.2105 17.3606 54.1405C15.5648 53.8363 13.8167 53.2984 12.1606 52.5405C11.8306 52.3905 11.6406 53.0305 11.6406 52.6805L12.5206 48.8605C13.4619 44.6177 12.8703 40.1786 10.8506 36.3305C10.6706 36.0005 10.4705 35.6705 10.2605 35.3305C6.94055 29.9705 3.90054 26.7305 3.90054 19.1105C3.90054 11.4905 8.77054 1.33051 20.5206 0.950512C20.2806 0.950512 20.0206 0.950512 19.7606 0.950512C16.9738 0.909584 14.2147 1.50854 11.6957 2.70129C9.1767 3.89404 6.96493 5.64879 5.23055 7.83051C2.63579 11.0284 1.16986 14.9938 1.06055 19.1105C1.06055 26.7305 4.09054 29.9705 7.42054 35.3305Z" fill="white"/>
<path d="M5.34148 32.5805C5.2499 32.5813 5.15963 32.5587 5.07916 32.515C4.99869 32.4712 4.93066 32.4078 4.88148 32.3305C2.41148 28.5205 0.521484 25.1205 0.521484 19.0505C0.590268 15.9541 1.43618 12.9246 2.98148 10.2405C3.01687 10.1774 3.06436 10.1219 3.12123 10.0772C3.1781 10.0325 3.24324 9.99941 3.31291 9.97991C3.38258 9.9604 3.45541 9.95483 3.52724 9.96351C3.59906 9.9722 3.66847 9.99497 3.73148 10.0305C3.7934 10.0658 3.84773 10.113 3.89134 10.1693C3.93494 10.2257 3.96697 10.2901 3.98556 10.3589C4.00415 10.4276 4.00894 10.4994 3.99966 10.5701C3.99038 10.6407 3.96721 10.7088 3.93148 10.7705C2.47681 13.2926 1.67906 16.1397 1.61148 19.0505C1.61148 24.8305 3.34148 27.9605 5.79148 31.7405C5.83188 31.7997 5.85984 31.8665 5.87368 31.9369C5.88751 32.0072 5.88694 32.0796 5.87198 32.1497C5.85702 32.2198 5.828 32.2862 5.78666 32.3448C5.74532 32.4033 5.69253 32.4529 5.63148 32.4905C5.54592 32.5487 5.44495 32.58 5.34148 32.5805Z" fill="#3E3126"/>
<path d="M29.2428 44.0706C29.1004 44.0554 28.9695 43.9853 28.878 43.8751C28.7865 43.7649 28.7416 43.6234 28.7528 43.4806C28.834 42.6734 28.9643 41.8719 29.1428 41.0806C29.6291 38.917 30.4777 36.8512 31.6528 34.9706C32.1628 34.1506 32.6528 33.3706 33.1628 32.6206C35.8228 28.5506 37.9228 25.3306 37.9228 19.0506C37.9228 11.6606 31.6228 1.42062 19.7928 1.42062C15.3715 1.35381 11.0884 2.9613 7.80281 5.92062C7.75203 5.98028 7.68909 6.02841 7.6182 6.06177C7.54731 6.09513 7.47012 6.11296 7.39178 6.11407C7.31344 6.11518 7.23577 6.09954 7.16396 6.0682C7.09216 6.03686 7.02788 5.99054 6.97543 5.93234C6.92298 5.87414 6.88357 5.80541 6.85983 5.73074C6.8361 5.65608 6.82859 5.5772 6.83781 5.4994C6.84703 5.4216 6.87277 5.34666 6.9133 5.27961C6.95383 5.21257 7.00821 5.15495 7.07281 5.11062C10.5466 1.98359 15.0693 0.277309 19.7428 0.330619C32.2828 0.330619 38.9628 11.2006 38.9628 19.0506C38.9628 25.6606 36.6728 29.1606 34.0228 33.2106C33.5428 33.9606 33.0228 34.7306 32.5228 35.5506C31.416 37.3316 30.615 39.2852 30.1528 41.3306C29.9842 42.0754 29.8639 42.8303 29.7928 43.5906C29.7757 43.724 29.7103 43.8465 29.6089 43.935C29.5076 44.0234 29.3773 44.0717 29.2428 44.0706Z" fill="#3E3126"/>
<path d="M19.8503 54.9405C16.6546 54.9274 13.4971 54.2461 10.5803 52.9405C10.3287 52.8266 10.1155 52.6422 9.96645 52.4098C9.81739 52.1773 9.73882 51.9066 9.74025 51.6305V47.1305C9.75815 46.9987 9.82323 46.8778 9.92345 46.7902C10.0237 46.7027 10.1522 46.6545 10.2853 46.6545C10.4183 46.6545 10.5469 46.7027 10.6471 46.7902C10.7473 46.8778 10.8124 46.9987 10.8303 47.1305V51.6305C10.8307 51.6971 10.8497 51.7623 10.885 51.8188C10.9203 51.8753 10.9706 51.9209 11.0303 51.9505C13.7699 53.1717 16.7358 53.8029 19.7353 53.8029C22.7348 53.8029 25.7007 53.1717 28.4403 51.9505C28.5026 51.9233 28.5556 51.8786 28.5929 51.8217C28.6302 51.7649 28.6501 51.6985 28.6503 51.6305V45.0205C28.6502 44.8763 28.7068 44.7379 28.8078 44.6351C28.9088 44.5322 29.0461 44.4731 29.1903 44.4705C29.3361 44.4705 29.476 44.5284 29.5792 44.6316C29.6823 44.7347 29.7403 44.8746 29.7403 45.0205V51.6605C29.7378 51.9384 29.6567 52.2098 29.5062 52.4435C29.3558 52.6771 29.1422 52.8633 28.8903 52.9805C26.0523 54.2745 22.9693 54.9429 19.8503 54.9405Z" fill="#3E3126"/>
<path d="M9.98289 42.3305C9.85714 42.3304 9.73538 42.2863 9.63862 42.206C9.54187 42.1257 9.47618 42.0141 9.45289 41.8905C9.1548 40.3563 8.66775 38.865 8.00289 37.4505C7.97251 37.3862 7.95515 37.3165 7.95178 37.2455C7.94842 37.1744 7.95911 37.1034 7.98327 37.0365C8.00743 36.9696 8.04458 36.9081 8.09256 36.8556C8.14055 36.8031 8.19843 36.7606 8.26289 36.7305C8.39426 36.6688 8.54471 36.6614 8.68146 36.7101C8.8182 36.7588 8.93015 36.8596 8.99289 36.9905C9.6979 38.4904 10.2119 40.0727 10.5229 41.7005C10.5495 41.8423 10.5192 41.9888 10.4388 42.1085C10.3584 42.2282 10.2342 42.3115 10.0929 42.3405L9.98289 42.3305Z" fill="#3E3126"/>
<path d="M32.0485 26.4352C32.4864 25.2487 32.1568 24.0342 31.3123 23.7224C30.4678 23.4107 29.4281 24.1198 28.9902 25.3063C28.5522 26.4928 28.8818 27.7073 29.7263 28.0191C30.5709 28.3308 31.6105 27.6217 32.0485 26.4352Z" fill="#FFB320"/>
<path d="M32.3613 22.4805C32.9136 22.4805 33.3613 22.0328 33.3613 21.4805C33.3613 20.9282 32.9136 20.4805 32.3613 20.4805C31.8091 20.4805 31.3613 20.9282 31.3613 21.4805C31.3613 22.0328 31.8091 22.4805 32.3613 22.4805Z" fill="#FFB320"/>
<path opacity="0.75" d="M29.7027 22.6206C29.9237 22.6206 30.1027 22.4415 30.1027 22.2206C30.1027 21.9997 29.9237 21.8206 29.7027 21.8206C29.4818 21.8206 29.3027 21.9997 29.3027 22.2206C29.3027 22.4415 29.4818 22.6206 29.7027 22.6206Z" fill="#FFB320"/>
<path d="M28.0604 28.0605C28.4249 28.0605 28.7204 27.765 28.7204 27.4005C28.7204 27.036 28.4249 26.7405 28.0604 26.7405C27.6959 26.7405 27.4004 27.036 27.4004 27.4005C27.4004 27.765 27.6959 28.0605 28.0604 28.0605Z" fill="#FFB320"/>
<path opacity="0.35" d="M31.4607 19.1607C31.8694 19.1607 32.2007 18.8294 32.2007 18.4207C32.2007 18.012 31.8694 17.6807 31.4607 17.6807C31.052 17.6807 30.7207 18.012 30.7207 18.4207C30.7207 18.8294 31.052 19.1607 31.4607 19.1607Z" fill="#FFB320"/>
<path opacity="0.35" d="M29.0616 20.5005C29.4095 20.5005 29.6916 20.2185 29.6916 19.8705C29.6916 19.5226 29.4095 19.2405 29.0616 19.2405C28.7136 19.2405 28.4316 19.5226 28.4316 19.8705C28.4316 20.2185 28.7136 20.5005 29.0616 20.5005Z" fill="#FFB320"/>
<path opacity="0.35" d="M27.5124 24.2605C27.8051 24.2605 28.0424 24.0232 28.0424 23.7305C28.0424 23.4378 27.8051 23.2005 27.5124 23.2005C27.2197 23.2005 26.9824 23.4378 26.9824 23.7305C26.9824 24.0232 27.2197 24.2605 27.5124 24.2605Z" fill="#FFB320"/>
<path opacity="0.75" d="M25.8434 13.4607C26.0643 13.4607 26.2434 13.2816 26.2434 13.0607C26.2434 12.8398 26.0643 12.6607 25.8434 12.6607C25.6225 12.6607 25.4434 12.8398 25.4434 13.0607C25.4434 13.2816 25.6225 13.4607 25.8434 13.4607Z" fill="#E2AB63"/>
<path opacity="0.35" d="M24.0818 10.0006C24.4905 10.0006 24.8218 9.66926 24.8218 9.26057C24.8218 8.85188 24.4905 8.52057 24.0818 8.52057C23.6731 8.52057 23.3418 8.85188 23.3418 9.26057C23.3418 9.66926 23.6731 10.0006 24.0818 10.0006Z" fill="#E2AB63"/>
<path opacity="0.35" d="M23.632 12.6707C23.9799 12.6707 24.262 12.3886 24.262 12.0407C24.262 11.6927 23.9799 11.4107 23.632 11.4107C23.284 11.4107 23.002 11.6927 23.002 12.0407C23.002 12.3886 23.284 12.6707 23.632 12.6707Z" fill="#E2AB63"/>
<path opacity="0.35" d="M25.5827 16.2407C25.8755 16.2407 26.1127 16.0034 26.1127 15.7107C26.1127 15.418 25.8755 15.1807 25.5827 15.1807C25.29 15.1807 25.0527 15.418 25.0527 15.7107C25.0527 16.0034 25.29 16.2407 25.5827 16.2407Z" fill="#E2AB63"/>
<path d="M21.013 54.2705C20.957 54.2705 20.9015 54.2593 20.8499 54.2376C20.7983 54.2159 20.7515 54.184 20.7124 54.144C20.6733 54.1039 20.6425 54.0564 20.622 54.0043C20.6015 53.9522 20.5916 53.8965 20.593 53.8405V38.5605H18.453V53.6705C18.4373 53.772 18.3859 53.8646 18.3079 53.9315C18.23 53.9983 18.1307 54.0351 18.028 54.0351C17.9252 54.0351 17.8259 53.9983 17.748 53.9315C17.67 53.8646 17.6186 53.772 17.603 53.6705V38.5605H15.523C14.7538 38.5605 14.0162 38.255 13.4724 37.7111C12.9285 37.1672 12.623 36.4296 12.623 35.6605V35.1205C12.623 34.3514 12.9285 33.6137 13.4724 33.0699C14.0162 32.526 14.7538 32.2205 15.523 32.2205C16.2921 32.2205 17.0297 32.526 17.5736 33.0699C18.1174 33.6137 18.423 34.3514 18.423 35.1205V37.7105H20.563V35.1205C20.6065 34.3795 20.9315 33.6831 21.4715 33.1739C22.0115 32.6647 22.7257 32.381 23.468 32.381C24.2102 32.381 24.9244 32.6647 25.4644 33.1739C26.0045 33.6831 26.3295 34.3795 26.373 35.1205V35.6605C26.3705 36.4203 26.071 37.1489 25.5385 37.6908C25.0059 38.2327 24.2826 38.5448 23.523 38.5605H21.523V53.8405C21.5241 53.9044 21.5109 53.9677 21.4845 54.0259C21.4581 54.084 21.419 54.1356 21.3702 54.1768C21.3214 54.2179 21.264 54.2477 21.2022 54.2639C21.1404 54.2801 21.0757 54.2824 21.013 54.2705ZM21.443 37.7105H23.443C23.7143 37.7131 23.9835 37.6621 24.2351 37.5604C24.4867 37.4587 24.7157 37.3083 24.909 37.1178C25.1023 36.9273 25.256 36.7005 25.3614 36.4504C25.4667 36.2003 25.5217 35.9319 25.523 35.6605V35.1205C25.4866 34.6002 25.2544 34.1131 24.873 33.7574C24.4916 33.4017 23.9895 33.2039 23.468 33.2039C22.9464 33.2039 22.4443 33.4017 22.063 33.7574C21.6816 34.1131 21.4493 34.6002 21.413 35.1205L21.443 37.7105ZM15.523 33.0705C14.9965 33.0832 14.4952 33.298 14.1228 33.6703C13.7504 34.0427 13.5357 34.5441 13.523 35.0705V35.6105C13.5228 36.1456 13.7319 36.6596 14.1056 37.0427C14.4793 37.4257 14.988 37.6474 15.523 37.6605H17.523V35.1205C17.5231 34.5854 17.314 34.0714 16.9403 33.6883C16.5666 33.3053 16.0579 33.0835 15.523 33.0705Z" fill="#3E3126"/>
<path d="M30.4922 15.1493C31.9832 14.7601 32.7813 12.8721 32.2749 10.9323C31.7686 8.99253 30.1495 7.73551 28.6585 8.1247C27.1676 8.51389 26.3695 10.4019 26.8759 12.3417C27.3822 14.2815 29.0013 15.5385 30.4922 15.1493Z" fill="#FFB320"/>
<path d="M16.203 57.6107H16.103C15.0043 57.3654 13.9274 57.0309 12.883 56.6107C12.4801 56.4753 12.1407 56.1971 11.9289 55.8287C11.717 55.4602 11.6473 55.027 11.733 54.6107C11.7481 54.4842 11.8119 54.3685 11.9108 54.2882C12.0098 54.208 12.1361 54.1694 12.263 54.1807C12.3257 54.1857 12.3868 54.2032 12.4426 54.2322C12.4985 54.2612 12.5479 54.3012 12.588 54.3497C12.6281 54.3982 12.6581 54.4542 12.6761 54.5145C12.6941 54.5748 12.6999 54.6381 12.693 54.7007C12.613 55.5007 13.163 55.7007 13.193 55.7007C14.2062 56.0843 15.2455 56.3951 16.303 56.6307C16.4285 56.6594 16.5376 56.7363 16.6069 56.8448C16.6761 56.9534 16.6999 57.0848 16.673 57.2107C16.6542 57.322 16.5967 57.4231 16.5108 57.4962C16.4248 57.5694 16.3159 57.6099 16.203 57.6107Z" fill="white"/>
<path d="M16.7026 58.1705H16.6226C15.2522 57.9161 13.9117 57.5206 12.6226 56.9905C12.2249 56.8282 11.8843 56.5515 11.644 56.1955C11.4036 55.8394 11.2744 55.4201 11.2726 54.9905V52.9905C11.2632 52.9293 11.2671 52.8667 11.2841 52.8071C11.3012 52.7474 11.3309 52.6922 11.3712 52.6452C11.4116 52.5981 11.4617 52.5603 11.518 52.5344C11.5743 52.5086 11.6356 52.4952 11.6976 52.4952C11.7596 52.4952 11.8209 52.5086 11.8772 52.5344C11.9335 52.5603 11.9836 52.5981 12.0239 52.6452C12.0643 52.6922 12.094 52.7474 12.1111 52.8071C12.1281 52.8667 12.132 52.9293 12.1226 52.9905V54.9905C12.1209 55.2565 12.1979 55.517 12.3438 55.7394C12.4897 55.9618 12.698 56.1361 12.9426 56.2405C14.185 56.7253 15.4708 57.0903 16.7826 57.3305C16.8372 57.3402 16.8893 57.3605 16.936 57.3904C16.9827 57.4203 17.0231 57.4592 17.0547 57.5047C17.0863 57.5503 17.1086 57.6016 17.1202 57.6558C17.1319 57.71 17.1327 57.766 17.1226 57.8205C17.104 57.9185 17.052 58.007 16.9754 58.0709C16.8988 58.1347 16.8023 58.17 16.7026 58.1705Z" fill="#3E3126"/>
<path d="M19.5228 58.4805C19.4213 58.4649 19.3287 58.4134 19.2619 58.3355C19.195 58.2575 19.1582 58.1582 19.1582 58.0555C19.1582 57.9528 19.195 57.8535 19.2619 57.7755C19.3287 57.6976 19.4213 57.6461 19.5228 57.6305C21.9252 57.5974 24.2999 57.1123 26.5228 56.2005C26.7693 56.0976 26.9797 55.9239 27.1275 55.7014C27.2752 55.4789 27.3537 55.2176 27.3528 54.9505V52.9505C27.3434 52.8892 27.3473 52.8266 27.3644 52.767C27.3814 52.7074 27.4111 52.6522 27.4515 52.6051C27.4918 52.5581 27.5419 52.5203 27.5982 52.4944C27.6546 52.4685 27.7158 52.4551 27.7778 52.4551C27.8398 52.4551 27.9011 52.4685 27.9574 52.4944C28.0138 52.5203 28.0638 52.5581 28.1042 52.6051C28.1446 52.6522 28.1743 52.7074 28.1913 52.767C28.2083 52.8266 28.2123 52.8892 28.2028 52.9505V54.9505C28.2002 55.3812 28.0695 55.8014 27.8273 56.1575C27.5851 56.5137 27.2424 56.7897 26.8428 56.9505C24.522 57.9201 22.0378 58.4394 19.5228 58.4805Z" fill="#3E3126"/>
<path d="M19.8798 61.4807C17.9445 61.4528 16.0315 61.0628 14.2398 60.3307C13.9126 60.194 13.6335 59.9633 13.4376 59.6678C13.2418 59.3722 13.1381 59.0252 13.1398 58.6707V57.1307C13.1304 57.0694 13.1343 57.0068 13.1513 56.9472C13.1683 56.8876 13.1981 56.8324 13.2384 56.7853C13.2788 56.7382 13.3289 56.7005 13.3852 56.6746C13.4415 56.6487 13.5028 56.6353 13.5648 56.6353C13.6268 56.6353 13.688 56.6487 13.7444 56.6746C13.8007 56.7005 13.8508 56.7382 13.8911 56.7853C13.9315 56.8324 13.9612 56.8876 13.9782 56.9472C13.9953 57.0068 13.9992 57.0694 13.9898 57.1307V58.6707C13.9873 58.856 14.0402 59.0378 14.1418 59.1928C14.2433 59.3478 14.3889 59.469 14.5598 59.5407C16.2488 60.2353 18.0537 60.6051 19.8798 60.6307C19.9411 60.6212 20.0036 60.6252 20.0633 60.6422C20.1229 60.6592 20.1781 60.6889 20.2252 60.7293C20.2722 60.7697 20.31 60.8198 20.3359 60.8761C20.3618 60.9324 20.3752 60.9937 20.3752 61.0557C20.3752 61.1177 20.3618 61.1789 20.3359 61.2353C20.31 61.2916 20.2722 61.3417 20.2252 61.382C20.1781 61.4224 20.1229 61.4521 20.0633 61.4691C20.0036 61.4862 19.9411 61.4901 19.8798 61.4807Z" fill="#3E3126"/>
<path d="M19.6028 61.4807C19.5415 61.4901 19.479 61.4862 19.4193 61.4691C19.3597 61.4521 19.3045 61.4224 19.2575 61.382C19.2104 61.3417 19.1726 61.2916 19.1467 61.2353C19.1208 61.1789 19.1074 61.1177 19.1074 61.0557C19.1074 60.9937 19.1208 60.9324 19.1467 60.8761C19.1726 60.8198 19.2104 60.7697 19.2575 60.7293C19.3045 60.6889 19.3597 60.6592 19.4193 60.6422C19.479 60.6252 19.5415 60.6212 19.6028 60.6307C21.4257 60.6056 23.2274 60.2357 24.9128 59.5407C25.0845 59.4701 25.2308 59.3492 25.3326 59.194C25.4343 59.0387 25.4867 58.8563 25.4828 58.6707V57.1307C25.4734 57.0694 25.4773 57.0068 25.4944 56.9472C25.5114 56.8876 25.5411 56.8324 25.5815 56.7853C25.6218 56.7382 25.6719 56.7005 25.7282 56.6746C25.7846 56.6487 25.8458 56.6353 25.9078 56.6353C25.9698 56.6353 26.0311 56.6487 26.0874 56.6746C26.1437 56.7005 26.1938 56.7382 26.2342 56.7853C26.2745 56.8324 26.3043 56.8876 26.3213 56.9472C26.3383 57.0068 26.3422 57.0694 26.3328 57.1307V58.6707C26.334 59.0238 26.2313 59.3694 26.0375 59.6646C25.8436 59.9598 25.5673 60.1914 25.2428 60.3307C23.4511 61.0628 21.5381 61.4528 19.6028 61.4807Z" fill="#3E3126"/>
<path d="M19.7427 65.7905C18.3345 65.7905 16.9838 65.2311 15.988 64.2353C14.9922 63.2394 14.4327 61.8888 14.4327 60.4805C14.4233 60.4192 14.4273 60.3567 14.4443 60.297C14.4613 60.2374 14.491 60.1822 14.5314 60.1352C14.5718 60.0881 14.6218 60.0503 14.6782 60.0244C14.7345 59.9985 14.7958 59.9851 14.8578 59.9851C14.9197 59.9851 14.981 59.9985 15.0373 60.0244C15.0937 60.0503 15.1437 60.0881 15.1841 60.1352C15.2245 60.1822 15.2542 60.2374 15.2712 60.297C15.2882 60.3567 15.2922 60.4192 15.2828 60.4805C15.2828 61.6634 15.7526 62.7978 16.5891 63.6342C17.4255 64.4706 18.5599 64.9405 19.7427 64.9405C20.9256 64.9405 22.06 64.4706 22.8964 63.6342C23.7329 62.7978 24.2028 61.6634 24.2028 60.4805C24.1933 60.4192 24.1973 60.3567 24.2143 60.297C24.2313 60.2374 24.261 60.1822 24.3014 60.1352C24.3418 60.0881 24.3918 60.0503 24.4482 60.0244C24.5045 59.9985 24.5658 59.9851 24.6277 59.9851C24.6897 59.9851 24.751 59.9985 24.8073 60.0244C24.8637 60.0503 24.9137 60.0881 24.9541 60.1352C24.9945 60.1822 25.0242 60.2374 25.0412 60.297C25.0582 60.3567 25.0622 60.4192 25.0528 60.4805C25.0528 61.1778 24.9154 61.8683 24.6486 62.5126C24.3817 63.1568 23.9906 63.7422 23.4975 64.2353C23.0044 64.7283 22.419 65.1195 21.7748 65.3863C21.1306 65.6532 20.4401 65.7905 19.7427 65.7905Z" fill="#3E3126"/>
<path d="M7.67227 36.2105C8.00364 36.2105 8.27227 35.9419 8.27227 35.6105C8.27227 35.2792 8.00364 35.0105 7.67227 35.0105C7.3409 35.0105 7.07227 35.2792 7.07227 35.6105C7.07227 35.9419 7.3409 36.2105 7.67227 36.2105Z" fill="#3E3126"/>
<path d="M10.2934 44.5206C10.6247 44.5206 10.8934 44.252 10.8934 43.9206C10.8934 43.5892 10.6247 43.3206 10.2934 43.3206C9.96198 43.3206 9.69336 43.5892 9.69336 43.9206C9.69336 44.252 9.96198 44.5206 10.2934 44.5206Z" fill="#3E3126"/>
<path d="M4.51992 9.69054C4.85129 9.69054 5.11992 9.42191 5.11992 9.09054C5.11992 8.75917 4.85129 8.49054 4.51992 8.49054C4.18855 8.49054 3.91992 8.75917 3.91992 9.09054C3.91992 9.42191 4.18855 9.69054 4.51992 9.69054Z" fill="#3E3126"/>
<path d="M5.71319 24.0706H5.60319C5.56635 24.0563 5.53271 24.0348 5.5042 24.0074C5.4757 23.98 5.45289 23.9472 5.4371 23.911C5.4213 23.8747 5.41282 23.8357 5.41215 23.7962C5.41148 23.7566 5.41863 23.7174 5.43319 23.6806L7.07319 19.7806C7.08894 19.7438 7.11179 19.7105 7.14042 19.6826C7.16905 19.6547 7.2029 19.6326 7.24005 19.6178C7.27719 19.6029 7.3169 19.5955 7.3569 19.596C7.3969 19.5965 7.43642 19.6049 7.47319 19.6206C7.50996 19.6364 7.54326 19.6592 7.5712 19.6878C7.59914 19.7165 7.62117 19.7503 7.63603 19.7875C7.65089 19.8246 7.65828 19.8643 7.65779 19.9043C7.65731 19.9443 7.64894 19.9838 7.63319 20.0206L5.99319 23.8806C5.97105 23.9368 5.93248 23.985 5.88253 24.0189C5.83257 24.0528 5.77356 24.0708 5.71319 24.0706Z" fill="#3E3126"/>
<path d="M7.90069 22.1906H7.79069C7.75385 22.1763 7.72021 22.1548 7.6917 22.1274C7.6632 22.1 7.64039 22.0672 7.6246 22.031C7.6088 21.9947 7.60032 21.9557 7.59965 21.9162C7.59898 21.8767 7.60613 21.8374 7.62069 21.8006L8.52069 19.6806C8.53488 19.6438 8.55643 19.6103 8.58404 19.5821C8.61164 19.5539 8.64471 19.5316 8.68122 19.5166C8.71773 19.5016 8.75691 19.4943 8.79637 19.495C8.83582 19.4956 8.87472 19.5044 8.91069 19.5206C8.94751 19.5348 8.98105 19.5564 9.00925 19.584C9.03745 19.6116 9.05973 19.6446 9.0747 19.6812C9.08968 19.7177 9.09705 19.7568 9.09636 19.7963C9.09567 19.8358 9.08693 19.8747 9.07069 19.9106L8.19069 22.0006C8.16796 22.0584 8.12785 22.1077 8.07591 22.1418C8.02397 22.1758 7.96274 22.1929 7.90069 22.1906Z" fill="#3E3126"/>
<path d="M10.2313 15.8789C11.2206 14.4613 11.2442 12.769 10.2841 12.0989C9.3239 11.4288 7.74357 12.0348 6.75428 13.4524C5.76499 14.87 5.74137 16.5624 6.70153 17.2324C7.66168 17.9025 9.24201 17.2965 10.2313 15.8789Z" fill="#FFEFAE"/>
<path d="M14.4029 11.9164C14.8959 11.2099 14.9065 10.3656 14.4264 10.0305C13.9463 9.69552 13.1574 9.99668 12.6644 10.7032C12.1713 11.4097 12.1608 12.2541 12.6409 12.5891C13.1209 12.9241 13.9098 12.623 14.4029 11.9164Z" fill="#FFEFAE"/>
</svg>
