<svg width="459" height="298" viewBox="0 0 459 298" fill="none" xmlns="http://www.w3.org/2000/svg">
<path opacity="0.23" d="M242.788 120.124V104.151H206.981V88.208H234.291V72.2352H123.621V88.208H147.719V104.181H96.6675V120.154H118.552V136.126H66.9294V152.099H138.936V168.072H105.164V184.045H155.144V200.018H121.836V215.99H224.973V200.018H202.625V184.045H280.88V168.072H241.717V152.099H258.032V136.126H226.58V120.154H242.788V120.124ZM186.239 136.067H158.893V120.094H186.239V136.067Z" fill="#A9DBED"/>
<path opacity="0.23" d="M102.379 72.0862H82.6016V88.059H102.379V72.0862Z" fill="#A9DBED"/>
<path opacity="0.23" d="M288.376 104.151H268.599V120.124H288.376V104.151Z" fill="#A9DBED"/>
<path d="M162.106 223.887H124.978V231.039H162.106V223.887Z" fill="#26A8A1"/>
<path d="M113.768 223.887H96.4177V231.039H113.768V223.887Z" fill="#26A8A1"/>
<path d="M202.589 223.887H177.564V231.039H202.589V223.887Z" fill="#26A8A1"/>
<path d="M233.363 223.887H218.976V231.039H233.363V223.887Z" fill="#26A8A1"/>
<path d="M251.927 245.343H237.54V252.495H251.927V245.343Z" fill="#26A8A1"/>
<path d="M134.729 245.363H188.743V238.211H134.729V245.363Z" fill="#26A8A1"/>
<path d="M209.943 245.363H228.079V238.211H209.943V245.363Z" fill="#26A8A1"/>
<path d="M172.658 252.515H217.818V245.363H172.658V252.515Z" fill="#26A8A1"/>
<path d="M152.865 259.667H194.17V252.515H152.865V259.667Z" fill="#26A8A1"/>
<path d="M204.696 152.01H171.602V167.983H204.696V152.01Z" fill="#30B5B2"/>
<path d="M182.597 88.2676H135.188V104.24H182.597V88.2676Z" fill="#30B5B2"/>
<path d="M235.898 120.124H141.864V136.097H235.898V120.124Z" fill="#30B5B2"/>
<path d="M222.403 167.983H170.352V183.955H222.403V167.983Z" fill="#30B5B2"/>
<path d="M187.81 231.039H152.859V238.191H187.81V231.039Z" fill="#26A8A1"/>
<path d="M178.313 223.202H169.103V234.675H178.313V223.202Z" fill="#FBC3AA"/>
<path d="M187.988 240.188H161.035C161.035 235.152 165.926 231.039 171.995 231.039H187.988V240.188Z" fill="#DD3142"/>
<path d="M179.135 240.188C179.135 234.109 185.061 229.162 192.344 229.162C199.626 229.162 205.553 234.109 205.553 240.188H179.135Z" fill="#DD3142"/>
<path d="M205.553 241.767H161.035C160.499 241.767 160.071 241.41 160.071 240.963C160.071 240.516 160.499 240.158 161.035 240.158H205.553C206.088 240.158 206.517 240.516 206.517 240.963C206.517 241.41 206.088 241.767 205.553 241.767Z" fill="#212D47"/>
<path d="M193.058 231.874C194.694 231.874 196.021 231.5 196.021 231.039C196.021 230.579 194.694 230.205 193.058 230.205C191.421 230.205 190.094 230.579 190.094 231.039C190.094 231.5 191.421 231.874 193.058 231.874Z" fill="white"/>
<path d="M175.636 231.844C175.636 231.695 175.672 231.546 175.743 231.397C176.029 230.92 176.671 230.741 177.242 230.98" stroke="#D32A3B" stroke-width="3" stroke-miterlimit="10" stroke-linecap="round" stroke-linejoin="round"/>
<path d="M177.707 231.844C177.707 231.695 177.742 231.546 177.814 231.397C178.099 230.92 178.742 230.741 179.313 230.98" stroke="#D32A3B" stroke-width="3" stroke-miterlimit="10" stroke-linecap="round" stroke-linejoin="round"/>
<path d="M179.67 231.844C179.67 231.695 179.706 231.546 179.777 231.397C180.063 230.92 180.705 230.741 181.276 230.98" stroke="#D32A3B" stroke-width="3" stroke-miterlimit="10" stroke-linecap="round" stroke-linejoin="round"/>
<path d="M227.972 115.922H223.081C221.296 115.922 219.868 114.73 219.868 113.24V89.9364C219.868 88.4464 221.296 87.2544 223.081 87.2544H227.972C229.757 87.2544 231.185 88.4464 231.185 89.9364V113.24C231.185 114.7 229.757 115.922 227.972 115.922Z" fill="#BCBCBC"/>
<path d="M231.078 115.922H226.187C224.402 115.922 222.974 114.73 222.974 113.24V89.9364C222.974 88.4464 224.402 87.2544 226.187 87.2544H231.078C232.863 87.2544 234.291 88.4464 234.291 89.9364V113.24C234.291 114.7 232.863 115.922 231.078 115.922Z" fill="#F7F7F7"/>
<path d="M217.262 121.435V134.189C217.262 139.911 211.836 144.739 204.981 144.888C197.913 145.037 192.094 140.269 192.094 134.398V116.995C192.094 113.776 188.988 111.184 185.132 111.184C181.277 111.184 178.171 113.776 178.171 116.995V134.398C178.171 146.616 190.023 156.51 204.66 156.51C219.297 156.51 231.149 146.616 231.149 134.398V121.435H217.262Z" fill="#DD3142"/>
<path d="M217.262 121.435V134.189C217.262 139.911 211.836 144.739 204.981 144.888C197.913 145.037 192.094 140.269 192.094 134.398V116.995C192.094 113.776 188.988 111.184 185.132 111.184C181.277 111.184 178.171 113.776 178.171 116.995V134.398C178.171 146.616 190.023 156.51 204.66 156.51C219.297 156.51 231.149 146.616 231.149 134.398V121.435H217.262Z" fill="#DD3142"/>
<path d="M185.132 114.164C186.988 114.164 188.524 115.445 188.524 116.995V134.398C188.524 138.004 190.201 141.371 193.272 143.934C196.342 146.497 200.376 147.897 204.696 147.897C204.838 147.897 204.946 147.897 205.088 147.897C213.763 147.719 220.868 141.58 220.868 134.219V124.445L223.474 121.465H217.298V134.219C217.298 139.941 211.871 144.768 205.017 144.917C197.948 145.066 192.129 140.298 192.129 134.428V117.025C192.129 113.806 189.023 111.214 185.168 111.214C184.168 111.214 183.204 111.392 182.312 111.72C183.704 113.18 184.739 114.164 185.132 114.164Z" fill="#D82B45"/>
<path d="M182.597 164.228H163.641V226.689H182.597V164.228Z" fill="#212D47"/>
<path d="M182.597 223.202H163.641V226.689H182.597V223.202Z" fill="#2D3854"/>
<path d="M170.21 164.228H151.253V226.689H170.21V164.228Z" fill="#2D3854"/>
<path d="M165.318 223.202H156.108V234.675H165.318V223.202Z" fill="#FBC3AA"/>
<path d="M170.21 223.202H151.253V226.689H170.21V223.202Z" fill="#394663"/>
<path d="M181.348 173.883H150.931C147.29 173.883 144.327 171.41 144.327 168.37V163.602H187.952V168.37C187.952 171.41 184.989 173.883 181.348 173.883Z" fill="#2D3854"/>
<path d="M156.679 159.996H127.227C120.158 159.996 114.91 152.606 116.445 144.798L120.337 124.862C121.907 116.876 128.155 111.154 135.402 111.154H147.183L156.679 159.996Z" fill="#22314C"/>
<path d="M132.617 154.066C127.405 154.066 123.3 150.371 123.657 146.05L124.299 138.689H140.935L141.578 146.05C141.935 150.371 137.83 154.066 132.617 154.066Z" fill="#2D3854"/>
<path d="M187.952 157.165H144.327V165.42H187.952V157.165Z" fill="#DD3142"/>
<path d="M186.917 162.589H143.542C142.97 162.589 142.506 162.201 142.506 161.725V118.872C142.506 114.611 146.648 111.184 151.717 111.184H181.669C185.132 111.184 187.917 113.538 187.917 116.399V161.725C187.952 162.201 187.488 162.589 186.917 162.589Z" fill="#E53E46"/>
<path d="M171.423 119.26H163.569C161.749 119.26 160.285 118.038 160.285 116.518V111.214H176.85V114.73C176.85 117.233 174.422 119.26 171.423 119.26Z" fill="#DD3142"/>
<path d="M176.136 106.148L167.925 106.922L168.139 111.214H176.136C182.633 111.214 187.917 115.624 187.917 121.048V157.94C191.273 157.94 193.986 155.675 193.986 152.874V121.048C193.986 112.823 186.025 106.148 176.136 106.148Z" fill="#2D3854"/>
<path d="M190.666 120.213C190.666 113.925 184.561 108.83 177.028 108.83H170.888V106.148H168.139V111.214H176.136C182.633 111.214 187.917 115.624 187.917 121.048V157.94C188.916 157.94 189.845 157.731 190.666 157.404V120.213Z" fill="#25314C"/>
<path d="M170.888 116.697H164.105C162.034 116.697 160.356 115.296 160.356 113.568V97.1481H174.636V113.568C174.636 115.296 172.959 116.697 170.888 116.697Z" fill="#FBC3AA"/>
<path opacity="0.76" d="M165.176 97.8037H174.636V97.1481H160.356V113.568C160.356 115.296 162.034 116.697 164.105 116.697H165.212V97.8037H165.176Z" fill="#F2AD91"/>
<path d="M160.356 105.76C163.034 106.148 167.639 106.326 172.53 104.538C173.316 104.24 173.994 103.942 174.636 103.585V97.1481H160.356V105.76Z" fill="#ED9C80"/>
<path d="M150.289 106.684H144.505C141.507 106.684 139.115 108.71 139.115 111.184V112.406L142.328 111.392C147.433 111.392 151.61 114.283 151.61 118.544V153.261C151.61 155.854 154.109 157.94 157.215 157.94C160.321 157.94 162.82 155.854 162.82 153.261V117.084C162.748 111.333 157.179 106.684 150.289 106.684Z" fill="#2D3854"/>
<path d="M155.144 118.544V157.612C153.038 156.927 151.574 155.258 151.574 153.261V123.789C153.537 122.15 154.787 119.885 154.787 117.412C154.787 116.578 154.644 115.773 154.394 114.998C154.858 116.071 155.144 117.293 155.144 118.544Z" fill="#25314C"/>
<path d="M224.009 126.561C229.53 126.561 234.005 122.825 234.005 118.217C234.005 113.608 229.53 109.873 224.009 109.873C218.489 109.873 214.013 113.608 214.013 118.217C214.013 122.825 218.489 126.561 224.009 126.561Z" fill="#FBC3AA"/>
<path opacity="0.76" d="M228.222 123.789C221.939 123.789 216.834 119.528 216.834 114.283C216.834 113.538 216.941 112.823 217.119 112.137C215.192 113.657 213.978 115.833 213.978 118.217C213.978 122.836 218.44 126.561 223.974 126.561C227.222 126.561 230.079 125.279 231.935 123.283C230.793 123.61 229.543 123.789 228.222 123.789Z" fill="#F2AD91"/>
<path d="M175.029 240.188H148.075C148.075 235.152 152.966 231.039 159.035 231.039H175.029V240.188Z" fill="#DD3142"/>
<path d="M166.175 240.188C166.175 234.109 172.101 229.162 179.384 229.162C186.667 229.162 192.593 234.109 192.593 240.188H166.175Z" fill="#E53E46"/>
<path d="M192.593 241.767H148.075C147.54 241.767 147.112 241.41 147.112 240.963C147.112 240.516 147.54 240.158 148.075 240.158H192.593C193.129 240.158 193.557 240.516 193.557 240.963C193.522 241.41 193.093 241.767 192.593 241.767Z" fill="#212D47"/>
<path d="M183.311 231.874C184.948 231.874 186.275 231.5 186.275 231.039C186.275 230.579 184.948 230.205 183.311 230.205C181.675 230.205 180.348 230.579 180.348 231.039C180.348 231.5 181.675 231.874 183.311 231.874Z" fill="white"/>
<path d="M162.677 231.844C162.677 231.695 162.712 231.546 162.784 231.397C163.069 230.92 163.712 230.741 164.283 230.98" stroke="#D32A3B" stroke-width="3" stroke-miterlimit="10" stroke-linecap="round" stroke-linejoin="round"/>
<path d="M164.748 231.844C164.748 231.695 164.783 231.546 164.855 231.397C165.14 230.92 165.783 230.741 166.354 230.98" stroke="#D32A3B" stroke-width="3" stroke-miterlimit="10" stroke-linecap="round" stroke-linejoin="round"/>
<path d="M166.675 231.844C166.675 231.695 166.711 231.546 166.782 231.397C167.068 230.92 167.711 230.741 168.282 230.98" stroke="#D32A3B" stroke-width="3" stroke-miterlimit="10" stroke-linecap="round" stroke-linejoin="round"/>
<path d="M171.816 101.171C159.607 103.108 147.826 96.3732 145.541 86.1816L138.258 53.9976L192.272 45.5046L197.699 69.5234C201.054 84.2148 189.452 98.3996 171.816 101.171Z" fill="#FBC3AA"/>
<path opacity="0.76" d="M160.356 86.1816L153.074 53.9976L192.772 47.7397L192.272 45.4749L138.258 53.9679L145.541 86.1518C147.861 96.3434 159.607 103.048 171.816 101.141C172.958 100.962 174.101 100.724 175.172 100.456C167.782 98.3698 161.927 93.0654 160.356 86.1816Z" fill="#F2AD91"/>
<path d="M193.236 47.8885L191.272 38.4717L137.722 49.5871C136.045 49.9447 135.009 51.2857 135.331 52.7161L142.078 82.6353L150.931 81.2347L146.79 58.3185L193.236 47.8885Z" fill="#C65132"/>
<path d="M174.065 84.9002C170.174 84.9002 166.532 84.3042 163.462 83.2612C164.819 87.9994 169.031 91.4562 174.065 91.4562C179.099 91.4562 183.276 87.9994 184.668 83.2612C181.562 84.2744 177.956 84.9002 174.065 84.9002Z" fill="white"/>
<path d="M162.713 72.0862C162.427 70.8346 163.427 69.6128 164.926 69.4042C166.425 69.1658 167.889 70.0002 168.139 71.2518" stroke="#3F2E21" stroke-width="4" stroke-miterlimit="10" stroke-linecap="round" stroke-linejoin="round"/>
<path d="M157.964 67.9739L167.353 64.0701" stroke="#DD6944" stroke-width="8" stroke-miterlimit="10" stroke-linecap="round" stroke-linejoin="round"/>
<path d="M184.989 67.7057C184.704 66.4541 183.276 65.6197 181.776 65.8581C180.277 66.0965 179.277 67.2885 179.563 68.5401" stroke="#3F2E21" stroke-width="4" stroke-miterlimit="10" stroke-linecap="round" stroke-linejoin="round"/>
<path d="M187.453 63.5038L176.992 62.729" stroke="#DD6944" stroke-width="8" stroke-miterlimit="10" stroke-linecap="round" stroke-linejoin="round"/>
<path d="M190.023 49.7063C190.558 51.5539 194.664 64.0997 194.664 64.0997H196.449L192.629 47.1733L190.023 49.7063Z" fill="#C65132"/>
<path d="M142.827 85.2577C147.638 85.2577 151.538 82.0024 151.538 77.9865C151.538 73.9707 147.638 70.7153 142.827 70.7153C138.017 70.7153 134.117 73.9707 134.117 77.9865C134.117 82.0024 138.017 85.2577 142.827 85.2577Z" fill="#FBC3AA"/>
<path d="M144.042 81.801C146.565 81.801 148.611 80.0932 148.611 77.9866C148.611 75.8801 146.565 74.1722 144.042 74.1722C141.518 74.1722 139.472 75.8801 139.472 77.9866C139.472 80.0932 141.518 81.801 144.042 81.801Z" fill="#F2AD91"/>
<path d="M196.949 33.5547C201.161 42.7033 195.699 52.9545 184.739 56.4411C173.779 59.9575 161.499 55.3981 157.322 46.2495L196.949 33.5547Z" fill="#DD6944"/>
<path d="M172.244 37.4585C176.314 43.9549 173.28 51.9711 165.497 55.3683C157.715 58.7655 148.111 56.2325 144.042 49.7361L172.244 37.4585Z" fill="#DD6944"/>
<path d="M151.574 123.789V118.544C151.574 114.283 147.433 111.392 142.292 111.392L139.079 112.406V111.184C139.079 110.469 139.293 109.783 139.65 109.157C140.971 108.651 142.435 108.383 144.006 108.383C146.005 108.383 147.861 108.83 149.468 109.634C151.824 110.796 153.609 112.704 154.359 114.939C154.609 115.713 154.751 116.518 154.751 117.352C154.787 119.885 153.538 122.15 151.574 123.789Z" fill="#25314C"/>
<path d="M156.072 174.926C161.692 174.926 166.247 171.123 166.247 166.433C166.247 161.742 161.692 157.94 156.072 157.94C150.453 157.94 145.898 161.742 145.898 166.433C145.898 171.123 150.453 174.926 156.072 174.926Z" fill="#FBC3AA"/>
<path d="M168.21 169.026L163.105 166.94C161.748 166.373 161.177 165.003 161.856 163.87L163.069 161.814L170.638 164.913C171.994 165.479 172.566 166.85 171.887 167.983C171.245 169.145 169.602 169.592 168.21 169.026Z" fill="#F2AD91"/>
<path d="M157.572 175.611L158.964 170.337C159.321 168.906 160.999 168.012 162.713 168.34L165.39 168.847C165.604 168.877 165.747 169.055 165.676 169.234L163.712 176.744C163.355 178.174 161.677 179.068 159.964 178.74C158.286 178.413 157.179 177.012 157.572 175.611Z" fill="#F2AD91"/>
<path d="M160.142 167.863C163.284 165.062 162.82 160.622 159.143 158.298C151.86 153.679 146.755 146.646 145.719 138.57C144.863 132.103 146.683 125.905 150.36 120.72C151.895 118.574 151.86 115.803 150.146 113.747C146.969 109.873 140.079 110.022 137.187 113.985C131.868 121.346 129.226 130.137 130.261 139.345C131.618 151.354 139.079 161.784 149.861 168.608C153.038 170.605 157.465 170.247 160.142 167.863Z" fill="#DD3142"/>
<path d="M150.396 120.72C151.36 119.379 151.681 117.829 151.396 116.339C149.896 117.65 148.361 118.902 147.933 119.498C143.756 125.339 142.007 132.044 142.899 138.838C144.006 147.242 149.289 155.049 157.429 160.205C158.286 160.741 160.856 163.125 162.07 164.734C162.641 162.41 161.606 159.877 159.143 158.298C151.86 153.679 146.755 146.646 145.719 138.57C144.898 132.074 146.683 125.905 150.396 120.72Z" fill="#D82B45"/>
<path d="M171.78 132.908C173.555 132.908 174.993 131.707 174.993 130.226C174.993 128.745 173.555 127.544 171.78 127.544C170.006 127.544 168.567 128.745 168.567 130.226C168.567 131.707 170.006 132.908 171.78 132.908Z" fill="#DD3142"/>
<path d="M165.89 139.553C166.777 139.553 167.496 138.953 167.496 138.212C167.496 137.472 166.777 136.871 165.89 136.871C165.003 136.871 164.283 137.472 164.283 138.212C164.283 138.953 165.003 139.553 165.89 139.553Z" fill="#DD3142"/>
<path d="M179.777 135.203C180.664 135.203 181.384 134.602 181.384 133.862C181.384 133.121 180.664 132.521 179.777 132.521C178.89 132.521 178.171 133.121 178.171 133.862C178.171 134.602 178.89 135.203 179.777 135.203Z" fill="#DD3142"/>
<path d="M176.243 140.894C177.13 140.894 177.849 140.294 177.849 139.553C177.849 138.813 177.13 138.212 176.243 138.212C175.356 138.212 174.636 138.813 174.636 139.553C174.636 140.294 175.356 140.894 176.243 140.894Z" fill="#DD3142"/>
<path opacity="0.69" d="M167.833 76.4728C170.065 75.9236 171.657 74.8642 171.389 74.1067C171.122 73.3489 169.096 73.1796 166.864 73.7285C164.633 74.2778 163.04 75.3369 163.308 76.0947C163.575 76.8525 165.601 77.0217 167.833 76.4728Z" fill="#F2AD91"/>
<path opacity="0.69" d="M184.328 72.8595C186.634 72.6047 188.403 71.7631 188.279 70.98C188.155 70.1969 186.184 69.7683 183.878 70.0231C181.571 70.2779 179.802 71.1195 179.927 71.9026C180.05 72.6858 182.021 73.1143 184.328 72.8595Z" fill="#F2AD91"/>
<path d="M228.793 94.0786C229.661 94.0786 230.364 93.4915 230.364 92.7674C230.364 92.0432 229.661 91.4562 228.793 91.4562C227.926 91.4562 227.222 92.0432 227.222 92.7674C227.222 93.4915 227.926 94.0786 228.793 94.0786Z" fill="#BCBCBC"/>
<g filter="url(#filter0_d_758:2)">
<path d="M269.605 86.6062C269.605 75.8767 278.303 67.1787 289.033 67.1787H434.326C445.372 67.1787 454.326 76.133 454.326 87.1787V99.5178C454.326 110.564 445.372 119.518 434.326 119.518H289.605C278.559 119.518 269.605 110.563 269.605 99.5178V97.5956L260.943 92.5457L269.605 86.6062V86.6062Z" fill="white"/>
<path d="M269.857 97.1636L261.877 92.5115L269.888 87.0185L269.605 86.6062H270.105C270.105 76.1528 278.579 67.6787 289.033 67.6787H434.326C445.096 67.6787 453.826 76.4092 453.826 87.1787V99.5178C453.826 110.287 445.096 119.018 434.326 119.018H289.605C278.836 119.018 270.105 110.287 270.105 99.5178V97.5956V97.3083L269.857 97.1636Z" stroke="black" stroke-opacity="0.13"/>
</g>
<path d="M283.543 98.1805C283.111 98.1805 282.769 98.0545 282.517 97.8025C282.265 97.5505 282.139 97.2085 282.139 96.7765V86.6965C282.139 86.2765 282.253 85.9525 282.481 85.7245C282.709 85.4965 283.033 85.3825 283.453 85.3825H287.971C289.351 85.3825 290.425 85.7305 291.193 86.4265C291.961 87.1225 292.345 88.0945 292.345 89.3425C292.345 90.5905 291.961 91.5625 291.193 92.2585C290.425 92.9545 289.351 93.3025 287.971 93.3025H284.947V96.7765C284.947 97.2085 284.821 97.5505 284.569 97.8025C284.317 98.0545 283.975 98.1805 283.543 98.1805ZM287.611 91.1785C289.015 91.1785 289.717 90.5725 289.717 89.3605C289.717 88.1365 289.015 87.5245 287.611 87.5245H284.947V91.1785H287.611ZM299.045 89.0545C299.405 89.0305 299.687 89.1145 299.891 89.3065C300.107 89.4865 300.215 89.7625 300.215 90.1345C300.215 90.5305 300.119 90.8245 299.927 91.0165C299.735 91.2085 299.393 91.3285 298.901 91.3765L298.361 91.4305C297.701 91.5025 297.221 91.7185 296.921 92.0785C296.633 92.4385 296.489 92.9005 296.489 93.4645V96.9025C296.489 97.3225 296.357 97.6405 296.093 97.8565C295.841 98.0725 295.523 98.1805 295.139 98.1805C294.743 98.1805 294.413 98.0725 294.149 97.8565C293.897 97.6405 293.771 97.3225 293.771 96.9025V90.2965C293.771 89.9005 293.903 89.5945 294.167 89.3785C294.431 89.1625 294.749 89.0545 295.121 89.0545C295.481 89.0545 295.781 89.1625 296.021 89.3785C296.261 89.5825 296.381 89.8705 296.381 90.2425V90.7285C296.597 90.2125 296.921 89.8165 297.353 89.5405C297.797 89.2645 298.277 89.1085 298.793 89.0725L299.045 89.0545ZM307.912 95.4445C308.152 95.4445 308.344 95.5405 308.488 95.7325C308.644 95.9245 308.722 96.1705 308.722 96.4705C308.722 96.6745 308.662 96.8665 308.542 97.0465C308.422 97.2145 308.254 97.3585 308.038 97.4785C307.63 97.6945 307.156 97.8745 306.616 98.0185C306.076 98.1505 305.578 98.2165 305.122 98.2165C304.162 98.2165 303.322 98.0305 302.602 97.6585C301.894 97.2865 301.348 96.7585 300.964 96.0745C300.58 95.3785 300.388 94.5625 300.388 93.6265C300.388 92.7265 300.574 91.9285 300.946 91.2325C301.318 90.5365 301.834 89.9965 302.494 89.6125C303.154 89.2165 303.904 89.0185 304.744 89.0185C305.548 89.0185 306.25 89.1985 306.85 89.5585C307.462 89.9065 307.936 90.4105 308.272 91.0705C308.608 91.7185 308.776 92.4805 308.776 93.3565C308.776 93.6205 308.71 93.8245 308.578 93.9685C308.458 94.1005 308.284 94.1665 308.056 94.1665H303.016C303.1 94.8745 303.316 95.3905 303.664 95.7145C304.012 96.0265 304.51 96.1825 305.158 96.1825C305.506 96.1825 305.818 96.1405 306.094 96.0565C306.37 95.9725 306.676 95.8585 307.012 95.7145C307.18 95.6425 307.342 95.5825 307.498 95.5345C307.654 95.4745 307.792 95.4445 307.912 95.4445ZM304.816 90.8905C304.3 90.8905 303.886 91.0585 303.574 91.3945C303.262 91.7185 303.076 92.1925 303.016 92.8165H306.49C306.454 92.1805 306.292 91.7005 306.004 91.3765C305.728 91.0525 305.332 90.8905 304.816 90.8905ZM314.504 98.2165C313.592 98.2165 312.794 98.0305 312.11 97.6585C311.426 97.2865 310.898 96.7585 310.526 96.0745C310.166 95.3905 309.986 94.5865 309.986 93.6625C309.986 92.7385 310.178 91.9285 310.562 91.2325C310.958 90.5245 311.51 89.9785 312.218 89.5945C312.926 89.2105 313.742 89.0185 314.666 89.0185C315.146 89.0185 315.626 89.0845 316.106 89.2165C316.598 89.3485 317.036 89.5345 317.42 89.7745C317.792 90.0025 317.978 90.3385 317.978 90.7825C317.978 91.0945 317.906 91.3525 317.762 91.5565C317.618 91.7485 317.426 91.8445 317.186 91.8445C317.03 91.8445 316.88 91.8205 316.736 91.7725C316.604 91.7125 316.424 91.6285 316.196 91.5205C315.944 91.3885 315.716 91.2865 315.512 91.2145C315.32 91.1425 315.098 91.1065 314.846 91.1065C314.174 91.1065 313.658 91.3225 313.298 91.7545C312.95 92.1745 312.776 92.7925 312.776 93.6085C312.776 94.4245 312.95 95.0485 313.298 95.4805C313.658 95.9125 314.174 96.1285 314.846 96.1285C315.098 96.1285 315.32 96.0985 315.512 96.0385C315.704 95.9665 315.938 95.8585 316.214 95.7145C316.442 95.6065 316.622 95.5285 316.754 95.4805C316.886 95.4205 317.03 95.3905 317.186 95.3905C317.414 95.3905 317.6 95.4925 317.744 95.6965C317.9 95.9005 317.978 96.1585 317.978 96.4705C317.978 96.9145 317.792 97.2445 317.42 97.4605C317.036 97.7005 316.592 97.8865 316.088 98.0185C315.584 98.1505 315.056 98.2165 314.504 98.2165ZM320.68 98.1805C320.284 98.1805 319.954 98.0725 319.69 97.8565C319.438 97.6405 319.312 97.3225 319.312 96.9025V90.3325C319.312 89.9125 319.444 89.5945 319.708 89.3785C319.972 89.1625 320.296 89.0545 320.68 89.0545C321.064 89.0545 321.382 89.1625 321.634 89.3785C321.898 89.5945 322.03 89.9125 322.03 90.3325V96.9025C322.03 97.3225 321.898 97.6405 321.634 97.8565C321.382 98.0725 321.064 98.1805 320.68 98.1805ZM320.68 87.6145C320.2 87.6145 319.822 87.4945 319.546 87.2545C319.27 87.0025 319.132 86.6665 319.132 86.2465C319.132 85.8265 319.27 85.4965 319.546 85.2565C319.822 85.0165 320.2 84.8965 320.68 84.8965C321.148 84.8965 321.52 85.0225 321.796 85.2745C322.084 85.5145 322.228 85.8385 322.228 86.2465C322.228 86.6665 322.09 87.0025 321.814 87.2545C321.538 87.4945 321.16 87.6145 320.68 87.6145ZM327.459 98.2165C326.727 98.2165 326.091 98.1565 325.551 98.0365C325.011 97.9165 324.537 97.7245 324.129 97.4605C323.949 97.3525 323.811 97.2085 323.715 97.0285C323.619 96.8485 323.571 96.6445 323.571 96.4165C323.571 96.1405 323.649 95.9125 323.805 95.7325C323.961 95.5405 324.153 95.4445 324.381 95.4445C324.537 95.4445 324.693 95.4745 324.849 95.5345C325.005 95.5825 325.167 95.6425 325.335 95.7145C325.671 95.8705 326.001 95.9965 326.325 96.0925C326.649 96.1765 327.051 96.2185 327.531 96.2185C327.951 96.2185 328.275 96.1525 328.503 96.0205C328.743 95.8885 328.863 95.7085 328.863 95.4805C328.863 95.3125 328.809 95.1805 328.701 95.0845C328.605 94.9765 328.419 94.8805 328.143 94.7965C327.867 94.7125 327.429 94.6105 326.829 94.4905C325.761 94.2865 324.993 93.9805 324.525 93.5725C324.057 93.1645 323.823 92.5945 323.823 91.8625C323.823 91.3225 323.985 90.8365 324.309 90.4045C324.645 89.9725 325.101 89.6365 325.677 89.3965C326.253 89.1445 326.901 89.0185 327.621 89.0185C328.137 89.0185 328.641 89.0845 329.133 89.2165C329.625 89.3485 330.063 89.5345 330.447 89.7745C330.819 90.0025 331.005 90.3385 331.005 90.7825C331.005 91.0705 330.927 91.3105 330.771 91.5025C330.615 91.6945 330.423 91.7905 330.195 91.7905C329.919 91.7905 329.589 91.6825 329.205 91.4665C328.905 91.3105 328.629 91.1965 328.377 91.1245C328.137 91.0405 327.849 90.9985 327.513 90.9985C327.141 90.9985 326.847 91.0705 326.631 91.2145C326.415 91.3465 326.307 91.5325 326.307 91.7725C326.307 92.0245 326.433 92.2165 326.685 92.3485C326.937 92.4805 327.423 92.6125 328.143 92.7445C328.947 92.9005 329.577 93.0925 330.033 93.3205C330.489 93.5365 330.819 93.8125 331.023 94.1485C331.227 94.4845 331.329 94.9105 331.329 95.4265C331.329 96.2785 330.975 96.9565 330.267 97.4605C329.571 97.9645 328.635 98.2165 327.459 98.2165ZM337.13 98.2165C336.194 98.2165 335.372 98.0305 334.664 97.6585C333.956 97.2745 333.41 96.7405 333.026 96.0565C332.642 95.3605 332.45 94.5445 332.45 93.6085C332.45 92.6725 332.642 91.8625 333.026 91.1785C333.41 90.4825 333.956 89.9485 334.664 89.5765C335.372 89.2045 336.194 89.0185 337.13 89.0185C338.066 89.0185 338.888 89.2045 339.596 89.5765C340.304 89.9485 340.85 90.4825 341.234 91.1785C341.618 91.8625 341.81 92.6725 341.81 93.6085C341.81 94.5445 341.618 95.3605 341.234 96.0565C340.85 96.7405 340.304 97.2745 339.596 97.6585C338.888 98.0305 338.066 98.2165 337.13 98.2165ZM337.13 96.1465C338.45 96.1465 339.11 95.3005 339.11 93.6085C339.11 92.7565 338.936 92.1205 338.588 91.7005C338.252 91.2805 337.766 91.0705 337.13 91.0705C335.81 91.0705 335.15 91.9165 335.15 93.6085C335.15 95.3005 335.81 96.1465 337.13 96.1465ZM356.034 85.2925C356.454 85.2925 356.79 85.4065 357.042 85.6345C357.306 85.8625 357.438 86.1625 357.438 86.5345V96.9025C357.438 97.2865 357.312 97.5985 357.06 97.8385C356.82 98.0665 356.496 98.1805 356.088 98.1805C355.68 98.1805 355.35 98.0665 355.098 97.8385C354.858 97.5985 354.738 97.2865 354.738 96.9025V96.7585C354.474 97.2145 354.096 97.5745 353.604 97.8385C353.124 98.0905 352.578 98.2165 351.966 98.2165C351.21 98.2165 350.532 98.0245 349.932 97.6405C349.344 97.2445 348.882 96.6985 348.546 96.0025C348.222 95.2945 348.06 94.4845 348.06 93.5725C348.06 92.6605 348.222 91.8625 348.546 91.1785C348.882 90.4825 349.344 89.9485 349.932 89.5765C350.52 89.2045 351.198 89.0185 351.966 89.0185C352.566 89.0185 353.106 89.1445 353.586 89.3965C354.078 89.6485 354.456 90.0025 354.72 90.4585V86.4805C354.72 86.1205 354.84 85.8325 355.08 85.6165C355.32 85.4005 355.638 85.2925 356.034 85.2925ZM352.758 96.1465C353.394 96.1465 353.88 95.9305 354.216 95.4985C354.564 95.0545 354.738 94.4245 354.738 93.6085C354.738 92.7925 354.564 92.1685 354.216 91.7365C353.88 91.3045 353.394 91.0885 352.758 91.0885C352.122 91.0885 351.63 91.3045 351.282 91.7365C350.934 92.1565 350.76 92.7685 350.76 93.5725C350.76 94.3885 350.934 95.0245 351.282 95.4805C351.63 95.9245 352.122 96.1465 352.758 96.1465ZM366.623 95.4445C366.863 95.4445 367.055 95.5405 367.199 95.7325C367.355 95.9245 367.433 96.1705 367.433 96.4705C367.433 96.6745 367.373 96.8665 367.253 97.0465C367.133 97.2145 366.965 97.3585 366.749 97.4785C366.341 97.6945 365.867 97.8745 365.327 98.0185C364.787 98.1505 364.289 98.2165 363.833 98.2165C362.873 98.2165 362.033 98.0305 361.313 97.6585C360.605 97.2865 360.059 96.7585 359.675 96.0745C359.291 95.3785 359.099 94.5625 359.099 93.6265C359.099 92.7265 359.285 91.9285 359.657 91.2325C360.029 90.5365 360.545 89.9965 361.205 89.6125C361.865 89.2165 362.615 89.0185 363.455 89.0185C364.259 89.0185 364.961 89.1985 365.561 89.5585C366.173 89.9065 366.647 90.4105 366.983 91.0705C367.319 91.7185 367.487 92.4805 367.487 93.3565C367.487 93.6205 367.421 93.8245 367.289 93.9685C367.169 94.1005 366.995 94.1665 366.767 94.1665H361.727C361.811 94.8745 362.027 95.3905 362.375 95.7145C362.723 96.0265 363.221 96.1825 363.869 96.1825C364.217 96.1825 364.529 96.1405 364.805 96.0565C365.081 95.9725 365.387 95.8585 365.723 95.7145C365.891 95.6425 366.053 95.5825 366.209 95.5345C366.365 95.4745 366.503 95.4445 366.623 95.4445ZM363.527 90.8905C363.011 90.8905 362.597 91.0585 362.285 91.3945C361.973 91.7185 361.787 92.1925 361.727 92.8165H365.201C365.165 92.1805 365.003 91.7005 364.715 91.3765C364.439 91.0525 364.043 90.8905 363.527 90.8905ZM381.302 89.0545C381.722 89.0545 382.052 89.1685 382.292 89.3965C382.544 89.6245 382.67 89.9365 382.67 90.3325V96.9385C382.67 97.3105 382.538 97.6105 382.274 97.8385C382.022 98.0665 381.692 98.1805 381.284 98.1805C380.9 98.1805 380.594 98.0725 380.366 97.8565C380.138 97.6405 380.024 97.3525 380.024 96.9925V96.8125C379.748 97.2685 379.382 97.6165 378.926 97.8565C378.482 98.0965 377.978 98.2165 377.414 98.2165C376.298 98.2165 375.464 97.9105 374.912 97.2985C374.372 96.6745 374.102 95.7385 374.102 94.4905V90.3325C374.102 89.9365 374.222 89.6245 374.462 89.3965C374.714 89.1685 375.05 89.0545 375.47 89.0545C375.89 89.0545 376.22 89.1685 376.46 89.3965C376.7 89.6245 376.82 89.9365 376.82 90.3325V94.5445C376.82 95.0725 376.928 95.4625 377.144 95.7145C377.372 95.9665 377.714 96.0925 378.17 96.0925C378.698 96.0925 379.124 95.9125 379.448 95.5525C379.784 95.1925 379.952 94.7185 379.952 94.1305V90.3325C379.952 89.9365 380.072 89.6245 380.312 89.3965C380.552 89.1685 380.882 89.0545 381.302 89.0545ZM395.645 89.0185C396.605 89.0185 397.343 89.3125 397.859 89.9005C398.375 90.4765 398.633 91.4245 398.633 92.7445V96.9025C398.633 97.3225 398.507 97.6405 398.255 97.8565C398.003 98.0725 397.679 98.1805 397.283 98.1805C396.899 98.1805 396.575 98.0725 396.311 97.8565C396.047 97.6405 395.915 97.3225 395.915 96.9025V92.7085C395.915 92.1325 395.813 91.7305 395.609 91.5025C395.417 91.2625 395.117 91.1425 394.709 91.1425C394.205 91.1425 393.803 91.3165 393.503 91.6645C393.203 92.0125 393.053 92.4985 393.053 93.1225V96.9025C393.053 97.3225 392.927 97.6405 392.675 97.8565C392.423 98.0725 392.099 98.1805 391.703 98.1805C391.319 98.1805 390.995 98.0725 390.731 97.8565C390.467 97.6405 390.335 97.3225 390.335 96.9025V92.7085C390.335 92.1325 390.233 91.7305 390.029 91.5025C389.837 91.2625 389.537 91.1425 389.129 91.1425C388.625 91.1425 388.223 91.3165 387.923 91.6645C387.623 92.0125 387.473 92.4985 387.473 93.1225V96.9025C387.473 97.3225 387.341 97.6405 387.077 97.8565C386.825 98.0725 386.507 98.1805 386.123 98.1805C385.739 98.1805 385.415 98.0725 385.151 97.8565C384.887 97.6405 384.755 97.3225 384.755 96.9025V90.2965C384.755 89.9005 384.887 89.5945 385.151 89.3785C385.427 89.1625 385.757 89.0545 386.141 89.0545C386.501 89.0545 386.801 89.1625 387.041 89.3785C387.281 89.5825 387.401 89.8705 387.401 90.2425V90.4225C387.689 89.9665 388.061 89.6185 388.517 89.3785C388.985 89.1385 389.513 89.0185 390.101 89.0185C390.737 89.0185 391.271 89.1505 391.703 89.4145C392.147 89.6665 392.489 90.0805 392.729 90.6565C393.005 90.1525 393.395 89.7565 393.899 89.4685C394.415 89.1685 394.997 89.0185 395.645 89.0185ZM410.623 96.2005C410.983 96.2245 411.247 96.3145 411.415 96.4705C411.583 96.6265 411.667 96.8545 411.667 97.1545C411.667 97.5025 411.529 97.7665 411.253 97.9465C410.977 98.1265 410.581 98.1985 410.065 98.1625L409.561 98.1265C407.461 97.9585 406.411 96.8605 406.411 94.8325V91.2685H405.691C405.295 91.2685 404.995 91.1845 404.791 91.0165C404.587 90.8365 404.485 90.5845 404.485 90.2605C404.485 89.9245 404.587 89.6725 404.791 89.5045C404.995 89.3245 405.295 89.2345 405.691 89.2345H406.411V87.8305C406.411 87.4345 406.531 87.1225 406.771 86.8945C407.023 86.6665 407.359 86.5525 407.779 86.5525C408.199 86.5525 408.529 86.6665 408.769 86.8945C409.009 87.1225 409.129 87.4345 409.129 87.8305V89.2345H410.389C411.205 89.2345 411.613 89.5765 411.613 90.2605C411.613 90.5845 411.511 90.8365 411.307 91.0165C411.103 91.1845 410.797 91.2685 410.389 91.2685H409.129V95.0305C409.129 95.3905 409.213 95.6665 409.381 95.8585C409.549 96.0385 409.795 96.1405 410.119 96.1645L410.623 96.2005ZM416.647 89.0185C417.943 89.0185 418.903 89.3365 419.527 89.9725C420.151 90.5965 420.463 91.5565 420.463 92.8525V96.9205C420.463 97.3165 420.349 97.6285 420.121 97.8565C419.893 98.0725 419.575 98.1805 419.167 98.1805C418.783 98.1805 418.471 98.0665 418.231 97.8385C418.003 97.5985 417.889 97.2925 417.889 96.9205V96.7945C417.709 97.2385 417.409 97.5865 416.989 97.8385C416.569 98.0905 416.077 98.2165 415.513 98.2165C414.913 98.2165 414.367 98.0965 413.875 97.8565C413.395 97.6165 413.011 97.2805 412.723 96.8485C412.447 96.4165 412.309 95.9365 412.309 95.4085C412.309 94.7605 412.471 94.2505 412.795 93.8785C413.131 93.5065 413.665 93.2365 414.397 93.0685C415.129 92.9005 416.131 92.8165 417.403 92.8165H417.871V92.4925C417.871 91.9885 417.757 91.6225 417.529 91.3945C417.313 91.1665 416.947 91.0525 416.431 91.0525C415.915 91.0525 415.171 91.2325 414.199 91.5925C413.923 91.7245 413.689 91.7905 413.497 91.7905C413.233 91.7905 413.023 91.7005 412.867 91.5205C412.711 91.3285 412.633 91.0825 412.633 90.7825C412.633 90.5425 412.687 90.3445 412.795 90.1885C412.903 90.0325 413.077 89.8885 413.317 89.7565C413.737 89.5285 414.247 89.3485 414.847 89.2165C415.459 89.0845 416.059 89.0185 416.647 89.0185ZM416.107 96.3445C416.635 96.3445 417.061 96.1705 417.385 95.8225C417.709 95.4625 417.871 95.0005 417.871 94.4365V94.1305H417.565C416.593 94.1305 415.909 94.2085 415.513 94.3645C415.129 94.5205 414.937 94.8025 414.937 95.2105C414.937 95.5465 415.045 95.8225 415.261 96.0385C415.489 96.2425 415.771 96.3445 416.107 96.3445ZM430.38 96.0745C430.644 96.3505 430.776 96.6505 430.776 96.9745C430.776 97.2985 430.65 97.5865 430.398 97.8385C430.158 98.0785 429.876 98.1985 429.552 98.1985C429.228 98.1985 428.928 98.0545 428.652 97.7665L426.312 95.2465L423.99 97.7665C423.714 98.0545 423.414 98.1985 423.09 98.1985C422.754 98.1985 422.46 98.0785 422.208 97.8385C421.968 97.5865 421.848 97.2925 421.848 96.9565C421.848 96.6445 421.98 96.3505 422.244 96.0745L424.674 93.5365L422.406 91.1785C422.142 90.9025 422.01 90.6085 422.01 90.2965C422.01 89.9605 422.13 89.6725 422.37 89.4325C422.622 89.1925 422.91 89.0725 423.234 89.0725C423.57 89.0725 423.876 89.2165 424.152 89.5045L426.312 91.8085L428.49 89.5045C428.766 89.2165 429.072 89.0725 429.408 89.0725C429.732 89.0725 430.014 89.1925 430.254 89.4325C430.506 89.6725 430.632 89.9605 430.632 90.2965C430.632 90.6085 430.5 90.9025 430.236 91.1785L427.95 93.5365L430.38 96.0745ZM433.584 98.1805C433.188 98.1805 432.858 98.0725 432.594 97.8565C432.342 97.6405 432.216 97.3225 432.216 96.9025V90.3325C432.216 89.9125 432.348 89.5945 432.612 89.3785C432.876 89.1625 433.2 89.0545 433.584 89.0545C433.968 89.0545 434.286 89.1625 434.538 89.3785C434.802 89.5945 434.934 89.9125 434.934 90.3325V96.9025C434.934 97.3225 434.802 97.6405 434.538 97.8565C434.286 98.0725 433.968 98.1805 433.584 98.1805ZM433.584 87.6145C433.104 87.6145 432.726 87.4945 432.45 87.2545C432.174 87.0025 432.036 86.6665 432.036 86.2465C432.036 85.8265 432.174 85.4965 432.45 85.2565C432.726 85.0165 433.104 84.8965 433.584 84.8965C434.052 84.8965 434.424 85.0225 434.7 85.2745C434.988 85.5145 435.132 85.8385 435.132 86.2465C435.132 86.6665 434.994 87.0025 434.718 87.2545C434.442 87.4945 434.064 87.6145 433.584 87.6145Z" fill="#4C4B4B"/>
<defs>
<filter id="filter0_d_758:2" x="256.943" y="67.1787" width="201.383" height="60.3391" filterUnits="userSpaceOnUse" color-interpolation-filters="sRGB">
<feFlood flood-opacity="0" result="BackgroundImageFix"/>
<feColorMatrix in="SourceAlpha" type="matrix" values="0 0 0 0 0 0 0 0 0 0 0 0 0 0 0 0 0 0 127 0" result="hardAlpha"/>
<feOffset dy="4"/>
<feGaussianBlur stdDeviation="2"/>
<feComposite in2="hardAlpha" operator="out"/>
<feColorMatrix type="matrix" values="0 0 0 0 0 0 0 0 0 0 0 0 0 0 0 0 0 0 0.25 0"/>
<feBlend mode="normal" in2="BackgroundImageFix" result="effect1_dropShadow_758:2"/>
<feBlend mode="normal" in="SourceGraphic" in2="effect1_dropShadow_758:2" result="shape"/>
</filter>
</defs>
</svg>
