<svg width="358" height="298" viewBox="0 0 358 298" fill="none" xmlns="http://www.w3.org/2000/svg">
<path opacity="0.23" d="M242.788 120.124V104.151H206.981V88.208H234.291V72.2352H123.621V88.208H147.719V104.181H96.6675V120.154H118.552V136.126H66.9294V152.099H138.936V168.072H105.164V184.045H155.144V200.018H121.836V215.99H224.973V200.018H202.625V184.045H280.88V168.072H241.717V152.099H258.032V136.126H226.58V120.154H242.788V120.124ZM186.239 136.067H158.893V120.094H186.239V136.067Z" fill="#A9DBED"/>
<path opacity="0.23" d="M102.379 72.0862H82.6016V88.059H102.379V72.0862Z" fill="#A9DBED"/>
<path opacity="0.23" d="M288.376 104.151H268.599V120.124H288.376V104.151Z" fill="#A9DBED"/>
<path d="M162.106 223.887H124.978V231.039H162.106V223.887Z" fill="#26A8A1"/>
<path d="M113.768 223.887H96.4177V231.039H113.768V223.887Z" fill="#26A8A1"/>
<path d="M202.589 223.887H177.564V231.039H202.589V223.887Z" fill="#26A8A1"/>
<path d="M233.363 223.887H218.976V231.039H233.363V223.887Z" fill="#26A8A1"/>
<path d="M251.927 245.343H237.54V252.495H251.927V245.343Z" fill="#26A8A1"/>
<path d="M134.729 245.363H188.743V238.211H134.729V245.363Z" fill="#26A8A1"/>
<path d="M209.943 245.363H228.079V238.211H209.943V245.363Z" fill="#26A8A1"/>
<path d="M172.658 252.515H217.818V245.363H172.658V252.515Z" fill="#26A8A1"/>
<path d="M152.865 259.667H194.17V252.515H152.865V259.667Z" fill="#26A8A1"/>
<path d="M204.696 152.01H171.602V167.983H204.696V152.01Z" fill="#30B5B2"/>
<path d="M182.597 88.2676H135.188V104.24H182.597V88.2676Z" fill="#30B5B2"/>
<path d="M235.898 120.124H141.864V136.097H235.898V120.124Z" fill="#30B5B2"/>
<path d="M222.403 167.983H170.352V183.955H222.403V167.983Z" fill="#30B5B2"/>
<path d="M187.81 231.039H152.859V238.191H187.81V231.039Z" fill="#26A8A1"/>
<path d="M178.313 223.202H169.103V234.675H178.313V223.202Z" fill="#FBC3AA"/>
<path d="M187.988 240.188H161.035C161.035 235.152 165.926 231.039 171.995 231.039H187.988V240.188Z" fill="#DD3142"/>
<path d="M179.135 240.188C179.135 234.109 185.061 229.162 192.344 229.162C199.626 229.162 205.553 234.109 205.553 240.188H179.135Z" fill="#DD3142"/>
<path d="M205.553 241.767H161.035C160.499 241.767 160.071 241.41 160.071 240.963C160.071 240.516 160.499 240.158 161.035 240.158H205.553C206.088 240.158 206.517 240.516 206.517 240.963C206.517 241.41 206.088 241.767 205.553 241.767Z" fill="#212D47"/>
<path d="M193.058 231.874C194.694 231.874 196.021 231.5 196.021 231.039C196.021 230.579 194.694 230.205 193.058 230.205C191.421 230.205 190.094 230.579 190.094 231.039C190.094 231.5 191.421 231.874 193.058 231.874Z" fill="white"/>
<path d="M175.636 231.844C175.636 231.695 175.672 231.546 175.743 231.397C176.029 230.92 176.671 230.741 177.242 230.98" stroke="#D32A3B" stroke-width="3" stroke-miterlimit="10" stroke-linecap="round" stroke-linejoin="round"/>
<path d="M177.707 231.844C177.707 231.695 177.742 231.546 177.814 231.397C178.099 230.92 178.742 230.741 179.313 230.98" stroke="#D32A3B" stroke-width="3" stroke-miterlimit="10" stroke-linecap="round" stroke-linejoin="round"/>
<path d="M179.67 231.844C179.67 231.695 179.706 231.546 179.777 231.397C180.063 230.92 180.705 230.741 181.276 230.98" stroke="#D32A3B" stroke-width="3" stroke-miterlimit="10" stroke-linecap="round" stroke-linejoin="round"/>
<path d="M227.972 115.922H223.081C221.296 115.922 219.868 114.73 219.868 113.24V89.9364C219.868 88.4464 221.296 87.2544 223.081 87.2544H227.972C229.757 87.2544 231.185 88.4464 231.185 89.9364V113.24C231.185 114.7 229.757 115.922 227.972 115.922Z" fill="#BCBCBC"/>
<path d="M231.078 115.922H226.187C224.402 115.922 222.974 114.73 222.974 113.24V89.9364C222.974 88.4464 224.402 87.2544 226.187 87.2544H231.078C232.863 87.2544 234.291 88.4464 234.291 89.9364V113.24C234.291 114.7 232.863 115.922 231.078 115.922Z" fill="#F7F7F7"/>
<path d="M217.262 121.435V134.189C217.262 139.911 211.836 144.739 204.981 144.888C197.913 145.037 192.094 140.269 192.094 134.398V116.995C192.094 113.776 188.988 111.184 185.132 111.184C181.277 111.184 178.171 113.776 178.171 116.995V134.398C178.171 146.616 190.023 156.51 204.66 156.51C219.297 156.51 231.149 146.616 231.149 134.398V121.435H217.262Z" fill="#DD3142"/>
<path d="M217.262 121.435V134.189C217.262 139.911 211.836 144.739 204.981 144.888C197.913 145.037 192.094 140.269 192.094 134.398V116.995C192.094 113.776 188.988 111.184 185.132 111.184C181.277 111.184 178.171 113.776 178.171 116.995V134.398C178.171 146.616 190.023 156.51 204.66 156.51C219.297 156.51 231.149 146.616 231.149 134.398V121.435H217.262Z" fill="#DD3142"/>
<path d="M185.132 114.164C186.988 114.164 188.524 115.445 188.524 116.995V134.398C188.524 138.004 190.201 141.371 193.272 143.934C196.342 146.497 200.376 147.897 204.696 147.897C204.838 147.897 204.946 147.897 205.088 147.897C213.763 147.719 220.868 141.58 220.868 134.219V124.445L223.474 121.465H217.298V134.219C217.298 139.941 211.871 144.768 205.017 144.917C197.948 145.066 192.129 140.298 192.129 134.428V117.025C192.129 113.806 189.023 111.214 185.168 111.214C184.168 111.214 183.204 111.392 182.312 111.72C183.704 113.18 184.739 114.164 185.132 114.164Z" fill="#D82B45"/>
<path d="M182.597 164.228H163.641V226.689H182.597V164.228Z" fill="#212D47"/>
<path d="M182.597 223.202H163.641V226.689H182.597V223.202Z" fill="#2D3854"/>
<path d="M170.21 164.228H151.253V226.689H170.21V164.228Z" fill="#2D3854"/>
<path d="M165.318 223.202H156.108V234.675H165.318V223.202Z" fill="#FBC3AA"/>
<path d="M170.21 223.202H151.253V226.689H170.21V223.202Z" fill="#394663"/>
<path d="M181.348 173.883H150.931C147.29 173.883 144.327 171.41 144.327 168.37V163.602H187.952V168.37C187.952 171.41 184.989 173.883 181.348 173.883Z" fill="#2D3854"/>
<path d="M156.679 159.996H127.227C120.158 159.996 114.91 152.606 116.445 144.798L120.337 124.862C121.907 116.876 128.155 111.154 135.402 111.154H147.183L156.679 159.996Z" fill="#22314C"/>
<path d="M132.617 154.066C127.405 154.066 123.3 150.371 123.657 146.05L124.299 138.689H140.935L141.578 146.05C141.935 150.371 137.83 154.066 132.617 154.066Z" fill="#2D3854"/>
<path d="M187.952 157.165H144.327V165.42H187.952V157.165Z" fill="#DD3142"/>
<path d="M186.917 162.589H143.542C142.97 162.589 142.506 162.201 142.506 161.725V118.872C142.506 114.611 146.648 111.184 151.717 111.184H181.669C185.132 111.184 187.917 113.538 187.917 116.399V161.725C187.952 162.201 187.488 162.589 186.917 162.589Z" fill="#E53E46"/>
<path d="M171.423 119.26H163.569C161.749 119.26 160.285 118.038 160.285 116.518V111.214H176.85V114.73C176.85 117.233 174.422 119.26 171.423 119.26Z" fill="#DD3142"/>
<path d="M176.136 106.148L167.925 106.922L168.139 111.214H176.136C182.633 111.214 187.917 115.624 187.917 121.048V157.94C191.273 157.94 193.986 155.675 193.986 152.874V121.048C193.986 112.823 186.025 106.148 176.136 106.148Z" fill="#2D3854"/>
<path d="M190.666 120.213C190.666 113.925 184.561 108.83 177.028 108.83H170.888V106.148H168.139V111.214H176.136C182.633 111.214 187.917 115.624 187.917 121.048V157.94C188.916 157.94 189.845 157.731 190.666 157.404V120.213Z" fill="#25314C"/>
<path d="M170.888 116.697H164.105C162.034 116.697 160.356 115.296 160.356 113.568V97.1481H174.636V113.568C174.636 115.296 172.959 116.697 170.888 116.697Z" fill="#FBC3AA"/>
<path opacity="0.76" d="M165.176 97.8037H174.636V97.1481H160.356V113.568C160.356 115.296 162.034 116.697 164.105 116.697H165.212V97.8037H165.176Z" fill="#F2AD91"/>
<path d="M160.356 105.76C163.034 106.148 167.639 106.326 172.53 104.538C173.316 104.24 173.994 103.942 174.636 103.585V97.1481H160.356V105.76Z" fill="#ED9C80"/>
<path d="M150.289 106.684H144.505C141.507 106.684 139.115 108.71 139.115 111.184V112.406L142.328 111.392C147.433 111.392 151.61 114.283 151.61 118.544V153.261C151.61 155.854 154.109 157.94 157.215 157.94C160.321 157.94 162.82 155.854 162.82 153.261V117.084C162.748 111.333 157.179 106.684 150.289 106.684Z" fill="#2D3854"/>
<path d="M155.144 118.544V157.612C153.038 156.927 151.574 155.258 151.574 153.261V123.789C153.537 122.15 154.787 119.885 154.787 117.412C154.787 116.578 154.644 115.773 154.394 114.998C154.858 116.071 155.144 117.293 155.144 118.544Z" fill="#25314C"/>
<path d="M224.009 126.561C229.53 126.561 234.005 122.825 234.005 118.217C234.005 113.608 229.53 109.873 224.009 109.873C218.489 109.873 214.013 113.608 214.013 118.217C214.013 122.825 218.489 126.561 224.009 126.561Z" fill="#FBC3AA"/>
<path opacity="0.76" d="M228.222 123.789C221.939 123.789 216.834 119.528 216.834 114.283C216.834 113.538 216.941 112.823 217.119 112.137C215.192 113.657 213.978 115.833 213.978 118.217C213.978 122.836 218.44 126.561 223.974 126.561C227.222 126.561 230.079 125.279 231.935 123.283C230.793 123.61 229.543 123.789 228.222 123.789Z" fill="#F2AD91"/>
<path d="M175.029 240.188H148.075C148.075 235.152 152.966 231.039 159.035 231.039H175.029V240.188Z" fill="#DD3142"/>
<path d="M166.175 240.188C166.175 234.109 172.101 229.162 179.384 229.162C186.667 229.162 192.593 234.109 192.593 240.188H166.175Z" fill="#E53E46"/>
<path d="M192.593 241.767H148.075C147.54 241.767 147.112 241.41 147.112 240.963C147.112 240.516 147.54 240.158 148.075 240.158H192.593C193.129 240.158 193.557 240.516 193.557 240.963C193.522 241.41 193.093 241.767 192.593 241.767Z" fill="#212D47"/>
<path d="M183.311 231.874C184.948 231.874 186.275 231.5 186.275 231.039C186.275 230.579 184.948 230.205 183.311 230.205C181.675 230.205 180.348 230.579 180.348 231.039C180.348 231.5 181.675 231.874 183.311 231.874Z" fill="white"/>
<path d="M162.677 231.844C162.677 231.695 162.712 231.546 162.784 231.397C163.069 230.92 163.712 230.741 164.283 230.98" stroke="#D32A3B" stroke-width="3" stroke-miterlimit="10" stroke-linecap="round" stroke-linejoin="round"/>
<path d="M164.748 231.844C164.748 231.695 164.783 231.546 164.855 231.397C165.14 230.92 165.783 230.741 166.354 230.98" stroke="#D32A3B" stroke-width="3" stroke-miterlimit="10" stroke-linecap="round" stroke-linejoin="round"/>
<path d="M166.675 231.844C166.675 231.695 166.711 231.546 166.782 231.397C167.068 230.92 167.711 230.741 168.282 230.98" stroke="#D32A3B" stroke-width="3" stroke-miterlimit="10" stroke-linecap="round" stroke-linejoin="round"/>
<path d="M171.816 101.171C159.607 103.108 147.826 96.3732 145.541 86.1816L138.258 53.9976L192.272 45.5046L197.699 69.5234C201.054 84.2148 189.452 98.3996 171.816 101.171Z" fill="#FBC3AA"/>
<path opacity="0.76" d="M160.356 86.1816L153.074 53.9976L192.772 47.7397L192.272 45.4749L138.258 53.9679L145.541 86.1518C147.861 96.3434 159.607 103.048 171.816 101.141C172.958 100.962 174.101 100.724 175.172 100.456C167.782 98.3698 161.927 93.0654 160.356 86.1816Z" fill="#F2AD91"/>
<path d="M193.236 47.8885L191.272 38.4717L137.722 49.5871C136.045 49.9447 135.009 51.2857 135.331 52.7161L142.078 82.6353L150.931 81.2347L146.79 58.3185L193.236 47.8885Z" fill="#C65132"/>
<path d="M174.065 84.9002C170.174 84.9002 166.532 84.3042 163.462 83.2612C164.819 87.9994 169.031 91.4562 174.065 91.4562C179.099 91.4562 183.276 87.9994 184.668 83.2612C181.562 84.2744 177.956 84.9002 174.065 84.9002Z" fill="white"/>
<path d="M162.713 72.0862C162.427 70.8346 163.427 69.6128 164.926 69.4042C166.425 69.1658 167.889 70.0002 168.139 71.2518" stroke="#3F2E21" stroke-width="4" stroke-miterlimit="10" stroke-linecap="round" stroke-linejoin="round"/>
<path d="M157.964 67.9739L167.353 64.0701" stroke="#DD6944" stroke-width="8" stroke-miterlimit="10" stroke-linecap="round" stroke-linejoin="round"/>
<path d="M184.989 67.7057C184.704 66.4541 183.276 65.6197 181.776 65.8581C180.277 66.0965 179.277 67.2885 179.563 68.5401" stroke="#3F2E21" stroke-width="4" stroke-miterlimit="10" stroke-linecap="round" stroke-linejoin="round"/>
<path d="M187.453 63.5038L176.992 62.729" stroke="#DD6944" stroke-width="8" stroke-miterlimit="10" stroke-linecap="round" stroke-linejoin="round"/>
<path d="M190.023 49.7063C190.558 51.5539 194.664 64.0997 194.664 64.0997H196.449L192.629 47.1733L190.023 49.7063Z" fill="#C65132"/>
<path d="M142.827 85.2577C147.638 85.2577 151.538 82.0024 151.538 77.9865C151.538 73.9707 147.638 70.7153 142.827 70.7153C138.017 70.7153 134.117 73.9707 134.117 77.9865C134.117 82.0024 138.017 85.2577 142.827 85.2577Z" fill="#FBC3AA"/>
<path d="M144.042 81.801C146.565 81.801 148.611 80.0932 148.611 77.9866C148.611 75.8801 146.565 74.1722 144.042 74.1722C141.518 74.1722 139.472 75.8801 139.472 77.9866C139.472 80.0932 141.518 81.801 144.042 81.801Z" fill="#F2AD91"/>
<path d="M196.949 33.5547C201.161 42.7033 195.699 52.9545 184.739 56.4411C173.779 59.9575 161.499 55.3981 157.322 46.2495L196.949 33.5547Z" fill="#DD6944"/>
<path d="M172.244 37.4585C176.314 43.9549 173.28 51.9711 165.497 55.3683C157.715 58.7655 148.111 56.2325 144.042 49.7361L172.244 37.4585Z" fill="#DD6944"/>
<path d="M151.574 123.789V118.544C151.574 114.283 147.433 111.392 142.292 111.392L139.079 112.406V111.184C139.079 110.469 139.293 109.783 139.65 109.157C140.971 108.651 142.435 108.383 144.006 108.383C146.005 108.383 147.861 108.83 149.468 109.634C151.824 110.796 153.609 112.704 154.359 114.939C154.609 115.713 154.751 116.518 154.751 117.352C154.787 119.885 153.538 122.15 151.574 123.789Z" fill="#25314C"/>
<path d="M156.072 174.926C161.692 174.926 166.247 171.123 166.247 166.433C166.247 161.742 161.692 157.94 156.072 157.94C150.453 157.94 145.898 161.742 145.898 166.433C145.898 171.123 150.453 174.926 156.072 174.926Z" fill="#FBC3AA"/>
<path d="M168.21 169.026L163.105 166.94C161.748 166.373 161.177 165.003 161.856 163.87L163.069 161.814L170.638 164.913C171.994 165.479 172.566 166.85 171.887 167.983C171.245 169.145 169.602 169.592 168.21 169.026Z" fill="#F2AD91"/>
<path d="M157.572 175.611L158.964 170.337C159.321 168.906 160.999 168.012 162.713 168.34L165.39 168.847C165.604 168.877 165.747 169.055 165.676 169.234L163.712 176.744C163.355 178.174 161.677 179.068 159.964 178.74C158.286 178.413 157.179 177.012 157.572 175.611Z" fill="#F2AD91"/>
<path d="M160.142 167.863C163.284 165.062 162.82 160.622 159.143 158.298C151.86 153.679 146.755 146.646 145.719 138.57C144.863 132.103 146.683 125.905 150.36 120.72C151.895 118.574 151.86 115.803 150.146 113.747C146.969 109.873 140.079 110.022 137.187 113.985C131.868 121.346 129.226 130.137 130.261 139.345C131.618 151.354 139.079 161.784 149.861 168.608C153.038 170.605 157.465 170.247 160.142 167.863Z" fill="#DD3142"/>
<path d="M150.396 120.72C151.36 119.379 151.681 117.829 151.396 116.339C149.896 117.65 148.361 118.902 147.933 119.498C143.756 125.339 142.007 132.044 142.899 138.838C144.006 147.242 149.289 155.049 157.429 160.205C158.286 160.741 160.856 163.125 162.07 164.734C162.641 162.41 161.606 159.877 159.143 158.298C151.86 153.679 146.755 146.646 145.719 138.57C144.898 132.074 146.683 125.905 150.396 120.72Z" fill="#D82B45"/>
<path d="M171.78 132.908C173.555 132.908 174.993 131.707 174.993 130.226C174.993 128.745 173.555 127.544 171.78 127.544C170.006 127.544 168.567 128.745 168.567 130.226C168.567 131.707 170.006 132.908 171.78 132.908Z" fill="#DD3142"/>
<path d="M165.89 139.553C166.777 139.553 167.496 138.953 167.496 138.212C167.496 137.472 166.777 136.871 165.89 136.871C165.003 136.871 164.283 137.472 164.283 138.212C164.283 138.953 165.003 139.553 165.89 139.553Z" fill="#DD3142"/>
<path d="M179.777 135.203C180.664 135.203 181.384 134.602 181.384 133.862C181.384 133.121 180.664 132.521 179.777 132.521C178.89 132.521 178.171 133.121 178.171 133.862C178.171 134.602 178.89 135.203 179.777 135.203Z" fill="#DD3142"/>
<path d="M176.243 140.894C177.13 140.894 177.849 140.294 177.849 139.553C177.849 138.813 177.13 138.212 176.243 138.212C175.356 138.212 174.636 138.813 174.636 139.553C174.636 140.294 175.356 140.894 176.243 140.894Z" fill="#DD3142"/>
<path opacity="0.69" d="M167.833 76.4728C170.065 75.9236 171.657 74.8642 171.389 74.1067C171.122 73.3489 169.096 73.1796 166.864 73.7285C164.633 74.2778 163.04 75.3369 163.308 76.0947C163.575 76.8525 165.601 77.0217 167.833 76.4728Z" fill="#F2AD91"/>
<path opacity="0.69" d="M184.328 72.8595C186.634 72.6047 188.403 71.7631 188.279 70.98C188.155 70.1969 186.184 69.7683 183.878 70.0231C181.571 70.2779 179.802 71.1195 179.927 71.9026C180.05 72.6858 182.021 73.1143 184.328 72.8595Z" fill="#F2AD91"/>
<path d="M228.793 94.0786C229.661 94.0786 230.364 93.4915 230.364 92.7674C230.364 92.0432 229.661 91.4562 228.793 91.4562C227.926 91.4562 227.222 92.0432 227.222 92.7674C227.222 93.4915 227.926 94.0786 228.793 94.0786Z" fill="#BCBCBC"/>
</svg>
