<svg width="939" height="1028" viewBox="0 0 939 1028" fill="none" xmlns="http://www.w3.org/2000/svg">
<path opacity="0.79" d="M255.22 647.846C308.583 647.846 351.843 602.097 351.843 545.662C351.843 489.228 308.583 443.479 255.22 443.479C201.856 443.479 158.597 489.228 158.597 545.662C158.597 602.097 201.856 647.846 255.22 647.846Z" fill="url(#paint0_radial_902:114)"/>
<path d="M594.481 477.712C594.481 477.712 608.753 473.908 635.984 444.096C663.215 414.284 709.039 388.07 725.847 447.9C735.8 483.263 728.758 563.344 696.174 571.774C674.296 577.53 651.196 558.307 636.642 542.373C622.087 526.439 594.387 518.523 594.387 518.523V477.712H594.481Z" fill="#00B763"/>
<path d="M594.48 477.712V518.626C594.48 518.626 622.181 526.542 636.735 542.476C641.149 547.307 646.407 552.55 652.135 557.176C656.173 551.83 664.06 540.214 666.784 531.682C679.178 491.59 672.23 445.844 640.679 439.162C639.083 440.806 637.487 442.451 635.984 444.096C608.753 473.908 594.48 477.712 594.48 477.712Z" fill="#07AD5A"/>
<path opacity="0.8" d="M608.19 484.085C608.19 484.085 654.671 469.796 685.658 435.872" stroke="#442753" stroke-width="4" stroke-miterlimit="10" stroke-linecap="round" stroke-linejoin="round"/>
<path opacity="0.8" d="M609.505 494.982C609.505 494.982 677.301 485.216 702.935 472.983" stroke="#442753" stroke-width="4" stroke-miterlimit="10" stroke-linecap="round" stroke-linejoin="round"/>
<path opacity="0.8" d="M609.787 515.542C609.787 515.542 647.723 525.719 685.658 550.288" stroke="#442753" stroke-width="4" stroke-miterlimit="10" stroke-linecap="round" stroke-linejoin="round"/>
<path opacity="0.8" d="M609.787 507.318C609.787 507.318 675.705 513.692 702.936 513.692" stroke="#442753" stroke-width="4" stroke-miterlimit="10" stroke-linecap="round" stroke-linejoin="round"/>
<path d="M457.387 372.342C457.387 372.342 461.8 352.81 469.124 345.1C476.448 337.39 488.562 335.128 514.008 340.268C539.361 345.408 557.86 354.866 557.86 365.66C557.86 370.8 539.455 388.173 534.948 388.173C530.441 388.173 470.157 370.491 457.387 372.342Z" fill="#00B763"/>
<path d="M499.736 354.66C477.951 354.66 468.279 365.248 464.617 372.547C485.087 374.809 531.098 388.173 534.948 388.173C538.329 388.173 549.784 378.098 555.043 371.108C546.404 359.697 521.333 354.66 499.736 354.66Z" fill="#07AD5A"/>
<path opacity="0.8" d="M479.172 366.996C479.172 366.996 483.961 354.66 493.445 349.52" stroke="#442753" stroke-width="4" stroke-miterlimit="10" stroke-linecap="round" stroke-linejoin="round"/>
<path opacity="0.8" d="M515.417 354.66C504.619 358.258 496.168 371.108 496.168 371.108" stroke="#442753" stroke-width="4" stroke-miterlimit="10" stroke-linecap="round" stroke-linejoin="round"/>
<path opacity="0.8" d="M515.417 373.884C515.417 373.884 523.868 362.781 537.953 362.781" stroke="#442753" stroke-width="4" stroke-miterlimit="10" stroke-linecap="round" stroke-linejoin="round"/>
<path d="M457.387 372.342C457.387 372.342 461.8 352.81 469.124 345.1C476.448 337.39 488.562 335.128 514.008 340.268C539.361 345.408 557.86 354.866 557.86 365.66C557.86 370.8 539.455 388.173 534.948 388.173C530.441 388.173 470.157 370.491 457.387 372.342Z" stroke="#0F7C46" stroke-width="6" stroke-miterlimit="10" stroke-linecap="round" stroke-linejoin="round"/>
<path d="M594.481 477.712C594.481 477.712 608.753 473.908 635.984 444.096C663.215 414.284 709.039 388.07 725.847 447.9C735.8 483.263 728.758 563.344 696.174 571.774C674.296 577.53 651.196 558.307 636.642 542.373C622.087 526.439 594.387 518.523 594.387 518.523V477.712H594.481Z" stroke="#0F7C46" stroke-width="6" stroke-miterlimit="10" stroke-linecap="round" stroke-linejoin="round"/>
<path d="M432.879 637.566C432.879 637.566 455.884 669.948 467.622 682.798C479.359 695.648 570.912 671.49 581.241 660.182C591.57 648.874 594.387 623.174 539.925 608.782C540.019 608.782 490.721 653.808 432.879 637.566Z" fill="#00B763"/>
<path d="M457.199 670.256C492.412 668.714 557.203 662.752 586.406 639.622C583.307 628.828 570.818 617.006 539.925 608.884C539.925 608.884 493.726 651.032 438.325 639.005C437.386 639.93 436.541 640.752 435.79 641.678C440.203 647.743 449.124 659.976 457.199 670.256Z" fill="#07AD5A"/>
<path opacity="0.8" d="M470.814 654.014C470.814 654.014 483.021 664.191 487.623 674.471" stroke="#442753" stroke-width="4" stroke-miterlimit="10" stroke-linecap="round" stroke-linejoin="round"/>
<path opacity="0.8" d="M493.444 652.78C493.444 652.78 503.773 661.518 508.093 670.667" stroke="#442753" stroke-width="4" stroke-miterlimit="10" stroke-linecap="round" stroke-linejoin="round"/>
<path opacity="0.8" d="M510.064 646.304C510.064 646.304 521.614 652.06 528.375 664.191" stroke="#442753" stroke-width="4" stroke-miterlimit="10" stroke-linecap="round" stroke-linejoin="round"/>
<path opacity="0.8" d="M524.338 640.958C524.338 640.958 545.09 647.434 549.315 656.584" stroke="#442753" stroke-width="4" stroke-miterlimit="10" stroke-linecap="round" stroke-linejoin="round"/>
<path opacity="0.8" d="M541.428 631.706C541.428 631.706 563.494 637.257 567.814 646.406" stroke="#442753" stroke-width="4" stroke-miterlimit="10" stroke-linecap="round" stroke-linejoin="round"/>
<path d="M432.879 637.566C432.879 637.566 455.884 669.948 467.622 682.798C479.359 695.648 570.912 671.49 581.241 660.182C591.57 648.874 594.387 623.174 539.925 608.782C540.019 608.782 490.721 653.808 432.879 637.566Z" stroke="#0F7C46" stroke-width="6" stroke-miterlimit="10" stroke-linecap="round" stroke-linejoin="round"/>
<path d="M229.21 531.682C229.21 531.682 234.844 559.54 255.126 557.382C270.244 555.84 273.906 520.99 251.276 507.729C228.553 494.571 229.21 531.682 229.21 531.682Z" fill="#F4E834"/>
<path d="M229.21 531.682C229.21 531.682 234.844 559.54 255.126 557.382C270.244 555.84 273.906 520.99 251.276 507.729C228.553 494.571 229.21 531.682 229.21 531.682Z" fill="#F4E834" stroke="#D3A548" stroke-width="6" stroke-miterlimit="10"/>
<path d="M246.863 540.111C252.152 540.111 256.441 535.416 256.441 529.626C256.441 523.835 252.152 519.14 246.863 519.14C241.573 519.14 237.285 523.835 237.285 529.626C237.285 535.416 241.573 540.111 246.863 540.111Z" fill="#F4E834"/>
<path opacity="0.66" d="M246.863 538.878C251.53 538.878 255.314 534.736 255.314 529.626C255.314 524.515 251.53 520.374 246.863 520.374C242.195 520.374 238.412 524.515 238.412 529.626C238.412 534.736 242.195 538.878 246.863 538.878Z" fill="#F99338"/>
<path d="M608.753 487.58C598.143 409.247 526.497 355.894 448.842 368.538C434.287 370.902 420.578 375.426 407.995 381.594C393.253 388.892 375.787 384.78 365.177 371.416C360.482 365.454 356.068 360.211 353.721 357.95C347.054 351.576 339.354 345.1 330.528 339.446C326.114 336.567 321.419 333.894 316.443 331.53C311.466 329.166 306.208 327.007 300.761 325.362C299.353 324.951 298.038 324.54 296.63 324.128C295.221 323.82 293.813 323.409 292.404 323.1C290.996 322.792 289.493 322.586 288.085 322.278C286.676 321.97 285.174 321.867 283.672 321.661C277.756 320.942 271.746 320.839 265.643 321.558C259.539 322.175 253.436 323.614 247.52 325.979L246.393 326.39L245.83 326.596L245.548 326.698C244.797 327.007 245.266 326.801 245.079 326.904L244.985 327.007L243.107 327.932L241.229 328.857L240.29 329.371C240.008 329.577 239.539 329.782 239.257 329.988C237.754 330.81 236.346 331.736 234.937 332.558C233.529 333.483 232.308 334.408 230.994 335.334C225.923 339.24 221.228 343.66 217.19 348.492C213.153 353.426 209.491 358.669 206.392 364.015C203.293 369.463 200.57 375.117 198.316 380.977L197.941 382.108L197.565 383.238L196.814 385.294C196.626 385.911 196.345 386.734 196.063 387.556L195.406 389.818C194.936 391.36 194.654 392.799 194.185 394.341C193.809 395.883 193.528 397.322 193.152 398.864C190.711 410.892 190.335 422.714 191.274 433.816C192.307 444.816 194.56 455.096 197.471 464.039C200.382 473.086 203.95 480.898 207.519 487.58C211.087 494.262 214.655 499.711 217.754 504.028C219.256 506.187 220.759 508.038 221.979 509.682C222.637 510.505 223.2 511.224 223.763 511.841C221.322 519.14 218.129 533.532 226.486 542.578C234.186 551.008 236.628 519.243 253.248 516.364C258.506 515.439 259.821 507.832 254.469 501.972C249.961 497.038 239.257 496.216 229.773 503.514C229.679 503.309 229.491 503.206 229.397 503C228.271 501.458 226.956 499.608 225.641 497.552C222.918 493.44 219.726 488.197 216.627 481.926C213.528 475.656 210.523 468.357 208.176 460.03C205.735 451.703 204.044 442.451 203.481 432.685C202.918 422.816 203.669 412.434 206.11 402.154C206.486 400.92 206.767 399.584 207.143 398.35C207.519 397.116 207.894 395.78 208.27 394.546L208.927 392.696C209.115 392.079 209.303 391.462 209.584 390.846L210.336 388.79L210.711 387.967L211.087 387.042C213.153 382.108 215.688 377.276 218.505 372.65C221.322 368.024 224.608 363.706 228.083 359.8C231.651 355.894 235.501 352.398 239.632 349.52C240.665 348.8 241.698 348.081 242.731 347.464C243.764 346.95 244.703 346.333 245.736 345.819C246.018 345.716 246.205 345.511 246.487 345.408L247.426 344.997L249.398 344.174L251.276 343.352L251.464 343.249L251.933 343.146L252.778 342.838C257.38 341.193 262.168 340.268 266.957 339.96C271.746 339.651 276.629 339.857 281.418 340.679C282.639 340.885 283.765 341.09 284.986 341.296C286.207 341.604 287.334 341.81 288.554 342.118C289.681 342.427 290.902 342.735 292.029 343.146C293.155 343.455 294.282 343.866 295.409 344.277C299.916 345.922 304.33 347.875 308.461 350.034C312.593 352.296 316.537 354.66 320.293 357.333C327.805 362.576 334.284 368.435 340.012 374.295C341.796 376.042 344.894 380.154 348.463 384.986C358.792 399.07 359.355 418.807 349.777 433.508C331.185 462.086 322.264 497.244 327.147 533.326C337.758 611.66 409.404 665.013 487.059 652.369C564.714 639.724 619.364 566.017 608.753 487.58Z" fill="#00F0B5"/>
<path d="M357.477 599.941C357.477 599.941 358.322 604.053 372.595 598.193C386.868 592.334 398.793 572.904 398.793 572.904L365.365 586.68L347.806 590.072L357.477 599.941Z" fill="#12CC9B"/>
<path d="M354.378 362.781C354.378 362.781 366.022 389.201 385.647 394.341C405.084 399.481 415.977 382.313 432.973 373.781C418.23 376.968 400.483 386.117 400.483 386.117C400.483 386.117 377.759 389.406 362.829 371.005C347.899 352.707 354.378 362.781 354.378 362.781Z" fill="#12CC9B"/>
<g opacity="0.76">
<path opacity="0.76" d="M608.753 487.58C600.021 423.536 550.535 376.248 490.252 368.024C530.629 387.556 583.87 400.406 584.339 484.085C584.997 587.091 518.14 641.061 446.494 646.304C432.221 647.332 417.667 642.192 404.239 640.444C429.029 652.472 457.574 657.098 487.153 652.369C564.902 639.724 619.364 566.017 608.753 487.58Z" fill="#12CC9B"/>
</g>
<path d="M429.217 531.682C444.775 531.682 457.387 517.184 457.387 499.3C457.387 481.415 444.775 466.918 429.217 466.918C413.66 466.918 401.047 481.415 401.047 499.3C401.047 517.184 413.66 531.682 429.217 531.682Z" fill="#442753"/>
<path d="M421.705 504.44C428.135 504.44 433.349 498.457 433.349 491.076C433.349 483.695 428.135 477.712 421.705 477.712C415.274 477.712 410.062 483.695 410.062 491.076C410.062 498.457 415.274 504.44 421.705 504.44Z" fill="white"/>
<path d="M439.734 518.626C443.52 518.626 446.588 515.128 446.588 510.813C446.588 506.499 443.52 503 439.734 503C435.948 503 432.879 506.499 432.879 510.813C432.879 515.128 435.948 518.626 439.734 518.626Z" fill="white"/>
<path d="M519.643 506.187C519.173 504.954 516.544 498.58 510.347 494.982C499.642 488.711 487.06 495.599 480.674 498.991C476.167 501.458 470.721 504.337 470.439 508.757C470.158 513.486 475.604 515.645 476.073 520.168C475.604 524.794 470.158 526.953 470.439 531.682C470.721 536.102 476.167 539.083 480.674 541.448C486.966 544.84 499.642 551.728 510.347 545.457C516.544 541.859 519.173 535.485 519.643 534.252C520.394 532.298 521.615 526.233 521.615 520.168C521.615 514.103 520.394 508.14 519.643 506.187Z" fill="#00B763"/>
<path opacity="0.8" d="M482.177 512.561C482.177 512.561 498.609 508.14 509.032 508.14" stroke="#442753" stroke-width="4" stroke-miterlimit="10" stroke-linecap="round" stroke-linejoin="round"/>
<path opacity="0.8" d="M482.177 521.916C482.177 521.916 498.234 519.448 505.276 523.046" stroke="#442753" stroke-width="4" stroke-miterlimit="10" stroke-linecap="round" stroke-linejoin="round"/>
<path d="M519.643 506.187C519.173 504.954 516.544 498.58 510.347 494.982C499.642 488.711 487.06 495.599 480.674 498.991C476.167 501.458 470.721 504.337 470.439 508.757C470.158 513.486 475.604 515.645 476.073 520.168C475.604 524.794 470.158 526.953 470.439 531.682C470.721 536.102 476.167 539.083 480.674 541.448C486.966 544.84 499.642 551.728 510.347 545.457C516.544 541.859 519.173 535.485 519.643 534.252C520.394 532.298 521.615 526.233 521.615 520.168C521.615 514.103 520.394 508.14 519.643 506.187Z" stroke="#0F7C46" stroke-width="6" stroke-miterlimit="10" stroke-linecap="round" stroke-linejoin="round"/>
<path d="M608.753 487.58C598.143 409.247 526.497 355.894 448.842 368.538C434.287 370.902 420.578 375.426 407.995 381.594C393.253 388.892 375.787 384.78 365.177 371.416C360.482 365.454 356.068 360.211 353.721 357.95C347.054 351.576 339.354 345.1 330.528 339.446C326.114 336.567 321.419 333.894 316.443 331.53C311.466 329.166 306.208 327.007 300.761 325.362C299.353 324.951 298.038 324.54 296.63 324.128C295.221 323.82 293.813 323.409 292.404 323.1C290.996 322.792 289.493 322.586 288.085 322.278C286.676 321.97 285.174 321.867 283.672 321.661C277.756 320.942 271.746 320.839 265.643 321.558C259.539 322.175 253.436 323.614 247.52 325.979L246.393 326.39L245.83 326.596L245.548 326.698C244.797 327.007 245.266 326.801 245.079 326.904L244.985 327.007L243.107 327.932L241.229 328.857L240.29 329.371C240.008 329.577 239.539 329.782 239.257 329.988C237.754 330.81 236.346 331.736 234.937 332.558C233.529 333.483 232.308 334.408 230.994 335.334C225.923 339.24 221.228 343.66 217.19 348.492C213.153 353.426 209.491 358.669 206.392 364.015C203.293 369.463 200.57 375.117 198.316 380.977L197.941 382.108L197.565 383.238L196.814 385.294C196.626 385.911 196.345 386.734 196.063 387.556L195.406 389.818C194.936 391.36 194.654 392.799 194.185 394.341C193.809 395.883 193.528 397.322 193.152 398.864C190.711 410.892 190.335 422.714 191.274 433.816C192.307 444.816 194.56 455.096 197.471 464.039C200.382 473.086 203.95 480.898 207.519 487.58C211.087 494.262 214.655 499.711 217.754 504.028C219.256 506.187 220.759 508.038 221.979 509.682C222.637 510.505 223.2 511.224 223.763 511.841C221.322 519.14 218.129 533.532 226.486 542.578C234.186 551.008 236.628 519.243 253.248 516.364C258.506 515.439 259.821 507.832 254.469 501.972C249.961 497.038 239.257 496.216 229.773 503.514C229.679 503.309 229.491 503.206 229.397 503C228.271 501.458 226.956 499.608 225.641 497.552C222.918 493.44 219.726 488.197 216.627 481.926C213.528 475.656 210.523 468.357 208.176 460.03C205.735 451.703 204.044 442.451 203.481 432.685C202.918 422.816 203.669 412.434 206.11 402.154C206.486 400.92 206.767 399.584 207.143 398.35C207.519 397.116 207.894 395.78 208.27 394.546L208.927 392.696C209.115 392.079 209.303 391.462 209.584 390.846L210.336 388.79L210.711 387.967L211.087 387.042C213.153 382.108 215.688 377.276 218.505 372.65C221.322 368.024 224.608 363.706 228.083 359.8C231.651 355.894 235.501 352.398 239.632 349.52C240.665 348.8 241.698 348.081 242.731 347.464C243.764 346.95 244.703 346.333 245.736 345.819C246.018 345.716 246.205 345.511 246.487 345.408L247.426 344.997L249.398 344.174L251.276 343.352L251.464 343.249L251.933 343.146L252.778 342.838C257.38 341.193 262.168 340.268 266.957 339.96C271.746 339.651 276.629 339.857 281.418 340.679C282.639 340.885 283.765 341.09 284.986 341.296C286.207 341.604 287.334 341.81 288.554 342.118C289.681 342.427 290.902 342.735 292.029 343.146C293.155 343.455 294.282 343.866 295.409 344.277C299.916 345.922 304.33 347.875 308.461 350.034C312.593 352.296 316.537 354.66 320.293 357.333C327.805 362.576 334.284 368.435 340.012 374.295C341.796 376.042 344.894 380.154 348.463 384.986C358.792 399.07 359.355 418.807 349.777 433.508C331.185 462.086 322.264 497.244 327.147 533.326C337.758 611.66 409.404 665.013 487.059 652.369C564.714 639.724 619.364 566.017 608.753 487.58Z" stroke="#0A8E6B" stroke-width="6" stroke-miterlimit="10" stroke-linecap="round" stroke-linejoin="round"/>
<path d="M376.445 582.67C370.623 585.138 364.707 587.091 358.885 588.427C347.43 576.194 340.669 557.69 341.89 537.438C342.735 524.383 346.678 512.561 352.876 503C352.125 506.907 351.561 511.019 351.373 515.131C349.589 541.859 359.637 566.531 376.445 582.67Z" fill="white"/>
<path d="M376.445 582.67C370.623 585.138 364.707 587.091 358.885 588.427C347.43 576.194 340.669 557.69 341.89 537.438C342.735 524.383 346.678 512.561 352.876 503C352.125 506.907 351.561 511.019 351.373 515.131C349.589 541.859 359.637 566.531 376.445 582.67Z" stroke="white" stroke-width="3" stroke-miterlimit="10" stroke-linecap="round" stroke-linejoin="round"/>
<path d="M393.628 573.624C390.53 575.577 387.337 577.428 384.051 579.072C383.299 579.484 382.454 579.895 381.703 580.203C376.069 571.568 372.595 560.568 372.595 548.541C372.595 537.952 375.224 528.186 379.731 520.168C379.356 523.355 379.074 526.644 379.074 530.037C379.074 546.793 384.614 562.11 393.628 573.624Z" fill="white"/>
<path d="M393.628 573.624C390.53 575.577 387.337 577.428 384.051 579.072C383.299 579.484 382.454 579.895 381.703 580.203C376.069 571.568 372.595 560.568 372.595 548.541C372.595 537.952 375.224 528.186 379.731 520.168C379.356 523.355 379.074 526.644 379.074 530.037C379.074 546.793 384.614 562.11 393.628 573.624Z" stroke="white" stroke-width="3" stroke-miterlimit="10" stroke-linecap="round" stroke-linejoin="round"/>
<path opacity="0.3" d="M453.537 553.064C453.537 553.064 453.537 574.755 435.227 587.091" stroke="#212121" stroke-width="6" stroke-miterlimit="10" stroke-linecap="round" stroke-linejoin="round"/>
<path opacity="0.3" d="M469.219 561.596C469.219 561.596 476.355 577.222 468.749 594.39" stroke="#212121" stroke-width="6" stroke-miterlimit="10" stroke-linecap="round" stroke-linejoin="round"/>
<path d="M404.521 565.914C398.324 570.951 391.469 575.474 384.051 579.175C372.877 584.829 361.421 588.427 350.153 590.072" stroke="#0A8E6B" stroke-width="6" stroke-miterlimit="10" stroke-linecap="round" stroke-linejoin="round"/>
<path opacity="0.8" d="M482.177 530.037C482.177 530.037 494.759 531.373 497.389 534.252" stroke="#442753" stroke-width="4" stroke-miterlimit="10" stroke-linecap="round" stroke-linejoin="round"/>
<defs>
<radialGradient id="paint0_radial_902:114" cx="0" cy="0" r="1" gradientUnits="userSpaceOnUse" gradientTransform="translate(255.236 545.696) scale(67.0322 73.3856)">
<stop stop-color="#FFFF00"/>
<stop offset="1" stop-color="#FFFF00" stop-opacity="0"/>
</radialGradient>
</defs>
</svg>
