<svg width="58" height="62" viewBox="0 0 58 62" fill="none" xmlns="http://www.w3.org/2000/svg">
<g clip-path="url(#clip0_101:4)">
<path d="M42.674 44.9504H16.4565C16.4565 43.0065 18.085 41.4719 20.1476 41.4719H38.9286C40.9913 41.4719 42.674 43.0065 42.674 44.9504Z" fill="white" stroke="white" stroke-miterlimit="10"/>
<path d="M40.9913 43.2112H17.2165V53.6979H40.9913V43.2112Z" fill="#8F312C"/>
<path d="M40.0143 55.7441V57.7391C36.7575 59.3249 32.9578 60.2457 28.9411 60.2457C25.0329 60.2457 21.2875 59.3761 18.1393 57.8926V55.7952C18.1393 53.2375 19.3335 50.9867 21.2875 49.2986C23.2416 47.6105 26.0099 46.5362 29.1039 46.5362C32.0351 46.5362 34.6948 47.5082 36.7032 49.094C36.7575 49.1451 36.8117 49.1963 36.866 49.2474C38.7658 50.8844 40.0143 53.1863 40.0143 55.7441Z" fill="#AF3F3F"/>
<path d="M6.90321 41.4719C10.3807 41.4719 13.1997 38.8152 13.1997 35.538C13.1997 32.2607 10.3807 29.604 6.90321 29.604C3.42574 29.604 0.606689 32.2607 0.606689 35.538C0.606689 38.8152 3.42574 41.4719 6.90321 41.4719Z" fill="#F3998A"/>
<path d="M51.4131 41.4719C54.8906 41.4719 57.7096 38.8152 57.7096 35.538C57.7096 32.2607 54.8906 29.604 51.4131 29.604C47.9356 29.604 45.1166 32.2607 45.1166 35.538C45.1166 38.8152 47.9356 41.4719 51.4131 41.4719Z" fill="#F3998A"/>
<path d="M44.8995 15.6388C40.8827 11.8533 35.2918 9.50021 29.1582 9.50021C16.8908 9.50021 6.9032 18.9127 6.9032 30.4736V40.6534C6.9032 48.5313 11.517 55.386 18.3564 58.9668C21.5589 60.6549 25.25 61.6269 29.1582 61.6269C33.1749 61.6269 36.9745 60.6038 40.2314 58.8645C46.9078 55.2325 51.4131 48.4289 51.4131 40.6534V30.4736C51.4131 24.6932 48.9162 19.4242 44.8995 15.6388ZM29.0496 52.1121C26.1185 52.1121 23.4587 51.089 21.5046 49.3497C19.8762 47.9686 18.7363 46.1781 18.1935 44.132C17.8678 42.8531 18.8992 41.5742 20.3105 41.5742H37.843C39.2543 41.5742 40.2856 42.8531 39.96 44.132C39.4172 46.0758 38.3858 47.8151 36.866 49.1451C34.8033 50.9867 32.0893 52.1121 29.0496 52.1121Z" fill="#F7B3A2"/>
<path d="M44.8452 34.9753H35.0747V28.8367C35.0747 26.279 37.2459 24.2328 39.9599 24.2328C42.674 24.2328 44.8452 26.279 44.8452 28.8367V34.9753Z" fill="white"/>
<path d="M22.9702 34.9753H13.1997V28.8367C13.1997 26.279 15.3709 24.2328 18.0849 24.2328C20.799 24.2328 22.9702 26.279 22.9702 28.8367V34.9753Z" fill="white"/>
<path d="M18.085 37.533C21.7124 37.533 24.6529 36.6856 24.6529 35.6403C24.6529 34.595 21.7124 33.7476 18.085 33.7476C14.4577 33.7476 11.5171 34.595 11.5171 35.6403C11.5171 36.6856 14.4577 37.533 18.085 37.533Z" fill="#F7B3A2"/>
<path d="M39.96 37.533C43.5873 37.533 46.5279 36.6856 46.5279 35.6403C46.5279 34.595 43.5873 33.7476 39.96 33.7476C36.3326 33.7476 33.392 34.595 33.392 35.6403C33.392 36.6856 36.3326 37.533 39.96 37.533Z" fill="#F7B3A2"/>
<path d="M19.1163 33.6452H18.1393C17.5965 33.6452 17.1622 33.236 17.1622 32.7244V28.8367C17.1622 28.3251 17.5965 27.9159 18.1393 27.9159H19.1163C19.6591 27.9159 20.0934 28.3251 20.0934 28.8367V32.7244C20.1477 33.236 19.6591 33.6452 19.1163 33.6452Z" fill="#4C4B4B"/>
<path d="M39.9057 33.4406H38.9286C38.3858 33.4406 37.9516 33.0314 37.9516 32.5198V28.6321C37.9516 28.1205 38.3858 27.7113 38.9286 27.7113H39.9057C40.4485 27.7113 40.8827 28.1205 40.8827 28.6321V32.5198C40.937 33.0314 40.5028 33.4406 39.9057 33.4406Z" fill="#4C4B4B"/>
<path d="M33.9891 34.873C33.9891 36.0495 32.9578 37.0215 31.7094 37.0215H26.5527C25.3043 37.0215 24.2729 36.0495 24.2729 34.873C24.2729 33.6964 25.3043 32.7245 26.5527 32.7245H27.5298V29.8598C27.5298 29.0925 28.1811 28.4275 29.0496 28.4275C29.4839 28.4275 29.8638 28.5809 30.1352 28.8367C30.4066 29.0925 30.5695 29.4506 30.5695 29.8598V32.7245H31.7094C32.9578 32.7245 33.9891 33.6452 33.9891 34.873Z" fill="#EA9587"/>
<path d="M37.6259 21.2147C43.4716 21.2147 48.2106 16.7486 48.2106 11.2395C48.2106 5.73035 43.4716 1.26431 37.6259 1.26431C31.7801 1.26431 27.0412 5.73035 27.0412 11.2395C27.0412 16.7486 31.7801 21.2147 37.6259 21.2147Z" fill="#FEC608"/>
<path d="M20.3105 21.2147C26.1563 21.2147 30.8952 16.7486 30.8952 11.2395C30.8952 5.73035 26.1563 1.26431 20.3105 1.26431C14.4648 1.26431 9.72583 5.73035 9.72583 11.2395C9.72583 16.7486 14.4648 21.2147 20.3105 21.2147Z" fill="#FEC608"/>
<path d="M49.2962 23.977C53.1334 23.977 56.244 21.0454 56.244 17.4292C56.244 13.8129 53.1334 10.8814 49.2962 10.8814C45.4589 10.8814 42.3483 13.8129 42.3483 17.4292C42.3483 21.0454 45.4589 23.977 49.2962 23.977Z" fill="#FEC608"/>
<path d="M11.1914 23.977C15.0286 23.977 18.1392 21.0454 18.1392 17.4292C18.1392 13.8129 15.0286 10.8814 11.1914 10.8814C7.35415 10.8814 4.24347 13.8129 4.24347 17.4292C4.24347 21.0454 7.35415 23.977 11.1914 23.977Z" fill="#FEC608"/>
<path d="M51.6303 30.576C54.6881 30.576 57.1669 28.2399 57.1669 25.3582C57.1669 22.4765 54.6881 20.1404 51.6303 20.1404C48.5725 20.1404 46.0937 22.4765 46.0937 25.3582C46.0937 28.2399 48.5725 30.576 51.6303 30.576Z" fill="#FEC608"/>
<path d="M6.41468 30.576C9.47246 30.576 11.9513 28.2399 11.9513 25.3582C11.9513 22.4765 9.47246 20.1404 6.41468 20.1404C3.3569 20.1404 0.878082 22.4765 0.878082 25.3582C0.878082 28.2399 3.3569 30.576 6.41468 30.576Z" fill="#FEC608"/>
<path d="M28.6697 10.4722C31.7274 10.4722 34.2063 8.13607 34.2063 5.25437C34.2063 2.37267 31.7274 0.0365906 28.6697 0.0365906C25.6119 0.0365906 23.1331 2.37267 23.1331 5.25437C23.1331 8.13607 25.6119 10.4722 28.6697 10.4722Z" fill="#FEC608"/>
<path d="M18.1935 22.6981C14.0139 22.6981 10.5942 25.9209 10.5942 29.8598C10.5942 33.7987 14.0139 37.0214 18.1935 37.0214C22.3731 37.0214 25.7927 33.7987 25.7927 29.8598C25.7927 25.9209 22.3731 22.6981 18.1935 22.6981ZM21.5589 34.8729C21.1246 35.1287 20.6361 35.3845 20.0933 35.538C19.4962 35.6914 18.8449 35.7937 18.1935 35.7937C14.7195 35.7937 11.897 33.1337 11.897 29.8598C11.897 28.3251 12.5483 26.8928 13.5797 25.8186C13.9596 25.4605 14.3939 25.1024 14.8281 24.8466C15.3709 24.5397 15.9137 24.2839 16.5108 24.1305C17.0536 23.977 17.5964 23.9258 18.1935 23.9258C21.6674 23.9258 24.49 26.5859 24.49 29.8598C24.49 31.3433 23.9472 32.6733 22.9702 33.6964C22.5359 34.1568 22.1017 34.566 21.5589 34.8729Z" fill="#3DAAE1"/>
<path d="M40.1228 22.6981C35.9432 22.6981 32.5236 25.9209 32.5236 29.8598C32.5236 33.7987 35.9432 37.0214 40.1228 37.0214C44.3024 37.0214 47.7221 33.7987 47.7221 29.8598C47.7221 25.9209 44.3024 22.6981 40.1228 22.6981ZM43.4339 34.8729C42.9997 35.1287 42.5112 35.3845 41.9683 35.538C41.3713 35.6914 40.7199 35.7937 40.0685 35.7937C36.5946 35.7937 33.772 33.1337 33.772 29.8598C33.772 28.3251 34.4234 26.8928 35.4547 25.8186C35.8347 25.4605 36.2689 25.1024 36.7032 24.8466C37.246 24.5397 37.7888 24.2839 38.3858 24.1305C38.9286 23.977 39.4714 23.9258 40.0685 23.9258C43.5425 23.9258 46.3651 26.5859 46.3651 29.8598C46.3651 31.3433 45.8223 32.6733 44.8452 33.6964C44.4652 34.1568 43.9767 34.566 43.4339 34.8729Z" fill="#3DAAE1"/>
</g>
<defs>
<clipPath id="clip0_101:4">
<rect width="57.103" height="61.5903" fill="white" transform="translate(0.606689 0.0365906)"/>
</clipPath>
</defs>
</svg>
