<svg width="752" height="559" viewBox="0 0 752 559" fill="none" xmlns="http://www.w3.org/2000/svg">
<g clip-path="url(#clip0_1030:1291)">
<path d="M490.698 61.3008H29.8388C15.8494 61.3008 4.50879 72.6414 4.50879 86.6308V200.921C4.50879 214.91 15.8494 226.251 29.8388 226.251H490.698C504.688 226.251 516.028 214.91 516.028 200.921V86.6308C516.028 72.6414 504.688 61.3008 490.698 61.3008Z" fill="#1DCDFF"/>
<path d="M516.03 164.541V216.371C516.03 221.831 505.03 226.251 491.54 226.251H29.03C15.5 226.251 4.54004 221.831 4.54004 216.371V186.371C35.72 194.631 71.22 200.201 107.63 203.661C151.63 207.841 196.98 209.061 242.14 209.241C296.14 209.461 351.04 208.151 401.87 200.821C448.45 194.131 491.64 181.771 516.03 164.541Z" fill="#1AB5E1"/>
<path d="M189.447 61.721C141.257 64.981 74.3275 61.831 32.7375 73.821C13.0275 79.491 8.14754 90.511 4.97754 99.621L5.02754 74.121C5.02754 70.851 5.30754 67.291 10.5375 64.791C17.0075 61.711 28.3775 61.471 38.3875 61.481C87.5375 61.491 141.267 59.331 189.447 61.721Z" fill="#4ED9FF"/>
<path d="M490.218 61.501H29.3583C15.3689 61.501 4.02832 72.8417 4.02832 86.831V201.121C4.02832 215.11 15.3689 226.451 29.3583 226.451H490.218C504.207 226.451 515.548 215.11 515.548 201.121V86.831C515.548 72.8417 504.207 61.501 490.218 61.501Z" stroke="#314E5D" stroke-width="8" stroke-miterlimit="10"/>
<path d="M721.699 317.301H194.909C180.919 317.301 169.579 328.642 169.579 342.631V456.921C169.579 470.91 180.919 482.251 194.909 482.251H721.699C735.688 482.251 747.029 470.91 747.029 456.921V342.631C747.029 328.642 735.688 317.301 721.699 317.301Z" fill="#1DCDFF"/>
<path d="M747.029 420.541V472.371C747.029 477.831 734.649 482.251 719.379 482.251H197.229C181.959 482.251 169.579 477.831 169.579 472.371V442.371C204.779 450.631 244.859 456.201 285.959 459.661C335.579 463.841 386.819 465.061 437.809 465.241C498.749 465.461 560.749 464.151 618.129 456.821C670.739 450.131 719.499 437.771 747.029 420.541Z" fill="#1AB5E1"/>
<path d="M378.347 317.721C323.947 320.981 248.347 317.831 201.437 329.821C179.167 335.501 173.677 346.521 170.087 355.631L170.157 330.121C170.157 326.851 170.467 323.291 176.377 320.791C183.687 317.711 196.517 317.471 207.817 317.481C263.297 317.491 323.967 315.331 378.347 317.721Z" fill="#4ED9FF"/>
<path d="M721.148 317.501H194.358C180.369 317.501 169.028 328.842 169.028 342.831V457.121C169.028 471.11 180.369 482.451 194.358 482.451H721.148C735.137 482.451 746.478 471.11 746.478 457.121V342.831C746.478 328.842 735.137 317.501 721.148 317.501Z" stroke="#314E5D" stroke-width="8" stroke-miterlimit="10"/>
<path d="M650.218 5.13086H104.138C95.3791 5.13086 88.2783 12.2316 88.2783 20.9908V534.641C88.2783 543.4 95.3791 550.501 104.138 550.501H650.218C658.977 550.501 666.078 543.4 666.078 534.641V20.9908C666.078 12.2316 658.977 5.13086 650.218 5.13086Z" fill="white"/>
<path d="M365.864 281.42C363.432 281.42 361.304 280.924 359.48 279.932C357.656 278.94 356.248 277.532 355.256 275.708C354.296 273.884 353.816 271.74 353.816 269.276C353.816 266.812 354.328 264.652 355.352 262.796C356.408 260.908 357.88 259.452 359.768 258.428C361.656 257.404 363.832 256.892 366.296 256.892C367.576 256.892 368.856 257.068 370.136 257.42C371.448 257.772 372.616 258.268 373.64 258.908C374.632 259.516 375.128 260.412 375.128 261.596C375.128 262.428 374.936 263.116 374.552 263.66C374.168 264.172 373.656 264.428 373.016 264.428C372.6 264.428 372.2 264.364 371.816 264.236C371.464 264.076 370.984 263.852 370.376 263.564C369.704 263.212 369.096 262.94 368.552 262.748C368.04 262.556 367.448 262.46 366.776 262.46C364.984 262.46 363.608 263.036 362.648 264.188C361.72 265.308 361.256 266.956 361.256 269.132C361.256 271.308 361.72 272.972 362.648 274.124C363.608 275.276 364.984 275.852 366.776 275.852C367.448 275.852 368.04 275.772 368.552 275.612C369.064 275.42 369.688 275.132 370.424 274.748C371.032 274.46 371.512 274.252 371.864 274.124C372.216 273.964 372.6 273.884 373.016 273.884C373.624 273.884 374.12 274.156 374.504 274.7C374.92 275.244 375.128 275.932 375.128 276.764C375.128 277.948 374.632 278.828 373.64 279.404C372.616 280.044 371.432 280.54 370.088 280.892C368.744 281.244 367.336 281.42 365.864 281.42ZM397.598 274.028C398.238 274.028 398.75 274.284 399.134 274.796C399.55 275.308 399.758 275.964 399.758 276.764C399.758 277.308 399.598 277.82 399.278 278.3C398.958 278.748 398.51 279.132 397.934 279.452C396.846 280.028 395.582 280.508 394.142 280.892C392.702 281.244 391.374 281.42 390.158 281.42C387.598 281.42 385.358 280.924 383.438 279.932C381.55 278.94 380.094 277.532 379.07 275.708C378.046 273.852 377.534 271.676 377.534 269.18C377.534 266.78 378.03 264.652 379.022 262.796C380.014 260.94 381.39 259.5 383.15 258.476C384.91 257.42 386.91 256.892 389.15 256.892C391.294 256.892 393.166 257.372 394.766 258.332C396.398 259.26 397.662 260.604 398.558 262.364C399.454 264.092 399.902 266.124 399.902 268.46C399.902 269.164 399.726 269.708 399.374 270.092C399.054 270.444 398.59 270.62 397.982 270.62H384.542C384.766 272.508 385.342 273.884 386.27 274.748C387.198 275.58 388.526 275.996 390.254 275.996C391.182 275.996 392.014 275.884 392.75 275.66C393.486 275.436 394.302 275.132 395.198 274.748C395.646 274.556 396.078 274.396 396.494 274.268C396.91 274.108 397.278 274.028 397.598 274.028ZM389.342 261.884C387.966 261.884 386.862 262.332 386.03 263.228C385.198 264.092 384.702 265.356 384.542 267.02H393.806C393.71 265.324 393.278 264.044 392.51 263.18C391.774 262.316 390.718 261.884 389.342 261.884ZM424.392 246.956C425.512 246.956 426.408 247.26 427.08 247.868C427.784 248.476 428.136 249.276 428.136 250.268V277.916C428.136 278.94 427.8 279.772 427.128 280.412C426.488 281.02 425.624 281.324 424.536 281.324C423.448 281.324 422.568 281.02 421.896 280.412C421.256 279.772 420.936 278.94 420.936 277.916V277.532C420.232 278.748 419.224 279.708 417.912 280.412C416.632 281.084 415.176 281.42 413.544 281.42C411.528 281.42 409.72 280.908 408.12 279.884C406.552 278.828 405.32 277.372 404.424 275.516C403.56 273.628 403.128 271.468 403.128 269.036C403.128 266.604 403.56 264.476 404.424 262.652C405.32 260.796 406.552 259.372 408.12 258.38C409.688 257.388 411.496 256.892 413.544 256.892C415.144 256.892 416.584 257.228 417.864 257.9C419.176 258.572 420.184 259.516 420.888 260.732V250.124C420.888 249.164 421.208 248.396 421.848 247.82C422.488 247.244 423.336 246.956 424.392 246.956ZM415.656 275.9C417.352 275.9 418.648 275.324 419.544 274.172C420.472 272.988 420.936 271.308 420.936 269.132C420.936 266.956 420.472 265.292 419.544 264.14C418.648 262.988 417.352 262.412 415.656 262.412C413.96 262.412 412.648 262.988 411.72 264.14C410.792 265.26 410.328 266.892 410.328 269.036C410.328 271.212 410.792 272.908 411.72 274.124C412.648 275.308 413.96 275.9 415.656 275.9ZM452.63 274.028C453.27 274.028 453.782 274.284 454.166 274.796C454.582 275.308 454.79 275.964 454.79 276.764C454.79 277.308 454.63 277.82 454.31 278.3C453.99 278.748 453.542 279.132 452.966 279.452C451.878 280.028 450.614 280.508 449.174 280.892C447.734 281.244 446.406 281.42 445.19 281.42C442.63 281.42 440.39 280.924 438.47 279.932C436.582 278.94 435.126 277.532 434.102 275.708C433.078 273.852 432.566 271.676 432.566 269.18C432.566 266.78 433.062 264.652 434.054 262.796C435.046 260.94 436.422 259.5 438.182 258.476C439.942 257.42 441.942 256.892 444.182 256.892C446.326 256.892 448.198 257.372 449.798 258.332C451.43 259.26 452.694 260.604 453.59 262.364C454.486 264.092 454.934 266.124 454.934 268.46C454.934 269.164 454.758 269.708 454.406 270.092C454.086 270.444 453.622 270.62 453.014 270.62H439.574C439.798 272.508 440.374 273.884 441.302 274.748C442.23 275.58 443.558 275.996 445.286 275.996C446.214 275.996 447.046 275.884 447.782 275.66C448.518 275.436 449.334 275.132 450.23 274.748C450.678 274.556 451.11 274.396 451.526 274.268C451.942 274.108 452.31 274.028 452.63 274.028ZM444.374 261.884C442.998 261.884 441.894 262.332 441.062 263.228C440.23 264.092 439.734 265.356 439.574 267.02H448.838C448.742 265.324 448.31 264.044 447.542 263.18C446.806 262.316 445.75 261.884 444.374 261.884ZM473.375 256.988C474.335 256.924 475.087 257.148 475.631 257.66C476.207 258.14 476.495 258.876 476.495 259.868C476.495 260.924 476.239 261.708 475.727 262.22C475.215 262.732 474.303 263.052 472.991 263.18L471.551 263.324C469.791 263.516 468.511 264.092 467.711 265.052C466.943 266.012 466.559 267.244 466.559 268.748V277.916C466.559 279.036 466.207 279.884 465.503 280.46C464.831 281.036 463.983 281.324 462.959 281.324C461.903 281.324 461.023 281.036 460.319 280.46C459.647 279.884 459.311 279.036 459.311 277.916V260.3C459.311 259.244 459.663 258.428 460.367 257.852C461.071 257.276 461.919 256.988 462.911 256.988C463.871 256.988 464.671 257.276 465.311 257.852C465.951 258.396 466.271 259.164 466.271 260.156V261.452C466.847 260.076 467.711 259.02 468.863 258.284C470.047 257.548 471.327 257.132 472.703 257.036L473.375 256.988Z" fill="black"/>
<path d="M668.58 27.1109V107.441H90.79V27.1109C90.79 13.7509 97.89 2.90088 106.65 2.90088H652.72C661.48 2.90088 668.58 13.7509 668.58 27.1109Z" fill="#DCEAEF"/>
<path d="M649.527 4.2207H103.447C94.6877 4.2207 87.5869 11.3215 87.5869 20.0807V537.671C87.5869 546.43 94.6877 553.531 103.447 553.531H649.527C658.286 553.531 665.387 546.43 665.387 537.671V20.0807C665.387 11.3215 658.286 4.2207 649.527 4.2207Z" stroke="#314E5D" stroke-width="8" stroke-miterlimit="10"/>
<path d="M142.028 72.4409C148.655 72.4409 154.028 67.0683 154.028 60.4409C154.028 53.8135 148.655 48.4409 142.028 48.4409C135.401 48.4409 130.028 53.8135 130.028 60.4409C130.028 67.0683 135.401 72.4409 142.028 72.4409Z" fill="#EEA248"/>
<path d="M181.028 72.4409C187.655 72.4409 193.028 67.0683 193.028 60.4409C193.028 53.8135 187.655 48.4409 181.028 48.4409C174.401 48.4409 169.028 53.8135 169.028 60.4409C169.028 67.0683 174.401 72.4409 181.028 72.4409Z" fill="#EEA248"/>
<path d="M220.028 72.4409C226.655 72.4409 232.028 67.0683 232.028 60.4409C232.028 53.8135 226.655 48.4409 220.028 48.4409C213.401 48.4409 208.028 53.8135 208.028 60.4409C208.028 67.0683 213.401 72.4409 220.028 72.4409Z" fill="#EEA248"/>
<path d="M258.924 210.981C259.18 211.557 259.308 212.069 259.308 212.517C259.308 213.413 258.94 214.181 258.204 214.821C257.5 215.429 256.684 215.733 255.756 215.733C255.148 215.733 254.572 215.573 254.028 215.253C253.484 214.901 253.068 214.389 252.78 213.717L250.236 208.053H233.964L231.42 213.717C231.132 214.389 230.716 214.901 230.172 215.253C229.66 215.573 229.084 215.733 228.444 215.733C227.516 215.733 226.684 215.429 225.948 214.821C225.212 214.181 224.844 213.413 224.844 212.517C224.844 212.069 224.972 211.557 225.228 210.981L238.188 183.765C238.54 182.997 239.068 182.421 239.772 182.037C240.476 181.621 241.228 181.413 242.028 181.413C242.86 181.413 243.628 181.621 244.332 182.037C245.036 182.453 245.58 183.029 245.964 183.765L258.924 210.981ZM236.508 202.389H247.692L242.124 189.909L236.508 202.389ZM277.643 191.397C280.459 191.397 282.555 192.229 283.931 193.893C285.307 195.525 285.995 198.005 285.995 201.333V212.421C285.995 213.477 285.659 214.309 284.987 214.917C284.347 215.525 283.467 215.829 282.347 215.829C281.227 215.829 280.347 215.525 279.707 214.917C279.067 214.309 278.747 213.477 278.747 212.421V201.669C278.747 200.069 278.443 198.901 277.835 198.165C277.259 197.429 276.347 197.061 275.099 197.061C273.595 197.061 272.379 197.541 271.451 198.501C270.555 199.461 270.107 200.741 270.107 202.341V212.421C270.107 213.477 269.787 214.309 269.147 214.917C268.507 215.525 267.627 215.829 266.507 215.829C265.387 215.829 264.491 215.525 263.819 214.917C263.179 214.309 262.859 213.477 262.859 212.421V194.805C262.859 193.813 263.195 193.013 263.867 192.405C264.571 191.797 265.467 191.493 266.555 191.493C267.547 191.493 268.347 191.797 268.955 192.405C269.595 192.981 269.915 193.733 269.915 194.661V195.333C270.747 194.053 271.819 193.077 273.131 192.405C274.475 191.733 275.979 191.397 277.643 191.397ZM304.51 210.549C305.47 210.613 306.174 210.853 306.622 211.269C307.07 211.685 307.294 212.293 307.294 213.093C307.294 214.021 306.926 214.725 306.19 215.205C305.454 215.685 304.398 215.877 303.022 215.781L301.678 215.685C296.078 215.237 293.278 212.309 293.278 206.901V197.397H291.358C290.302 197.397 289.502 197.173 288.958 196.725C288.414 196.245 288.142 195.573 288.142 194.709C288.142 193.813 288.414 193.141 288.958 192.693C289.502 192.213 290.302 191.973 291.358 191.973H293.278V188.229C293.278 187.173 293.598 186.341 294.238 185.733C294.91 185.125 295.806 184.821 296.926 184.821C298.046 184.821 298.926 185.125 299.566 185.733C300.206 186.341 300.526 187.173 300.526 188.229V191.973H303.886C306.062 191.973 307.15 192.885 307.15 194.709C307.15 195.573 306.878 196.245 306.334 196.725C305.79 197.173 304.974 197.397 303.886 197.397H300.526V207.429C300.526 208.389 300.75 209.125 301.198 209.637C301.646 210.117 302.302 210.389 303.166 210.453L304.51 210.549ZM313.617 215.829C312.561 215.829 311.681 215.541 310.977 214.965C310.305 214.389 309.969 213.541 309.969 212.421V194.901C309.969 193.781 310.321 192.933 311.025 192.357C311.729 191.781 312.593 191.493 313.617 191.493C314.641 191.493 315.489 191.781 316.161 192.357C316.865 192.933 317.217 193.781 317.217 194.901V212.421C317.217 213.541 316.865 214.389 316.161 214.965C315.489 215.541 314.641 215.829 313.617 215.829ZM313.617 187.653C312.337 187.653 311.329 187.333 310.593 186.693C309.857 186.021 309.489 185.125 309.489 184.005C309.489 182.885 309.857 182.005 310.593 181.365C311.329 180.725 312.337 180.405 313.617 180.405C314.865 180.405 315.857 180.741 316.593 181.413C317.361 182.053 317.745 182.917 317.745 184.005C317.745 185.125 317.377 186.021 316.641 186.693C315.905 187.333 314.897 187.653 313.617 187.653Z" fill="#D91717"/>
<path d="M255.132 277.789C255.612 278.493 255.852 279.181 255.852 279.853C255.852 280.749 255.484 281.485 254.748 282.061C254.044 282.637 253.212 282.925 252.252 282.925C251.644 282.925 251.052 282.781 250.476 282.493C249.9 282.205 249.42 281.757 249.036 281.149L242.7 271.741C242.156 270.909 241.58 270.317 240.972 269.965C240.364 269.581 239.596 269.389 238.668 269.389H234.78V279.085C234.78 280.237 234.444 281.149 233.772 281.821C233.132 282.493 232.252 282.829 231.132 282.829C229.98 282.829 229.068 282.493 228.396 281.821C227.724 281.149 227.388 280.237 227.388 279.085V252.205C227.388 251.085 227.692 250.221 228.3 249.613C228.908 249.005 229.772 248.701 230.892 248.701H242.94C246.908 248.701 249.9 249.581 251.916 251.341C253.964 253.069 254.988 255.581 254.988 258.877C254.988 261.469 254.268 263.629 252.828 265.357C251.388 267.085 249.356 268.221 246.732 268.765C247.692 268.957 248.54 269.341 249.276 269.917C250.044 270.461 250.78 271.261 251.484 272.317L255.132 277.789ZM241.836 263.725C243.98 263.725 245.532 263.357 246.492 262.621C247.452 261.853 247.932 260.669 247.932 259.069C247.932 257.437 247.452 256.253 246.492 255.517C245.532 254.781 243.98 254.413 241.836 254.413H234.684V263.725H241.836ZM279.381 275.533C280.021 275.533 280.533 275.789 280.917 276.301C281.333 276.813 281.541 277.469 281.541 278.269C281.541 278.813 281.381 279.325 281.061 279.805C280.741 280.253 280.293 280.637 279.717 280.957C278.629 281.533 277.365 282.013 275.925 282.397C274.485 282.749 273.157 282.925 271.941 282.925C269.381 282.925 267.141 282.429 265.221 281.437C263.333 280.445 261.877 279.037 260.853 277.213C259.829 275.357 259.317 273.181 259.317 270.685C259.317 268.285 259.813 266.157 260.805 264.301C261.797 262.445 263.173 261.005 264.933 259.981C266.693 258.925 268.693 258.397 270.933 258.397C273.077 258.397 274.949 258.877 276.549 259.837C278.181 260.765 279.445 262.109 280.341 263.869C281.237 265.597 281.685 267.629 281.685 269.965C281.685 270.669 281.509 271.213 281.157 271.597C280.837 271.949 280.373 272.125 279.765 272.125H266.325C266.549 274.013 267.125 275.389 268.053 276.253C268.981 277.085 270.309 277.501 272.037 277.501C272.965 277.501 273.797 277.389 274.533 277.165C275.269 276.941 276.085 276.637 276.981 276.253C277.429 276.061 277.861 275.901 278.277 275.773C278.693 275.613 279.061 275.533 279.381 275.533ZM271.125 263.389C269.749 263.389 268.645 263.837 267.813 264.733C266.981 265.597 266.485 266.861 266.325 268.525H275.589C275.493 266.829 275.061 265.549 274.293 264.685C273.557 263.821 272.501 263.389 271.125 263.389ZM298.698 277.549C299.658 277.613 300.362 277.853 300.81 278.269C301.258 278.685 301.482 279.293 301.482 280.093C301.482 281.021 301.114 281.725 300.378 282.205C299.642 282.685 298.586 282.877 297.21 282.781L295.866 282.685C290.266 282.237 287.466 279.309 287.466 273.901V264.397H285.546C284.49 264.397 283.69 264.173 283.146 263.725C282.602 263.245 282.33 262.573 282.33 261.709C282.33 260.813 282.602 260.141 283.146 259.693C283.69 259.213 284.49 258.973 285.546 258.973H287.466V255.229C287.466 254.173 287.786 253.341 288.426 252.733C289.098 252.125 289.994 251.821 291.114 251.821C292.234 251.821 293.114 252.125 293.754 252.733C294.394 253.341 294.714 254.173 294.714 255.229V258.973H298.074C300.25 258.973 301.338 259.885 301.338 261.709C301.338 262.573 301.066 263.245 300.522 263.725C299.978 264.173 299.162 264.397 298.074 264.397H294.714V274.429C294.714 275.389 294.938 276.125 295.386 276.637C295.834 277.117 296.49 277.389 297.354 277.453L298.698 277.549ZM318.22 258.493C319.18 258.429 319.932 258.653 320.476 259.165C321.052 259.645 321.34 260.381 321.34 261.373C321.34 262.429 321.084 263.213 320.572 263.725C320.06 264.237 319.148 264.557 317.836 264.685L316.396 264.829C314.636 265.021 313.356 265.597 312.556 266.557C311.788 267.517 311.404 268.749 311.404 270.253V279.421C311.404 280.541 311.052 281.389 310.348 281.965C309.676 282.541 308.828 282.829 307.804 282.829C306.748 282.829 305.868 282.541 305.164 281.965C304.492 281.389 304.156 280.541 304.156 279.421V261.805C304.156 260.749 304.508 259.933 305.212 259.357C305.916 258.781 306.764 258.493 307.756 258.493C308.716 258.493 309.516 258.781 310.156 259.357C310.796 259.901 311.116 260.669 311.116 261.661V262.957C311.692 261.581 312.556 260.525 313.708 259.789C314.892 259.053 316.172 258.637 317.548 258.541L318.22 258.493ZM334.281 282.925C331.785 282.925 329.593 282.429 327.705 281.437C325.817 280.413 324.361 278.989 323.337 277.165C322.313 275.309 321.801 273.133 321.801 270.637C321.801 268.141 322.313 265.981 323.337 264.157C324.361 262.301 325.817 260.877 327.705 259.885C329.593 258.893 331.785 258.397 334.281 258.397C336.777 258.397 338.969 258.893 340.857 259.885C342.745 260.877 344.201 262.301 345.225 264.157C346.249 265.981 346.761 268.141 346.761 270.637C346.761 273.133 346.249 275.309 345.225 277.165C344.201 278.989 342.745 280.413 340.857 281.437C338.969 282.429 336.777 282.925 334.281 282.925ZM334.281 277.405C337.801 277.405 339.561 275.149 339.561 270.637C339.561 268.365 339.097 266.669 338.169 265.549C337.273 264.429 335.977 263.869 334.281 263.869C330.761 263.869 329.001 266.125 329.001 270.637C329.001 275.149 330.761 277.405 334.281 277.405Z" fill="#D91717"/>
<path d="M242.94 336.973C239.612 336.973 236.7 336.269 234.204 334.861C231.708 333.453 229.788 331.437 228.444 328.813C227.1 326.189 226.428 323.117 226.428 319.597C226.428 316.077 227.1 313.021 228.444 310.429C229.788 307.805 231.708 305.789 234.204 304.381C236.7 302.973 239.612 302.269 242.94 302.269C247.132 302.269 250.748 303.421 253.788 305.725C254.268 306.109 254.604 306.493 254.796 306.877C254.988 307.261 255.084 307.741 255.084 308.317C255.084 309.149 254.844 309.869 254.364 310.477C253.916 311.053 253.356 311.341 252.684 311.341C252.236 311.341 251.836 311.293 251.484 311.197C251.164 311.069 250.796 310.861 250.38 310.573C249.1 309.741 247.916 309.149 246.828 308.797C245.74 308.413 244.572 308.221 243.324 308.221C240.252 308.221 237.932 309.181 236.364 311.101C234.828 312.989 234.06 315.821 234.06 319.597C234.06 327.213 237.148 331.021 243.324 331.021C244.508 331.021 245.628 330.845 246.684 330.493C247.74 330.109 248.972 329.501 250.38 328.669C250.86 328.381 251.26 328.189 251.58 328.093C251.9 327.965 252.268 327.901 252.684 327.901C253.356 327.901 253.916 328.205 254.364 328.813C254.844 329.389 255.084 330.093 255.084 330.925C255.084 331.501 254.972 331.997 254.748 332.413C254.556 332.797 254.236 333.165 253.788 333.517C250.748 335.821 247.132 336.973 242.94 336.973ZM270.203 336.925C267.707 336.925 265.515 336.429 263.627 335.437C261.739 334.413 260.283 332.989 259.259 331.165C258.235 329.309 257.723 327.133 257.723 324.637C257.723 322.141 258.235 319.981 259.259 318.157C260.283 316.301 261.739 314.877 263.627 313.885C265.515 312.893 267.707 312.397 270.203 312.397C272.699 312.397 274.891 312.893 276.779 313.885C278.667 314.877 280.123 316.301 281.147 318.157C282.171 319.981 282.683 322.141 282.683 324.637C282.683 327.133 282.171 329.309 281.147 331.165C280.123 332.989 278.667 334.413 276.779 335.437C274.891 336.429 272.699 336.925 270.203 336.925ZM270.203 331.405C273.723 331.405 275.483 329.149 275.483 324.637C275.483 322.365 275.019 320.669 274.091 319.549C273.195 318.429 271.899 317.869 270.203 317.869C266.683 317.869 264.923 320.125 264.923 324.637C264.923 329.149 266.683 331.405 270.203 331.405ZM301.878 312.397C304.694 312.397 306.79 313.229 308.166 314.893C309.542 316.525 310.23 319.005 310.23 322.333V333.421C310.23 334.477 309.894 335.309 309.222 335.917C308.582 336.525 307.702 336.829 306.582 336.829C305.462 336.829 304.582 336.525 303.942 335.917C303.302 335.309 302.982 334.477 302.982 333.421V322.669C302.982 321.069 302.678 319.901 302.07 319.165C301.494 318.429 300.582 318.061 299.334 318.061C297.83 318.061 296.614 318.541 295.686 319.501C294.79 320.461 294.342 321.741 294.342 323.341V333.421C294.342 334.477 294.022 335.309 293.382 335.917C292.742 336.525 291.862 336.829 290.742 336.829C289.622 336.829 288.726 336.525 288.054 335.917C287.414 335.309 287.094 334.477 287.094 333.421V315.805C287.094 314.813 287.43 314.013 288.102 313.405C288.806 312.797 289.702 312.493 290.79 312.493C291.782 312.493 292.582 312.797 293.19 313.405C293.83 313.981 294.15 314.733 294.15 315.661V316.333C294.982 315.053 296.054 314.077 297.366 313.405C298.71 312.733 300.214 312.397 301.878 312.397ZM328.744 331.549C329.704 331.613 330.408 331.853 330.856 332.269C331.304 332.685 331.528 333.293 331.528 334.093C331.528 335.021 331.16 335.725 330.424 336.205C329.688 336.685 328.632 336.877 327.256 336.781L325.912 336.685C320.312 336.237 317.512 333.309 317.512 327.901V318.397H315.592C314.536 318.397 313.736 318.173 313.192 317.725C312.648 317.245 312.376 316.573 312.376 315.709C312.376 314.813 312.648 314.141 313.192 313.693C313.736 313.213 314.536 312.973 315.592 312.973H317.512V309.229C317.512 308.173 317.832 307.341 318.472 306.733C319.144 306.125 320.04 305.821 321.16 305.821C322.28 305.821 323.16 306.125 323.8 306.733C324.44 307.341 324.76 308.173 324.76 309.229V312.973H328.12C330.296 312.973 331.384 313.885 331.384 315.709C331.384 316.573 331.112 317.245 330.568 317.725C330.024 318.173 329.208 318.397 328.12 318.397H324.76V328.429C324.76 329.389 324.984 330.125 325.432 330.637C325.88 331.117 326.536 331.389 327.4 331.453L328.744 331.549ZM348.267 312.493C349.227 312.429 349.979 312.653 350.523 313.165C351.099 313.645 351.387 314.381 351.387 315.373C351.387 316.429 351.131 317.213 350.619 317.725C350.107 318.237 349.195 318.557 347.883 318.685L346.443 318.829C344.683 319.021 343.403 319.597 342.603 320.557C341.835 321.517 341.451 322.749 341.451 324.253V333.421C341.451 334.541 341.099 335.389 340.395 335.965C339.723 336.541 338.875 336.829 337.851 336.829C336.795 336.829 335.915 336.541 335.211 335.965C334.539 335.389 334.203 334.541 334.203 333.421V315.805C334.203 314.749 334.555 313.933 335.259 313.357C335.963 312.781 336.811 312.493 337.803 312.493C338.763 312.493 339.563 312.781 340.203 313.357C340.843 313.901 341.163 314.669 341.163 315.661V316.957C341.739 315.581 342.603 314.525 343.755 313.789C344.939 313.053 346.219 312.637 347.595 312.541L348.267 312.493ZM364.077 312.397C367.533 312.397 370.093 313.245 371.757 314.941C373.421 316.605 374.253 319.165 374.253 322.621V333.469C374.253 334.525 373.949 335.357 373.341 335.965C372.733 336.541 371.885 336.829 370.797 336.829C369.773 336.829 368.941 336.525 368.301 335.917C367.693 335.277 367.389 334.461 367.389 333.469V333.133C366.909 334.317 366.109 335.245 364.989 335.917C363.869 336.589 362.557 336.925 361.053 336.925C359.453 336.925 357.997 336.605 356.685 335.965C355.405 335.325 354.381 334.429 353.613 333.277C352.877 332.125 352.509 330.845 352.509 329.437C352.509 327.709 352.941 326.349 353.805 325.357C354.701 324.365 356.125 323.645 358.077 323.197C360.029 322.749 362.701 322.525 366.093 322.525H367.341V321.661C367.341 320.317 367.037 319.341 366.429 318.733C365.853 318.125 364.877 317.821 363.501 317.821C362.125 317.821 360.141 318.301 357.549 319.261C356.813 319.613 356.189 319.789 355.677 319.789C354.973 319.789 354.413 319.549 353.997 319.069C353.581 318.557 353.373 317.901 353.373 317.101C353.373 316.461 353.517 315.933 353.805 315.517C354.093 315.101 354.557 314.717 355.197 314.365C356.317 313.757 357.677 313.277 359.277 312.925C360.909 312.573 362.509 312.397 364.077 312.397ZM362.637 331.933C364.045 331.933 365.181 331.469 366.045 330.541C366.909 329.581 367.341 328.349 367.341 326.845V326.029H366.525C363.933 326.029 362.109 326.237 361.053 326.653C360.029 327.069 359.517 327.821 359.517 328.909C359.517 329.805 359.805 330.541 360.381 331.117C360.989 331.661 361.741 331.933 362.637 331.933Z" fill="#D91717"/>
<path d="M341.904 191.106C343.92 191.106 345.712 191.634 347.28 192.69C348.88 193.714 350.112 195.17 350.976 197.058C351.872 198.914 352.32 201.058 352.32 203.49C352.32 205.922 351.872 208.066 350.976 209.922C350.112 211.746 348.896 213.154 347.328 214.146C345.76 215.138 343.952 215.634 341.904 215.634C340.304 215.634 338.848 215.314 337.536 214.674C336.256 214.002 335.264 213.074 334.56 211.89V220.962C334.56 221.922 334.24 222.69 333.6 223.266C332.96 223.842 332.112 224.13 331.056 224.13C329.936 224.13 329.024 223.826 328.32 223.218C327.648 222.61 327.312 221.81 327.312 220.818V194.61C327.312 193.586 327.632 192.77 328.272 192.162C328.944 191.522 329.824 191.202 330.912 191.202C332 191.202 332.864 191.522 333.504 192.162C334.144 192.77 334.464 193.586 334.464 194.61V194.994C335.168 193.778 336.176 192.834 337.488 192.162C338.8 191.458 340.272 191.106 341.904 191.106ZM339.792 210.114C341.488 210.114 342.8 209.554 343.728 208.434C344.656 207.282 345.12 205.634 345.12 203.49C345.12 201.314 344.656 199.634 343.728 198.45C342.8 197.234 341.488 196.626 339.792 196.626C338.096 196.626 336.784 197.218 335.856 198.402C334.928 199.554 334.464 201.218 334.464 203.394C334.464 205.538 334.928 207.202 335.856 208.386C336.784 209.538 338.096 210.114 339.792 210.114ZM367.358 191.106C370.814 191.106 373.374 191.954 375.038 193.65C376.702 195.314 377.534 197.874 377.534 201.33V212.178C377.534 213.234 377.23 214.066 376.622 214.674C376.014 215.25 375.166 215.538 374.078 215.538C373.054 215.538 372.222 215.234 371.582 214.626C370.974 213.986 370.67 213.17 370.67 212.178V211.842C370.19 213.026 369.39 213.954 368.27 214.626C367.15 215.298 365.838 215.634 364.334 215.634C362.734 215.634 361.278 215.314 359.966 214.674C358.686 214.034 357.662 213.138 356.894 211.986C356.158 210.834 355.79 209.554 355.79 208.146C355.79 206.418 356.222 205.058 357.086 204.066C357.982 203.074 359.406 202.354 361.358 201.906C363.31 201.458 365.982 201.234 369.374 201.234H370.622V200.37C370.622 199.026 370.318 198.05 369.71 197.442C369.134 196.834 368.158 196.53 366.782 196.53C365.406 196.53 363.422 197.01 360.83 197.97C360.094 198.322 359.47 198.498 358.958 198.498C358.254 198.498 357.694 198.258 357.278 197.778C356.862 197.266 356.654 196.61 356.654 195.81C356.654 195.17 356.798 194.642 357.086 194.226C357.374 193.81 357.838 193.426 358.478 193.074C359.598 192.466 360.958 191.986 362.558 191.634C364.19 191.282 365.79 191.106 367.358 191.106ZM365.918 210.642C367.326 210.642 368.462 210.178 369.326 209.25C370.19 208.29 370.622 207.058 370.622 205.554V204.738H369.806C367.214 204.738 365.39 204.946 364.334 205.362C363.31 205.778 362.798 206.53 362.798 207.618C362.798 208.514 363.086 209.25 363.662 209.826C364.27 210.37 365.022 210.642 365.918 210.642ZM396.057 210.258C397.017 210.322 397.721 210.562 398.169 210.978C398.617 211.394 398.841 212.002 398.841 212.802C398.841 213.73 398.473 214.434 397.737 214.914C397.001 215.394 395.945 215.586 394.569 215.49L393.225 215.394C387.625 214.946 384.825 212.018 384.825 206.61V197.106H382.905C381.849 197.106 381.049 196.882 380.505 196.434C379.961 195.954 379.689 195.282 379.689 194.418C379.689 193.522 379.961 192.85 380.505 192.402C381.049 191.922 381.849 191.682 382.905 191.682H384.825V187.938C384.825 186.882 385.145 186.05 385.785 185.442C386.457 184.834 387.353 184.53 388.473 184.53C389.593 184.53 390.473 184.834 391.113 185.442C391.753 186.05 392.073 186.882 392.073 187.938V191.682H395.433C397.609 191.682 398.697 192.594 398.697 194.418C398.697 195.282 398.425 195.954 397.881 196.434C397.337 196.882 396.521 197.106 395.433 197.106H392.073V207.138C392.073 208.098 392.297 208.834 392.745 209.346C393.193 209.826 393.849 210.098 394.713 210.162L396.057 210.258ZM405.163 215.538C404.107 215.538 403.227 215.25 402.523 214.674C401.851 214.098 401.515 213.25 401.515 212.13V194.61C401.515 193.49 401.867 192.642 402.571 192.066C403.275 191.49 404.139 191.202 405.163 191.202C406.187 191.202 407.035 191.49 407.707 192.066C408.411 192.642 408.763 193.49 408.763 194.61V212.13C408.763 213.25 408.411 214.098 407.707 214.674C407.035 215.25 406.187 215.538 405.163 215.538ZM405.163 187.362C403.883 187.362 402.875 187.042 402.139 186.402C401.403 185.73 401.035 184.834 401.035 183.714C401.035 182.594 401.403 181.714 402.139 181.074C402.875 180.434 403.883 180.114 405.163 180.114C406.411 180.114 407.403 180.45 408.139 181.122C408.907 181.762 409.291 182.626 409.291 183.714C409.291 184.834 408.923 185.73 408.187 186.402C407.451 187.042 406.443 187.362 405.163 187.362ZM424.92 191.106C428.376 191.106 430.936 191.954 432.6 193.65C434.264 195.314 435.096 197.874 435.096 201.33V212.178C435.096 213.234 434.792 214.066 434.184 214.674C433.576 215.25 432.728 215.538 431.64 215.538C430.616 215.538 429.784 215.234 429.144 214.626C428.536 213.986 428.232 213.17 428.232 212.178V211.842C427.752 213.026 426.952 213.954 425.832 214.626C424.712 215.298 423.4 215.634 421.896 215.634C420.296 215.634 418.84 215.314 417.528 214.674C416.248 214.034 415.224 213.138 414.456 211.986C413.72 210.834 413.352 209.554 413.352 208.146C413.352 206.418 413.784 205.058 414.648 204.066C415.544 203.074 416.968 202.354 418.92 201.906C420.872 201.458 423.544 201.234 426.936 201.234H428.184V200.37C428.184 199.026 427.88 198.05 427.272 197.442C426.696 196.834 425.72 196.53 424.344 196.53C422.968 196.53 420.984 197.01 418.392 197.97C417.656 198.322 417.032 198.498 416.52 198.498C415.816 198.498 415.256 198.258 414.84 197.778C414.424 197.266 414.216 196.61 414.216 195.81C414.216 195.17 414.36 194.642 414.648 194.226C414.936 193.81 415.4 193.426 416.04 193.074C417.16 192.466 418.52 191.986 420.12 191.634C421.752 191.282 423.352 191.106 424.92 191.106ZM423.48 210.642C424.888 210.642 426.024 210.178 426.888 209.25C427.752 208.29 428.184 207.058 428.184 205.554V204.738H427.368C424.776 204.738 422.952 204.946 421.896 205.362C420.872 205.778 420.36 206.53 420.36 207.618C420.36 208.514 420.648 209.25 421.224 209.826C421.832 210.37 422.584 210.642 423.48 210.642Z" fill="black"/>
<path d="M402.833 302.56C403.953 302.56 404.849 302.864 405.521 303.472C406.225 304.08 406.577 304.88 406.577 305.872V333.52C406.577 334.544 406.241 335.376 405.569 336.016C404.929 336.624 404.065 336.928 402.977 336.928C401.889 336.928 401.009 336.624 400.337 336.016C399.697 335.376 399.377 334.544 399.377 333.52V333.136C398.673 334.352 397.665 335.312 396.353 336.016C395.073 336.688 393.617 337.024 391.985 337.024C389.969 337.024 388.161 336.512 386.561 335.488C384.993 334.432 383.761 332.976 382.865 331.12C382.001 329.232 381.569 327.072 381.569 324.64C381.569 322.208 382.001 320.08 382.865 318.256C383.761 316.4 384.993 314.976 386.561 313.984C388.129 312.992 389.937 312.496 391.985 312.496C393.585 312.496 395.025 312.832 396.305 313.504C397.617 314.176 398.625 315.12 399.329 316.336V305.728C399.329 304.768 399.649 304 400.289 303.424C400.929 302.848 401.777 302.56 402.833 302.56ZM394.097 331.504C395.793 331.504 397.089 330.928 397.985 329.776C398.913 328.592 399.377 326.912 399.377 324.736C399.377 322.56 398.913 320.896 397.985 319.744C397.089 318.592 395.793 318.016 394.097 318.016C392.401 318.016 391.089 318.592 390.161 319.744C389.233 320.864 388.769 322.496 388.769 324.64C388.769 326.816 389.233 328.512 390.161 329.728C391.089 330.912 392.401 331.504 394.097 331.504ZM415.806 336.928C414.75 336.928 413.87 336.64 413.166 336.064C412.494 335.488 412.158 334.64 412.158 333.52V316C412.158 314.88 412.51 314.032 413.214 313.456C413.918 312.88 414.782 312.592 415.806 312.592C416.83 312.592 417.678 312.88 418.35 313.456C419.054 314.032 419.406 314.88 419.406 316V333.52C419.406 334.64 419.054 335.488 418.35 336.064C417.678 336.64 416.83 336.928 415.806 336.928ZM415.806 308.752C414.526 308.752 413.518 308.432 412.782 307.792C412.046 307.12 411.678 306.224 411.678 305.104C411.678 303.984 412.046 303.104 412.782 302.464C413.518 301.824 414.526 301.504 415.806 301.504C417.054 301.504 418.046 301.84 418.782 302.512C419.55 303.152 419.934 304.016 419.934 305.104C419.934 306.224 419.566 307.12 418.83 307.792C418.094 308.432 417.086 308.752 415.806 308.752ZM442.667 331.216C444.843 331.216 445.931 332.128 445.931 333.952C445.931 335.744 444.843 336.64 442.667 336.64H427.115C426.155 336.64 425.371 336.336 424.763 335.728C424.155 335.12 423.851 334.4 423.851 333.568C423.851 332.608 424.187 331.776 424.859 331.072L436.091 318.496H426.875C424.699 318.496 423.611 317.6 423.611 315.808C423.611 313.984 424.699 313.072 426.875 313.072H441.851C442.843 313.072 443.627 313.376 444.203 313.984C444.811 314.592 445.115 315.328 445.115 316.192C445.115 317.152 444.779 317.984 444.107 318.688L432.923 331.216H442.667ZM467.82 329.632C468.46 329.632 468.972 329.888 469.356 330.4C469.772 330.912 469.98 331.568 469.98 332.368C469.98 332.912 469.82 333.424 469.5 333.904C469.18 334.352 468.732 334.736 468.156 335.056C467.068 335.632 465.804 336.112 464.364 336.496C462.924 336.848 461.596 337.024 460.38 337.024C457.82 337.024 455.58 336.528 453.66 335.536C451.772 334.544 450.316 333.136 449.292 331.312C448.268 329.456 447.756 327.28 447.756 324.784C447.756 322.384 448.252 320.256 449.244 318.4C450.236 316.544 451.612 315.104 453.372 314.08C455.132 313.024 457.132 312.496 459.372 312.496C461.516 312.496 463.388 312.976 464.988 313.936C466.62 314.864 467.884 316.208 468.78 317.968C469.676 319.696 470.124 321.728 470.124 324.064C470.124 324.768 469.948 325.312 469.596 325.696C469.276 326.048 468.812 326.224 468.204 326.224H454.764C454.988 328.112 455.564 329.488 456.492 330.352C457.42 331.184 458.748 331.6 460.476 331.6C461.404 331.6 462.236 331.488 462.972 331.264C463.708 331.04 464.524 330.736 465.42 330.352C465.868 330.16 466.3 330 466.716 329.872C467.132 329.712 467.5 329.632 467.82 329.632ZM459.564 317.488C458.188 317.488 457.084 317.936 456.252 318.832C455.42 319.696 454.924 320.96 454.764 322.624H464.028C463.932 320.928 463.5 319.648 462.732 318.784C461.996 317.92 460.94 317.488 459.564 317.488ZM488.566 312.592C489.526 312.528 490.278 312.752 490.822 313.264C491.398 313.744 491.686 314.48 491.686 315.472C491.686 316.528 491.43 317.312 490.918 317.824C490.406 318.336 489.494 318.656 488.182 318.784L486.742 318.928C484.982 319.12 483.702 319.696 482.902 320.656C482.134 321.616 481.75 322.848 481.75 324.352V333.52C481.75 334.64 481.398 335.488 480.694 336.064C480.022 336.64 479.174 336.928 478.15 336.928C477.094 336.928 476.214 336.64 475.51 336.064C474.838 335.488 474.502 334.64 474.502 333.52V315.904C474.502 314.848 474.854 314.032 475.558 313.456C476.262 312.88 477.11 312.592 478.102 312.592C479.062 312.592 479.862 312.88 480.502 313.456C481.142 314 481.462 314.768 481.462 315.76V317.056C482.038 315.68 482.902 314.624 484.054 313.888C485.238 313.152 486.518 312.736 487.894 312.64L488.566 312.592Z" fill="black"/>
</g>
<defs>
<clipPath id="clip0_1030:1291">
<rect width="751" height="558" fill="white" transform="translate(0.0283203 0.220703)"/>
</clipPath>
</defs>
</svg>
