<svg width="752" height="559" viewBox="0 0 752 559" fill="none" xmlns="http://www.w3.org/2000/svg">
<g clip-path="url(#clip0_1030:1291)">
<path d="M490.698 61.3008H29.8388C15.8494 61.3008 4.50879 72.6414 4.50879 86.6308V200.921C4.50879 214.91 15.8494 226.251 29.8388 226.251H490.698C504.688 226.251 516.028 214.91 516.028 200.921V86.6308C516.028 72.6414 504.688 61.3008 490.698 61.3008Z" fill="#1DCDFF"/>
<path d="M516.03 164.541V216.371C516.03 221.831 505.03 226.251 491.54 226.251H29.03C15.5 226.251 4.54004 221.831 4.54004 216.371V186.371C35.72 194.631 71.22 200.201 107.63 203.661C151.63 207.841 196.98 209.061 242.14 209.241C296.14 209.461 351.04 208.151 401.87 200.821C448.45 194.131 491.64 181.771 516.03 164.541Z" fill="#1AB5E1"/>
<path d="M189.447 61.721C141.257 64.981 74.3275 61.831 32.7375 73.821C13.0275 79.491 8.14754 90.511 4.97754 99.621L5.02754 74.121C5.02754 70.851 5.30754 67.291 10.5375 64.791C17.0075 61.711 28.3775 61.471 38.3875 61.481C87.5375 61.491 141.267 59.331 189.447 61.721Z" fill="#4ED9FF"/>
<path d="M490.218 61.501H29.3583C15.3689 61.501 4.02832 72.8417 4.02832 86.831V201.121C4.02832 215.11 15.3689 226.451 29.3583 226.451H490.218C504.207 226.451 515.548 215.11 515.548 201.121V86.831C515.548 72.8417 504.207 61.501 490.218 61.501Z" stroke="#314E5D" stroke-width="8" stroke-miterlimit="10"/>
<path d="M721.699 317.301H194.909C180.919 317.301 169.579 328.642 169.579 342.631V456.921C169.579 470.91 180.919 482.251 194.909 482.251H721.699C735.688 482.251 747.029 470.91 747.029 456.921V342.631C747.029 328.642 735.688 317.301 721.699 317.301Z" fill="#1DCDFF"/>
<path d="M747.029 420.541V472.371C747.029 477.831 734.649 482.251 719.379 482.251H197.229C181.959 482.251 169.579 477.831 169.579 472.371V442.371C204.779 450.631 244.859 456.201 285.959 459.661C335.579 463.841 386.819 465.061 437.809 465.241C498.749 465.461 560.749 464.151 618.129 456.821C670.739 450.131 719.499 437.771 747.029 420.541Z" fill="#1AB5E1"/>
<path d="M378.347 317.721C323.947 320.981 248.347 317.831 201.437 329.821C179.167 335.501 173.677 346.521 170.087 355.631L170.157 330.121C170.157 326.851 170.467 323.291 176.377 320.791C183.687 317.711 196.517 317.471 207.817 317.481C263.297 317.491 323.967 315.331 378.347 317.721Z" fill="#4ED9FF"/>
<path d="M721.148 317.501H194.358C180.369 317.501 169.028 328.842 169.028 342.831V457.121C169.028 471.11 180.369 482.451 194.358 482.451H721.148C735.137 482.451 746.478 471.11 746.478 457.121V342.831C746.478 328.842 735.137 317.501 721.148 317.501Z" stroke="#314E5D" stroke-width="8" stroke-miterlimit="10"/>
<path d="M650.218 5.13086H104.138C95.3791 5.13086 88.2783 12.2316 88.2783 20.9908V534.641C88.2783 543.4 95.3791 550.501 104.138 550.501H650.218C658.977 550.501 666.078 543.4 666.078 534.641V20.9908C666.078 12.2316 658.977 5.13086 650.218 5.13086Z" fill="white"/>
<path d="M361.181 271.868C361.821 271.868 362.333 272.124 362.717 272.636C363.133 273.148 363.341 273.804 363.341 274.604C363.341 275.148 363.181 275.66 362.861 276.14C362.541 276.588 362.093 276.972 361.517 277.292C360.429 277.868 359.165 278.348 357.725 278.732C356.285 279.084 354.957 279.26 353.741 279.26C351.181 279.26 348.941 278.764 347.021 277.772C345.133 276.78 343.677 275.372 342.653 273.548C341.629 271.692 341.117 269.516 341.117 267.02C341.117 264.62 341.613 262.492 342.605 260.636C343.597 258.78 344.973 257.34 346.733 256.316C348.493 255.26 350.493 254.732 352.733 254.732C354.877 254.732 356.749 255.212 358.349 256.172C359.981 257.1 361.245 258.444 362.141 260.204C363.037 261.932 363.485 263.964 363.485 266.3C363.485 267.004 363.309 267.548 362.957 267.932C362.637 268.284 362.173 268.46 361.565 268.46H348.125C348.349 270.348 348.925 271.724 349.853 272.588C350.781 273.42 352.109 273.836 353.837 273.836C354.765 273.836 355.597 273.724 356.333 273.5C357.069 273.276 357.885 272.972 358.781 272.588C359.229 272.396 359.661 272.236 360.077 272.108C360.493 271.948 360.861 271.868 361.181 271.868ZM352.925 259.724C351.549 259.724 350.445 260.172 349.613 261.068C348.781 261.932 348.285 263.196 348.125 264.86H357.389C357.293 263.164 356.861 261.884 356.093 261.02C355.357 260.156 354.301 259.724 352.925 259.724ZM371.511 279.164C370.455 279.164 369.575 278.876 368.871 278.3C368.199 277.724 367.863 276.876 367.863 275.756V258.236C367.863 257.116 368.215 256.268 368.919 255.692C369.623 255.116 370.487 254.828 371.511 254.828C372.535 254.828 373.383 255.116 374.055 255.692C374.759 256.268 375.111 257.116 375.111 258.236V275.756C375.111 276.876 374.759 277.724 374.055 278.3C373.383 278.876 372.535 279.164 371.511 279.164ZM371.511 250.988C370.231 250.988 369.223 250.668 368.487 250.028C367.751 249.356 367.383 248.46 367.383 247.34C367.383 246.22 367.751 245.34 368.487 244.7C369.223 244.06 370.231 243.74 371.511 243.74C372.759 243.74 373.751 244.076 374.487 244.748C375.255 245.388 375.639 246.252 375.639 247.34C375.639 248.46 375.271 249.356 374.535 250.028C373.799 250.668 372.791 250.988 371.511 250.988ZM394.724 254.828C395.684 254.764 396.436 254.988 396.98 255.5C397.556 255.98 397.844 256.716 397.844 257.708C397.844 258.764 397.588 259.548 397.076 260.06C396.564 260.572 395.652 260.892 394.34 261.02L392.9 261.164C391.14 261.356 389.86 261.932 389.06 262.892C388.292 263.852 387.908 265.084 387.908 266.588V275.756C387.908 276.876 387.556 277.724 386.852 278.3C386.18 278.876 385.332 279.164 384.308 279.164C383.252 279.164 382.372 278.876 381.668 278.3C380.996 277.724 380.66 276.876 380.66 275.756V258.14C380.66 257.084 381.012 256.268 381.716 255.692C382.42 255.116 383.268 254.828 384.26 254.828C385.22 254.828 386.02 255.116 386.66 255.692C387.3 256.236 387.62 257.004 387.62 257.996V259.292C388.196 257.916 389.06 256.86 390.212 256.124C391.396 255.388 392.676 254.972 394.052 254.876L394.724 254.828ZM410.785 279.26C408.289 279.26 406.097 278.764 404.209 277.772C402.321 276.748 400.865 275.324 399.841 273.5C398.817 271.644 398.305 269.468 398.305 266.972C398.305 264.476 398.817 262.316 399.841 260.492C400.865 258.636 402.321 257.212 404.209 256.22C406.097 255.228 408.289 254.732 410.785 254.732C413.281 254.732 415.473 255.228 417.361 256.22C419.249 257.212 420.705 258.636 421.729 260.492C422.753 262.316 423.265 264.476 423.265 266.972C423.265 269.468 422.753 271.644 421.729 273.5C420.705 275.324 419.249 276.748 417.361 277.772C415.473 278.764 413.281 279.26 410.785 279.26ZM410.785 273.74C414.305 273.74 416.065 271.484 416.065 266.972C416.065 264.7 415.601 263.004 414.673 261.884C413.777 260.764 412.481 260.204 410.785 260.204C407.265 260.204 405.505 262.46 405.505 266.972C405.505 271.484 407.265 273.74 410.785 273.74Z" fill="black"/>
<path d="M668.58 27.1109V107.441H90.79V27.1109C90.79 13.7509 97.89 2.90088 106.65 2.90088H652.72C661.48 2.90088 668.58 13.7509 668.58 27.1109Z" fill="#DCEAEF"/>
<path d="M649.527 4.2207H103.447C94.6877 4.2207 87.5869 11.3215 87.5869 20.0807V537.671C87.5869 546.43 94.6877 553.531 103.447 553.531H649.527C658.286 553.531 665.387 546.43 665.387 537.671V20.0807C665.387 11.3215 658.286 4.2207 649.527 4.2207Z" stroke="#314E5D" stroke-width="8" stroke-miterlimit="10"/>
<path d="M142.028 72.4409C148.655 72.4409 154.028 67.0683 154.028 60.4409C154.028 53.8135 148.655 48.4409 142.028 48.4409C135.401 48.4409 130.028 53.8135 130.028 60.4409C130.028 67.0683 135.401 72.4409 142.028 72.4409Z" fill="#EEA248"/>
<path d="M181.028 72.4409C187.655 72.4409 193.028 67.0683 193.028 60.4409C193.028 53.8135 187.655 48.4409 181.028 48.4409C174.401 48.4409 169.028 53.8135 169.028 60.4409C169.028 67.0683 174.401 72.4409 181.028 72.4409Z" fill="#EEA248"/>
<path d="M220.028 72.4409C226.655 72.4409 232.028 67.0683 232.028 60.4409C232.028 53.8135 226.655 48.4409 220.028 48.4409C213.401 48.4409 208.028 53.8135 208.028 60.4409C208.028 67.0683 213.401 72.4409 220.028 72.4409Z" fill="#EEA248"/>
<path d="M231.132 215.829C229.98 215.829 229.068 215.493 228.396 214.821C227.724 214.149 227.388 213.237 227.388 212.085V185.205C227.388 184.085 227.692 183.221 228.3 182.613C228.908 182.005 229.772 181.701 230.892 181.701H242.94C246.62 181.701 249.484 182.629 251.532 184.485C253.58 186.341 254.604 188.933 254.604 192.261C254.604 195.589 253.58 198.181 251.532 200.037C249.484 201.893 246.62 202.821 242.94 202.821H234.876V212.085C234.876 213.237 234.54 214.149 233.868 214.821C233.196 215.493 232.284 215.829 231.132 215.829ZM241.98 197.157C245.724 197.157 247.596 195.541 247.596 192.309C247.596 189.045 245.724 187.413 241.98 187.413H234.876V197.157H241.98ZM276.849 208.533C277.489 208.533 278.001 208.789 278.385 209.301C278.801 209.813 279.009 210.469 279.009 211.269C279.009 211.813 278.849 212.325 278.529 212.805C278.209 213.253 277.761 213.637 277.185 213.957C276.097 214.533 274.833 215.013 273.393 215.397C271.953 215.749 270.625 215.925 269.409 215.925C266.849 215.925 264.609 215.429 262.689 214.437C260.801 213.445 259.345 212.037 258.321 210.213C257.297 208.357 256.785 206.181 256.785 203.685C256.785 201.285 257.281 199.157 258.273 197.301C259.265 195.445 260.641 194.005 262.401 192.981C264.161 191.925 266.161 191.397 268.401 191.397C270.545 191.397 272.417 191.877 274.017 192.837C275.649 193.765 276.913 195.109 277.809 196.869C278.705 198.597 279.153 200.629 279.153 202.965C279.153 203.669 278.977 204.213 278.625 204.597C278.305 204.949 277.841 205.125 277.233 205.125H263.793C264.017 207.013 264.593 208.389 265.521 209.253C266.449 210.085 267.777 210.501 269.505 210.501C270.433 210.501 271.265 210.389 272.001 210.165C272.737 209.941 273.553 209.637 274.449 209.253C274.897 209.061 275.329 208.901 275.745 208.773C276.161 208.613 276.529 208.533 276.849 208.533ZM268.593 196.389C267.217 196.389 266.113 196.837 265.281 197.733C264.449 198.597 263.953 199.861 263.793 201.525H273.057C272.961 199.829 272.529 198.549 271.761 197.685C271.025 196.821 269.969 196.389 268.593 196.389ZM303.643 181.461C304.763 181.461 305.659 181.765 306.331 182.373C307.035 182.981 307.387 183.781 307.387 184.773V212.421C307.387 213.445 307.051 214.277 306.379 214.917C305.739 215.525 304.875 215.829 303.787 215.829C302.699 215.829 301.819 215.525 301.147 214.917C300.507 214.277 300.187 213.445 300.187 212.421V212.037C299.483 213.253 298.475 214.213 297.163 214.917C295.883 215.589 294.427 215.925 292.795 215.925C290.779 215.925 288.971 215.413 287.371 214.389C285.803 213.333 284.571 211.877 283.675 210.021C282.811 208.133 282.379 205.973 282.379 203.541C282.379 201.109 282.811 198.981 283.675 197.157C284.571 195.301 285.803 193.877 287.371 192.885C288.939 191.893 290.747 191.397 292.795 191.397C294.395 191.397 295.835 191.733 297.115 192.405C298.427 193.077 299.435 194.021 300.139 195.237V184.629C300.139 183.669 300.459 182.901 301.099 182.325C301.739 181.749 302.587 181.461 303.643 181.461ZM294.907 210.405C296.603 210.405 297.899 209.829 298.795 208.677C299.723 207.493 300.187 205.813 300.187 203.637C300.187 201.461 299.723 199.797 298.795 198.645C297.899 197.493 296.603 196.917 294.907 196.917C293.211 196.917 291.899 197.493 290.971 198.645C290.043 199.765 289.579 201.397 289.579 203.541C289.579 205.717 290.043 207.413 290.971 208.629C291.899 209.813 293.211 210.405 294.907 210.405ZM327.033 191.493C327.993 191.429 328.745 191.653 329.289 192.165C329.865 192.645 330.153 193.381 330.153 194.373C330.153 195.429 329.897 196.213 329.385 196.725C328.873 197.237 327.961 197.557 326.649 197.685L325.209 197.829C323.449 198.021 322.169 198.597 321.369 199.557C320.601 200.517 320.217 201.749 320.217 203.253V212.421C320.217 213.541 319.865 214.389 319.161 214.965C318.489 215.541 317.641 215.829 316.617 215.829C315.561 215.829 314.681 215.541 313.977 214.965C313.305 214.389 312.969 213.541 312.969 212.421V194.805C312.969 193.749 313.321 192.933 314.025 192.357C314.729 191.781 315.577 191.493 316.569 191.493C317.529 191.493 318.329 191.781 318.969 192.357C319.609 192.901 319.929 193.669 319.929 194.661V195.957C320.505 194.581 321.369 193.525 322.521 192.789C323.705 192.053 324.985 191.637 326.361 191.541L327.033 191.493Z" fill="#D91717"/>
<path d="M231.132 282.829C229.98 282.829 229.068 282.493 228.396 281.821C227.724 281.149 227.388 280.237 227.388 279.085V252.205C227.388 251.085 227.692 250.221 228.3 249.613C228.908 249.005 229.772 248.701 230.892 248.701H242.94C246.62 248.701 249.484 249.629 251.532 251.485C253.58 253.341 254.604 255.933 254.604 259.261C254.604 262.589 253.58 265.181 251.532 267.037C249.484 268.893 246.62 269.821 242.94 269.821H234.876V279.085C234.876 280.237 234.54 281.149 233.868 281.821C233.196 282.493 232.284 282.829 231.132 282.829ZM241.98 264.157C245.724 264.157 247.596 262.541 247.596 259.309C247.596 256.045 245.724 254.413 241.98 254.413H234.876V264.157H241.98ZM276.849 275.533C277.489 275.533 278.001 275.789 278.385 276.301C278.801 276.813 279.009 277.469 279.009 278.269C279.009 278.813 278.849 279.325 278.529 279.805C278.209 280.253 277.761 280.637 277.185 280.957C276.097 281.533 274.833 282.013 273.393 282.397C271.953 282.749 270.625 282.925 269.409 282.925C266.849 282.925 264.609 282.429 262.689 281.437C260.801 280.445 259.345 279.037 258.321 277.213C257.297 275.357 256.785 273.181 256.785 270.685C256.785 268.285 257.281 266.157 258.273 264.301C259.265 262.445 260.641 261.005 262.401 259.981C264.161 258.925 266.161 258.397 268.401 258.397C270.545 258.397 272.417 258.877 274.017 259.837C275.649 260.765 276.913 262.109 277.809 263.869C278.705 265.597 279.153 267.629 279.153 269.965C279.153 270.669 278.977 271.213 278.625 271.597C278.305 271.949 277.841 272.125 277.233 272.125H263.793C264.017 274.013 264.593 275.389 265.521 276.253C266.449 277.085 267.777 277.501 269.505 277.501C270.433 277.501 271.265 277.389 272.001 277.165C272.737 276.941 273.553 276.637 274.449 276.253C274.897 276.061 275.329 275.901 275.745 275.773C276.161 275.613 276.529 275.533 276.849 275.533ZM268.593 263.389C267.217 263.389 266.113 263.837 265.281 264.733C264.449 265.597 263.953 266.861 263.793 268.525H273.057C272.961 266.829 272.529 265.549 271.761 264.685C271.025 263.821 269.969 263.389 268.593 263.389ZM303.643 248.461C304.763 248.461 305.659 248.765 306.331 249.373C307.035 249.981 307.387 250.781 307.387 251.773V279.421C307.387 280.445 307.051 281.277 306.379 281.917C305.739 282.525 304.875 282.829 303.787 282.829C302.699 282.829 301.819 282.525 301.147 281.917C300.507 281.277 300.187 280.445 300.187 279.421V279.037C299.483 280.253 298.475 281.213 297.163 281.917C295.883 282.589 294.427 282.925 292.795 282.925C290.779 282.925 288.971 282.413 287.371 281.389C285.803 280.333 284.571 278.877 283.675 277.021C282.811 275.133 282.379 272.973 282.379 270.541C282.379 268.109 282.811 265.981 283.675 264.157C284.571 262.301 285.803 260.877 287.371 259.885C288.939 258.893 290.747 258.397 292.795 258.397C294.395 258.397 295.835 258.733 297.115 259.405C298.427 260.077 299.435 261.021 300.139 262.237V251.629C300.139 250.669 300.459 249.901 301.099 249.325C301.739 248.749 302.587 248.461 303.643 248.461ZM294.907 277.405C296.603 277.405 297.899 276.829 298.795 275.677C299.723 274.493 300.187 272.813 300.187 270.637C300.187 268.461 299.723 266.797 298.795 265.645C297.899 264.493 296.603 263.917 294.907 263.917C293.211 263.917 291.899 264.493 290.971 265.645C290.043 266.765 289.579 268.397 289.579 270.541C289.579 272.717 290.043 274.413 290.971 275.629C291.899 276.813 293.211 277.405 294.907 277.405ZM327.033 258.493C327.993 258.429 328.745 258.653 329.289 259.165C329.865 259.645 330.153 260.381 330.153 261.373C330.153 262.429 329.897 263.213 329.385 263.725C328.873 264.237 327.961 264.557 326.649 264.685L325.209 264.829C323.449 265.021 322.169 265.597 321.369 266.557C320.601 267.517 320.217 268.749 320.217 270.253V279.421C320.217 280.541 319.865 281.389 319.161 281.965C318.489 282.541 317.641 282.829 316.617 282.829C315.561 282.829 314.681 282.541 313.977 281.965C313.305 281.389 312.969 280.541 312.969 279.421V261.805C312.969 260.749 313.321 259.933 314.025 259.357C314.729 258.781 315.577 258.493 316.569 258.493C317.529 258.493 318.329 258.781 318.969 259.357C319.609 259.901 319.929 260.669 319.929 261.661V262.957C320.505 261.581 321.369 260.525 322.521 259.789C323.705 259.053 324.985 258.637 326.361 258.541L327.033 258.493Z" fill="#D91717"/>
<path d="M231.132 336.829C229.98 336.829 229.068 336.493 228.396 335.821C227.724 335.149 227.388 334.237 227.388 333.085V306.205C227.388 305.085 227.692 304.221 228.3 303.613C228.908 303.005 229.772 302.701 230.892 302.701H242.94C246.62 302.701 249.484 303.629 251.532 305.485C253.58 307.341 254.604 309.933 254.604 313.261C254.604 316.589 253.58 319.181 251.532 321.037C249.484 322.893 246.62 323.821 242.94 323.821H234.876V333.085C234.876 334.237 234.54 335.149 233.868 335.821C233.196 336.493 232.284 336.829 231.132 336.829ZM241.98 318.157C245.724 318.157 247.596 316.541 247.596 313.309C247.596 310.045 245.724 308.413 241.98 308.413H234.876V318.157H241.98ZM276.849 329.533C277.489 329.533 278.001 329.789 278.385 330.301C278.801 330.813 279.009 331.469 279.009 332.269C279.009 332.813 278.849 333.325 278.529 333.805C278.209 334.253 277.761 334.637 277.185 334.957C276.097 335.533 274.833 336.013 273.393 336.397C271.953 336.749 270.625 336.925 269.409 336.925C266.849 336.925 264.609 336.429 262.689 335.437C260.801 334.445 259.345 333.037 258.321 331.213C257.297 329.357 256.785 327.181 256.785 324.685C256.785 322.285 257.281 320.157 258.273 318.301C259.265 316.445 260.641 315.005 262.401 313.981C264.161 312.925 266.161 312.397 268.401 312.397C270.545 312.397 272.417 312.877 274.017 313.837C275.649 314.765 276.913 316.109 277.809 317.869C278.705 319.597 279.153 321.629 279.153 323.965C279.153 324.669 278.977 325.213 278.625 325.597C278.305 325.949 277.841 326.125 277.233 326.125H263.793C264.017 328.013 264.593 329.389 265.521 330.253C266.449 331.085 267.777 331.501 269.505 331.501C270.433 331.501 271.265 331.389 272.001 331.165C272.737 330.941 273.553 330.637 274.449 330.253C274.897 330.061 275.329 329.901 275.745 329.773C276.161 329.613 276.529 329.533 276.849 329.533ZM268.593 317.389C267.217 317.389 266.113 317.837 265.281 318.733C264.449 319.597 263.953 320.861 263.793 322.525H273.057C272.961 320.829 272.529 319.549 271.761 318.685C271.025 317.821 269.969 317.389 268.593 317.389ZM303.643 302.461C304.763 302.461 305.659 302.765 306.331 303.373C307.035 303.981 307.387 304.781 307.387 305.773V333.421C307.387 334.445 307.051 335.277 306.379 335.917C305.739 336.525 304.875 336.829 303.787 336.829C302.699 336.829 301.819 336.525 301.147 335.917C300.507 335.277 300.187 334.445 300.187 333.421V333.037C299.483 334.253 298.475 335.213 297.163 335.917C295.883 336.589 294.427 336.925 292.795 336.925C290.779 336.925 288.971 336.413 287.371 335.389C285.803 334.333 284.571 332.877 283.675 331.021C282.811 329.133 282.379 326.973 282.379 324.541C282.379 322.109 282.811 319.981 283.675 318.157C284.571 316.301 285.803 314.877 287.371 313.885C288.939 312.893 290.747 312.397 292.795 312.397C294.395 312.397 295.835 312.733 297.115 313.405C298.427 314.077 299.435 315.021 300.139 316.237V305.629C300.139 304.669 300.459 303.901 301.099 303.325C301.739 302.749 302.587 302.461 303.643 302.461ZM294.907 331.405C296.603 331.405 297.899 330.829 298.795 329.677C299.723 328.493 300.187 326.813 300.187 324.637C300.187 322.461 299.723 320.797 298.795 319.645C297.899 318.493 296.603 317.917 294.907 317.917C293.211 317.917 291.899 318.493 290.971 319.645C290.043 320.765 289.579 322.397 289.579 324.541C289.579 326.717 290.043 328.413 290.971 329.629C291.899 330.813 293.211 331.405 294.907 331.405ZM327.033 312.493C327.993 312.429 328.745 312.653 329.289 313.165C329.865 313.645 330.153 314.381 330.153 315.373C330.153 316.429 329.897 317.213 329.385 317.725C328.873 318.237 327.961 318.557 326.649 318.685L325.209 318.829C323.449 319.021 322.169 319.597 321.369 320.557C320.601 321.517 320.217 322.749 320.217 324.253V333.421C320.217 334.541 319.865 335.389 319.161 335.965C318.489 336.541 317.641 336.829 316.617 336.829C315.561 336.829 314.681 336.541 313.977 335.965C313.305 335.389 312.969 334.541 312.969 333.421V315.805C312.969 314.749 313.321 313.933 314.025 313.357C314.729 312.781 315.577 312.493 316.569 312.493C317.529 312.493 318.329 312.781 318.969 313.357C319.609 313.901 319.929 314.669 319.929 315.661V316.957C320.505 315.581 321.369 314.525 322.521 313.789C323.705 313.053 324.985 312.637 326.361 312.541L327.033 312.493Z" fill="#D91717"/>
<path d="M349.92 191.106C353.376 191.106 355.936 191.954 357.6 193.65C359.264 195.314 360.096 197.874 360.096 201.33V212.178C360.096 213.234 359.792 214.066 359.184 214.674C358.576 215.25 357.728 215.538 356.64 215.538C355.616 215.538 354.784 215.234 354.144 214.626C353.536 213.986 353.232 213.17 353.232 212.178V211.842C352.752 213.026 351.952 213.954 350.832 214.626C349.712 215.298 348.4 215.634 346.896 215.634C345.296 215.634 343.84 215.314 342.528 214.674C341.248 214.034 340.224 213.138 339.456 211.986C338.72 210.834 338.352 209.554 338.352 208.146C338.352 206.418 338.784 205.058 339.648 204.066C340.544 203.074 341.968 202.354 343.92 201.906C345.872 201.458 348.544 201.234 351.936 201.234H353.184V200.37C353.184 199.026 352.88 198.05 352.272 197.442C351.696 196.834 350.72 196.53 349.344 196.53C347.968 196.53 345.984 197.01 343.392 197.97C342.656 198.322 342.032 198.498 341.52 198.498C340.816 198.498 340.256 198.258 339.84 197.778C339.424 197.266 339.216 196.61 339.216 195.81C339.216 195.17 339.36 194.642 339.648 194.226C339.936 193.81 340.4 193.426 341.04 193.074C342.16 192.466 343.52 191.986 345.12 191.634C346.752 191.282 348.352 191.106 349.92 191.106ZM348.48 210.642C349.888 210.642 351.024 210.178 351.888 209.25C352.752 208.29 353.184 207.058 353.184 205.554V204.738H352.368C349.776 204.738 347.952 204.946 346.896 205.362C345.872 205.778 345.36 206.53 345.36 207.618C345.36 208.514 345.648 209.25 346.224 209.826C346.832 210.37 347.584 210.642 348.48 210.642Z" fill="black"/>
<path d="M354.329 309.496C357.785 309.496 360.345 310.344 362.009 312.04C363.673 313.704 364.505 316.264 364.505 319.72V330.568C364.505 331.624 364.201 332.456 363.593 333.064C362.985 333.64 362.137 333.928 361.049 333.928C360.025 333.928 359.193 333.624 358.553 333.016C357.945 332.376 357.641 331.56 357.641 330.568V330.232C357.161 331.416 356.361 332.344 355.241 333.016C354.121 333.688 352.809 334.024 351.305 334.024C349.705 334.024 348.249 333.704 346.937 333.064C345.657 332.424 344.633 331.528 343.865 330.376C343.129 329.224 342.761 327.944 342.761 326.536C342.761 324.808 343.193 323.448 344.057 322.456C344.953 321.464 346.377 320.744 348.329 320.296C350.281 319.848 352.953 319.624 356.345 319.624H357.593V318.76C357.593 317.416 357.289 316.44 356.681 315.832C356.105 315.224 355.129 314.92 353.753 314.92C352.377 314.92 350.393 315.4 347.801 316.36C347.065 316.712 346.441 316.888 345.929 316.888C345.225 316.888 344.665 316.648 344.249 316.168C343.833 315.656 343.625 315 343.625 314.2C343.625 313.56 343.769 313.032 344.057 312.616C344.345 312.2 344.809 311.816 345.449 311.464C346.569 310.856 347.929 310.376 349.529 310.024C351.161 309.672 352.761 309.496 354.329 309.496ZM352.889 329.032C354.297 329.032 355.433 328.568 356.297 327.64C357.161 326.68 357.593 325.448 357.593 323.944V323.128H356.777C354.185 323.128 352.361 323.336 351.305 323.752C350.281 324.168 349.769 324.92 349.769 326.008C349.769 326.904 350.057 327.64 350.633 328.216C351.241 328.76 351.993 329.032 352.889 329.032ZM390.036 299.56C391.156 299.56 392.052 299.864 392.724 300.472C393.428 301.08 393.78 301.88 393.78 302.872V330.52C393.78 331.544 393.444 332.376 392.772 333.016C392.132 333.624 391.268 333.928 390.18 333.928C389.092 333.928 388.212 333.624 387.54 333.016C386.9 332.376 386.58 331.544 386.58 330.52V330.136C385.876 331.352 384.868 332.312 383.556 333.016C382.276 333.688 380.82 334.024 379.188 334.024C377.172 334.024 375.364 333.512 373.764 332.488C372.196 331.432 370.964 329.976 370.068 328.12C369.204 326.232 368.772 324.072 368.772 321.64C368.772 319.208 369.204 317.08 370.068 315.256C370.964 313.4 372.196 311.976 373.764 310.984C375.332 309.992 377.14 309.496 379.188 309.496C380.788 309.496 382.228 309.832 383.508 310.504C384.82 311.176 385.828 312.12 386.532 313.336V302.728C386.532 301.768 386.852 301 387.492 300.424C388.132 299.848 388.98 299.56 390.036 299.56ZM381.3 328.504C382.996 328.504 384.292 327.928 385.188 326.776C386.116 325.592 386.58 323.912 386.58 321.736C386.58 319.56 386.116 317.896 385.188 316.744C384.292 315.592 382.996 315.016 381.3 315.016C379.604 315.016 378.292 315.592 377.364 316.744C376.436 317.864 375.972 319.496 375.972 321.64C375.972 323.816 376.436 325.512 377.364 326.728C378.292 327.912 379.604 328.504 381.3 328.504ZM409.969 309.496C413.425 309.496 415.985 310.344 417.649 312.04C419.313 313.704 420.145 316.264 420.145 319.72V330.568C420.145 331.624 419.841 332.456 419.233 333.064C418.625 333.64 417.777 333.928 416.689 333.928C415.665 333.928 414.833 333.624 414.193 333.016C413.585 332.376 413.281 331.56 413.281 330.568V330.232C412.801 331.416 412.001 332.344 410.881 333.016C409.761 333.688 408.449 334.024 406.945 334.024C405.345 334.024 403.889 333.704 402.577 333.064C401.297 332.424 400.273 331.528 399.505 330.376C398.769 329.224 398.401 327.944 398.401 326.536C398.401 324.808 398.833 323.448 399.697 322.456C400.593 321.464 402.017 320.744 403.969 320.296C405.921 319.848 408.593 319.624 411.985 319.624H413.233V318.76C413.233 317.416 412.929 316.44 412.321 315.832C411.745 315.224 410.769 314.92 409.393 314.92C408.017 314.92 406.033 315.4 403.441 316.36C402.705 316.712 402.081 316.888 401.569 316.888C400.865 316.888 400.305 316.648 399.889 316.168C399.473 315.656 399.265 315 399.265 314.2C399.265 313.56 399.409 313.032 399.697 312.616C399.985 312.2 400.449 311.816 401.089 311.464C402.209 310.856 403.569 310.376 405.169 310.024C406.801 309.672 408.401 309.496 409.969 309.496ZM408.529 329.032C409.937 329.032 411.073 328.568 411.937 327.64C412.801 326.68 413.233 325.448 413.233 323.944V323.128H412.417C409.825 323.128 408.001 323.336 406.945 323.752C405.921 324.168 405.409 324.92 405.409 326.008C405.409 326.904 405.697 327.64 406.273 328.216C406.881 328.76 407.633 329.032 408.529 329.032Z" fill="black"/>
</g>
<defs>
<clipPath id="clip0_1030:1291">
<rect width="751" height="558" fill="white" transform="translate(0.0283203 0.220703)"/>
</clipPath>
</defs>
</svg>
