<svg width="159" height="43" viewBox="0 0 159 43" fill="none" xmlns="http://www.w3.org/2000/svg">
<path d="M23.4741 1.50049L28.245 14.8599L28.3635 15.1918H28.7159H44.0157L31.6798 23.3461L31.3528 23.5623L31.4846 23.9314L36.2222 37.1972L23.7498 28.9526L23.4741 28.7704L23.1983 28.9526L10.7259 37.1972L15.4635 23.9314L15.5953 23.5623L15.2683 23.3461L2.93241 15.1918H18.2322H18.5846L18.7031 14.8599L23.4741 1.50049Z" fill="#FFD800" stroke="#FFD800"/>
<path d="M134.793 1.50049L139.564 14.8599L139.683 15.1918H140.035H155.335L142.999 23.3461L142.672 23.5623L142.804 23.9314L147.541 37.1972L135.069 28.9526L134.793 28.7704L134.518 28.9526L122.045 37.1972L126.783 23.9314L126.915 23.5623L126.588 23.3461L114.252 15.1918H129.551H129.904L130.022 14.8599L134.793 1.50049Z" fill="#FFD800" stroke="#FFD800"/>
<path d="M78.2546 1.50049L83.0256 14.8599L83.1441 15.1918H83.4964H98.7962L86.4603 23.3461L86.1334 23.5623L86.2652 23.9314L91.0027 37.1972L78.5303 28.9526L78.2546 28.7704L77.9789 28.9526L65.5065 37.1972L70.244 23.9314L70.3758 23.5623L70.0488 23.3461L57.7129 15.1918H73.0128H73.3651L73.4836 14.8599L78.2546 1.50049Z" fill="#FFD800" stroke="#FFD800"/>
</svg>
