<svg width="159" height="43" viewBox="0 0 159 43" fill="none" xmlns="http://www.w3.org/2000/svg">
<path d="M23.5829 1.84099L28.3539 15.2004L28.4724 15.5323H28.8248H44.1246L31.7887 23.6866L31.4617 23.9028L31.5935 24.2719L36.3311 37.5377L23.8587 29.2931L23.5829 29.1109L23.3072 29.2931L10.8348 37.5377L15.5724 24.2719L15.7042 23.9028L15.3772 23.6866L3.0413 15.5323H18.3411H18.6935L18.812 15.2004L23.5829 1.84099Z" fill="#F0F4F0" stroke="#F0F4F0"/>
<path d="M134.902 1.84099L139.673 15.2004L139.792 15.5323H140.144H155.444L143.108 23.6866L142.781 23.9028L142.913 24.2719L147.65 37.5377L135.178 29.2931L134.902 29.1109L134.626 29.2931L122.154 37.5377L126.892 24.2719L127.023 23.9028L126.696 23.6866L114.361 15.5323H129.66H130.013L130.131 15.2004L134.902 1.84099Z" fill="#F0F4F0" stroke="#F0F4F0"/>
<path d="M78.3635 1.84099L83.1344 15.2004L83.2529 15.5323H83.6053H98.9051L86.5692 23.6866L86.2422 23.9028L86.3741 24.2719L91.1116 37.5377L78.6392 29.2931L78.3635 29.1109L78.0878 29.2931L65.6154 37.5377L70.3529 24.2719L70.4847 23.9028L70.1577 23.6866L57.8218 15.5323H73.1216H73.474L73.5925 15.2004L78.3635 1.84099Z" fill="#F0F4F0" stroke="#F0F4F0"/>
</svg>
