<svg width="1000" height="1000" viewBox="0 0 1000 1000" fill="none" xmlns="http://www.w3.org/2000/svg">
<g opacity="0.3">
<path opacity="0.3" d="M472.3 388.8H430.3V635.3H472.3V388.8Z" fill="#2D2D2D" stroke="#2D2D2D" stroke-width="8" stroke-miterlimit="10" stroke-linecap="round" stroke-linejoin="round"/>
<path opacity="0.3" d="M478 635.2H424.7V665.2H478V635.2Z" fill="#2D2D2D" stroke="#2D2D2D" stroke-width="8" stroke-miterlimit="10" stroke-linecap="round" stroke-linejoin="round"/>
<path opacity="0.3" d="M463.7 691H439C434.2 691 430.3 687.1 430.3 682.3V665.1H472.3V682.3C472.3 687.1 468.5 691 463.7 691Z" fill="#2D2D2D" stroke="#2D2D2D" stroke-width="8" stroke-miterlimit="10" stroke-linecap="round" stroke-linejoin="round"/>
<path opacity="0.3" d="M472.3 388.8H430.3L451.3 322.3L472.3 388.8Z" fill="#2D2D2D" stroke="#2D2D2D" stroke-width="8" stroke-miterlimit="10" stroke-linecap="round" stroke-linejoin="round"/>
</g>
<g opacity="0.3">
<path opacity="0.3" d="M602.2 482.5H564.9V694.5H602.2V482.5Z" fill="#2D2D2D" stroke="#2D2D2D" stroke-width="8" stroke-miterlimit="10" stroke-linecap="round" stroke-linejoin="round"/>
<path opacity="0.3" d="M607.6 339.5H559.6V482.5H607.6V339.5Z" fill="#2D2D2D" stroke="#2D2D2D" stroke-width="8" stroke-miterlimit="10" stroke-linecap="round" stroke-linejoin="round"/>
<path opacity="0.3" d="M602.2 339.5H564.9V337.2C564.9 326.9 573.3 318.5 583.6 318.5C593.9 318.5 602.3 326.9 602.3 337.2V339.5H602.2Z" fill="#2D2D2D" stroke="#2D2D2D" stroke-width="8" stroke-miterlimit="10" stroke-linecap="round" stroke-linejoin="round"/>
<path opacity="0.3" d="M545.7 361.9V451.2" stroke="#2D2D2D" stroke-width="8" stroke-miterlimit="10" stroke-linecap="round" stroke-linejoin="round"/>
<path opacity="0.3" d="M559.6 376.3H545.7" stroke="#2D2D2D" stroke-width="8" stroke-miterlimit="10" stroke-linecap="round" stroke-linejoin="round"/>
<path opacity="0.3" d="M597.8 694.5C597.8 702.4 591.4 708.8 583.5 708.8C575.6 708.8 569.2 702.4 569.2 694.5H597.8Z" fill="#2D2D2D" stroke="#2D2D2D" stroke-width="8" stroke-miterlimit="10" stroke-linecap="round" stroke-linejoin="round"/>
</g>
<path d="M593.2 472.5H555.9V684.5H593.2V472.5Z" fill="#00B3C6"/>
<path opacity="0.5" d="M593.3 472.5H579.7V684.5H593.3V472.5Z" fill="#00B3C6"/>
<path opacity="0.35" d="M569.3 472.5H555.9V684.5H569.3V472.5Z" fill="#00B3C6"/>
<path d="M593.2 472.5H555.9V684.5H593.2V472.5Z" stroke="#330E00" stroke-width="8" stroke-miterlimit="10" stroke-linecap="round" stroke-linejoin="round"/>
<path d="M598.6 329.5H550.6V472.5H598.6V329.5Z" fill="#565656"/>
<path opacity="0.27" d="M564.9 329.5H550.6V472.5H564.9V329.5Z" fill="#565656"/>
<path opacity="0.27" d="M597.9 329.5H583.6V472.5H597.9V329.5Z" fill="#565656"/>
<path d="M598.6 329.5H550.6V472.5H598.6V329.5Z" stroke="#330E00" stroke-width="8" stroke-miterlimit="10" stroke-linecap="round" stroke-linejoin="round"/>
<path d="M593.2 329.5H555.9V327.2C555.9 316.9 564.3 308.5 574.6 308.5C584.9 308.5 593.3 316.9 593.3 327.2V329.5H593.2Z" fill="#00B3C6"/>
<path d="M593.2 329.5H555.9V327.2C555.9 316.9 564.3 308.5 574.6 308.5C584.9 308.5 593.3 316.9 593.3 327.2V329.5H593.2Z" stroke="#330E00" stroke-width="8" stroke-miterlimit="10" stroke-linecap="round" stroke-linejoin="round"/>
<path d="M536.7 351.9V441.2" stroke="#330E00" stroke-width="8" stroke-miterlimit="10" stroke-linecap="round" stroke-linejoin="round"/>
<path d="M550.6 366.3H536.7" stroke="#330E00" stroke-width="8" stroke-miterlimit="10" stroke-linecap="round" stroke-linejoin="round"/>
<path d="M588.8 684.5C588.8 692.4 582.4 698.8 574.5 698.8C566.6 698.8 560.2 692.4 560.2 684.5H588.8Z" fill="#565656"/>
<path d="M588.8 684.5C588.8 692.4 582.4 698.8 574.5 698.8C566.6 698.8 560.2 692.4 560.2 684.5H588.8Z" stroke="#330E00" stroke-width="8" stroke-miterlimit="10" stroke-linecap="round" stroke-linejoin="round"/>
<path d="M461.3 376.8H419.3V623.3H461.3V376.8Z" fill="#FF1F1F"/>
<path d="M461.3 376.8H419.3V623.3H461.3V376.8Z" stroke="#330E00" stroke-width="8" stroke-miterlimit="10" stroke-linecap="round" stroke-linejoin="round"/>
<path d="M447.6 376.8H433V623.3H447.6V376.8Z" stroke="#330E00" stroke-width="8" stroke-miterlimit="10" stroke-linecap="round" stroke-linejoin="round"/>
<path d="M467 623.2H413.7V653.2H467V623.2Z" fill="#FDD2A7"/>
<path opacity="0.5" d="M467 623.2H451.3V653.2H467V623.2Z" fill="#FDD2A7"/>
<path d="M428 623.2H413.7V653.2H428V623.2Z" fill="#FDD2A7"/>
<path d="M467 623.2H413.7V653.2H467V623.2Z" stroke="#330E00" stroke-width="8" stroke-miterlimit="10" stroke-linecap="round" stroke-linejoin="round"/>
<path d="M452.7 679H428C423.2 679 419.3 675.1 419.3 670.3V653.1H461.3V670.3C461.3 675.1 457.5 679 452.7 679Z" fill="#3BABFF"/>
<path d="M452.7 679H428C423.2 679 419.3 675.1 419.3 670.3V653.1H461.3V670.3C461.3 675.1 457.5 679 452.7 679Z" stroke="#330E00" stroke-width="8" stroke-miterlimit="10" stroke-linecap="round" stroke-linejoin="round"/>
<path d="M461.3 376.8H419.3L440.3 310.3L461.3 376.8Z" fill="#FDD2A7"/>
<path d="M461.3 376.8H419.3L440.3 310.3L461.3 376.8Z" stroke="#330E00" stroke-width="8" stroke-miterlimit="10" stroke-linecap="round" stroke-linejoin="round"/>
<path d="M440.3 310.3L431.4 338.5H449.2L440.3 310.3Z" fill="#330E00"/>
<path opacity="0.3" d="M189.7 521C174.9 500.1 151.4 491.4 137.1 501.5C122.8 511.6 123.2 536.7 138 557.6C150.9 575.8 170.5 584.8 184.7 580L246.2 678.1C251.4 686.3 259.6 687.6 265.7 683.3C271.8 679 273.3 670.9 267.3 663.2L195.2 572.6C204.5 560.7 202.5 539.2 189.7 521Z" fill="#2D2D2D" stroke="#2D2D2D" stroke-width="8" stroke-miterlimit="10" stroke-linecap="round" stroke-linejoin="round"/>
<path opacity="0.3" d="M245.9 624.3C315.488 624.3 371.9 567.888 371.9 498.3C371.9 428.712 315.488 372.3 245.9 372.3C176.312 372.3 119.9 428.712 119.9 498.3C119.9 567.888 176.312 624.3 245.9 624.3Z" fill="#2D2D2D" stroke="#2D2D2D" stroke-width="8" stroke-miterlimit="10" stroke-linecap="round" stroke-linejoin="round"/>
<path d="M233.9 612.3C303.488 612.3 359.9 555.888 359.9 486.3C359.9 416.712 303.488 360.3 233.9 360.3C164.312 360.3 107.9 416.712 107.9 486.3C107.9 555.888 164.312 612.3 233.9 612.3Z" fill="white"/>
<path d="M182.3 550.5C191.5 538.6 189.6 517.2 176.7 499C161.9 478.1 110.3 514.7 125 535.6C137.9 553.8 157.5 562.8 171.7 558L201.5 605.6C210.5 608.2 219.9 609.7 229.6 610.2L182.3 550.5Z" fill="#C0C0C0" stroke="#C0C0C0" stroke-width="8" stroke-miterlimit="10" stroke-linecap="round" stroke-linejoin="round"/>
<path d="M348.2 515.3H316.2V483.3H348.2C352.6 483.3 356.2 486.9 356.2 491.3V507.3C356.2 511.7 352.6 515.3 348.2 515.3Z" fill="#C0C0C0" stroke="#C0C0C0" stroke-width="8" stroke-miterlimit="10" stroke-linecap="round" stroke-linejoin="round"/>
<path d="M236.9 578.3C280.53 578.3 315.9 542.931 315.9 499.3C315.9 455.67 280.53 420.3 236.9 420.3C193.269 420.3 157.9 455.67 157.9 499.3C157.9 542.931 193.269 578.3 236.9 578.3Z" fill="#C0C0C0" stroke="#C0C0C0" stroke-width="8" stroke-miterlimit="10" stroke-linecap="round" stroke-linejoin="round"/>
<path d="M233.9 612.3C303.488 612.3 359.9 555.888 359.9 486.3C359.9 416.712 303.488 360.3 233.9 360.3C164.312 360.3 107.9 416.712 107.9 486.3C107.9 555.888 164.312 612.3 233.9 612.3Z" stroke="#330E00" stroke-width="8" stroke-miterlimit="10" stroke-linecap="round" stroke-linejoin="round"/>
<path d="M173.7 509C158.9 488.1 135.4 479.4 121.1 489.5C106.8 499.6 107.2 524.7 122 545.6C134.9 563.8 154.5 572.8 168.7 568L230.2 666.1C235.4 674.3 243.6 675.6 249.7 671.3C255.8 667 257.3 658.9 251.3 651.2L179.2 560.6C188.5 548.7 186.5 527.2 173.7 509Z" fill="white"/>
<path d="M180.4 556.7C183.3 543.7 177.3 528.1 168.2 512.9C162.8 504 158.1 496.9 150.9 491.8C150.9 517.7 162.8 540.3 180.4 556.7Z" fill="#C0C0C0" stroke="#C0C0C0" stroke-width="8" stroke-miterlimit="10" stroke-linecap="round" stroke-linejoin="round"/>
<path d="M136.1 545.6C134.5 543.9 133 542 131.6 540.1C125 530.8 121.8 520.2 122.2 511.7" stroke="#330E00" stroke-width="4" stroke-miterlimit="10" stroke-linecap="round" stroke-linejoin="round"/>
<path d="M173.7 509C158.9 488.1 135.4 479.4 121.1 489.5C106.8 499.6 107.2 524.7 122 545.6C134.9 563.8 154.5 572.8 168.7 568L230.2 666.1C235.4 674.3 243.6 675.6 249.7 671.3C255.8 667 257.3 658.9 251.3 651.2L179.2 560.6C188.5 548.7 186.5 527.2 173.7 509Z" stroke="#330E00" stroke-width="8" stroke-miterlimit="10" stroke-linecap="round" stroke-linejoin="round"/>
<path d="M345.2 502.3H306.6V470.3H345.2C349.6 470.3 353.2 473.9 353.2 478.3V494.3C353.2 498.7 349.6 502.3 345.2 502.3Z" fill="white"/>
<path d="M345.2 502.3H306.6V470.3H345.2C349.6 470.3 353.2 473.9 353.2 478.3V494.3C353.2 498.7 349.6 502.3 345.2 502.3Z" stroke="#330E00" stroke-width="8" stroke-miterlimit="10" stroke-linecap="round" stroke-linejoin="round"/>
<path d="M233.9 565.3C277.53 565.3 312.9 529.931 312.9 486.3C312.9 442.67 277.53 407.3 233.9 407.3C190.269 407.3 154.9 442.67 154.9 486.3C154.9 529.931 190.269 565.3 233.9 565.3Z" fill="white"/>
<path d="M233.9 565.3C277.53 565.3 312.9 529.931 312.9 486.3C312.9 442.67 277.53 407.3 233.9 407.3C190.269 407.3 154.9 442.67 154.9 486.3C154.9 529.931 190.269 565.3 233.9 565.3Z" stroke="#330E00" stroke-width="8" stroke-miterlimit="10" stroke-linecap="round" stroke-linejoin="round"/>
<path d="M233.9 549.6C268.859 549.6 297.2 521.26 297.2 486.3C297.2 451.34 268.859 423 233.9 423C198.94 423 170.6 451.34 170.6 486.3C170.6 521.26 198.94 549.6 233.9 549.6Z" fill="#330E00"/>
<path d="M240.3 436.4C265.7 439.5 285.4 461.2 285.4 487.4C285.4 515.7 262.4 538.7 234.1 538.7C214.3 538.7 197.1 527.4 188.5 511" stroke="white" stroke-width="5" stroke-miterlimit="10" stroke-linecap="round"/>
<path d="M236.6 450C252 453.2 264.5 464.6 269.1 479.4" stroke="white" stroke-width="5" stroke-miterlimit="10" stroke-linecap="round"/>
<path d="M569.7 585.5V666.3" stroke="#330E00" stroke-width="6" stroke-miterlimit="10" stroke-linecap="round" stroke-linejoin="round"/>
<path d="M593.2 472.5H555.9V684.5H593.2V472.5Z" stroke="#330E00" stroke-width="8" stroke-miterlimit="10" stroke-linecap="round" stroke-linejoin="round"/>
<path d="M598.6 329.5H550.6V472.5H598.6V329.5Z" stroke="#330E00" stroke-width="8" stroke-miterlimit="10" stroke-linecap="round" stroke-linejoin="round"/>
<path d="M593.2 329.5H555.9V327.2C555.9 316.9 564.3 308.5 574.6 308.5C584.9 308.5 593.3 316.9 593.3 327.2V329.5H593.2Z" stroke="#330E00" stroke-width="8" stroke-miterlimit="10" stroke-linecap="round" stroke-linejoin="round"/>
<path d="M536.7 351.9V441.2" stroke="#330E00" stroke-width="8" stroke-miterlimit="10" stroke-linecap="round" stroke-linejoin="round"/>
<path d="M550.6 366.3H536.7" stroke="#330E00" stroke-width="8" stroke-miterlimit="10" stroke-linecap="round" stroke-linejoin="round"/>
<path d="M588.8 684.5C588.8 692.4 582.4 698.8 574.5 698.8C566.6 698.8 560.2 692.4 560.2 684.5H588.8Z" stroke="#330E00" stroke-width="8" stroke-miterlimit="10" stroke-linecap="round" stroke-linejoin="round"/>
<g opacity="0.3">
<path opacity="0.3" d="M723 681.4L674.5 646.1C666.5 640.3 664.7 629 670.5 621L830.4 400.9C836.2 392.9 847.5 391.1 855.5 396.9L904 432.2C912 438 913.8 449.3 908 457.3L748.1 677.4C742.3 685.4 731 687.2 723 681.4Z" fill="#2D2D2D" stroke="#2D2D2D" stroke-width="8" stroke-miterlimit="10" stroke-linecap="round" stroke-linejoin="round"/>
<path opacity="0.3" d="M745.1 653.6H685.1C675.2 653.6 667.1 645.5 667.1 635.6V363.6C667.1 353.7 675.2 345.6 685.1 345.6H745.1C755 345.6 763.1 353.7 763.1 363.6V635.6C763.1 645.6 755.1 653.6 745.1 653.6Z" fill="#2D2D2D" stroke="#2D2D2D" stroke-width="8" stroke-miterlimit="10" stroke-linecap="round" stroke-linejoin="round"/>
<path opacity="0.3" d="M737.8 668.8L680.1 652.3C670.5 649.6 665 639.6 667.8 630L742.8 368.5C745.5 358.9 755.5 353.4 765.1 356.2L822.8 372.7C832.4 375.4 837.9 385.4 835.1 395L760.1 656.5C757.3 666 747.4 671.5 737.8 668.8Z" fill="#2D2D2D" stroke="#2D2D2D" stroke-width="8" stroke-miterlimit="10" stroke-linecap="round" stroke-linejoin="round"/>
</g>
<path d="M718 665.4L669.5 630.1C661.5 624.3 659.7 613 665.5 605L825.4 384.9C831.2 376.9 842.5 375.1 850.5 380.9L899 416.2C907 422 908.8 433.3 903 441.3L743.1 661.4C737.3 669.4 726 671.2 718 665.4Z" fill="white"/>
<path d="M718 665.4L669.5 630.1C661.5 624.3 659.7 613 665.5 605L825.4 384.9C831.2 376.9 842.5 375.1 850.5 380.9L899 416.2C907 422 908.8 433.3 903 441.3L743.1 661.4C737.3 669.4 726 671.2 718 665.4Z" stroke="#330E00" stroke-width="8" stroke-miterlimit="10" stroke-linecap="round" stroke-linejoin="round"/>
<path d="M797.2 586.9L719.5 530.5L825.3 384.9C831.1 376.9 842.4 375.1 850.4 380.9L898.9 416.2C906.9 422 908.7 433.3 902.9 441.3L797.2 586.9Z" stroke="#330E00" stroke-width="8" stroke-miterlimit="10" stroke-linecap="round" stroke-linejoin="round"/>
<path d="M874.8 480.2L797.1 423.8L825.3 385C831.1 377 842.4 375.2 850.4 381L898.9 416.3C906.9 422.1 908.7 433.4 902.9 441.4L874.8 480.2Z" fill="#8C6239"/>
<path d="M874.8 480.2L797.1 423.8L825.3 385C831.1 377 842.4 375.2 850.4 381L898.9 416.3C906.9 422.1 908.7 433.4 902.9 441.4L874.8 480.2Z" stroke="#330E00" stroke-width="8" stroke-miterlimit="10" stroke-linecap="round" stroke-linejoin="round"/>
<path d="M835.939 533.499L758.275 477.071L719.48 530.465L797.144 586.893L835.939 533.499Z" fill="#42210B"/>
<path d="M874.741 480.105L797.077 423.677L758.282 477.071L835.946 533.499L874.741 480.105Z" fill="#603813"/>
<path d="M874.741 480.105L797.077 423.677L758.282 477.071L835.946 533.499L874.741 480.105Z" stroke="#330E00" stroke-width="8" stroke-miterlimit="10" stroke-linecap="round" stroke-linejoin="round"/>
<path d="M835.939 533.499L758.275 477.071L719.48 530.465L797.144 586.893L835.939 533.499Z" stroke="#330E00" stroke-width="8" stroke-miterlimit="10" stroke-linecap="round" stroke-linejoin="round"/>
<path d="M687.3 622.6C691.718 622.6 695.3 619.018 695.3 614.6C695.3 610.182 691.718 606.6 687.3 606.6C682.882 606.6 679.3 610.182 679.3 614.6C679.3 619.018 682.882 622.6 687.3 622.6Z" stroke="#330E00" stroke-width="8" stroke-miterlimit="10" stroke-linecap="round" stroke-linejoin="round"/>
<path opacity="0.3" d="M824.7 360.7L767 344.2C757.4 341.5 747.5 347 744.7 356.5L669.7 618C667 627.6 672.5 637.5 682 640.3L734.6 637.3C735.1 637.4 739.5 637.6 740 637.7H744.8L752.5 636.9C760.7 636 767.5 630.3 769.7 622.3L837.1 383C839.8 373.4 834.3 363.5 824.7 360.7Z" fill="#2D2D2D" stroke="#2D2D2D" stroke-width="8" stroke-miterlimit="10" stroke-linecap="round" stroke-linejoin="round"/>
<path d="M732.8 652.8L675.1 636.3C665.5 633.6 660 623.6 662.8 614L737.8 352.5C740.5 342.9 750.5 337.4 760.1 340.2L817.8 356.7C827.4 359.4 832.9 369.4 830.1 379L755.1 640.5C752.3 650 742.4 655.5 732.8 652.8Z" fill="white"/>
<path d="M732.8 652.8L675.1 636.3C665.5 633.6 660 623.6 662.8 614L737.8 352.5C740.5 342.9 750.5 337.4 760.1 340.2L817.8 356.7C827.4 359.4 832.9 369.4 830.1 379L755.1 640.5C752.3 650 742.4 655.5 732.8 652.8Z" stroke="#330E00" stroke-width="8" stroke-miterlimit="10" stroke-linecap="round" stroke-linejoin="round"/>
<path d="M816.8 425.1L724.5 398.6L737.7 352.5C740.4 342.9 750.4 337.4 760 340.2L817.7 356.7C827.3 359.4 832.8 369.4 830 379L816.8 425.1Z" fill="#BD3F3A"/>
<path d="M780.4 552L688.1 525.5L737.7 352.5C740.4 342.9 750.4 337.4 760 340.2L817.7 356.7C827.3 359.4 832.8 369.4 830 379L780.4 552Z" stroke="#330E00" stroke-width="8" stroke-miterlimit="10" stroke-linecap="round" stroke-linejoin="round"/>
<path d="M816.891 425.099L724.606 398.641L706.416 462.087L798.701 488.545L816.891 425.099Z" fill="#A33500"/>
<path d="M816.891 425.099L724.606 398.641L706.416 462.087L798.701 488.545L816.891 425.099Z" stroke="#330E00" stroke-width="8" stroke-miterlimit="10" stroke-linecap="round" stroke-linejoin="round"/>
<path d="M798.677 488.597L706.392 462.14L688.202 525.586L780.487 552.043L798.677 488.597Z" fill="#6D2300"/>
<path d="M798.677 488.597L706.392 462.14L688.202 525.586L780.487 552.043L798.677 488.597Z" stroke="#330E00" stroke-width="8" stroke-miterlimit="10" stroke-linecap="round" stroke-linejoin="round"/>
<path d="M686.6 623.6C691.018 623.6 694.6 620.018 694.6 615.6C694.6 611.182 691.018 607.6 686.6 607.6C682.182 607.6 678.6 611.182 678.6 615.6C678.6 620.018 682.182 623.6 686.6 623.6Z" stroke="#330E00" stroke-width="8" stroke-miterlimit="10" stroke-linecap="round" stroke-linejoin="round"/>
<path opacity="0.3" d="M748.1 641.6H688.1C678.2 641.6 670.1 633.5 670.1 623.6V351.6C670.1 341.7 678.2 333.6 688.1 333.6H748.1C758 333.6 766.1 341.7 766.1 351.6V623.6C766.1 633.6 758.1 641.6 748.1 641.6Z" fill="#2D2D2D" stroke="#2D2D2D" stroke-width="8" stroke-miterlimit="10" stroke-linecap="round" stroke-linejoin="round"/>
<path d="M740.1 637.6H680.1C670.2 637.6 662.1 629.5 662.1 619.6V347.6C662.1 337.7 670.2 329.6 680.1 329.6H740.1C750 329.6 758.1 337.7 758.1 347.6V619.6C758.1 629.6 750.1 637.6 740.1 637.6Z" fill="white"/>
<path d="M740.1 637.6H680.1C670.2 637.6 662.1 629.5 662.1 619.6V347.6C662.1 337.7 670.2 329.6 680.1 329.6H740.1C750 329.6 758.1 337.7 758.1 347.6V619.6C758.1 629.6 750.1 637.6 740.1 637.6Z" stroke="#330E00" stroke-width="8" stroke-miterlimit="10" stroke-linecap="round" stroke-linejoin="round"/>
<path d="M758.1 527.6H662.1V347.6C662.1 337.7 670.2 329.6 680.1 329.6H740.1C750 329.6 758.1 337.7 758.1 347.6V527.6Z" stroke="#330E00" stroke-width="8" stroke-miterlimit="10" stroke-linecap="round" stroke-linejoin="round"/>
<path d="M758.1 395.6H662.1V347.6C662.1 337.7 670.2 329.6 680.1 329.6H740.1C750 329.6 758.1 337.7 758.1 347.6V395.6Z" fill="#FF9999"/>
<path d="M758.1 395.6H662.1V347.6C662.1 337.7 670.2 329.6 680.1 329.6H740.1C750 329.6 758.1 337.7 758.1 347.6V395.6Z" stroke="#330E00" stroke-width="8" stroke-miterlimit="10" stroke-linecap="round" stroke-linejoin="round"/>
<path d="M758.1 395.6H662.1V461.6H758.1V395.6Z" fill="#FF0000"/>
<path d="M758.1 395.6H662.1V461.6H758.1V395.6Z" fill="#FF3333" stroke="#330E00" stroke-width="8" stroke-miterlimit="10" stroke-linecap="round" stroke-linejoin="round"/>
<path d="M758.1 461.6H662.1V527.6H758.1V461.6Z" fill="#BF0000"/>
<path d="M758.1 461.6H662.1V527.6H758.1V461.6Z" stroke="#330E00" stroke-width="8" stroke-miterlimit="10" stroke-linecap="round" stroke-linejoin="round"/>
<path d="M685.5 622.6C689.918 622.6 693.5 619.018 693.5 614.6C693.5 610.182 689.918 606.6 685.5 606.6C681.082 606.6 677.5 610.182 677.5 614.6C677.5 619.018 681.082 622.6 685.5 622.6Z" stroke="#330E00" stroke-width="8" stroke-miterlimit="10" stroke-linecap="round" stroke-linejoin="round"/>
<path d="M676.3 544.2H674.6V547.1H673.8V540.3H676.3C678.3 540.3 679.1 541.1 679.1 542.3C679.1 543.4 678.3 544.2 676.3 544.2ZM676.3 543.6C677.7 543.6 678.3 543.1 678.3 542.2C678.3 541.3 677.7 540.8 676.3 540.8H674.6V543.6H676.3Z" fill="#330E00"/>
<path d="M685.6 545.5H681.8L681.1 547.1H680.2L683.3 540.4H684.3L687.4 547.1H686.5L685.6 545.5ZM683.7 541.3L682 545H685.3L683.7 541.3Z" fill="#330E00"/>
<path d="M695.1 540.3V547.1H694.3L689.6 541.4V547.1H688.8V540.3H689.6L694.3 546V540.3H695.1Z" fill="#330E00"/>
<path d="M696.6 540.3H702.1V540.9H699.8V547.1H699V540.9H696.6V540.3Z" fill="#330E00"/>
<path d="M707.4 547.2C705 547.2 703.2 545.8 703.2 543.7C703.2 541.7 705 540.2 707.4 540.2C709.8 540.2 711.6 541.6 711.6 543.7C711.6 545.8 709.8 547.2 707.4 547.2ZM707.4 546.6C709.3 546.6 710.7 545.5 710.7 543.7C710.7 541.9 709.3 540.8 707.4 540.8C705.5 540.8 704.1 541.9 704.1 543.7C704.1 545.5 705.6 546.6 707.4 546.6Z" fill="#330E00"/>
<path d="M719.7 540.3V547.1H718.9L714.2 541.4V547.1H713.4V540.3H714.2L718.9 546V540.3H719.7Z" fill="#330E00"/>
<path d="M726.2 540.9H722.6V543.4H725.8V544H722.6V546.6H726.2V547.2H721.8V540.4H726.2V540.9Z" fill="#330E00"/>
<path d="M728.4 540.2H730V540.4H729.4V542.4H729V540.4H728.4V540.2Z" fill="#330E00"/>
<path d="M730.4 540.2H730.7L731.5 542L732.3 540.2H732.6V542.4H732.3V540.7L731.5 542.4H731.3L730.5 540.7V542.4H730.2V540.2H730.4Z" fill="#330E00"/>
<path d="M472.242 116.669H231.196C223.338 116.669 216.969 122.235 216.969 129.1V260.689C216.969 267.555 223.338 273.12 231.196 273.12H472.242C480.099 273.12 486.469 267.555 486.469 260.689V129.1C486.469 122.235 480.099 116.669 472.242 116.669Z" fill="white"/>
<path d="M237.615 135.249H237.016C235.588 135.105 234.283 134.473 233.386 133.492C232.487 132.513 232.07 131.261 232.222 130.013C232.284 129.398 232.487 128.8 232.82 128.255C233.152 127.709 233.604 127.226 234.155 126.838C234.832 126.371 235.626 126.054 236.471 125.91C237.318 125.768 238.189 125.802 239.017 126.013C239.844 126.224 240.602 126.604 241.226 127.121C241.853 127.64 242.326 128.282 242.61 128.991C242.896 129.702 242.981 130.462 242.863 131.207C242.744 131.952 242.423 132.663 241.926 133.278C241.431 133.892 240.774 134.396 240.01 134.745C239.247 135.093 238.398 135.277 237.538 135.282L237.615 135.249ZM237.615 127.547C236.78 127.55 235.976 127.821 235.352 128.305C234.729 128.79 234.331 129.457 234.233 130.182C234.155 130.766 234.281 131.356 234.588 131.879C234.896 132.401 235.375 132.832 235.963 133.117C236.552 133.403 237.223 133.528 237.894 133.48C238.564 133.431 239.202 133.21 239.73 132.844C240.256 132.479 240.646 131.984 240.851 131.425C241.058 130.866 241.068 130.265 240.884 129.7C240.699 129.135 240.325 128.63 239.813 128.25C239.299 127.87 238.669 127.631 238.002 127.564L237.615 127.547Z" fill="#181828"/>
<path d="M253.907 135.13H253.288C251.9 134.944 250.652 134.296 249.799 133.323C248.947 132.348 248.558 131.126 248.717 129.908C248.873 128.688 249.563 127.572 250.644 126.788C251.722 126.005 253.106 125.618 254.506 125.706C255.213 125.775 255.898 125.966 256.52 126.266C257.143 126.567 257.692 126.972 258.136 127.459C258.579 127.945 258.907 128.503 259.105 129.1C259.302 129.698 259.36 130.323 259.28 130.941C259.124 132.093 258.492 133.154 257.502 133.926C256.512 134.698 255.233 135.127 253.907 135.13ZM253.907 127.428C253.249 127.428 252.606 127.596 252.055 127.908C251.504 128.221 251.067 128.666 250.8 129.19C250.532 129.715 250.445 130.295 250.545 130.862C250.648 131.43 250.936 131.96 251.374 132.387C251.813 132.815 252.385 133.12 253.019 133.271C253.653 133.421 254.324 133.407 254.951 133.23C255.575 133.054 256.13 132.723 256.543 132.279C256.959 131.833 257.218 131.293 257.289 130.722C257.386 129.942 257.131 129.16 256.574 128.543C256.296 128.237 255.952 127.982 255.559 127.793C255.169 127.606 254.738 127.487 254.293 127.445H253.907V127.428Z" fill="#181828"/>
<path d="M270.185 135.012C269.986 135.029 269.785 135.029 269.585 135.012C268.882 134.954 268.198 134.775 267.575 134.487C266.951 134.196 266.398 133.801 265.951 133.323C265.505 132.835 265.17 132.276 264.971 131.676C264.774 131.077 264.712 130.448 264.792 129.827C264.857 129.212 265.062 128.616 265.395 128.07C265.727 127.525 266.178 127.043 266.725 126.651C267.85 125.874 269.28 125.516 270.707 125.655C272.133 125.798 273.438 126.43 274.337 127.411C275.234 128.391 275.653 129.643 275.5 130.891C275.348 132.127 274.656 133.264 273.567 134.066C272.595 134.708 271.402 135.041 270.185 135.012ZM270.185 127.31C269.352 127.31 268.545 127.579 267.925 128.065C267.304 128.552 266.912 129.22 266.821 129.945C266.728 130.725 266.991 131.506 267.552 132.119C268.112 132.732 268.926 133.129 269.817 133.222C270.26 133.265 270.707 133.233 271.136 133.127C271.563 133.019 271.963 132.84 272.311 132.597C272.833 132.23 273.219 131.735 273.422 131.176C273.625 130.617 273.633 130.019 273.448 129.457C273.262 128.893 272.889 128.391 272.379 128.011C271.866 127.633 271.238 127.395 270.571 127.327L270.185 127.31Z" fill="#181828"/>
<path d="M326.605 179.331C326.24 179.331 325.892 179.204 325.635 178.98C325.376 178.755 325.233 178.449 325.233 178.132C325.233 177.814 325.376 177.509 325.635 177.284C325.892 177.059 326.24 176.933 326.605 176.933L430.988 176.122C431.347 176.122 431.693 176.247 431.95 176.468C432.207 176.69 432.354 176.99 432.36 177.304C432.36 177.624 432.215 177.931 431.958 178.159C431.701 178.387 431.353 178.517 430.988 178.52L326.605 179.331Z" fill="#181828"/>
<path d="M273.687 222.38C273.501 222.378 273.323 222.303 273.191 222.173C273.059 222.042 272.982 221.866 272.977 221.68C272.975 221.587 272.992 221.495 273.027 221.409C273.062 221.323 273.113 221.245 273.178 221.179C273.243 221.113 273.321 221.06 273.406 221.024C273.492 220.989 273.584 220.97 273.677 220.97L312.187 220.49C312.286 220.478 312.387 220.488 312.483 220.518C312.579 220.548 312.667 220.598 312.742 220.664C312.817 220.731 312.877 220.813 312.918 220.904C312.959 220.996 312.981 221.095 312.981 221.195C312.981 221.295 312.959 221.395 312.918 221.486C312.877 221.578 312.817 221.659 312.742 221.726C312.667 221.793 312.579 221.843 312.483 221.873C312.387 221.903 312.286 221.912 312.187 221.9L273.677 222.38H273.687Z" fill="#181828"/>
<path d="M326.605 195.528C326.24 195.528 325.892 195.402 325.635 195.177C325.376 194.952 325.233 194.647 325.233 194.329C325.233 194.012 325.376 193.706 325.635 193.481C325.892 193.257 326.24 193.13 326.605 193.13L367.411 192.319C367.771 192.323 368.117 192.448 368.376 192.669C368.635 192.888 368.787 193.186 368.803 193.501C368.807 193.659 368.776 193.814 368.712 193.961C368.648 194.106 368.55 194.24 368.426 194.353C368.302 194.466 368.153 194.557 367.989 194.62C367.825 194.682 367.647 194.716 367.469 194.718L326.663 195.528H326.605Z" fill="#181828"/>
<path d="M326.605 209.327C326.24 209.327 325.892 209.2 325.635 208.976C325.376 208.751 325.233 208.447 325.233 208.128C325.233 207.81 325.376 207.505 325.635 207.28C325.892 207.055 326.24 206.929 326.605 206.929L430.988 206.118C431.347 206.118 431.693 206.243 431.95 206.464C432.207 206.686 432.354 206.986 432.36 207.3C432.36 207.62 432.215 207.927 431.958 208.155C431.701 208.383 431.353 208.513 430.988 208.516L326.605 209.327Z" fill="#181828"/>
<path d="M326.605 217.417C326.246 217.414 325.902 217.287 325.646 217.068C325.391 216.846 325.242 216.549 325.233 216.235C325.229 216.078 325.262 215.922 325.329 215.777C325.397 215.632 325.496 215.5 325.621 215.389C325.747 215.277 325.898 215.188 326.062 215.127C326.228 215.068 326.406 215.036 326.586 215.036L401.026 214.225C401.217 214.205 401.412 214.222 401.598 214.272C401.784 214.323 401.954 214.407 402.099 214.519C402.244 214.632 402.36 214.771 402.439 214.924C402.518 215.08 402.561 215.247 402.561 215.416C402.561 215.585 402.518 215.754 402.439 215.907C402.36 216.063 402.244 216.199 402.099 216.313C401.954 216.426 401.784 216.51 401.598 216.561C401.412 216.612 401.217 216.627 401.026 216.607L326.586 217.417H326.605Z" fill="#181828"/>
<path d="M326.605 225.524C326.24 225.524 325.892 225.398 325.635 225.173C325.376 224.948 325.233 224.643 325.233 224.325C325.233 224.008 325.376 223.702 325.635 223.477C325.892 223.253 326.24 223.126 326.605 223.126L367.411 222.315C367.771 222.319 368.117 222.444 368.376 222.665C368.635 222.884 368.787 223.182 368.803 223.497C368.807 223.655 368.776 223.81 368.712 223.957C368.648 224.102 368.55 224.236 368.426 224.349C368.302 224.462 368.153 224.553 367.989 224.616C367.825 224.678 367.647 224.712 367.469 224.714L326.663 225.524H326.605Z" fill="#181828"/>
<path d="M314.566 185.479V171.004C314.57 170.061 314.363 169.127 313.955 168.254C313.547 167.383 312.946 166.589 312.187 165.918C311.427 165.25 310.524 164.716 309.531 164.351C308.535 163.986 307.468 163.797 306.39 163.792L248.747 163.691C246.567 163.682 244.47 164.429 242.919 165.768C241.369 167.107 240.489 168.93 240.474 170.835L240.339 231.757C240.327 233.662 241.183 235.493 242.716 236.849C244.249 238.204 246.335 238.972 248.515 238.986L306.158 239.087C308.338 239.095 310.433 238.349 311.984 237.01C313.536 235.67 314.415 233.848 314.431 231.943V219.123" fill="#5FFD9F"/>
<g clip-path="url(#clip0_1021:1145)">
<path d="M289.365 215.379H262.276C262.276 213.296 263.959 211.651 266.09 211.651H285.495C287.626 211.651 289.365 213.296 289.365 215.379Z" fill="white" stroke="white" stroke-miterlimit="10"/>
<path d="M287.626 213.515H263.062V224.752H287.626V213.515Z" fill="#8F312C"/>
<path d="M286.617 226.945V229.083C283.252 230.782 279.326 231.769 275.176 231.769C271.138 231.769 267.268 230.837 264.015 229.247V227C264.015 224.259 265.249 221.847 267.268 220.038C269.287 218.229 272.147 217.078 275.344 217.078C278.372 217.078 281.12 218.119 283.196 219.819C283.252 219.874 283.308 219.928 283.364 219.983C285.327 221.737 286.617 224.204 286.617 226.945Z" fill="#AF3F3F"/>
<path d="M252.406 211.651C255.999 211.651 258.911 208.804 258.911 205.292C258.911 201.78 255.999 198.933 252.406 198.933C248.813 198.933 245.9 201.78 245.9 205.292C245.9 208.804 248.813 211.651 252.406 211.651Z" fill="#F3998A"/>
<path d="M298.394 211.651C301.987 211.651 304.9 208.804 304.9 205.292C304.9 201.78 301.987 198.933 298.394 198.933C294.801 198.933 291.888 201.78 291.888 205.292C291.888 208.804 294.801 211.651 298.394 211.651Z" fill="#F3998A"/>
<path d="M291.664 183.968C287.514 179.912 281.737 177.39 275.4 177.39C262.725 177.39 252.406 187.477 252.406 199.865V210.774C252.406 219.216 257.173 226.561 264.239 230.399C267.548 232.208 271.362 233.249 275.4 233.249C279.55 233.249 283.476 232.153 286.841 230.289C293.739 226.397 298.394 219.106 298.394 210.774V199.865C298.394 193.671 295.814 188.025 291.664 183.968ZM275.288 223.053C272.259 223.053 269.511 221.957 267.492 220.093C265.81 218.613 264.632 216.694 264.071 214.502C263.734 213.131 264.8 211.761 266.258 211.761H284.373C285.831 211.761 286.897 213.131 286.56 214.502C286 216.585 284.934 218.448 283.364 219.874C281.233 221.847 278.428 223.053 275.288 223.053Z" fill="#F7B3A2"/>
<path d="M263.959 201.948C262.837 201.948 261.94 201.071 261.94 199.975V198.001C261.94 196.905 262.837 196.028 263.959 196.028C265.08 196.028 265.978 196.905 265.978 198.001V199.975C265.978 201.071 265.08 201.948 263.959 201.948Z" fill="white" stroke="white" stroke-miterlimit="10"/>
<path d="M286.561 201.948C285.439 201.948 284.542 201.071 284.542 199.975V198.001C284.542 196.905 285.439 196.028 286.561 196.028C287.682 196.028 288.58 196.905 288.58 198.001V199.975C288.636 201.071 287.682 201.948 286.561 201.948Z" fill="white" stroke="white" stroke-miterlimit="10"/>
<path d="M291.608 204.689H281.513V198.111C281.513 195.37 283.756 193.178 286.56 193.178C289.365 193.178 291.608 195.37 291.608 198.111V204.689Z" fill="white"/>
<path d="M269.006 204.689H258.911V198.111C258.911 195.37 261.155 193.178 263.959 193.178C266.763 193.178 269.006 195.37 269.006 198.111V204.689Z" fill="white"/>
<path d="M263.959 207.978C267.707 207.978 270.745 207.07 270.745 205.95C270.745 204.83 267.707 203.922 263.959 203.922C260.211 203.922 257.173 204.83 257.173 205.95C257.173 207.07 260.211 207.978 263.959 207.978Z" fill="#F7B3A2"/>
<path d="M286.561 207.978C290.308 207.978 293.347 207.07 293.347 205.95C293.347 204.83 290.308 203.922 286.561 203.922C282.813 203.922 279.774 204.83 279.774 205.95C279.774 207.07 282.813 207.978 286.561 207.978Z" fill="#F7B3A2"/>
<path d="M265.024 203.264H264.015C263.454 203.264 263.005 202.825 263.005 202.277V198.111C263.005 197.563 263.454 197.124 264.015 197.124H265.024C265.585 197.124 266.034 197.563 266.034 198.111V202.277C266.09 202.825 265.585 203.264 265.024 203.264Z" fill="#4C4B4B"/>
<path d="M286.504 203.045H285.495C284.934 203.045 284.485 202.606 284.485 202.058V197.892C284.485 197.344 284.934 196.905 285.495 196.905H286.504C287.065 196.905 287.514 197.344 287.514 197.892V202.058C287.57 202.606 287.121 203.045 286.504 203.045Z" fill="#4C4B4B"/>
<path d="M276.858 199.207V200.742C276.858 201.565 276.185 202.277 275.288 202.277C274.447 202.277 273.718 201.619 273.718 200.742V199.207C273.718 198.385 274.391 197.673 275.288 197.673C276.129 197.673 276.858 198.385 276.858 199.207Z" fill="#EA9587"/>
<path d="M276.858 200.742H273.718V202.935H276.858V200.742Z" fill="#EA9587"/>
<path d="M280.391 204.58C280.391 205.84 279.326 206.882 278.036 206.882H272.708C271.418 206.882 270.352 205.84 270.352 204.58C270.352 203.319 271.418 202.277 272.708 202.277H278.036C279.326 202.277 280.391 203.264 280.391 204.58Z" fill="#EA9587"/>
<path d="M284.149 189.943C290.189 189.943 295.085 185.158 295.085 179.254C295.085 173.35 290.189 168.565 284.149 168.565C278.109 168.565 273.213 173.35 273.213 179.254C273.213 185.158 278.109 189.943 284.149 189.943Z" fill="#4C4B4B"/>
<path d="M266.258 189.943C272.298 189.943 277.195 185.158 277.195 179.254C277.195 173.35 272.298 168.565 266.258 168.565C260.218 168.565 255.322 173.35 255.322 179.254C255.322 185.158 260.218 189.943 266.258 189.943Z" fill="#4C4B4B"/>
<path d="M296.207 192.903C300.172 192.903 303.386 189.762 303.386 185.887C303.386 182.012 300.172 178.87 296.207 178.87C292.242 178.87 289.028 182.012 289.028 185.887C289.028 189.762 292.242 192.903 296.207 192.903Z" fill="#4C4B4B"/>
<path d="M256.836 192.903C260.801 192.903 264.015 189.762 264.015 185.887C264.015 182.012 260.801 178.87 256.836 178.87C252.871 178.87 249.657 182.012 249.657 185.887C249.657 189.762 252.871 192.903 256.836 192.903Z" fill="#4C4B4B"/>
<path d="M298.618 199.975C301.778 199.975 304.339 197.472 304.339 194.384C304.339 191.296 301.778 188.792 298.618 188.792C295.459 188.792 292.898 191.296 292.898 194.384C292.898 197.472 295.459 199.975 298.618 199.975Z" fill="#4C4B4B"/>
<path d="M251.901 199.975C255.06 199.975 257.621 197.472 257.621 194.384C257.621 191.296 255.06 188.792 251.901 188.792C248.742 188.792 246.18 191.296 246.18 194.384C246.18 197.472 248.742 199.975 251.901 199.975Z" fill="#4C4B4B"/>
<path d="M274.895 178.432C278.054 178.432 280.616 175.928 280.616 172.84C280.616 169.752 278.054 167.249 274.895 167.249C271.736 167.249 269.175 169.752 269.175 172.84C269.175 175.928 271.736 178.432 274.895 178.432Z" fill="#4C4B4B"/>
</g>
<path d="M305.541 239.256L247.841 239.138C246.558 239.14 245.286 238.918 244.101 238.486C242.916 238.055 241.841 237.42 240.94 236.621C240.047 235.831 239.342 234.895 238.864 233.867C238.387 232.836 238.147 231.735 238.157 230.626L238.292 169.687C238.292 167.447 239.311 165.299 241.122 163.716C242.935 162.132 245.394 161.242 247.957 161.242L305.619 161.343C308.182 161.343 310.641 162.233 312.452 163.818C314.265 165.4 315.284 167.549 315.284 169.788V184.263L315.168 230.778C315.168 231.897 314.913 233.005 314.418 234.037C313.923 235.069 313.2 236.005 312.288 236.79C311.404 237.569 310.353 238.187 309.195 238.609C308.037 239.033 306.796 239.253 305.541 239.256ZM247.957 163.792C246.175 163.797 244.468 164.416 243.206 165.512C241.944 166.61 241.226 168.098 241.211 169.653L241.095 230.693C241.085 231.468 241.25 232.238 241.582 232.956C241.915 233.676 242.407 234.329 243.032 234.882C243.656 235.432 244.398 235.87 245.218 236.169C246.036 236.468 246.915 236.621 247.802 236.621L305.503 236.723C307.293 236.731 309.013 236.125 310.297 235.034C310.917 234.488 311.408 233.84 311.741 233.127C312.071 232.412 312.237 231.649 312.23 230.879L312.384 169.856C312.378 168.292 311.667 166.794 310.403 165.687C309.141 164.579 307.428 163.953 305.638 163.944L247.957 163.792Z" fill="#181828"/>
<defs>
<clipPath id="clip0_1021:1145">
<rect width="59" height="66" fill="white" transform="translate(245.9 167.249)"/>
</clipPath>
</defs>
</svg>
